<?xml version="1.0" standalone="no"?>
<!DOCTYPE svg PUBLIC "-//W3C//DTD SVG 1.1//EN" "http://www.w3.org/Graphics/SVG/1.1/DTD/svg11.dtd" >
<svg xmlns="http://www.w3.org/2000/svg" xmlns:xlink="http://www.w3.org/1999/xlink" version="1.1">
<metadata>
Created by FontForge 20170731 at Fri Jul  1 11:02:02 2022
 By Aleksey,,,
Copyright (c) 2016 by Rene' Bieder. All rights reserved.
</metadata>
<defs>
<font id="Campton-ThinItalic" horiz-adv-x="1228" >
  <font-face 
    font-family="Campton Thin"
    font-weight="200"
    font-style="italic"
    font-stretch="normal"
    units-per-em="2048"
    panose-1="2 11 0 4 2 1 2 2 2 3"
    ascent="1577"
    descent="-471"
    x-height="922"
    cap-height="1393"
    bbox="-764 -471 3023 1944"
    underline-thickness="102"
    underline-position="-307"
    slope="-10"
    unicode-range="U+0020-FB02"
  />
<missing-glyph horiz-adv-x="1781" 
d="M205 1393h1372v-1393h-1372v1393zM1434 264v985h-985zM348 1120v-977h977z" />
    <glyph glyph-name="fi" unicode="fi" horiz-adv-x="1193" 
d="M1069 922l-162 -922h-43l154 881h-608l-156 -881h-43l154 881h-281l8 41h281l45 258q23 135 115.5 217t218.5 82q66 0 161 -25l-18 -37q-89 21 -152 21q-107 0 -184.5 -72.5t-97.5 -189.5l-45 -254h653z" />
    <glyph glyph-name="fl" unicode="fl" horiz-adv-x="1191" 
d="M1120 1454h43l-258 -1454h-43l156 881h-608l-156 -881h-43l154 881h-281l8 41h281l45 258q23 135 115.5 217t218.5 82q66 0 161 -25l-18 -37q-89 21 -152 21q-107 0 -184.5 -72.5t-97.5 -189.5l-45 -254h610z" />
    <glyph glyph-name=".notdef" horiz-adv-x="1781" 
d="M205 1393h1372v-1393h-1372v1393zM1434 264v985h-985zM348 1120v-977h977z" />
    <glyph glyph-name=".null" horiz-adv-x="0" 
 />
    <glyph glyph-name="nonmarkingreturn" horiz-adv-x="682" 
 />
    <glyph glyph-name="space" unicode=" " horiz-adv-x="573" 
 />
    <glyph glyph-name="exclam" unicode="!" horiz-adv-x="503" 
d="M438 1393l-188 -1065h-45l188 1065h45zM176 -16q-20 0 -33.5 13.5t-13.5 33.5t13.5 33.5t33.5 13.5t33.5 -13.5t13.5 -33.5t-13.5 -33.5t-33.5 -13.5z" />
    <glyph glyph-name="quotedbl" unicode="&#x22;" horiz-adv-x="624" 
d="M293 1393h43l-94 -531h-43zM588 1393h43l-94 -531h-43z" />
    <glyph glyph-name="numbersign" unicode="#" horiz-adv-x="1454" 
d="M1161 905l-200 -409h282l-4 -33h-295l-225 -463h-43l225 463h-520l-225 -463h-43l225 463h-236l4 33h248l201 409h-262l4 33h274l224 457h43l-224 -457h521l223 457h43l-223 -457h256l-4 -33h-269zM1118 905h-520l-201 -409h521z" />
    <glyph glyph-name="dollar" unicode="$" horiz-adv-x="1337" 
d="M821 1417q219 -1 340.5 -103t118.5 -263h-45q-3 151 -116 238t-312 87q-215 0 -344 -98.5t-129 -247.5q0 -106 73.5 -171.5t225.5 -94.5l198 -39q185 -36 264 -117t79 -219q0 -185 -149 -299.5t-404 -114.5q-38 0 -54 2l-47 -266h-43l47 269q-204 22 -308.5 137
t-98.5 317h45q-3 -205 115.5 -311.5t351.5 -106.5t366 100.5t133 262.5q0 122 -69.5 198t-245.5 109l-205 39q-319 60 -319 303q0 162 134.5 271t354.5 118l49 281h43z" />
    <glyph glyph-name="percent" unicode="%" horiz-adv-x="2304" 
d="M723 1423q135 0 220 -89.5t85 -227.5q0 -119 -61 -220t-162 -158.5t-215 -57.5q-137 0 -222 89.5t-85 227.5q0 119 61.5 220t163 158.5t215.5 57.5zM1647 1393l-910 -1393h-49l909 1393h50zM598 715q153 0 270 113t117 270q0 122 -75.5 202t-194.5 80q-74 0 -145 -30.5
t-125 -81.5t-86.5 -122.5t-32.5 -150.5q0 -121 76.5 -200.5t195.5 -79.5zM1796 723q135 0 221 -89.5t86 -227.5q0 -119 -61 -220.5t-162.5 -159t-216.5 -57.5q-135 0 -220 90t-85 228q0 119 61 220t162 158.5t215 57.5zM1671 14q75 0 146 30t124.5 81t86 122.5t32.5 149.5
q0 123 -75.5 203t-194.5 80q-101 0 -190.5 -51t-144 -140t-54.5 -194q0 -121 75.5 -201t194.5 -80z" />
    <glyph glyph-name="ampersand" unicode="&#x26;" horiz-adv-x="1507" 
d="M1096 258v-2l258 -256h-66l-225 225q-122 -125 -251.5 -186.5t-279.5 -61.5q-187 0 -295 91t-108 237q0 72 25 138t66 116t95.5 91.5t111 69t114.5 44.5q-61 77 -90 141.5t-29 132.5q0 164 122.5 274.5t305.5 110.5q151 0 237 -85.5t74 -245.5h-41q6 142 -69.5 216
t-206.5 74q-161 0 -269 -98t-108 -244q0 -27 6 -54.5t12 -50t25 -53t30 -49.5t42 -55l46.5 -54t58 -61.5t61 -62t71.5 -70.5l248 -247l326 350h47zM543 18q139 0 257 57.5t236 176.5l-250 250q-143 143 -219 231q-173 -54 -283 -161t-110 -259q0 -133 98.5 -214t270.5 -81z
" />
    <glyph glyph-name="quotesingle" unicode="'" horiz-adv-x="329" 
d="M293 1393h43l-94 -531h-43z" />
    <glyph glyph-name="parenleft" unicode="(" horiz-adv-x="729" 
d="M731 1446q-215 -151 -341.5 -348.5t-172.5 -470.5q-50 -248 8.5 -462.5t216.5 -361.5l-30 -30q-167 145 -229 376t-11 484q94 551 541 848z" />
    <glyph glyph-name="parenright" unicode=")" horiz-adv-x="729" 
d="M375 1481q167 -145 228.5 -376t10.5 -484q-94 -552 -540 -848l-19 34q215 151 341.5 349t172.5 471q50 248 -8.5 461.5t-216.5 361.5z" />
    <glyph glyph-name="asterisk" unicode="*" horiz-adv-x="808" 
d="M553 1130l276 70l9 -35l-275 -71l187 -187l-27 -26l-186 186l-72 -272l-35 8l72 276l-275 -71l-10 34l272 72l-180 180l27 27l182 -182l72 276l35 -10z" />
    <glyph glyph-name="plus" unicode="+" horiz-adv-x="1398" 
d="M1182 625h-430l-76 -432h-47l76 432h-431l9 43h430l75 432h48l-76 -432h430z" />
    <glyph glyph-name="comma" unicode="," horiz-adv-x="362" 
d="M-37 -328l164 318q-37 6 -37 41q0 20 13.5 33.5t33.5 13.5t33.5 -13.5t13.5 -33.5t-34 -84l-150 -275h-37z" />
    <glyph glyph-name="hyphen" unicode="-" horiz-adv-x="1134" 
d="M262 555h643l8 39h-643z" />
    <glyph glyph-name="period" unicode="." horiz-adv-x="299" 
d="M74 -16q-20 0 -33.5 13.5t-13.5 33.5t13.5 33.5t33.5 13.5t33.5 -13.5t13.5 -33.5t-13.5 -33.5t-33.5 -13.5z" />
    <glyph glyph-name="slash" unicode="/" horiz-adv-x="819" 
d="M877 1495l-889 -1823h-45l888 1823h46z" />
    <glyph glyph-name="zero" unicode="0" horiz-adv-x="1462" 
d="M901 1417q225 0 347 -149.5t122 -407.5q0 -252 -90 -453t-256.5 -316.5t-380.5 -115.5q-225 0 -347 149.5t-122 407.5q0 252 90 453t256.5 316.5t380.5 115.5zM651 16q198 0 352 110t237 300.5t83 427.5q0 242 -111.5 382t-318.5 140q-198 0 -352 -109.5t-237 -300
t-83 -427.5q0 -242 111.5 -382.5t318.5 -140.5z" />
    <glyph glyph-name="one" unicode="1" horiz-adv-x="1015" 
d="M481 41h389l-8 -41h-862l8 41h430l228 1298l-426 -157l8 47l450 164h21z" />
    <glyph glyph-name="two" unicode="2" horiz-adv-x="1140" 
d="M649 463l-512 -422h811l-8 -41h-897l6 27l567 465q78 64 118 97.5t95 82.5t80.5 79t57.5 72t45 77t22.5 77.5t9.5 89.5q0 140 -92.5 224.5t-251.5 84.5q-169 0 -299 -88.5t-174 -236.5h-43q42 166 186 266t335 100q179 0 283 -94t104 -250q0 -57 -9 -104.5t-34 -95.5
t-54.5 -88t-85.5 -95t-112 -103t-148 -124z" />
    <glyph glyph-name="three" unicode="3" horiz-adv-x="1204" 
d="M795 707q106 -32 165.5 -110.5t59.5 -186.5q0 -192 -148 -313.5t-380 -121.5q-203 0 -322.5 91.5t-106.5 240.5h46q-8 -131 97.5 -211t285.5 -80q210 0 346.5 108t136.5 279q0 128 -89.5 205.5t-242.5 77.5h-121l6 41h121q176 0 292 106t116 269q0 127 -89 200.5
t-247 73.5t-274 -74.5t-156 -201.5h-47q41 146 170 231.5t309 85.5q179 0 279 -82.5t100 -226.5t-84 -251.5t-223 -149.5z" />
    <glyph glyph-name="four" unicode="4" horiz-adv-x="1323" 
d="M1163 373l-8 -41h-254l-59 -332h-43l59 332h-780l6 26l633 1035h47l-621 -1020h721l86 487h43l-86 -487h256z" />
    <glyph glyph-name="five" unicode="5" horiz-adv-x="1187" 
d="M1167 1352h-770l-129 -527h420q189 0 296.5 -93.5t107.5 -250.5q0 -139 -70.5 -254.5t-197.5 -183.5t-285 -68q-217 0 -340.5 102.5t-126.5 284.5h47q5 -163 117.5 -254.5t308.5 -91.5q215 0 358.5 134.5t143.5 324.5q0 141 -98 225t-271 84l-463 -2l150 611h809z" />
    <glyph glyph-name="six" unicode="6" horiz-adv-x="1294" 
d="M725 911q189 0 304.5 -107t115.5 -284q0 -157 -80 -283t-213.5 -194t-292.5 -68q-189 0 -303.5 107t-114.5 285q0 109 41 198.5t119 175.5l610 652h64l-512 -539q128 57 262 57zM567 16q143 0 264 62t194 176.5t73 257.5q0 161 -104.5 259.5t-274.5 98.5
q-215 0 -363 -129l-24 -26q-144 -144 -144 -342q0 -162 104 -259.5t275 -97.5z" />
    <glyph glyph-name="seven" unicode="7" horiz-adv-x="1026" 
d="M219 1393h934l-4 -29l-948 -1364h-58l944 1352h-874z" />
    <glyph glyph-name="eight" unicode="8" horiz-adv-x="1306" 
d="M856 735q135 -29 211 -110.5t76 -196.5q0 -198 -164 -325.5t-414 -127.5q-201 0 -317.5 92.5t-116.5 249.5q0 160 113 272t301 148q-108 30 -169 100.5t-61 172.5q0 113 69 207t185 147t252 53q169 0 274 -87t105 -224q0 -142 -94 -239t-250 -132zM358 1014
q0 -124 94.5 -193t249.5 -69q126 0 228 40.5t163.5 121t61.5 186.5q0 123 -93.5 200.5t-246.5 77.5q-188 0 -322.5 -106t-134.5 -258zM571 16q228 0 376.5 114.5t148.5 293.5q0 133 -108.5 214t-291.5 81q-227 0 -373.5 -109.5t-146.5 -285.5q0 -141 106.5 -224.5
t288.5 -83.5z" />
    <glyph glyph-name="nine" unicode="9" horiz-adv-x="1294" 
d="M817 1417q189 0 303.5 -106.5t114.5 -284.5q0 -109 -41 -199t-119 -176l-610 -651h-64l512 539q-130 -58 -262 -58q-189 0 -304.5 107t-115.5 284q0 157 80 283t213.5 194t292.5 68zM1044 678q144 144 144 342q0 162 -104 259t-275 97q-143 0 -264 -62t-193.5 -176
t-72.5 -257q0 -161 104 -260t274 -99q215 0 363 129z" />
    <glyph glyph-name="colon" unicode=":" horiz-adv-x="303" 
d="M229 848q-20 0 -33.5 13.5t-13.5 33.5t13.5 33.5t33.5 13.5t33.5 -13.5t13.5 -33.5t-13.5 -33.5t-33.5 -13.5zM74 -16q-20 0 -33.5 13.5t-13.5 33.5t13.5 33.5t33.5 13.5t33.5 -13.5t13.5 -33.5t-13.5 -33.5t-33.5 -13.5z" />
    <glyph glyph-name="semicolon" unicode=";" horiz-adv-x="362" 
d="M274 848q-20 0 -33.5 13.5t-13.5 33.5t13.5 33.5t33.5 13.5t34 -13.5t14 -33.5t-14 -33.5t-34 -13.5zM-37 -328l164 318q-37 6 -37 41q0 20 13.5 33.5t33.5 13.5t33.5 -13.5t13.5 -33.5t-34 -84l-150 -275h-37z" />
    <glyph glyph-name="less" unicode="&#x3c;" horiz-adv-x="1112" 
d="M74 590l8 47l940 430l-8 -51l-887 -408l743 -401l-8 -47z" />
    <glyph glyph-name="equal" unicode="=" horiz-adv-x="1480" 
d="M1309 889l-6 -43h-988l7 43h987zM1241 500l-8 -43h-987l8 43h987z" />
    <glyph glyph-name="greater" unicode="&#x3e;" horiz-adv-x="1112" 
d="M1081 637l-8 -47l-940 -430l8 51l887 407l-743 402l8 47z" />
    <glyph glyph-name="question" unicode="?" 
d="M745 1423q170 0 272.5 -102t102.5 -256q0 -128 -69 -238.5t-191 -176.5t-268 -66l-41 -234h-41l41 275h47q130 0 240.5 60t173.5 159.5t63 212.5q0 138 -93 231.5t-245 93.5q-127 0 -243 -75.5t-166 -196.5h-45q56 142 186 227.5t276 85.5zM473 78q20 0 33.5 -13.5
t13.5 -33.5t-13.5 -33.5t-33.5 -13.5t-33.5 13.5t-13.5 33.5t13.5 33.5t33.5 13.5z" />
    <glyph glyph-name="at" unicode="@" horiz-adv-x="1937" 
d="M1110 1280q148 0 278.5 -53t222 -144t144.5 -216t53 -265q0 -134 -45 -249.5t-136 -190t-210 -74.5q-157 0 -174 148q-149 -162 -346 -162q-142 0 -233 90t-91 235q0 95 38.5 179.5t102.5 142.5t147 91.5t171 33.5q182 0 275 -137l18 98h43l-74 -418q-23 -127 5 -193.5
t124 -66.5q98 0 176 63t120 168.5t42 231.5q0 176 -85 324t-236 234.5t-336 86.5q-169 0 -335.5 -68.5t-295 -183t-208 -276.5t-79.5 -336q0 -137 50 -258t136 -207.5t207 -136.5t259 -50q139 0 277.5 48t258.5 135l23 -37q-264 -189 -566 -189q-147 0 -276 52t-221 142.5
t-144.5 217.5t-52.5 272q0 188 83.5 360t219 293t312 193t358.5 72zM907 115q189 0 334 164q0 45 10 110l47 264q-89 152 -268 152q-166 0 -289 -113.5t-123 -285.5q0 -130 81 -210.5t208 -80.5z" />
    <glyph glyph-name="A" unicode="A" horiz-adv-x="1517" 
d="M1305 0l-146 500h-786l-322 -500h-53l899 1393h47l408 -1393h-47zM399 541h748l-234 796z" />
    <glyph glyph-name="B" unicode="B" horiz-adv-x="1452" 
d="M967 723q152 -28 229.5 -101.5t77.5 -189.5q0 -191 -166.5 -311.5t-425.5 -120.5h-528l245 1393h529q177 0 280 -79.5t103 -211.5q0 -141 -88 -239.5t-256 -139.5zM436 1352l-106 -615h422q233 0 371.5 97t138.5 262q0 116 -91.5 186t-248.5 70h-486zM690 41
q233 0 384 107t151 278q0 130 -108.5 200t-311.5 70h-483l-115 -655h483z" />
    <glyph glyph-name="C" unicode="C" horiz-adv-x="1654" 
d="M1026 1374q-185 0 -357 -90t-290.5 -246t-151.5 -342q-24 -139 7 -264.5t105 -216t190 -144t255 -53.5q226 0 408.5 116t265.5 304h49q-89 -207 -287 -335t-442 -128q-197 0 -346.5 96t-216.5 262t-33 363q35 197 161.5 363t310 262t380.5 96q244 0 396 -128t167 -335
h-49q-15 189 -155.5 304.5t-366.5 115.5z" />
    <glyph glyph-name="D" unicode="D" horiz-adv-x="1556" 
d="M846 1393q285 0 450.5 -155.5t165.5 -414.5q0 -235 -112 -423.5t-309 -294t-441 -105.5h-446l245 1393h447zM608 41q171 0 320.5 58.5t257 160t169.5 246.5t62 311q0 241 -156 388t-421 147h-404l-229 -1311h401z" />
    <glyph glyph-name="E" unicode="E" horiz-adv-x="1366" 
d="M1317 1352h-881l-110 -635h798l-8 -41h-799l-110 -635h880l-8 -41h-925l245 1393h926z" />
    <glyph glyph-name="F" unicode="F" horiz-adv-x="1304" 
d="M1296 1352h-860l-117 -666h779l-6 -41h-779l-114 -645h-45l245 1393h906z" />
    <glyph glyph-name="G" unicode="G" horiz-adv-x="1691" 
d="M1028 1374q-186 0 -358 -90t-291 -246.5t-152 -341.5q-33 -186 27.5 -341.5t198.5 -246t323 -90.5q133 0 253.5 49t212 135t157 202.5t94.5 250.5h-608l6 41h655v-6l-123 -690h-45l74 412q-104 -200 -283 -318.5t-399 -118.5q-197 0 -344.5 96t-213 261.5t-30.5 363.5
q35 197 162 363t311 262t381 96q232 0 389 -129.5t172 -333.5h-45q-15 185 -162 302.5t-362 117.5z" />
    <glyph glyph-name="H" unicode="H" horiz-adv-x="1554" 
d="M1438 1393h45l-246 -1393h-45l119 678h-994l-118 -678h-45l245 1393h45l-118 -676h993z" />
    <glyph glyph-name="I" unicode="I" horiz-adv-x="516" 
d="M444 1393l-245 -1393h-45l245 1393h45z" />
    <glyph glyph-name="J" unicode="J" horiz-adv-x="1267" 
d="M1206 1393l-162 -910q-41 -236 -192.5 -372t-364.5 -136q-187 0 -292.5 101.5t-110.5 275.5h45q6 -157 100.5 -246.5t268.5 -89.5q191 0 327 125t174 342l162 910h45z" />
    <glyph glyph-name="K" unicode="K" horiz-adv-x="1468" 
d="M1436 1393l-764 -650l604 -743h-62l-579 711l-365 -310l-71 -401h-45l245 1393h45l-163 -926l1091 926h64z" />
    <glyph glyph-name="L" unicode="L" horiz-adv-x="1222" 
d="M207 41h819l-8 -41h-864l245 1393h45z" />
    <glyph glyph-name="M" unicode="M" horiz-adv-x="1740" 
d="M1669 1393l-246 -1393h-45l234 1311l-742 -983h-49l-393 985l-229 -1313h-45l245 1393h50l403 -1016l766 1016h51z" />
    <glyph glyph-name="N" unicode="N" horiz-adv-x="1601" 
d="M1485 1393h45l-246 -1393h-53l-797 1333l-235 -1333h-45l245 1393h52l798 -1334z" />
    <glyph glyph-name="O" unicode="O" horiz-adv-x="1744" 
d="M1040 1417q176 0 316 -81t217.5 -221.5t77.5 -313.5q0 -164 -73 -317.5t-192.5 -264.5t-277.5 -177.5t-322 -66.5q-176 0 -316 81.5t-217 222t-77 313.5q0 164 73 317.5t192 264t277 177t322 66.5zM793 18q123 0 244.5 40t223 112.5t179.5 168t122 214t44 242.5
q0 121 -42.5 228t-117 184t-181.5 122t-231 45q-123 0 -244.5 -39.5t-223 -112.5t-179.5 -168t-122 -213.5t-44 -242.5q0 -162 72 -294t203.5 -209t296.5 -77z" />
    <glyph glyph-name="P" unicode="P" horiz-adv-x="1368" 
d="M846 1393q207 0 327.5 -102t120.5 -271q0 -223 -171 -365.5t-433 -142.5h-401l-90 -512h-45l245 1393h447zM698 553q238 0 394.5 130t156.5 331q0 153 -110.5 245.5t-298.5 92.5h-404l-139 -799h401z" />
    <glyph glyph-name="Q" unicode="Q" horiz-adv-x="1744" 
d="M1651 801q0 -239 -145 -442t-371 -306l301 -381l-37 -32l-309 393q-150 -58 -304 -58q-176 0 -316 81.5t-217 222t-77 313.5q0 164 73 317.5t192 264t277 177t322 66.5q176 0 316 -81t217.5 -221.5t77.5 -313.5zM221 598q0 -162 72 -294t203.5 -209t296.5 -77
q123 0 244.5 40t223 112.5t179.5 168t122 214t44 242.5q0 121 -42.5 228t-117 184t-181.5 122t-231 45q-123 0 -244.5 -39.5t-223 -112.5t-179.5 -168t-122 -213.5t-44 -242.5z" />
    <glyph glyph-name="R" unicode="R" horiz-adv-x="1423" 
d="M1317 1038q0 -208 -149 -338t-392 -145l402 -555h-60l-397 553h-4h-420l-98 -553h-45l245 1393h467q210 0 330.5 -94t120.5 -261zM725 594q158 0 281.5 52t194.5 152.5t71 233.5q0 150 -111 235t-303 85h-422l-133 -758h422z" />
    <glyph glyph-name="S" unicode="S" horiz-adv-x="1337" 
d="M813 1417q223 0 346.5 -101.5t120.5 -264.5h-45q-3 151 -116 238t-312 87q-215 0 -344 -98.5t-129 -247.5q0 -106 73.5 -171.5t225.5 -94.5l198 -39q185 -36 264 -117t79 -219q0 -185 -149 -299.5t-404 -114.5q-251 0 -381 116.5t-123 342.5h45q-3 -205 115.5 -311.5
t351.5 -106.5t366 100.5t133 262.5q0 122 -69.5 198t-245.5 109l-205 39q-319 60 -319 303q0 168 145 278.5t379 110.5z" />
    <glyph glyph-name="T" unicode="T" horiz-adv-x="1273" 
d="M1376 1393l-8 -41h-553l-237 -1352h-46l238 1352h-553l8 41h1151z" />
    <glyph glyph-name="U" unicode="U" horiz-adv-x="1579" 
d="M1518 1393l-146 -828q-29 -166 -122.5 -300t-237.5 -212t-312 -78t-285 77.5t-164 212t-18 300.5l146 828h45l-145 -828q-27 -154 14.5 -278.5t148 -197.5t260.5 -73q233 0 408 157t217 392l146 828h45z" />
    <glyph glyph-name="V" unicode="V" horiz-adv-x="1476" 
d="M1522 1393h53l-901 -1403h-47l-406 1403h49l389 -1344z" />
    <glyph glyph-name="W" unicode="W" horiz-adv-x="2076" 
d="M2126 1393h49l-737 -1403h-43l-207 1337l-682 -1337h-43l-242 1403h45l228 -1336l682 1336h45l206 -1334z" />
    <glyph glyph-name="X" unicode="X" horiz-adv-x="1335" 
d="M1407 1393l-668 -699l447 -694h-56l-423 659l-658 -659h-65l696 694l-420 699h57l396 -664l626 664h68z" />
    <glyph glyph-name="Y" unicode="Y" horiz-adv-x="1310" 
d="M1425 1393l-745 -867l-92 -526h-45l92 526l-438 867h51l414 -820l708 820h55z" />
    <glyph glyph-name="Z" unicode="Z" horiz-adv-x="1341" 
d="M1339 1393l-6 -35l-1190 -1317h959l-8 -41h-1024l6 35l1196 1317h-944l8 41h1003z" />
    <glyph glyph-name="bracketleft" unicode="[" horiz-adv-x="698" 
d="M453 1454l-289 -1638h268l-6 -41h-311l303 1720h311l-8 -41h-268z" />
    <glyph glyph-name="backslash" unicode="\" horiz-adv-x="819" 
d="M102 1495h45l570 -1823h-45z" />
    <glyph glyph-name="bracketright" unicode="]" horiz-adv-x="698" 
d="M307 -184l289 1638h-268l6 41h311l-303 -1720h-311l8 41h268z" />
    <glyph glyph-name="asciicircum" unicode="^" horiz-adv-x="765" 
d="M549 1393l196 -471h-45l-180 430l-332 -430h-45l365 471h41z" />
    <glyph glyph-name="underscore" unicode="_" horiz-adv-x="1390" 
d="M-33 -362l8 38h1164l-9 -38h-1163z" />
    <glyph glyph-name="grave" unicode="`" 
d="M506 1446l178 -279h-49l-180 279h51z" />
    <glyph glyph-name="a" unicode="a" horiz-adv-x="1280" 
d="M1114 922h43l-164 -922h-43l27 154q-179 -179 -420 -179q-182 0 -298 118t-116 296q0 111 49.5 214.5t130.5 178t188 119.5t218 45q240 0 356 -180zM563 16q121 0 231 54t195 153l84 473q-50 100 -140 154.5t-210 54.5q-101 0 -199 -41.5t-171.5 -110t-119 -163
t-45.5 -195.5q0 -163 105.5 -271t269.5 -108z" />
    <glyph glyph-name="b" unicode="b" horiz-adv-x="1269" 
d="M711 946q180 0 295.5 -118t115.5 -296q0 -111 -49 -214.5t-129.5 -178t-187.5 -119.5t-219 -45q-237 0 -357 181l-26 -156h-43l256 1454h43l-121 -686q178 178 422 178zM545 16q135 0 258 69t198.5 187.5t75.5 253.5q0 163 -105.5 271t-269.5 108q-121 0 -230 -53
t-196 -152l-83 -475q52 -100 141.5 -154.5t210.5 -54.5z" />
    <glyph glyph-name="c" unicode="c" horiz-adv-x="1185" 
d="M705 905q-190 0 -333 -128t-177 -316q-33 -188 64.5 -316.5t287.5 -128.5q138 0 247.5 68.5t159.5 185.5h47q-56 -135 -180.5 -215t-281.5 -80q-138 0 -236 65t-137 175.5t-16 245.5q37 206 195.5 345.5t367.5 139.5q156 0 251.5 -79.5t104.5 -215.5h-47
q-9 117 -94 185.5t-223 68.5z" />
    <glyph glyph-name="d" unicode="d" horiz-adv-x="1282" 
d="M1210 1454h43l-258 -1454h-43l29 156q-184 -181 -422 -181q-181 0 -297.5 118.5t-116.5 297.5q0 111 49.5 214t130.5 177.5t188 119t218 44.5q241 0 359 -178zM565 16q120 0 230.5 54.5t197.5 154.5l84 473q-52 99 -142 153t-210 54q-135 0 -258.5 -68.5t-200 -187
t-76.5 -252.5q0 -161 106 -271t269 -110z" />
    <glyph glyph-name="e" unicode="e" horiz-adv-x="1220" 
d="M1065 444h-872q-28 -183 72 -305.5t284 -122.5q120 0 224.5 53.5t154.5 139.5h49q-58 -107 -178.5 -170.5t-257.5 -63.5q-138 0 -236.5 65t-138 175.5t-16.5 245.5q36 203 195 344t362 141q197 0 296 -138.5t62 -363.5zM705 905q-177 0 -320 -119t-184 -301h825
q21 186 -62.5 303t-258.5 117z" />
    <glyph glyph-name="f" unicode="f" horiz-adv-x="733" 
d="M743 1438q-107 0 -184.5 -72.5t-97.5 -189.5l-45 -254h383l-8 -41h-381l-156 -881h-43l154 881h-281l8 41h281l45 258q23 135 115.5 217t218.5 82q66 0 161 -25l-18 -37q-89 21 -152 21z" />
    <glyph glyph-name="g" unicode="g" horiz-adv-x="1282" 
d="M1114 922h43l-166 -945q-35 -203 -178.5 -325.5t-347.5 -122.5q-165 0 -269.5 82.5t-113.5 216.5h47q9 -116 102 -187t240 -71q186 0 315.5 111t161.5 296l31 179q-88 -86 -203.5 -133.5t-238.5 -47.5q-177 0 -285.5 116t-108.5 292q0 150 77.5 280t208 206.5t280.5 76.5
q123 0 221.5 -47t156.5 -135zM543 16q124 0 242.5 55t205.5 154l86 482q-55 96 -153.5 147t-221.5 51q-137 0 -256 -70.5t-188.5 -189.5t-69.5 -256q0 -161 97.5 -267t257.5 -106z" />
    <glyph glyph-name="h" unicode="h" horiz-adv-x="1173" 
d="M721 946q170 0 257 -103t54 -286l-98 -557h-43l98 557q30 165 -46.5 256.5t-227.5 91.5q-127 0 -245.5 -54t-193.5 -149l-122 -702h-43l256 1454h43l-121 -682q79 83 193 128.5t239 45.5z" />
    <glyph glyph-name="i" unicode="i" horiz-adv-x="505" 
d="M399 1241q-20 0 -33.5 13.5t-13.5 33.5t13.5 33.5t33.5 13.5t33.5 -13.5t13.5 -33.5t-13.5 -33.5t-33.5 -13.5zM311 922h43l-161 -922h-43z" />
    <glyph glyph-name="j" unicode="j" horiz-adv-x="522" 
d="M416 1241q-20 0 -33.5 13.5t-13.5 33.5t13.5 33.5t33.5 13.5t33.5 -13.5t13.5 -33.5t-13.5 -33.5t-33.5 -13.5zM383 922l-184 -1053q-32 -185 -110 -262.5t-230 -77.5l6 41q129 0 196 69t95 230l184 1053h43z" />
    <glyph glyph-name="k" unicode="k" horiz-adv-x="1142" 
d="M1030 922l-508 -390l447 -532h-58l-424 506l-266 -203l-53 -303h-43l256 1454h43l-193 -1089l734 557h65z" />
    <glyph glyph-name="l" unicode="l" horiz-adv-x="452" 
d="M381 1454h43l-258 -1454h-43z" />
    <glyph glyph-name="m" unicode="m" horiz-adv-x="1839" 
d="M1389 946q173 0 257.5 -101t51.5 -288l-99 -557h-43l99 557q30 168 -45 258t-226 90q-119 0 -222.5 -57t-176.5 -164q0 -71 -10 -127l-98 -557h-43l98 557q30 171 -37 259.5t-213 88.5q-114 0 -223 -52t-183 -146l-124 -707h-43l163 922h43l-26 -146q75 82 177 126
t216 44q127 0 201.5 -54.5t95.5 -156.5q74 99 179 155t231 56z" />
    <glyph glyph-name="n" unicode="n" horiz-adv-x="1171" 
d="M719 946q170 0 257 -103t54 -286l-98 -557h-43l98 557q30 165 -46.5 256.5t-227.5 91.5q-125 0 -243.5 -53t-193.5 -147l-124 -705h-43l163 922h43l-26 -148q79 82 192.5 127t237.5 45z" />
    <glyph glyph-name="o" unicode="o" horiz-adv-x="1288" 
d="M729 946q180 0 296 -119t116 -297q0 -147 -83.5 -276.5t-218 -204t-282.5 -74.5q-182 0 -298 118t-116 296q0 111 49.5 214.5t130.5 178t188 119.5t218 45zM563 16q100 0 197.5 41t171 109t119 162.5t45.5 195.5q0 162 -105.5 271.5t-267.5 109.5q-101 0 -199 -41.5
t-171.5 -110t-119 -163t-45.5 -195.5q0 -163 105.5 -271t269.5 -108z" />
    <glyph glyph-name="p" unicode="p" horiz-adv-x="1269" 
d="M709 946q181 0 297 -118.5t116 -297.5q0 -111 -49.5 -214t-130 -177.5t-187.5 -119t-218 -44.5q-242 0 -357 179l-106 -600h-43l241 1368h43l-26 -156q180 180 420 180zM543 16q135 0 258.5 68.5t199.5 187t76 252.5q0 161 -106 271t-269 110q-121 0 -231 -54.5
t-195 -154.5l-83 -473q50 -99 140 -153t210 -54z" />
    <glyph glyph-name="q" unicode="q" horiz-adv-x="1280" 
d="M1114 922h43l-242 -1366h-43l107 598q-182 -179 -422 -179q-182 0 -298 118t-116 296q0 111 49.5 214.5t130.5 178t188 119.5t218 45q239 0 358 -180zM563 16q246 0 428 207l84 473q-52 100 -142 154.5t-210 54.5q-101 0 -199 -41.5t-171.5 -110t-119 -163t-45.5 -195.5
q0 -163 105.5 -271t269.5 -108z" />
    <glyph glyph-name="r" unicode="r" horiz-adv-x="671" 
d="M279 711q80 109 195 172t235 63l-7 -41q-122 0 -241.5 -76.5t-198.5 -207.5l-110 -621h-43l163 922h43z" />
    <glyph glyph-name="s" unicode="s" horiz-adv-x="1116" 
d="M162 258q9 -115 98 -178.5t250 -63.5q165 0 263.5 65t98.5 179q0 147 -180 178l-213 35q-120 21 -178.5 67.5t-58.5 133.5q0 125 110 198.5t281 73.5q170 0 267 -73.5t85 -198.5h-41q6 113 -73.5 172t-237.5 59q-160 0 -254 -59.5t-94 -163.5q0 -69 47.5 -108.5
t154.5 -59.5l195 -33q50 -9 86 -21t72.5 -35.5t55.5 -63.5t19 -95q0 -136 -112.5 -213.5t-292.5 -77.5q-178 0 -281.5 75.5t-111.5 207.5h45z" />
    <glyph glyph-name="t" unicode="t" horiz-adv-x="845" 
d="M418 881l-101 -566q-23 -135 27.5 -217t157.5 -82q86 0 160 31l2 -47q-103 -25 -170 -25q-126 0 -187 93.5t-33 246.5l101 566h-287l6 41h287l61 348h43l-61 -348h356l-6 -41h-356z" />
    <glyph glyph-name="u" unicode="u" horiz-adv-x="1196" 
d="M1020 922h43l-162 -922h-43l27 147q-79 -82 -193 -127t-239 -45q-170 0 -257 103t-55 287l99 557h43l-99 -557q-29 -165 49 -257t228 -92q125 0 242.5 53.5t193.5 147.5z" />
    <glyph glyph-name="v" unicode="v" horiz-adv-x="1161" 
d="M1087 922h50l-615 -922h-51l-291 922h47l277 -871z" />
    <glyph glyph-name="w" unicode="w" horiz-adv-x="1570" 
d="M1499 922h47l-512 -922h-47l-137 850l-434 -850h-47l-189 922h45l174 -856l441 856h43l137 -861z" />
    <glyph glyph-name="x" unicode="x" horiz-adv-x="1060" 
d="M1051 922l-486 -463l324 -459h-53l-306 426l-458 -426h-62l496 461l-313 461h51l295 -428l450 428h62z" />
    <glyph glyph-name="y" unicode="y" horiz-adv-x="1210" 
d="M1130 922h56l-889 -1368h-55l250 385l-312 983h49l295 -932z" />
    <glyph glyph-name="z" unicode="z" horiz-adv-x="1001" 
d="M961 922l-7 -35l-845 -846h696l-8 -41h-756l6 35l844 846h-666l8 41h728z" />
    <glyph glyph-name="braceleft" unicode="{" horiz-adv-x="733" 
d="M455 963q-23 -137 -71.5 -214t-129.5 -106q72 -29 92.5 -106t-4.5 -213l-39 -224q-23 -135 27 -217t157 -82l-6 -41q-126 0 -186.5 93t-34.5 247l39 224q29 161 -13 230t-171 69l8 41q129 0 195 68.5t94 230.5l41 223q26 153 120 246.5t220 93.5l-9 -41
q-104 0 -185 -87.5t-103 -211.5z" />
    <glyph glyph-name="bar" unicode="|" horiz-adv-x="516" 
d="M418 1495h45l-322 -1823h-45z" />
    <glyph glyph-name="braceright" unicode="}" horiz-adv-x="733" 
d="M342 324q23 137 71 213.5t130 105.5q-72 29 -92.5 106.5t4.5 213.5l39 223q23 135 -27.5 217t-157.5 82l6 41q126 0 187 -93t35 -247l-39 -223q-29 -161 13 -230t171 -69l-8 -41q-129 0 -195 -68.5t-94 -230.5l-41 -224q-26 -153 -120 -246.5t-220 -93.5l8 41
q104 0 185.5 87.5t103.5 211.5z" />
    <glyph glyph-name="asciitilde" unicode="~" horiz-adv-x="966" 
d="M858 791q0 -63 -30 -104.5t-72.5 -54.5t-89 -7t-80.5 30l-148 105q-38 26 -86 27.5t-84.5 -31t-36.5 -94.5h-41q0 63 30 104t73.5 53.5t89.5 6.5t80 -29l147 -105q29 -19 64.5 -24t67.5 5t53.5 40.5t21.5 77.5h41z" />
    <glyph glyph-name="exclamdown" unicode="&#xa1;" horiz-adv-x="505" 
d="M332 954q20 0 33.5 -13.5t13.5 -33.5t-13.5 -33.5t-33.5 -13.5t-33.5 13.5t-13.5 33.5t13.5 33.5t33.5 13.5zM70 -455l188 1065h45l-188 -1065h-45z" />
    <glyph glyph-name="cent" unicode="&#xa2;" horiz-adv-x="1187" 
d="M705 905q-190 0 -333 -128t-177 -316q-33 -188 64.5 -316.5t287.5 -128.5q138 0 247.5 68.5t159.5 185.5h47q-56 -135 -180.5 -215t-281.5 -80h-7l-47 -264h-43l47 266q-187 19 -280 155t-59 329q36 193 177.5 328.5t334.5 154.5l49 283h43l-49 -281h8q156 0 251.5 -79.5
t104.5 -215.5h-47q-9 117 -94 185.5t-223 68.5z" />
    <glyph glyph-name="sterling" unicode="&#xa3;" horiz-adv-x="1320" 
d="M899 1423q190 0 293.5 -105.5t89.5 -283.5h-45q11 159 -82.5 253.5t-263.5 94.5q-186 0 -318.5 -112t-164.5 -297l-60 -338h557l-8 -41h-555l-98 -553h858l-8 -41h-1082l8 41h179l98 553h-180l8 41h178l59 338q35 202 183 326t354 124z" />
    <glyph glyph-name="yen" unicode="&#xa5;" horiz-adv-x="1310" 
d="M680 526l-8 -47h403l-8 -43h-403l-29 -172h401l-8 -43h-401l-39 -221h-45l39 221h-389l8 43h389l28 172h-387l9 43h387l8 47l-438 867h51l414 -820l708 820h55z" />
    <glyph glyph-name="brokenbar" unicode="&#xa6;" horiz-adv-x="518" 
d="M463 1495l-141 -807h-46l142 807h45zM285 479l-144 -807h-45l144 807h45z" />
    <glyph glyph-name="section" unicode="&#xa7;" horiz-adv-x="1103" 
d="M702 1413q162 0 254 -81t86 -226h-41q4 125 -77.5 195.5t-225.5 70.5q-156 0 -259 -77t-103 -210q0 -74 62 -129t202 -127l172 -88q109 -58 163 -117.5t54 -138.5q0 -62 -26 -113.5t-69 -86t-92.5 -56t-103.5 -30.5q115 -83 115 -191q0 -149 -115 -240.5t-295 -91.5
q-162 0 -255 82t-87 226h41q-4 -125 78 -196t226 -71q157 0 260.5 76t103.5 209q0 77 -54.5 128t-211.5 130l-172 88q-109 55 -163 115.5t-54 140.5q0 62 26 114.5t69.5 87t93.5 56.5t104 31q-117 81 -117 188q0 149 115.5 240.5t295.5 91.5zM745 709l-159 84
q-20 11 -121 63q-81 -3 -148 -30t-112 -84.5t-45 -135.5q0 -63 45 -116t153 -109l160 -82q10 -6 56 -29.5t69 -36.5q79 4 145.5 31.5t111 84t44.5 132.5q0 64 -46 118t-153 110z" />
    <glyph glyph-name="dieresis" unicode="&#xa8;" 
d="M485 1278q22 0 37 -14.5t15 -36.5t-15 -36.5t-37 -14.5t-36.5 14.5t-14.5 36.5t14.5 36.5t36.5 14.5zM825 1278q22 0 37 -14.5t15 -36.5t-15 -36.5t-37 -14.5t-36.5 14.5t-14.5 36.5t14.5 36.5t36.5 14.5z" />
    <glyph glyph-name="copyright" unicode="&#xa9;" horiz-adv-x="1798" 
d="M940 1423q201 0 372 -94t272.5 -262t101.5 -371t-101.5 -371t-272.5 -262t-372 -94q-150 0 -287 55.5t-238 151.5t-160.5 231.5t-59.5 288.5t59.5 288.5t160.5 231.5t238 151.5t287 55.5zM938 8q187 0 348.5 90t258.5 249t97 349t-97 349t-258.5 249t-348.5 90t-348 -90
t-257.5 -249t-96.5 -349t96.5 -349t257.5 -249t348 -90zM938 1063q-146 0 -250 -107.5t-104 -259.5t104 -259t250 -107q117 0 206.5 65t117.5 168h43q-31 -119 -133 -194.5t-234 -75.5q-162 0 -278.5 118t-116.5 285t116.5 285.5t278.5 118.5q131 0 233.5 -76t133.5 -195
h-43q-28 103 -118 168.5t-206 65.5z" />
    <glyph glyph-name="ordfeminine" unicode="&#xaa;" horiz-adv-x="724" 
d="M520 1405q117 0 182.5 -79.5t42.5 -205.5l-59 -340h-39l15 78q-125 -98 -265 -98q-98 0 -156.5 44.5t-58.5 119.5q0 85 68.5 140.5t202.5 55.5h254q20 110 -36.5 180t-156.5 70q-77 0 -134.5 -38.5t-80.5 -110.5h-43q25 88 97.5 136t166.5 48zM410 801q144 0 260 104
l30 178h-254q-114 0 -168.5 -43t-54.5 -110q0 -61 50 -95t137 -34z" />
    <glyph glyph-name="guillemotleft" unicode="&#xab;" horiz-adv-x="827" 
d="M393 811h53l-301 -299l197 -291h-51l-199 295zM680 811h53l-301 -299l197 -291h-51l-199 295z" />
    <glyph glyph-name="registered" unicode="&#xae;" horiz-adv-x="1110" 
d="M657 1423q122 0 226 -57t165.5 -158.5t61.5 -224.5t-61.5 -224.5t-165.5 -158.5t-226 -57t-225.5 57t-165 158.5t-61.5 224.5t61.5 224.5t165 158.5t225.5 57zM657 578q110 0 205 53t152 146.5t57 205.5t-57 206t-152.5 147t-204.5 53t-204 -53t-152 -147t-57 -206
t57 -205.5t152 -146.5t204 -53zM686 930h-2l180 -189h-47l-178 189h-113v-189h-34v490h194q70 0 119 -43t49 -109t-48.5 -107.5t-119.5 -41.5zM526 1198v-235h160q54 0 92.5 32.5t38.5 83.5q0 53 -38.5 86t-92.5 33h-160z" />
    <glyph glyph-name="macron" unicode="&#xaf;" 
d="M365 1245h565l-8 -37h-566z" />
    <glyph glyph-name="degree" unicode="&#xb0;" horiz-adv-x="1028" 
d="M627 1423q139 0 234 -93t95 -230q0 -135 -95 -228.5t-234 -93.5t-234.5 93.5t-95.5 228.5q0 137 95.5 230t234.5 93zM627 821q119 0 201.5 81t82.5 198q0 118 -82.5 200t-201.5 82t-202 -82t-83 -200q0 -117 83 -198t202 -81z" />
    <glyph glyph-name="plusminus" unicode="&#xb1;" horiz-adv-x="1398" 
d="M1196 709l-8 -43h-428l-66 -369h-47l66 369h-430l8 43h430l65 370h48l-66 -370h428zM193 156h905l-8 -43h-906z" />
    <glyph glyph-name="uni00B2" unicode="&#xb2;" horiz-adv-x="722" 
d="M487 903l-251 -203h421l-6 -38h-501l4 24l301 242q57 46 84 68t62.5 55.5t50 57t25.5 53.5t11 63q0 67 -46 109t-128 42q-87 0 -148 -45t-83 -121h-43q25 94 98.5 149.5t179.5 55.5q100 0 156.5 -51.5t56.5 -132.5q0 -44 -13 -80.5t-46 -76.5t-73.5 -76.5t-111.5 -94.5z
" />
    <glyph glyph-name="uni00B3" unicode="&#xb3;" horiz-adv-x="745" 
d="M584 1034q114 -39 114 -153q0 -102 -82.5 -167t-212.5 -65q-115 0 -181 49.5t-60 132.5h45q-3 -65 51 -104t148 -39q108 0 178.5 52.5t70.5 136.5q0 63 -48.5 101t-129.5 38h-67l8 37h67v-2v2q90 0 150.5 52.5t60.5 131.5q0 64 -47 101.5t-129 37.5q-84 0 -142.5 -38
t-80.5 -103h-43q25 83 97.5 131.5t174.5 48.5q98 0 154.5 -47t56.5 -125q0 -73 -41 -128.5t-112 -80.5z" />
    <glyph glyph-name="acute" unicode="&#xb4;" 
d="M842 1446h51l-229 -279h-50z" />
    <glyph glyph-name="paragraph" unicode="&#xb6;" horiz-adv-x="1595" 
d="M580 1393h671v-1721h-45v1680h-364v-1680h-45v840h-217q-133 0 -241.5 54.5t-172.5 155.5t-64 230t64 230.5t172.5 156t241.5 54.5zM797 1352h-217q-182 0 -306 -111.5t-124 -288.5t124 -288t306 -111h217v799z" />
    <glyph glyph-name="periodcentered" unicode="&#xb7;" horiz-adv-x="301" 
d="M162 481q-20 0 -33.5 13.5t-13.5 33.5t13.5 33.5t33.5 13.5t33.5 -13.5t13.5 -33.5t-13.5 -33.5t-33.5 -13.5z" />
    <glyph glyph-name="cedilla" unicode="&#xb8;" 
d="M557 -176l-149 -273h-48l148 273h49z" />
    <glyph glyph-name="uni00B9" unicode="&#xb9;" horiz-adv-x="589" 
d="M375 700h213l-8 -38h-488l8 38h232l114 650l-229 -78l6 41l254 86h23z" />
    <glyph glyph-name="ordmasculine" unicode="&#xba;" horiz-adv-x="796" 
d="M578 1405q120 0 198 -80.5t78 -198.5q0 -151 -119.5 -263.5t-271.5 -112.5q-120 0 -197.5 80t-77.5 200q0 100 55.5 187t145.5 137.5t189 50.5zM469 788q133 0 236.5 99t103.5 233q0 104 -67.5 175t-170.5 71q-134 0 -236 -99t-102 -233q0 -105 66 -175.5t170 -70.5z" />
    <glyph glyph-name="guillemotright" unicode="&#xbb;" horiz-adv-x="827" 
d="M168 221h-53l301 299l-197 291h51l199 -295zM455 221h-54l301 299l-196 291h51l199 -295z" />
    <glyph glyph-name="onequarter" unicode="&#xbc;" horiz-adv-x="1697" 
d="M580 659h-488l8 39h232l114 650l-229 -78l6 41l254 86h23l-125 -699h213zM1262 1393h49l-910 -1393h-49zM1552 211l-8 -41h-137l-29 -170h-41l29 170h-432l6 29l342 538h45l-330 -526h377l43 250h41l-43 -250h137z" />
    <glyph glyph-name="onehalf" unicode="&#xbd;" horiz-adv-x="1705" 
d="M580 659h-488l8 39h232l114 650l-229 -78l6 41l254 86h23l-125 -699h213zM1262 1393h49l-910 -1393h-49zM1354 242l-252 -203h422l-6 -39h-502l4 25l301 241q57 46 84 68t62.5 55.5t50 57t25.5 53.5t11 63q0 67 -46 109.5t-128 42.5q-87 0 -148 -45t-83 -121h-43
q25 94 98.5 149.5t179.5 55.5q100 0 156.5 -52t56.5 -133q0 -57 -27 -107.5t-74 -96.5t-142 -123z" />
    <glyph glyph-name="threequarters" unicode="&#xbe;" horiz-adv-x="1697" 
d="M698 887q0 -102 -82.5 -167t-212.5 -65q-114 0 -180.5 50t-60.5 133h45q-3 -65 51.5 -104.5t147.5 -39.5q108 0 178.5 52.5t70.5 136.5q0 63 -48.5 101t-129.5 38h-67l8 37h67v-2v2q90 0 150.5 52.5t60.5 131.5q0 64 -47 101.5t-129 37.5q-84 0 -142.5 -38t-80.5 -103
h-43q25 83 97.5 131.5t174.5 48.5q98 0 154.5 -47t56.5 -125q0 -73 -41 -128.5t-112 -80.5q114 -39 114 -153zM1266 1393h49l-909 -1393h-50zM1552 211l-8 -41h-137l-29 -170h-41l29 170h-432l6 29l342 538h45l-330 -526h377l43 250h41l-43 -250h137z" />
    <glyph glyph-name="questiondown" unicode="&#xbf;" 
d="M756 1030q-20 0 -33.5 13.5t-13.5 33.5t13.5 33.5t33.5 13.5t33.5 -13.5t13.5 -33.5t-13.5 -33.5t-33.5 -13.5zM483 -315q-170 0 -272 102t-102 256q0 128 69 238.5t191 176.5t268 66l41 234h41l-41 -275h-47q-130 0 -240.5 -60t-173.5 -159.5t-63 -212.5
q0 -138 93 -231.5t245 -93.5q127 0 243 75.5t166 196.5h45q-56 -142 -186.5 -227.5t-276.5 -85.5z" />
    <glyph glyph-name="Agrave" unicode="&#xc0;" horiz-adv-x="1517" 
d="M958 1556h-49l-180 279h51zM1305 0l-146 500h-786l-322 -500h-53l899 1393h47l408 -1393h-47zM399 541h748l-234 796z" />
    <glyph glyph-name="Aacute" unicode="&#xc1;" horiz-adv-x="1517" 
d="M1198 1835l-229 -279h-49l227 279h51zM1305 0l-146 500h-786l-322 -500h-53l899 1393h47l408 -1393h-47zM399 541h748l-234 796z" />
    <glyph glyph-name="Acircumflex" unicode="&#xc2;" horiz-adv-x="1517" 
d="M1006 1815l-285 -250h-64l314 278h73l207 -278h-53zM1305 0l-146 500h-786l-322 -500h-53l899 1393h47l408 -1393h-47zM399 541h748l-234 796z" />
    <glyph glyph-name="Atilde" unicode="&#xc3;" horiz-adv-x="1517" 
d="M891 1724q-40 30 -84.5 33.5t-75.5 -24t-31 -80.5h-38q0 54 26 89.5t64 45.5t81 2.5t78 -33.5l76 -53q71 -52 132 -31t61 103h39q0 -73 -40 -112.5t-98 -37t-112 42.5zM1305 0l-146 500h-786l-322 -500h-53l899 1393h47l408 -1393h-47zM399 541h748l-234 796z" />
    <glyph glyph-name="Adieresis" unicode="&#xc4;" horiz-adv-x="1517" 
d="M791 1606q-22 0 -37 14.5t-15 36.5t15 36.5t37 14.5t36.5 -14.5t14.5 -36.5t-14.5 -36.5t-36.5 -14.5zM1130 1606q-22 0 -36.5 14.5t-14.5 36.5t14.5 36.5t36.5 14.5t37 -14.5t15 -36.5t-15 -36.5t-37 -14.5zM1305 0l-146 500h-786l-322 -500h-53l899 1393h47l408 -1393
h-47zM399 541h748l-234 796z" />
    <glyph glyph-name="Aring" unicode="&#xc5;" horiz-adv-x="1517" 
d="M961 1591q-75 0 -127 50.5t-52 125.5t52 126t127 51t126.5 -51t51.5 -126t-51.5 -125.5t-126.5 -50.5zM961 1907q-58 0 -99 -41.5t-41 -98.5q0 -58 40.5 -98.5t99.5 -40.5t99 40t40 99q0 57 -40.5 98.5t-98.5 41.5zM1305 0l-146 500h-786l-322 -500h-53l899 1393h47
l408 -1393h-47zM399 541h748l-234 796z" />
    <glyph glyph-name="AE" unicode="&#xc6;" horiz-adv-x="2422" 
d="M2374 1352h-881l-111 -635h799l-8 -41h-799l-110 -635h880l-8 -41h-926l88 500h-718l-523 -500h-59l1450 1393h934zM623 541h684l139 788z" />
    <glyph glyph-name="Ccedilla" unicode="&#xc7;" horiz-adv-x="1654" 
d="M1026 1374q-185 0 -357 -90t-290.5 -246t-151.5 -342q-24 -139 7 -264.5t105 -216t190 -144t255 -53.5q226 0 408.5 116t265.5 304h49q-89 -207 -287 -335t-442 -128q-197 0 -346.5 96t-216.5 262t-33 363q35 197 161.5 363t310 262t380.5 96q244 0 396 -128t167 -335
h-49q-15 189 -155.5 304.5t-366.5 115.5zM535 -449l147 273h49l-149 -273h-47z" />
    <glyph glyph-name="Egrave" unicode="&#xc8;" horiz-adv-x="1366" 
d="M901 1556h-49l-180 279h51zM1317 1352h-881l-110 -635h798l-8 -41h-799l-110 -635h880l-8 -41h-925l245 1393h926z" />
    <glyph glyph-name="Eacute" unicode="&#xc9;" horiz-adv-x="1366" 
d="M1141 1835l-230 -279h-49l228 279h51zM1317 1352h-881l-110 -635h798l-8 -41h-799l-110 -635h880l-8 -41h-925l245 1393h926z" />
    <glyph glyph-name="Ecircumflex" unicode="&#xca;" horiz-adv-x="1366" 
d="M948 1815l-284 -250h-64l313 278h74l207 -278h-53zM1317 1352h-881l-110 -635h798l-8 -41h-799l-110 -635h880l-8 -41h-925l245 1393h926z" />
    <glyph glyph-name="Edieresis" unicode="&#xcb;" horiz-adv-x="1366" 
d="M733 1606q-22 0 -36.5 14.5t-14.5 36.5t14.5 36.5t36.5 14.5t36.5 -14.5t14.5 -36.5t-14.5 -36.5t-36.5 -14.5zM1073 1606q-22 0 -36.5 14.5t-14.5 36.5t14.5 36.5t36.5 14.5t36.5 -14.5t14.5 -36.5t-14.5 -36.5t-36.5 -14.5zM1317 1352h-881l-110 -635h798l-8 -41h-799
l-110 -635h880l-8 -41h-925l245 1393h926z" />
    <glyph glyph-name="Igrave" unicode="&#xcc;" horiz-adv-x="516" 
d="M283 1835l178 -279h-49l-181 279h52zM444 1393l-245 -1393h-45l245 1393h45z" />
    <glyph glyph-name="Iacute" unicode="&#xcd;" horiz-adv-x="516" 
d="M649 1835h51l-229 -279h-49zM444 1393l-245 -1393h-45l245 1393h45z" />
    <glyph glyph-name="Icircumflex" unicode="&#xce;" horiz-adv-x="516" 
d="M700 1565l-192 250l-285 -250h-63l313 278h74l207 -278h-54zM444 1393l-245 -1393h-45l245 1393h45z" />
    <glyph glyph-name="Idieresis" unicode="&#xcf;" horiz-adv-x="516" 
d="M293 1708q22 0 36.5 -14.5t14.5 -36.5t-14.5 -36.5t-36.5 -14.5t-36.5 14.5t-14.5 36.5t14.5 36.5t36.5 14.5zM633 1708q22 0 36.5 -14.5t14.5 -36.5t-14.5 -36.5t-36.5 -14.5t-36.5 14.5t-14.5 36.5t14.5 36.5t36.5 14.5zM444 1393l-245 -1393h-45l245 1393h45z" />
    <glyph glyph-name="Eth" unicode="&#xd0;" horiz-adv-x="1558" 
d="M846 1393q285 0 450.5 -155.5t165.5 -414.5q0 -235 -112 -423.5t-309 -294t-441 -105.5h-446l118 676h-196l8 41h197l118 676h447zM608 41q171 0 320.5 58.5t257 160t169.5 246.5t62 311q0 241 -156 388t-421 147h-404l-110 -635h407l-8 -41h-408l-110 -635h401z" />
    <glyph glyph-name="Ntilde" unicode="&#xd1;" horiz-adv-x="1601" 
d="M956 1724q-40 30 -84 33.5t-75 -24t-31 -80.5h-39q0 54 26 89.5t64.5 45.5t81.5 2.5t78 -33.5l76 -53q71 -52 131.5 -31t60.5 103h39q0 -73 -40 -112.5t-98 -37t-112 42.5zM1485 1393h45l-246 -1393h-53l-797 1333l-235 -1333h-45l245 1393h52l798 -1334z" />
    <glyph glyph-name="Ograve" unicode="&#xd2;" horiz-adv-x="1744" 
d="M913 1835l179 -279h-50l-180 279h51zM1040 1417q176 0 316 -81t217.5 -221.5t77.5 -313.5q0 -164 -73 -317.5t-192.5 -264.5t-277.5 -177.5t-322 -66.5q-176 0 -316 81.5t-217 222t-77 313.5q0 164 73 317.5t192 264t277 177t322 66.5zM793 18q123 0 244.5 40t223 112.5
t179.5 168t122 214t44 242.5q0 121 -42.5 228t-117 184t-181.5 122t-231 45q-123 0 -244.5 -39.5t-223 -112.5t-179.5 -168t-122 -213.5t-44 -242.5q0 -162 72 -294t203.5 -209t296.5 -77z" />
    <glyph glyph-name="Oacute" unicode="&#xd3;" horiz-adv-x="1744" 
d="M1280 1835h51l-229 -279h-49zM1040 1417q176 0 316 -81t217.5 -221.5t77.5 -313.5q0 -164 -73 -317.5t-192.5 -264.5t-277.5 -177.5t-322 -66.5q-176 0 -316 81.5t-217 222t-77 313.5q0 164 73 317.5t192 264t277 177t322 66.5zM793 18q123 0 244.5 40t223 112.5
t179.5 168t122 214t44 242.5q0 121 -42.5 228t-117 184t-181.5 122t-231 45q-123 0 -244.5 -39.5t-223 -112.5t-179.5 -168t-122 -213.5t-44 -242.5q0 -162 72 -294t203.5 -209t296.5 -77z" />
    <glyph glyph-name="Ocircumflex" unicode="&#xd4;" horiz-adv-x="1744" 
d="M1331 1565l-192 250l-285 -250h-63l313 278h74l206 -278h-53zM1040 1417q176 0 316 -81t217.5 -221.5t77.5 -313.5q0 -164 -73 -317.5t-192.5 -264.5t-277.5 -177.5t-322 -66.5q-176 0 -316 81.5t-217 222t-77 313.5q0 164 73 317.5t192 264t277 177t322 66.5zM793 18
q123 0 244.5 40t223 112.5t179.5 168t122 214t44 242.5q0 121 -42.5 228t-117 184t-181.5 122t-231 45q-123 0 -244.5 -39.5t-223 -112.5t-179.5 -168t-122 -213.5t-44 -242.5q0 -162 72 -294t203.5 -209t296.5 -77z" />
    <glyph glyph-name="Otilde" unicode="&#xd5;" horiz-adv-x="1744" 
d="M1352 1776q0 -73 -40 -112.5t-98 -37t-112 42.5l-78 55q-40 30 -84 33.5t-75 -24t-31 -80.5h-39q0 54 26 89.5t64 45.5t81 2.5t78 -33.5l76 -53q70 -52 131.5 -31t61.5 103h39zM1040 1417q176 0 316 -81t217.5 -221.5t77.5 -313.5q0 -164 -73 -317.5t-192.5 -264.5
t-277.5 -177.5t-322 -66.5q-176 0 -316 81.5t-217 222t-77 313.5q0 164 73 317.5t192 264t277 177t322 66.5zM793 18q123 0 244.5 40t223 112.5t179.5 168t122 214t44 242.5q0 121 -42.5 228t-117 184t-181.5 122t-231 45q-123 0 -244.5 -39.5t-223 -112.5t-179.5 -168
t-122 -213.5t-44 -242.5q0 -162 72 -294t203.5 -209t296.5 -77z" />
    <glyph glyph-name="Odieresis" unicode="&#xd6;" horiz-adv-x="1744" 
d="M954 1708q22 0 37 -14.5t15 -36.5t-15 -36.5t-37 -14.5t-36.5 14.5t-14.5 36.5t14.5 36.5t36.5 14.5zM1294 1708q22 0 37 -14.5t15 -36.5t-15 -36.5t-37 -14.5t-36.5 14.5t-14.5 36.5t14.5 36.5t36.5 14.5zM1040 1417q176 0 316 -81t217.5 -221.5t77.5 -313.5
q0 -164 -73 -317.5t-192.5 -264.5t-277.5 -177.5t-322 -66.5q-176 0 -316 81.5t-217 222t-77 313.5q0 164 73 317.5t192 264t277 177t322 66.5zM793 18q123 0 244.5 40t223 112.5t179.5 168t122 214t44 242.5q0 121 -42.5 228t-117 184t-181.5 122t-231 45
q-123 0 -244.5 -39.5t-223 -112.5t-179.5 -168t-122 -213.5t-44 -242.5q0 -162 72 -294t203.5 -209t296.5 -77z" />
    <glyph glyph-name="multiply" unicode="&#xd7;" horiz-adv-x="1331" 
d="M696 645l287 -348l-37 -31l-287 348l-409 -348l-33 37l410 348l-279 342l37 31l279 -342l409 348l33 -37z" />
    <glyph glyph-name="Oslash" unicode="&#xd8;" horiz-adv-x="1757" 
d="M1473 1247q178 -178 178 -446q0 -164 -73 -317.5t-192.5 -264.5t-277.5 -177.5t-322 -66.5q-257 0 -432 170l-157 -155l-31 28l160 158q-150 174 -150 416q0 164 73 317.5t192 264t277 177t322 66.5q237 0 402 -143l160 158l30 -29zM221 598q0 -228 139 -389l1049 1032
q-155 133 -375 133q-123 0 -244.5 -39.5t-223 -112.5t-179.5 -168t-122 -213.5t-44 -242.5zM793 18q123 0 244.5 40t223 112.5t179.5 168t122 214t44 242.5q0 123 -43.5 230.5t-122.5 186.5l-1051 -1034q163 -160 404 -160z" />
    <glyph glyph-name="Ugrave" unicode="&#xd9;" horiz-adv-x="1579" 
d="M788 1835l179 -279h-49l-181 279h51zM1518 1393l-146 -828q-29 -166 -122.5 -300t-237.5 -212t-312 -78t-285 77.5t-164 212t-18 300.5l146 828h45l-145 -828q-27 -154 14.5 -278.5t148 -197.5t260.5 -73q233 0 408 157t217 392l146 828h45z" />
    <glyph glyph-name="Uacute" unicode="&#xda;" horiz-adv-x="1579" 
d="M1155 1835h51l-229 -279h-49zM1518 1393l-146 -828q-29 -166 -122.5 -300t-237.5 -212t-312 -78t-285 77.5t-164 212t-18 300.5l146 828h45l-145 -828q-27 -154 14.5 -278.5t148 -197.5t260.5 -73q233 0 408 157t217 392l146 828h45z" />
    <glyph glyph-name="Ucircumflex" unicode="&#xdb;" horiz-adv-x="1579" 
d="M1206 1565l-192 250l-285 -250h-63l313 278h74l207 -278h-54zM1518 1393l-146 -828q-29 -166 -122.5 -300t-237.5 -212t-312 -78t-285 77.5t-164 212t-18 300.5l146 828h45l-145 -828q-27 -154 14.5 -278.5t148 -197.5t260.5 -73q233 0 408 157t217 392l146 828h45z" />
    <glyph glyph-name="Udieresis" unicode="&#xdc;" horiz-adv-x="1579" 
d="M799 1708q22 0 36.5 -14.5t14.5 -36.5t-14.5 -36.5t-36.5 -14.5t-36.5 14.5t-14.5 36.5t14.5 36.5t36.5 14.5zM1139 1708q22 0 36.5 -14.5t14.5 -36.5t-14.5 -36.5t-36.5 -14.5t-37 14.5t-15 36.5t15 36.5t37 14.5zM1518 1393l-146 -828q-29 -166 -122.5 -300
t-237.5 -212t-312 -78t-285 77.5t-164 212t-18 300.5l146 828h45l-145 -828q-27 -154 14.5 -278.5t148 -197.5t260.5 -73q233 0 408 157t217 392l146 828h45z" />
    <glyph glyph-name="Yacute" unicode="&#xdd;" horiz-adv-x="1310" 
d="M1049 1835l-230 -279h-49l227 279h52zM1425 1393l-745 -867l-92 -526h-45l92 526l-438 867h51l414 -820l708 820h55z" />
    <glyph glyph-name="Thorn" unicode="&#xde;" horiz-adv-x="1366" 
d="M803 1147q205 0 325.5 -102t120.5 -271q0 -223 -170 -365.5t-432 -142.5h-401l-47 -266h-45l245 1393h45l-43 -246h402zM653 307q238 0 394.5 130t156.5 331q0 153 -110.5 245.5t-298.5 92.5h-402l-141 -799h401z" />
    <glyph glyph-name="germandbls" unicode="&#xdf;" horiz-adv-x="1214" 
d="M815 717q147 -23 228 -108t81 -218q0 -177 -132 -290t-330 -113q-121 0 -240 35l8 43q113 -35 225 -35q189 0 306.5 100t117.5 258q0 145 -98.5 225t-257.5 80h-59l6 37q121 -4 220.5 48t153.5 137t54 180q0 117 -83.5 198.5t-242.5 81.5q-111 0 -203.5 -42t-158 -128.5
t-86.5 -208.5l-174 -997h-44l175 1001q33 193 168.5 304.5t324.5 111.5q173 0 272 -90.5t99 -228.5q0 -133 -89.5 -239t-240.5 -142z" />
    <glyph glyph-name="agrave" unicode="&#xe0;" horiz-adv-x="1280" 
d="M776 1126h-49l-180 279h51zM1114 922h43l-164 -922h-43l27 154q-179 -179 -420 -179q-182 0 -298 118t-116 296q0 111 49.5 214.5t130.5 178t188 119.5t218 45q240 0 356 -180zM563 16q121 0 231 54t195 153l84 473q-50 100 -140 154.5t-210 54.5q-101 0 -199 -41.5
t-171.5 -110t-119 -163t-45.5 -195.5q0 -163 105.5 -271t269.5 -108z" />
    <glyph glyph-name="aacute" unicode="&#xe1;" horiz-adv-x="1280" 
d="M1014 1403l-230 -279h-49l228 279h51zM1114 922h43l-164 -922h-43l27 154q-179 -179 -420 -179q-182 0 -298 118t-116 296q0 111 49.5 214.5t130.5 178t188 119.5t218 45q240 0 356 -180zM563 16q121 0 231 54t195 153l84 473q-50 100 -140 154.5t-210 54.5
q-101 0 -199 -41.5t-171.5 -110t-119 -163t-45.5 -195.5q0 -163 105.5 -271t269.5 -108z" />
    <glyph glyph-name="acircumflex" unicode="&#xe2;" horiz-adv-x="1280" 
d="M858 1364l-285 -250h-63l313 279h74l207 -279h-53zM1114 922h43l-164 -922h-43l27 154q-179 -179 -420 -179q-182 0 -298 118t-116 296q0 111 49.5 214.5t130.5 178t188 119.5t218 45q240 0 356 -180zM563 16q121 0 231 54t195 153l84 473q-50 100 -140 154.5t-210 54.5
q-101 0 -199 -41.5t-171.5 -110t-119 -163t-45.5 -195.5q0 -163 105.5 -271t269.5 -108z" />
    <glyph glyph-name="atilde" unicode="&#xe3;" horiz-adv-x="1280" 
d="M758 1294q-40 30 -84.5 33.5t-75.5 -24t-31 -80.5h-39q0 54 26 89.5t64.5 45.5t81.5 2.5t78 -33.5l76 -53q70 -52 131.5 -31t61.5 103h38q0 -73 -39.5 -112.5t-97.5 -37t-112 42.5zM1114 922h43l-164 -922h-43l27 154q-179 -179 -420 -179q-182 0 -298 118t-116 296
q0 111 49.5 214.5t130.5 178t188 119.5t218 45q240 0 356 -180zM563 16q121 0 231 54t195 153l84 473q-50 100 -140 154.5t-210 54.5q-101 0 -199 -41.5t-171.5 -110t-119 -163t-45.5 -195.5q0 -163 105.5 -271t269.5 -108z" />
    <glyph glyph-name="adieresis" unicode="&#xe4;" horiz-adv-x="1280" 
d="M608 1217q-22 0 -36.5 14.5t-14.5 36.5t14.5 36.5t36.5 14.5t36.5 -14.5t14.5 -36.5t-14.5 -36.5t-36.5 -14.5zM948 1217q-22 0 -36.5 14.5t-14.5 36.5t14.5 36.5t36.5 14.5t36.5 -14.5t14.5 -36.5t-14.5 -36.5t-36.5 -14.5zM1114 922h43l-164 -922h-43l27 154
q-179 -179 -420 -179q-182 0 -298 118t-116 296q0 111 49.5 214.5t130.5 178t188 119.5t218 45q240 0 356 -180zM563 16q121 0 231 54t195 153l84 473q-50 100 -140 154.5t-210 54.5q-101 0 -199 -41.5t-171.5 -110t-119 -163t-45.5 -195.5q0 -163 105.5 -271t269.5 -108z
" />
    <glyph glyph-name="aring" unicode="&#xe5;" horiz-adv-x="1280" 
d="M778 1120q-75 0 -126.5 50.5t-51.5 125.5t51.5 126t126.5 51t126.5 -51t51.5 -126t-51.5 -125.5t-126.5 -50.5zM778 1436q-58 0 -98.5 -41.5t-40.5 -98.5q0 -58 40.5 -98.5t98.5 -40.5q59 0 99.5 40.5t40.5 98.5q0 57 -41 98.5t-99 41.5zM1114 922h43l-164 -922h-43
l27 154q-179 -179 -420 -179q-182 0 -298 118t-116 296q0 111 49.5 214.5t130.5 178t188 119.5t218 45q240 0 356 -180zM563 16q121 0 231 54t195 153l84 473q-50 100 -140 154.5t-210 54.5q-101 0 -199 -41.5t-171.5 -110t-119 -163t-45.5 -195.5q0 -163 105.5 -271
t269.5 -108z" />
    <glyph glyph-name="ae" unicode="&#xe6;" horiz-adv-x="1984" 
d="M956 444q-28 -183 72.5 -305.5t284.5 -122.5q120 0 224.5 53.5t154.5 139.5h49q-58 -107 -178.5 -170.5t-257.5 -63.5q-132 0 -227.5 60t-139.5 162q-106 -107 -240.5 -167.5t-277.5 -60.5q-150 0 -238 66t-88 180q0 124 95.5 197t275.5 73h453l12 45q19 171 -54.5 267
t-240.5 96q-126 0 -218.5 -53.5t-129.5 -143.5h-49q45 109 152.5 173.5t252.5 64.5q156 0 240.5 -76.5t95.5 -214.5q75 137 206.5 220t284.5 83q197 0 296.5 -138.5t62.5 -363.5h-873zM1468 905q-166 0 -303 -106t-190 -273l-6 -41h821q21 186 -63 303t-259 117zM432 14
q135 0 263 58t229 166q-30 101 -13 206h-454q-157 0 -237.5 -59.5t-80.5 -161.5q0 -95 79.5 -152t213.5 -57z" />
    <glyph glyph-name="ccedilla" unicode="&#xe7;" horiz-adv-x="1185" 
d="M705 905q-190 0 -333 -128t-177 -316q-33 -188 64.5 -316.5t287.5 -128.5q138 0 247.5 68.5t159.5 185.5h47q-56 -135 -180.5 -215t-281.5 -80q-138 0 -236 65t-137 175.5t-16 245.5q37 206 195.5 345.5t367.5 139.5q156 0 251.5 -79.5t104.5 -215.5h-47
q-9 117 -94 185.5t-223 68.5zM299 -449l147 273h50l-150 -273h-47z" />
    <glyph glyph-name="egrave" unicode="&#xe8;" horiz-adv-x="1220" 
d="M750 1126h-50l-180 279h51zM1065 444h-872q-28 -183 72 -305.5t284 -122.5q120 0 224.5 53.5t154.5 139.5h49q-58 -107 -178.5 -170.5t-257.5 -63.5q-138 0 -236.5 65t-138 175.5t-16.5 245.5q36 203 195 344t362 141q197 0 296 -138.5t62 -363.5zM705 905
q-177 0 -320 -119t-184 -301h825q21 186 -62.5 303t-258.5 117z" />
    <glyph glyph-name="eacute" unicode="&#xe9;" horiz-adv-x="1220" 
d="M987 1403l-229 -279h-49l227 279h51zM1065 444h-872q-28 -183 72 -305.5t284 -122.5q120 0 224.5 53.5t154.5 139.5h49q-58 -107 -178.5 -170.5t-257.5 -63.5q-138 0 -236.5 65t-138 175.5t-16.5 245.5q36 203 195 344t362 141q197 0 296 -138.5t62 -363.5zM705 905
q-177 0 -320 -119t-184 -301h825q21 186 -62.5 303t-258.5 117z" />
    <glyph glyph-name="ecircumflex" unicode="&#xea;" horiz-adv-x="1220" 
d="M831 1364l-284 -250h-64l314 279h73l207 -279h-53zM707 946q197 0 296 -138.5t62 -363.5h-872q-28 -183 72 -305.5t284 -122.5q120 0 224.5 53.5t154.5 139.5h49q-58 -107 -178.5 -170.5t-257.5 -63.5q-138 0 -236.5 65t-138 175.5t-16.5 245.5q36 203 195 344t362 141z
M1026 485q21 186 -62.5 303t-258.5 117q-177 0 -320 -119t-184 -301h825z" />
    <glyph glyph-name="edieresis" unicode="&#xeb;" horiz-adv-x="1220" 
d="M582 1217q-22 0 -37 14.5t-15 36.5t15 36.5t37 14.5t36.5 -14.5t14.5 -36.5t-14.5 -36.5t-36.5 -14.5zM922 1217q-22 0 -37 14.5t-15 36.5t15 36.5t37 14.5t36.5 -14.5t14.5 -36.5t-14.5 -36.5t-36.5 -14.5zM1065 444h-872q-28 -183 72 -305.5t284 -122.5
q120 0 224.5 53.5t154.5 139.5h49q-58 -107 -178.5 -170.5t-257.5 -63.5q-138 0 -236.5 65t-138 175.5t-16.5 245.5q36 203 195 344t362 141q197 0 296 -138.5t62 -363.5zM705 905q-177 0 -320 -119t-184 -301h825q21 186 -62.5 303t-258.5 117z" />
    <glyph glyph-name="igrave" unicode="&#xec;" horiz-adv-x="452" 
d="M170 1405l178 -279h-49l-180 279h51zM287 922h43l-164 -922h-43z" />
    <glyph glyph-name="iacute" unicode="&#xed;" horiz-adv-x="452" 
d="M535 1403h51l-230 -279h-49zM287 922h43l-164 -922h-43z" />
    <glyph glyph-name="icircumflex" unicode="&#xee;" horiz-adv-x="452" 
d="M623 1114l-193 250l-285 -250h-63l313 279h74l207 -279h-53zM287 922h43l-164 -922h-43z" />
    <glyph glyph-name="idieresis" unicode="&#xef;" horiz-adv-x="452" 
d="M180 1319q22 0 36.5 -14.5t14.5 -36.5t-14.5 -36.5t-36.5 -14.5t-36.5 14.5t-14.5 36.5t14.5 36.5t36.5 14.5zM520 1319q22 0 36.5 -14.5t14.5 -36.5t-14.5 -36.5t-36.5 -14.5t-36.5 14.5t-14.5 36.5t14.5 36.5t36.5 14.5zM287 922h43l-164 -922h-43z" />
    <glyph glyph-name="eth" unicode="&#xf0;" horiz-adv-x="1284" 
d="M887 1262q122 -108 192 -279t70 -352q0 -120 -33 -225.5t-90 -183t-131.5 -134t-160 -85t-173.5 -28.5q-186 0 -302 117t-116 295q0 148 83.5 278.5t218 205.5t282.5 75q136 0 238 -66t145 -182q-11 170 -82.5 310t-181.5 239l-389 -137l-6 39l360 127q-115 87 -262 127
l61 20q144 -50 246 -131l158 56l6 -39zM563 16q97 0 194 42.5t173 114t123 172.5t47 210q0 154 -105 252t-278 98q-132 0 -254.5 -69t-198.5 -188t-76 -253q0 -162 106 -270.5t269 -108.5z" />
    <glyph glyph-name="ntilde" unicode="&#xf1;" horiz-adv-x="1171" 
d="M664 1294q-40 30 -84.5 33.5t-75.5 -24t-31 -80.5h-39q0 54 26 89.5t64.5 45.5t81.5 2.5t78 -33.5l76 -53q70 -52 131 -31t61 103h39q0 -73 -40 -112.5t-98 -37t-112 42.5zM719 946q170 0 257 -103t54 -286l-98 -557h-43l98 557q30 165 -46.5 256.5t-227.5 91.5
q-125 0 -243.5 -53t-193.5 -147l-124 -705h-43l163 922h43l-26 -148q79 82 192.5 127t237.5 45z" />
    <glyph glyph-name="ograve" unicode="&#xf2;" horiz-adv-x="1288" 
d="M586 1405l178 -279h-49l-180 279h51zM729 946q180 0 296 -119t116 -297q0 -147 -83.5 -276.5t-218 -204t-282.5 -74.5q-182 0 -298 118t-116 296q0 111 49.5 214.5t130.5 178t188 119.5t218 45zM563 16q100 0 197.5 41t171 109t119 162.5t45.5 195.5q0 162 -105.5 271.5
t-267.5 109.5q-101 0 -199 -41.5t-171.5 -110t-119 -163t-45.5 -195.5q0 -163 105.5 -271t269.5 -108z" />
    <glyph glyph-name="oacute" unicode="&#xf3;" horiz-adv-x="1288" 
d="M950 1403h51l-229 -279h-49zM729 946q180 0 296 -119t116 -297q0 -147 -83.5 -276.5t-218 -204t-282.5 -74.5q-182 0 -298 118t-116 296q0 111 49.5 214.5t130.5 178t188 119.5t218 45zM563 16q100 0 197.5 41t171 109t119 162.5t45.5 195.5q0 162 -105.5 271.5
t-267.5 109.5q-101 0 -199 -41.5t-171.5 -110t-119 -163t-45.5 -195.5q0 -163 105.5 -271t269.5 -108z" />
    <glyph glyph-name="ocircumflex" unicode="&#xf4;" horiz-adv-x="1288" 
d="M1038 1114l-192 250l-285 -250h-63l313 279h74l207 -279h-54zM729 946q180 0 296 -119t116 -297q0 -147 -83.5 -276.5t-218 -204t-282.5 -74.5q-182 0 -298 118t-116 296q0 111 49.5 214.5t130.5 178t188 119.5t218 45zM563 16q100 0 197.5 41t171 109t119 162.5
t45.5 195.5q0 162 -105.5 271.5t-267.5 109.5q-101 0 -199 -41.5t-171.5 -110t-119 -163t-45.5 -195.5q0 -163 105.5 -271t269.5 -108z" />
    <glyph glyph-name="otilde" unicode="&#xf5;" horiz-adv-x="1288" 
d="M1073 1346q0 -73 -40 -112.5t-98 -37t-112 42.5l-78 55q-40 30 -84 33.5t-75 -24t-31 -80.5h-39q0 54 26 89.5t64.5 45.5t81.5 2.5t78 -33.5l76 -53q70 -52 131 -31t61 103h39zM729 946q180 0 296 -119t116 -297q0 -147 -83.5 -276.5t-218 -204t-282.5 -74.5
q-182 0 -298 118t-116 296q0 111 49.5 214.5t130.5 178t188 119.5t218 45zM563 16q100 0 197.5 41t171 109t119 162.5t45.5 195.5q0 162 -105.5 271.5t-267.5 109.5q-101 0 -199 -41.5t-171.5 -110t-119 -163t-45.5 -195.5q0 -163 105.5 -271t269.5 -108z" />
    <glyph glyph-name="odieresis" unicode="&#xf6;" horiz-adv-x="1288" 
d="M616 1319q22 0 37 -14.5t15 -36.5t-15 -36.5t-37 -14.5t-36.5 14.5t-14.5 36.5t14.5 36.5t36.5 14.5zM956 1319q22 0 37 -14.5t15 -36.5t-15 -36.5t-37 -14.5t-36.5 14.5t-14.5 36.5t14.5 36.5t36.5 14.5zM729 946q180 0 296 -119t116 -297q0 -147 -83.5 -276.5
t-218 -204t-282.5 -74.5q-182 0 -298 118t-116 296q0 111 49.5 214.5t130.5 178t188 119.5t218 45zM563 16q100 0 197.5 41t171 109t119 162.5t45.5 195.5q0 162 -105.5 271.5t-267.5 109.5q-101 0 -199 -41.5t-171.5 -110t-119 -163t-45.5 -195.5q0 -163 105.5 -271
t269.5 -108z" />
    <glyph glyph-name="divide" unicode="&#xf7;" horiz-adv-x="1396" 
d="M793 969q-20 0 -34 13.5t-14 33.5t14 33.5t34 13.5t33.5 -13.5t13.5 -33.5t-13.5 -33.5t-33.5 -13.5zM274 625l9 43h905l-8 -43h-906zM664 227q-20 0 -34 13.5t-14 33.5t14 34t34 14t33.5 -14t13.5 -34t-13.5 -33.5t-33.5 -13.5z" />
    <glyph glyph-name="oslash" unicode="&#xf8;" horiz-adv-x="1288" 
d="M1020 834q121 -121 121 -304q0 -147 -83.5 -276.5t-218 -204t-282.5 -74.5q-174 0 -293 113l-121 -119l-26 29l121 119q-95 116 -95 272q0 111 49.5 214.5t130.5 178t188 119.5t218 45q151 0 260 -88l107 105l26 -29zM188 395q0 -139 82 -245l686 675q-96 80 -233 80
q-101 0 -199 -41.5t-171.5 -110t-119 -163t-45.5 -195.5zM563 16q100 0 197.5 41t171 109t119 162.5t45.5 195.5q0 165 -109 277l-690 -680q105 -105 266 -105z" />
    <glyph glyph-name="ugrave" unicode="&#xf9;" horiz-adv-x="1196" 
d="M696 1126h-49l-180 279h51zM1020 922h43l-162 -922h-43l27 147q-79 -82 -193 -127t-239 -45q-170 0 -257 103t-55 287l99 557h43l-99 -557q-29 -165 49 -257t228 -92q125 0 242.5 53.5t193.5 147.5z" />
    <glyph glyph-name="uacute" unicode="&#xfa;" horiz-adv-x="1196" 
d="M918 1403l-230 -279h-49l227 279h52zM1020 922h43l-162 -922h-43l27 147q-79 -82 -193 -127t-239 -45q-170 0 -257 103t-55 287l99 557h43l-99 -557q-29 -165 49 -257t228 -92q125 0 242.5 53.5t193.5 147.5z" />
    <glyph glyph-name="ucircumflex" unicode="&#xfb;" horiz-adv-x="1196" 
d="M707 1364l-285 -250h-64l314 279h73l207 -279h-53zM1020 922h43l-162 -922h-43l27 147q-79 -82 -193 -127t-239 -45q-170 0 -257 103t-55 287l99 557h43l-99 -557q-29 -165 49 -257t228 -92q125 0 242.5 53.5t193.5 147.5z" />
    <glyph glyph-name="udieresis" unicode="&#xfc;" horiz-adv-x="1198" 
d="M508 1217q-22 0 -36.5 14.5t-14.5 36.5t14.5 36.5t36.5 14.5t36.5 -14.5t14.5 -36.5t-14.5 -36.5t-36.5 -14.5zM848 1217q-22 0 -36.5 14.5t-14.5 36.5t14.5 36.5t36.5 14.5t36.5 -14.5t14.5 -36.5t-14.5 -36.5t-36.5 -14.5zM1020 922h43l-162 -922h-43l27 147
q-79 -82 -193 -127t-239 -45q-170 0 -257 103t-55 287l99 557h43l-99 -557q-29 -165 49 -257t228 -92q125 0 242.5 53.5t193.5 147.5z" />
    <glyph glyph-name="yacute" unicode="&#xfd;" horiz-adv-x="1210" 
d="M918 1403l-230 -279h-49l227 279h52zM1130 922h56l-889 -1368h-55l250 385l-312 983h49l295 -932z" />
    <glyph glyph-name="thorn" unicode="&#xfe;" horiz-adv-x="1271" 
d="M711 950q181 0 297 -120.5t116 -299.5q0 -111 -49.5 -215t-130 -179.5t-187.5 -121t-218 -45.5q-241 0 -359 187l-106 -602h-43l336 1900h43l-123 -690q186 186 424 186zM541 10q135 0 259.5 70t201.5 190t77 254q0 162 -106 273.5t-268 111.5q-121 0 -232 -56.5
t-199 -158.5l-81 -469q51 -102 139.5 -158.5t208.5 -56.5z" />
    <glyph glyph-name="ydieresis" unicode="&#xff;" horiz-adv-x="1210" 
d="M512 1217q-22 0 -36.5 14.5t-14.5 36.5t14.5 36.5t36.5 14.5t36.5 -14.5t14.5 -36.5t-14.5 -36.5t-36.5 -14.5zM852 1217q-22 0 -36.5 14.5t-14.5 36.5t14.5 36.5t36.5 14.5t36.5 -14.5t14.5 -36.5t-14.5 -36.5t-36.5 -14.5zM1130 922h56l-889 -1368h-55l250 385
l-312 983h49l295 -932z" />
    <glyph glyph-name="Amacron" unicode="&#x100;" horiz-adv-x="1517" 
d="M1235 1634l-8 -37h-565l8 37h565zM1305 0l-146 500h-786l-322 -500h-53l899 1393h47l408 -1393h-47zM399 541h748l-234 796z" />
    <glyph glyph-name="amacron" unicode="&#x101;" horiz-adv-x="1280" 
d="M1100 1204l-8 -37h-566l9 37h565zM1114 922h43l-164 -922h-43l27 154q-179 -179 -420 -179q-182 0 -298 118t-116 296q0 111 49.5 214.5t130.5 178t188 119.5t218 45q240 0 356 -180zM563 16q121 0 231 54t195 153l84 473q-50 100 -140 154.5t-210 54.5
q-101 0 -199 -41.5t-171.5 -110t-119 -163t-45.5 -195.5q0 -163 105.5 -271t269.5 -108z" />
    <glyph glyph-name="Abreve" unicode="&#x102;" horiz-adv-x="1517" 
d="M954 1579q-106 0 -175.5 67t-49.5 187h41q-17 -101 41.5 -158t144.5 -57q52 0 105.5 22.5t98.5 73.5t57 119h45q-14 -81 -64 -140.5t-113.5 -86.5t-130.5 -27zM1305 0l-146 500h-786l-322 -500h-53l899 1393h47l408 -1393h-47zM399 541h748l-234 796z" />
    <glyph glyph-name="abreve" unicode="&#x103;" horiz-adv-x="1280" 
d="M784 1108q-106 0 -175.5 67t-49.5 187h41q-17 -101 41.5 -158t144.5 -57q52 0 105.5 22.5t98.5 73.5t57 119h45q-14 -81 -64 -140.5t-113.5 -86.5t-130.5 -27zM1114 922h43l-164 -922h-43l27 154q-179 -179 -420 -179q-182 0 -298 118t-116 296q0 111 49.5 214.5
t130.5 178t188 119.5t218 45q240 0 356 -180zM563 16q121 0 231 54t195 153l84 473q-50 100 -140 154.5t-210 54.5q-101 0 -199 -41.5t-171.5 -110t-119 -163t-45.5 -195.5q0 -163 105.5 -271t269.5 -108z" />
    <glyph glyph-name="Aogonek" unicode="&#x104;" horiz-adv-x="1517" 
d="M1399 -371l4 -43q-27 -6 -68 -6q-105 0 -169 54t-64 143q0 44 17.5 83.5t48.5 69.5t61 51t69 42l-139 477h-786l-322 -500h-53l899 1393h47l408 -1393q-44 -21 -73 -38t-63 -44t-51.5 -61.5t-17.5 -75.5q0 -72 53 -114t141 -42q26 0 58 4zM399 541h748l-234 796z" />
    <glyph glyph-name="aogonek" unicode="&#x105;" horiz-adv-x="1280" 
d="M983 -375q25 0 57 4l4 -43q-27 -6 -67 -6q-105 0 -169.5 54t-64.5 143q0 47 19 88t54 72.5t66.5 52t73.5 41.5l21 123q-179 -179 -420 -179q-182 0 -298 118t-116 296q0 111 49.5 214.5t130.5 178t188 119.5t218 45q240 0 356 -180l29 156h43l-164 -922q-44 -21 -73 -38
t-63 -44t-51.5 -61.5t-17.5 -75.5q0 -72 53.5 -114t141.5 -42zM563 16q121 0 231 54t195 153l84 473q-50 100 -140 154.5t-210 54.5q-101 0 -199 -41.5t-171.5 -110t-119 -163t-45.5 -195.5q0 -163 105.5 -271t269.5 -108z" />
    <glyph glyph-name="Cacute" unicode="&#x106;" horiz-adv-x="1654" 
d="M1311 1835l-230 -279h-49l228 279h51zM1026 1374q-185 0 -357 -90t-290.5 -246t-151.5 -342q-24 -139 7 -264.5t105 -216t190 -144t255 -53.5q226 0 408.5 116t265.5 304h49q-89 -207 -287 -335t-442 -128q-197 0 -346.5 96t-216.5 262t-33 363q35 197 161.5 363t310 262
t380.5 96q244 0 396 -128t167 -335h-49q-15 189 -155.5 304.5t-366.5 115.5z" />
    <glyph glyph-name="cacute" unicode="&#x107;" horiz-adv-x="1185" 
d="M1001 1403l-229 -279h-49l227 279h51zM705 905q-190 0 -333 -128t-177 -316q-33 -188 64.5 -316.5t287.5 -128.5q138 0 247.5 68.5t159.5 185.5h47q-56 -135 -180.5 -215t-281.5 -80q-138 0 -236 65t-137 175.5t-16 245.5q37 206 195.5 345.5t367.5 139.5
q156 0 251.5 -79.5t104.5 -215.5h-47q-9 117 -94 185.5t-223 68.5z" />
    <glyph glyph-name="Cdotaccent" unicode="&#x10a;" horiz-adv-x="1654" 
d="M1094 1606q-22 0 -37 14.5t-15 36.5t15 36.5t37 14.5t36.5 -14.5t14.5 -36.5t-14.5 -36.5t-36.5 -14.5zM1026 1374q-185 0 -357 -90t-290.5 -246t-151.5 -342q-24 -139 7 -264.5t105 -216t190 -144t255 -53.5q226 0 408.5 116t265.5 304h49q-89 -207 -287 -335t-442 -128
q-197 0 -346.5 96t-216.5 262t-33 363q35 197 161.5 363t310 262t380.5 96q244 0 396 -128t167 -335h-49q-15 189 -155.5 304.5t-366.5 115.5z" />
    <glyph glyph-name="cdotaccent" unicode="&#x10b;" horiz-adv-x="1185" 
d="M766 1217q-22 0 -36.5 14.5t-14.5 36.5t14.5 36.5t36.5 14.5t36.5 -14.5t14.5 -36.5t-14.5 -36.5t-36.5 -14.5zM705 905q-190 0 -333 -128t-177 -316q-33 -188 64.5 -316.5t287.5 -128.5q138 0 247.5 68.5t159.5 185.5h47q-56 -135 -180.5 -215t-281.5 -80
q-138 0 -236 65t-137 175.5t-16 245.5q37 206 195.5 345.5t367.5 139.5q156 0 251.5 -79.5t104.5 -215.5h-47q-9 117 -94 185.5t-223 68.5z" />
    <glyph glyph-name="Ccaron" unicode="&#x10c;" horiz-adv-x="1654" 
d="M1165 1565h-71l-211 278h53l194 -250l283 250h62zM1026 1374q-185 0 -357 -90t-290.5 -246t-151.5 -342q-24 -139 7 -264.5t105 -216t190 -144t255 -53.5q226 0 408.5 116t265.5 304h49q-89 -207 -287 -335t-442 -128q-197 0 -346.5 96t-216.5 262t-33 363
q35 197 161.5 363t310 262t380.5 96q244 0 396 -128t167 -335h-49q-15 189 -155.5 304.5t-366.5 115.5z" />
    <glyph glyph-name="ccaron" unicode="&#x10d;" horiz-adv-x="1185" 
d="M799 1114h-72l-211 279h53l195 -250l283 250h61zM713 946q156 0 251.5 -79.5t104.5 -215.5h-47q-9 117 -94 185.5t-223 68.5q-190 0 -333 -128t-177 -316q-33 -188 64.5 -316.5t287.5 -128.5q138 0 247.5 68.5t159.5 185.5h47q-56 -135 -180.5 -215t-281.5 -80
q-138 0 -236 65t-137 175.5t-16 245.5q37 206 195.5 345.5t367.5 139.5z" />
    <glyph glyph-name="Dcaron" unicode="&#x10e;" horiz-adv-x="1556" 
d="M954 1565h-71l-211 278h53l195 -250l282 250h62zM846 1393q285 0 450.5 -155.5t165.5 -414.5q0 -235 -112 -423.5t-309 -294t-441 -105.5h-446l245 1393h447zM608 41q171 0 320.5 58.5t257 160t169.5 246.5t62 311q0 241 -156 388t-421 147h-404l-229 -1311h401z" />
    <glyph glyph-name="dcaron" unicode="&#x10f;" horiz-adv-x="1282" 
d="M1090 768l120 686h43l-258 -1454h-43l29 156q-184 -181 -422 -181q-181 0 -297.5 118.5t-116.5 297.5q0 111 49.5 214t130.5 177.5t188 119t218 44.5q241 0 359 -178zM1481 1454h45l-96 -348h-39zM565 16q120 0 230.5 54.5t197.5 154.5l84 473q-52 99 -142 153t-210 54
q-135 0 -258.5 -68.5t-200 -187t-76.5 -252.5q0 -161 106 -271t269 -110z" />
    <glyph glyph-name="Dcroat" unicode="&#x110;" horiz-adv-x="1558" 
d="M846 1393q285 0 450.5 -155.5t165.5 -414.5q0 -235 -112 -423.5t-309 -294t-441 -105.5h-446l118 676h-196l8 41h197l118 676h447zM608 41q171 0 320.5 58.5t257 160t169.5 246.5t62 311q0 241 -156 388t-421 147h-404l-110 -635h407l-8 -41h-408l-110 -635h401z" />
    <glyph glyph-name="dcroat" unicode="&#x111;" horiz-adv-x="1280" 
d="M1374 1262l-6 -39h-156l-217 -1223h-43l29 156q-184 -181 -422 -181q-181 0 -297.5 118.5t-116.5 297.5q0 111 49.5 214t130.5 177.5t188 119t218 44.5q241 0 359 -178l79 455h-389l6 39h390l34 192h43l-34 -192h155zM565 16q120 0 230.5 54.5t197.5 154.5l84 473
q-52 99 -142 153t-210 54q-135 0 -258.5 -68.5t-200 -187t-76.5 -252.5q0 -161 106 -271t269 -110z" />
    <glyph glyph-name="Emacron" unicode="&#x112;" horiz-adv-x="1366" 
d="M1178 1634l-9 -37h-565l8 37h566zM1317 1352h-881l-110 -635h798l-8 -41h-799l-110 -635h880l-8 -41h-925l245 1393h926z" />
    <glyph glyph-name="emacron" unicode="&#x113;" horiz-adv-x="1220" 
d="M1073 1204l-8 -37h-565l8 37h565zM1065 444h-872q-28 -183 72 -305.5t284 -122.5q120 0 224.5 53.5t154.5 139.5h49q-58 -107 -178.5 -170.5t-257.5 -63.5q-138 0 -236.5 65t-138 175.5t-16.5 245.5q36 203 195 344t362 141q197 0 296 -138.5t62 -363.5zM705 905
q-177 0 -320 -119t-184 -301h825q21 186 -62.5 303t-258.5 117z" />
    <glyph glyph-name="Edotaccent" unicode="&#x116;" horiz-adv-x="1366" 
d="M862 1606q-22 0 -36.5 14.5t-14.5 36.5t14.5 36.5t36.5 14.5t36.5 -14.5t14.5 -36.5t-14.5 -36.5t-36.5 -14.5zM1317 1352h-881l-110 -635h798l-8 -41h-799l-110 -635h880l-8 -41h-925l245 1393h926z" />
    <glyph glyph-name="edotaccent" unicode="&#x117;" horiz-adv-x="1220" 
d="M799 1217q-22 0 -36.5 14.5t-14.5 36.5t14.5 36.5t36.5 14.5t36.5 -14.5t14.5 -36.5t-14.5 -36.5t-36.5 -14.5zM1065 444h-872q-28 -183 72 -305.5t284 -122.5q120 0 224.5 53.5t154.5 139.5h49q-58 -107 -178.5 -170.5t-257.5 -63.5q-138 0 -236.5 65t-138 175.5
t-16.5 245.5q36 203 195 344t362 141q197 0 296 -138.5t62 -363.5zM705 905q-177 0 -320 -119t-184 -301h825q21 186 -62.5 303t-258.5 117z" />
    <glyph glyph-name="Eogonek" unicode="&#x118;" horiz-adv-x="1366" 
d="M1317 1352h-881l-110 -635h798l-8 -41h-799l-110 -635h880l-8 -41q-44 -21 -73 -38t-63 -44t-51.5 -61.5t-17.5 -75.5q0 -72 53.5 -114t141.5 -42q25 0 57 4l4 -43q-27 -6 -67 -6q-105 0 -169.5 54t-64.5 143q0 129 156 223h-831l245 1393h926z" />
    <glyph glyph-name="eogonek" unicode="&#x119;" horiz-adv-x="1224" 
d="M1065 444h-872q-28 -183 72 -305.5t284 -122.5q120 0 224.5 53.5t154.5 139.5h49q-20 -38 -64 -86q-15 -17 -51.5 -54.5t-50 -55t-27.5 -52.5t-14 -76q0 -71 53.5 -113t141.5 -42q25 0 57 4l4 -43q-27 -6 -68 -6q-105 0 -169 53.5t-64 142.5q0 82 45 144
q-106 -50 -229 -50q-138 0 -236.5 65t-138 175.5t-16.5 245.5q36 203 195 344t362 141q197 0 296 -138.5t62 -363.5zM705 905q-177 0 -320 -119t-184 -301h825q21 186 -62.5 303t-258.5 117z" />
    <glyph glyph-name="Ecaron" unicode="&#x11a;" horiz-adv-x="1366" 
d="M995 1565h-71l-211 278h53l195 -250l282 250h62zM1317 1352h-881l-110 -635h798l-8 -41h-799l-110 -635h880l-8 -41h-925l245 1393h926z" />
    <glyph glyph-name="ecaron" unicode="&#x11b;" horiz-adv-x="1220" 
d="M784 1114h-71l-211 279h53l195 -250l282 250h62zM707 946q197 0 296 -138.5t62 -363.5h-872q-28 -183 72 -305.5t284 -122.5q120 0 224.5 53.5t154.5 139.5h49q-58 -107 -178.5 -170.5t-257.5 -63.5q-138 0 -236.5 65t-138 175.5t-16.5 245.5q36 203 195 344t362 141z
M1026 485q21 186 -62.5 303t-258.5 117q-177 0 -320 -119t-184 -301h825z" />
    <glyph glyph-name="Gbreve" unicode="&#x11e;" horiz-adv-x="1691" 
d="M1067 1579q-106 0 -175.5 67t-49.5 187h41q-17 -101 41.5 -158t144.5 -57q52 0 105.5 22.5t98 73.5t56.5 119h45q-14 -81 -64 -140.5t-113 -86.5t-130 -27zM1028 1374q-186 0 -358 -90t-291 -246.5t-152 -341.5q-33 -186 27.5 -341.5t198.5 -246t323 -90.5
q133 0 253.5 49t212 135t157 202.5t94.5 250.5h-608l6 41h655v-6l-123 -690h-45l74 412q-104 -200 -283 -318.5t-399 -118.5q-197 0 -344.5 96t-213 261.5t-30.5 363.5q35 197 162 363t311 262t381 96q232 0 389 -129.5t172 -333.5h-45q-15 185 -162 302.5t-362 117.5z" />
    <glyph glyph-name="gbreve" unicode="&#x11f;" horiz-adv-x="1282" 
d="M727 1108q-106 0 -175.5 67t-49.5 187h41q-17 -101 41.5 -158t144.5 -57q52 0 105.5 22.5t98 73.5t56.5 119h45q-14 -81 -64 -140.5t-113 -86.5t-130 -27zM1114 922h43l-166 -945q-35 -203 -178.5 -325.5t-347.5 -122.5q-165 0 -269.5 82.5t-113.5 216.5h47
q9 -116 102 -187t240 -71q186 0 315.5 111t161.5 296l31 179q-88 -86 -203.5 -133.5t-238.5 -47.5q-177 0 -285.5 116t-108.5 292q0 150 77.5 280t208 206.5t280.5 76.5q123 0 221.5 -47t156.5 -135zM543 16q124 0 242.5 55t205.5 154l86 482q-55 96 -153.5 147t-221.5 51
q-137 0 -256 -70.5t-188.5 -189.5t-69.5 -256q0 -161 97.5 -267t257.5 -106z" />
    <glyph glyph-name="Gdotaccent" unicode="&#x120;" horiz-adv-x="1693" 
d="M1065 1606q-22 0 -36.5 14.5t-14.5 36.5t14.5 36.5t36.5 14.5t36.5 -14.5t14.5 -36.5t-14.5 -36.5t-36.5 -14.5zM1028 1374q-186 0 -358 -90t-291 -246.5t-152 -341.5q-33 -186 27.5 -341.5t198.5 -246t323 -90.5q133 0 253.5 49t212 135t157 202.5t94.5 250.5h-608l6 41
h655v-6l-123 -690h-45l74 412q-104 -200 -283 -318.5t-399 -118.5q-197 0 -344.5 96t-213 261.5t-30.5 363.5q35 197 162 363t311 262t381 96q232 0 389 -129.5t172 -333.5h-45q-15 185 -162 302.5t-362 117.5z" />
    <glyph glyph-name="gdotaccent" unicode="&#x121;" horiz-adv-x="1282" 
d="M793 1217q-22 0 -37 14.5t-15 36.5t15 36.5t37 14.5t36.5 -14.5t14.5 -36.5t-14.5 -36.5t-36.5 -14.5zM1114 922h43l-166 -945q-35 -203 -178.5 -325.5t-347.5 -122.5q-165 0 -269.5 82.5t-113.5 216.5h47q9 -116 102 -187t240 -71q186 0 315.5 111t161.5 296l31 179
q-88 -86 -203.5 -133.5t-238.5 -47.5q-177 0 -285.5 116t-108.5 292q0 150 77.5 280t208 206.5t280.5 76.5q123 0 221.5 -47t156.5 -135zM543 16q124 0 242.5 55t205.5 154l86 482q-55 96 -153.5 147t-221.5 51q-137 0 -256 -70.5t-188.5 -189.5t-69.5 -256
q0 -161 97.5 -267t257.5 -106z" />
    <glyph glyph-name="Gcommaaccent" unicode="&#x122;" horiz-adv-x="1691" 
d="M1028 1374q-186 0 -358 -90t-291 -246.5t-152 -341.5q-33 -186 27.5 -341.5t198.5 -246t323 -90.5q133 0 253.5 49t212 135t157 202.5t94.5 250.5h-608l6 41h655v-6l-123 -690h-45l74 412q-104 -200 -283 -318.5t-399 -118.5q-197 0 -344.5 96t-213 261.5t-30.5 363.5
q35 197 162 363t311 262t381 96q232 0 389 -129.5t172 -333.5h-45q-15 185 -162 302.5t-362 117.5zM709 -166q19 0 35 -13.5t16 -41.5q0 -20 -18.5 -55t-110.5 -189h-37l117 201q-27 0 -40.5 13t-13.5 34q0 22 14.5 36.5t37.5 14.5z" />
    <glyph glyph-name="gcommaaccent" unicode="&#x123;" horiz-adv-x="1280" 
d="M762 1190q-19 0 -35 13.5t-16 41.5q0 20 18.5 55t110.5 189h37l-117 -201q53 0 53 -47q0 -22 -14 -36.5t-37 -14.5zM1114 922h43l-166 -945q-35 -203 -178.5 -325.5t-347.5 -122.5q-165 0 -269.5 82.5t-113.5 216.5h47q9 -116 102 -187t240 -71q186 0 315.5 111
t161.5 296l31 179q-88 -86 -203.5 -133.5t-238.5 -47.5q-177 0 -285.5 116t-108.5 292q0 150 77.5 280t208 206.5t280.5 76.5q123 0 221.5 -47t156.5 -135zM543 16q124 0 242.5 55t205.5 154l86 482q-55 96 -153.5 147t-221.5 51q-137 0 -256 -70.5t-188.5 -189.5
t-69.5 -256q0 -161 97.5 -267t257.5 -106z" />
    <glyph glyph-name="Hbar" unicode="&#x126;" horiz-adv-x="1554" 
d="M1528 1106l-8 -41h-95l-188 -1065h-45l119 678h-994l-118 -678h-45l188 1065h-106l8 41h104l51 287h45l-51 -287h993l52 287h45l-51 -287h96zM1319 717l61 348h-993l-61 -348h993z" />
    <glyph glyph-name="hbar" unicode="&#x127;" horiz-adv-x="1171" 
d="M721 946q170 0 257 -103t54 -286l-98 -557h-43l98 557q30 165 -46.5 256.5t-227.5 91.5q-127 0 -245.5 -54t-193.5 -149l-122 -702h-43l213 1204h-183l9 41h180l37 209h43l-37 -209h387l-8 -41h-385l-78 -432q79 83 193 128.5t239 45.5z" />
    <glyph glyph-name="Imacron" unicode="&#x12a;" horiz-adv-x="516" 
d="M172 1634h565l-8 -37h-565zM444 1393l-245 -1393h-45l245 1393h45z" />
    <glyph glyph-name="imacron" unicode="&#x12b;" horiz-adv-x="452" 
d="M72 1204h565l-8 -37h-566zM287 922h43l-164 -922h-43z" />
    <glyph glyph-name="Iogonek" unicode="&#x12e;" horiz-adv-x="516" 
d="M188 -375q26 0 58 4l4 -43q-27 -6 -68 -6q-105 0 -169 54t-64 143q0 149 211 252l239 1364h45l-245 -1393q-44 -21 -73 -38t-63 -44t-51.5 -61.5t-17.5 -75.5q0 -72 53 -114t141 -42z" />
    <glyph glyph-name="iogonek" unicode="&#x12f;" horiz-adv-x="505" 
d="M399 1335q20 0 33.5 -13.5t13.5 -33.5t-13.5 -33.5t-33.5 -13.5t-33.5 13.5t-13.5 33.5t13.5 33.5t33.5 13.5zM193 0q-44 -21 -73 -38t-63 -44t-51.5 -61.5t-17.5 -75.5q0 -72 53 -114t141 -42q26 0 58 4l4 -43q-27 -6 -68 -6q-105 0 -169 54t-64 143q0 47 19 88t54 72.5
t66.5 52t73.5 41.5l155 891h43z" />
    <glyph glyph-name="Idotaccent" unicode="&#x130;" horiz-adv-x="516" 
d="M483 1606q-22 0 -36.5 14.5t-14.5 36.5t14.5 36.5t36.5 14.5t37 -14.5t15 -36.5t-15 -36.5t-37 -14.5zM444 1393l-245 -1393h-45l245 1393h45z" />
    <glyph glyph-name="dotlessi" unicode="&#x131;" horiz-adv-x="452" 
d="M287 922h43l-164 -922h-43z" />
    <glyph glyph-name="IJ" unicode="&#x132;" horiz-adv-x="1783" 
d="M444 1393l-245 -1393h-45l245 1393h45zM1722 1393l-161 -910q-41 -236 -192.5 -372t-364.5 -136q-187 0 -293 101.5t-111 275.5h45q6 -157 100.5 -246.5t268.5 -89.5q191 0 327.5 125t174.5 342l161 910h45z" />
    <glyph glyph-name="ij" unicode="&#x133;" horiz-adv-x="1028" 
d="M399 1241q-20 0 -33.5 13.5t-13.5 33.5t13.5 33.5t33.5 13.5t33.5 -13.5t13.5 -33.5t-13.5 -33.5t-33.5 -13.5zM922 1241q-20 0 -34 13.5t-14 33.5t14 33.5t34 13.5t33.5 -13.5t13.5 -33.5t-13.5 -33.5t-33.5 -13.5zM311 922h43l-161 -922h-43zM889 922l-184 -1053
q-32 -185 -110 -262.5t-230 -77.5l6 41q129 0 196 69t95 230l184 1053h43z" />
    <glyph glyph-name="Kcommaaccent" unicode="&#x136;" horiz-adv-x="1468" 
d="M1436 1393l-764 -650l604 -743h-62l-579 711l-365 -310l-71 -401h-45l245 1393h45l-163 -926l1091 926h64zM608 -166q19 0 35 -13.5t16 -41.5q0 -20 -18.5 -55t-110.5 -189h-36l116 201q-53 0 -53 47q0 22 14 36.5t37 14.5z" />
    <glyph glyph-name="kcommaaccent" unicode="&#x137;" horiz-adv-x="1142" 
d="M1030 922l-508 -390l447 -532h-58l-424 506l-266 -203l-53 -303h-43l256 1454h43l-193 -1089l734 557h65zM512 -166q19 0 35 -13.5t16 -41.5q0 -20 -18.5 -55t-110.5 -189h-37l117 201q-53 0 -53 47q0 22 14 36.5t37 14.5z" />
    <glyph glyph-name="Lacute" unicode="&#x139;" horiz-adv-x="1222" 
d="M707 1835l-230 -279h-49l227 279h52zM207 41h819l-8 -41h-864l245 1393h45z" />
    <glyph glyph-name="lacute" unicode="&#x13a;" horiz-adv-x="452" 
d="M666 1935h51l-230 -278h-49zM381 1454h43l-258 -1454h-43z" />
    <glyph glyph-name="Lcommaaccent" unicode="&#x13b;" horiz-adv-x="1222" 
d="M207 41h819l-8 -41h-864l245 1393h45zM567 -166q19 0 35 -13.5t16 -41.5q0 -20 -18.5 -55t-110.5 -189h-36l116 201q-53 0 -53 47q0 22 14 36.5t37 14.5z" />
    <glyph glyph-name="lcommaaccent" unicode="&#x13c;" horiz-adv-x="452" 
d="M381 1454h43l-258 -1454h-43zM-4 -465l117 201q-27 0 -40.5 13t-13.5 34q0 22 14.5 36.5t37.5 14.5q19 0 35 -13.5t16 -41.5q0 -20 -18.5 -55t-110.5 -189h-37z" />
    <glyph glyph-name="Lcaron" unicode="&#x13d;" horiz-adv-x="1222" 
d="M207 41h819l-8 -41h-864l245 1393h45zM846 1393l-96 -349h-39l90 349h45z" />
    <glyph glyph-name="lcaron" unicode="&#x13e;" horiz-adv-x="452" 
d="M381 1454h43l-258 -1454h-43zM608 1454h45l-96 -348h-39z" />
    <glyph glyph-name="Ldot" unicode="&#x13f;" horiz-adv-x="1222" 
d="M207 41h819l-8 -41h-864l245 1393h45zM748 565q-22 0 -37 14.5t-15 36.5t15 37t37 15t36.5 -15t14.5 -37t-14.5 -36.5t-36.5 -14.5z" />
    <glyph glyph-name="ldot" unicode="&#x140;" horiz-adv-x="720" 
d="M381 1454h43l-258 -1454h-43zM494 573q-22 0 -37 15t-15 37t15 36.5t37 14.5t36.5 -14.5t14.5 -36.5t-14.5 -37t-36.5 -15z" />
    <glyph glyph-name="Lslash" unicode="&#x141;" horiz-adv-x="1222" 
d="M207 41h819l-8 -41h-864l92 522l-180 -98l8 51l180 98l145 820h45l-139 -793l375 203l-10 -51l-375 -203z" />
    <glyph glyph-name="lslash" unicode="&#x142;" horiz-adv-x="452" 
d="M487 856l-10 -51l-186 -103l-125 -702h-43l121 676l-174 -94l10 51l172 94l129 727h43l-125 -700z" />
    <glyph glyph-name="Nacute" unicode="&#x143;" horiz-adv-x="1601" 
d="M1202 1835l-229 -279h-49l227 279h51zM1485 1393h45l-246 -1393h-53l-797 1333l-235 -1333h-45l245 1393h52l798 -1334z" />
    <glyph glyph-name="nacute" unicode="&#x144;" horiz-adv-x="1171" 
d="M940 1403l-229 -279h-49l227 279h51zM719 946q170 0 257 -103t54 -286l-98 -557h-43l98 557q30 165 -46.5 256.5t-227.5 91.5q-125 0 -243.5 -53t-193.5 -147l-124 -705h-43l163 922h43l-26 -148q79 82 192.5 127t237.5 45z" />
    <glyph glyph-name="Ncommaaccent" unicode="&#x145;" horiz-adv-x="1601" 
d="M1485 1393h45l-246 -1393h-53l-797 1333l-235 -1333h-45l245 1393h52l798 -1334zM686 -166q19 0 35 -13.5t16 -41.5q0 -20 -18.5 -55t-110.5 -189h-37l117 201q-53 0 -53 47q0 22 14 36.5t37 14.5z" />
    <glyph glyph-name="ncommaaccent" unicode="&#x146;" horiz-adv-x="1171" 
d="M719 946q170 0 257 -103t54 -286l-98 -557h-43l98 557q30 165 -46.5 256.5t-227.5 91.5q-125 0 -243.5 -53t-193.5 -147l-124 -705h-43l163 922h43l-26 -148q79 82 192.5 127t237.5 45zM483 -166q19 0 35.5 -13.5t16.5 -41.5q0 -20 -18.5 -55t-110.5 -189h-37l116 201
q-53 0 -53 47q0 22 14 36.5t37 14.5z" />
    <glyph glyph-name="Ncaron" unicode="&#x147;" horiz-adv-x="1601" 
d="M1057 1565h-72l-211 278h53l195 -250l283 250h61zM1485 1393h45l-246 -1393h-53l-797 1333l-235 -1333h-45l245 1393h52l798 -1334z" />
    <glyph glyph-name="ncaron" unicode="&#x148;" horiz-adv-x="1171" 
d="M737 1114h-71l-211 279h53l194 -250l283 250h62zM719 946q170 0 257 -103t54 -286l-98 -557h-43l98 557q30 165 -46.5 256.5t-227.5 91.5q-125 0 -243.5 -53t-193.5 -147l-124 -705h-43l163 922h43l-26 -148q79 82 192.5 127t237.5 45z" />
    <glyph glyph-name="Omacron" unicode="&#x14c;" horiz-adv-x="1744" 
d="M803 1634h565l-8 -37h-565zM1040 1417q176 0 316 -81t217.5 -221.5t77.5 -313.5q0 -164 -73 -317.5t-192.5 -264.5t-277.5 -177.5t-322 -66.5q-176 0 -316 81.5t-217 222t-77 313.5q0 164 73 317.5t192 264t277 177t322 66.5zM793 18q123 0 244.5 40t223 112.5t179.5 168
t122 214t44 242.5q0 121 -42.5 228t-117 184t-181.5 122t-231 45q-123 0 -244.5 -39.5t-223 -112.5t-179.5 -168t-122 -213.5t-44 -242.5q0 -162 72 -294t203.5 -209t296.5 -77z" />
    <glyph glyph-name="omacron" unicode="&#x14d;" horiz-adv-x="1288" 
d="M522 1204h565l-8 -37h-565zM729 946q180 0 296 -119t116 -297q0 -147 -83.5 -276.5t-218 -204t-282.5 -74.5q-182 0 -298 118t-116 296q0 111 49.5 214.5t130.5 178t188 119.5t218 45zM563 16q100 0 197.5 41t171 109t119 162.5t45.5 195.5q0 162 -105.5 271.5
t-267.5 109.5q-101 0 -199 -41.5t-171.5 -110t-119 -163t-45.5 -195.5q0 -163 105.5 -271t269.5 -108z" />
    <glyph glyph-name="Ohungarumlaut" unicode="&#x150;" horiz-adv-x="1744" 
d="M1051 1835h49l-176 -279h-50zM1305 1835h49l-178 -279h-48zM1040 1417q176 0 316 -81t217.5 -221.5t77.5 -313.5q0 -164 -73 -317.5t-192.5 -264.5t-277.5 -177.5t-322 -66.5q-176 0 -316 81.5t-217 222t-77 313.5q0 164 73 317.5t192 264t277 177t322 66.5zM793 18
q123 0 244.5 40t223 112.5t179.5 168t122 214t44 242.5q0 121 -42.5 228t-117 184t-181.5 122t-231 45q-123 0 -244.5 -39.5t-223 -112.5t-179.5 -168t-122 -213.5t-44 -242.5q0 -162 72 -294t203.5 -209t296.5 -77z" />
    <glyph glyph-name="ohungarumlaut" unicode="&#x151;" horiz-adv-x="1288" 
d="M784 1405h50l-177 -279h-49zM1038 1405h49l-178 -279h-47zM729 946q180 0 296 -119t116 -297q0 -147 -83.5 -276.5t-218 -204t-282.5 -74.5q-182 0 -298 118t-116 296q0 111 49.5 214.5t130.5 178t188 119.5t218 45zM563 16q100 0 197.5 41t171 109t119 162.5t45.5 195.5
q0 162 -105.5 271.5t-267.5 109.5q-101 0 -199 -41.5t-171.5 -110t-119 -163t-45.5 -195.5q0 -163 105.5 -271t269.5 -108z" />
    <glyph glyph-name="OE" unicode="&#x152;" horiz-adv-x="2205" 
d="M2157 1352h-881l-111 -635h799l-8 -41h-799l-110 -635h880l-8 -41h-1067q-153 0 -280 44.5t-213.5 123.5t-134.5 188.5t-48 237.5q0 166 72 314.5t195 254.5t294 168t361 62h1067zM1001 45l230 1303l-141 2q-240 0 -439 -98.5t-313.5 -270.5t-114.5 -381
q0 -246 173 -401.5t462 -155.5z" />
    <glyph glyph-name="oe" unicode="&#x153;" horiz-adv-x="2156" 
d="M1133 444q-1 -9 -11 -43q-9 -168 90.5 -276.5t272.5 -108.5q120 0 224.5 53.5t154.5 139.5h49q-58 -107 -178.5 -170.5t-257.5 -63.5q-164 0 -269 88.5t-127 233.5q-74 -142 -218.5 -232t-305.5 -90q-182 0 -298 118t-116 296q0 111 49.5 214.5t130.5 178t188 119.5
t218 45q158 0 268.5 -93t137.5 -241q71 148 208 241t299 93q197 0 296.5 -138.5t62.5 -363.5h-868zM563 16q173 0 320.5 110.5t193.5 274.5q5 45 8 60q2 13 11 45v18q0 162 -105.5 271.5t-267.5 109.5q-101 0 -199 -41.5t-171.5 -110t-119 -163t-45.5 -195.5
q0 -163 105.5 -271t269.5 -108zM1640 905q-171 0 -312 -114t-187 -289q-2 -4 -2 -17h823q21 186 -63 303t-259 117z" />
    <glyph glyph-name="Racute" unicode="&#x154;" horiz-adv-x="1423" 
d="M1042 1835l-229 -279h-49l227 279h51zM1317 1038q0 -208 -149 -338t-392 -145l402 -555h-60l-397 553h-4h-420l-98 -553h-45l245 1393h467q210 0 330.5 -94t120.5 -261zM725 594q158 0 281.5 52t194.5 152.5t71 233.5q0 150 -111 235t-303 85h-422l-133 -758h422z" />
    <glyph glyph-name="racute" unicode="&#x155;" horiz-adv-x="671" 
d="M727 1403l-229 -279h-49l227 279h51zM279 711q80 109 195 172t235 63l-7 -41q-122 0 -241.5 -76.5t-198.5 -207.5l-110 -621h-43l163 922h43z" />
    <glyph glyph-name="Rcommaaccent" unicode="&#x156;" horiz-adv-x="1423" 
d="M1317 1038q0 -208 -149 -338t-392 -145l402 -555h-60l-397 553h-4h-420l-98 -553h-45l245 1393h467q210 0 330.5 -94t120.5 -261zM725 594q158 0 281.5 52t194.5 152.5t71 233.5q0 150 -111 235t-303 85h-422l-133 -758h422zM555 -166q19 0 35 -13.5t16 -41.5
q0 -20 -18.5 -55t-110.5 -189h-37l117 201q-53 0 -53 47q0 22 14 36.5t37 14.5z" />
    <glyph glyph-name="rcommaaccent" unicode="&#x157;" horiz-adv-x="671" 
d="M279 711q80 109 195 172t235 63l-7 -41q-122 0 -241.5 -76.5t-198.5 -207.5l-110 -621h-43l163 922h43zM94 -166q19 0 35 -13.5t16 -41.5q0 -20 -18.5 -55t-110.5 -189h-36l116 201q-53 0 -53 47q0 22 14 36.5t37 14.5z" />
    <glyph glyph-name="Rcaron" unicode="&#x158;" horiz-adv-x="1423" 
d="M897 1565h-72l-211 278h54l194 -250l283 250h61zM1317 1038q0 -208 -149 -338t-392 -145l402 -555h-60l-397 553h-4h-420l-98 -553h-45l245 1393h467q210 0 330.5 -94t120.5 -261zM725 594q158 0 281.5 52t194.5 152.5t71 233.5q0 150 -111 235t-303 85h-422l-133 -758
h422z" />
    <glyph glyph-name="rcaron" unicode="&#x159;" horiz-adv-x="671" 
d="M524 1114h-71l-211 279h53l194 -250l283 250h62zM279 711q80 109 195 172t235 63l-7 -41q-122 0 -241.5 -76.5t-198.5 -207.5l-110 -621h-43l163 922h43z" />
    <glyph glyph-name="Sacute" unicode="&#x15a;" horiz-adv-x="1337" 
d="M1020 1835h51l-229 -279h-49zM813 1417q223 0 346.5 -101.5t120.5 -264.5h-45q-3 151 -116 238t-312 87q-215 0 -344 -98.5t-129 -247.5q0 -106 73.5 -171.5t225.5 -94.5l198 -39q185 -36 264 -117t79 -219q0 -185 -149 -299.5t-404 -114.5q-251 0 -381 116.5t-123 342.5
h45q-3 -205 115.5 -311.5t351.5 -106.5t366 100.5t133 262.5q0 122 -69.5 198t-245.5 109l-205 39q-319 60 -319 303q0 168 145 278.5t379 110.5z" />
    <glyph glyph-name="sacute" unicode="&#x15b;" horiz-adv-x="1116" 
d="M860 1403h51l-229 -279h-49zM162 258q9 -115 98 -178.5t250 -63.5q165 0 263.5 65t98.5 179q0 147 -180 178l-213 35q-120 21 -178.5 67.5t-58.5 133.5q0 125 110 198.5t281 73.5q170 0 267 -73.5t85 -198.5h-41q6 113 -73.5 172t-237.5 59q-160 0 -254 -59.5t-94 -163.5
q0 -69 47.5 -108.5t154.5 -59.5l195 -33q50 -9 86 -21t72.5 -35.5t55.5 -63.5t19 -95q0 -136 -112.5 -213.5t-292.5 -77.5q-178 0 -281.5 75.5t-111.5 207.5h45z" />
    <glyph glyph-name="Scedilla" unicode="&#x15e;" horiz-adv-x="1337" 
d="M813 1417q223 0 346.5 -101.5t120.5 -264.5h-45q-3 151 -116 238t-312 87q-215 0 -344 -98.5t-129 -247.5q0 -106 73.5 -171.5t225.5 -94.5l198 -39q185 -36 264 -117t79 -219q0 -185 -149 -299.5t-404 -114.5q-251 0 -381 116.5t-123 342.5h45q-3 -205 115.5 -311.5
t351.5 -106.5t366 100.5t133 262.5q0 122 -69.5 198t-245.5 109l-205 39q-319 60 -319 303q0 168 145 278.5t379 110.5zM532 -176l-149 -273h-47l147 273h49z" />
    <glyph glyph-name="scedilla" unicode="&#x15f;" horiz-adv-x="1116" 
d="M162 258q9 -115 98 -178.5t250 -63.5q165 0 263.5 65t98.5 179q0 147 -180 178l-213 35q-120 21 -178.5 67.5t-58.5 133.5q0 125 110 198.5t281 73.5q170 0 267 -73.5t85 -198.5h-41q6 113 -73.5 172t-237.5 59q-160 0 -254 -59.5t-94 -163.5q0 -69 47.5 -108.5
t154.5 -59.5l195 -33q50 -9 86 -21t72.5 -35.5t55.5 -63.5t19 -95q0 -136 -112.5 -213.5t-292.5 -77.5q-178 0 -281.5 75.5t-111.5 207.5h45zM477 -176l-149 -273h-47l147 273h49z" />
    <glyph glyph-name="Scaron" unicode="&#x160;" horiz-adv-x="1337" 
d="M1174 1843h61l-309 -278h-72l-211 278h53l195 -250zM813 1417q223 0 346.5 -101.5t120.5 -264.5h-45q-3 151 -116 238t-312 87q-215 0 -344 -98.5t-129 -247.5q0 -106 73.5 -171.5t225.5 -94.5l198 -39q185 -36 264 -117t79 -219q0 -185 -149 -299.5t-404 -114.5
q-251 0 -381 116.5t-123 342.5h45q-3 -205 115.5 -311.5t351.5 -106.5t366 100.5t133 262.5q0 122 -69.5 198t-245.5 109l-205 39q-319 60 -319 303q0 168 145 278.5t379 110.5z" />
    <glyph glyph-name="scaron" unicode="&#x161;" horiz-adv-x="1116" 
d="M956 1393h62l-309 -279h-72l-211 279h53l195 -250zM162 258q9 -115 98 -178.5t250 -63.5q165 0 263.5 65t98.5 179q0 147 -180 178l-213 35q-120 21 -178.5 67.5t-58.5 133.5q0 125 110 198.5t281 73.5q170 0 267 -73.5t85 -198.5h-41q6 113 -73.5 172t-237.5 59
q-160 0 -254 -59.5t-94 -163.5q0 -69 47.5 -108.5t154.5 -59.5l195 -33q50 -9 86 -21t72.5 -35.5t55.5 -63.5t19 -95q0 -136 -112.5 -213.5t-292.5 -77.5q-178 0 -281.5 75.5t-111.5 207.5h45z" />
    <glyph glyph-name="uni0162" unicode="&#x162;" horiz-adv-x="1273" 
d="M1376 1393l-8 -41h-553l-237 -1352h-46l238 1352h-553l8 41h1151zM365 -449l147 273h49l-149 -273h-47z" />
    <glyph glyph-name="uni0163" unicode="&#x163;" horiz-adv-x="845" 
d="M418 881l-101 -566q-23 -135 27.5 -217t157.5 -82q86 0 160 31l2 -47q-103 -25 -170 -25q-126 0 -187 93.5t-33 246.5l101 566h-287l6 41h287l61 348h43l-61 -348h356l-6 -41h-356zM207 -449l147 273h49l-149 -273h-47z" />
    <glyph glyph-name="Tcaron" unicode="&#x164;" horiz-adv-x="1273" 
d="M872 1565h-71l-211 278h53l195 -250l282 250h62zM1376 1393l-8 -41h-553l-237 -1352h-46l238 1352h-553l8 41h1151z" />
    <glyph glyph-name="tcaron" unicode="&#x165;" horiz-adv-x="845" 
d="M758 1458l-96 -348h-39l90 348h45zM418 881l-101 -566q-23 -135 27.5 -217t157.5 -82q86 0 160 31l2 -47q-103 -25 -170 -25q-126 0 -187 93.5t-33 246.5l101 566h-287l6 41h287l61 348h43l-61 -348h356l-6 -41h-356z" />
    <glyph glyph-name="Umacron" unicode="&#x16a;" horiz-adv-x="1579" 
d="M678 1634h565l-8 -37h-565zM1518 1393l-146 -828q-29 -166 -122.5 -300t-237.5 -212t-312 -78t-285 77.5t-164 212t-18 300.5l146 828h45l-145 -828q-27 -154 14.5 -278.5t148 -197.5t260.5 -73q233 0 408 157t217 392l146 828h45z" />
    <glyph glyph-name="umacron" unicode="&#x16b;" horiz-adv-x="1196" 
d="M1004 1204l-9 -37h-565l8 37h566zM1020 922h43l-162 -922h-43l27 147q-79 -82 -193 -127t-239 -45q-170 0 -257 103t-55 287l99 557h43l-99 -557q-29 -165 49 -257t228 -92q125 0 242.5 53.5t193.5 147.5z" />
    <glyph glyph-name="Uring" unicode="&#x16e;" horiz-adv-x="1579" 
d="M969 1944q75 0 126.5 -51t51.5 -126t-51.5 -125.5t-126.5 -50.5t-126.5 50.5t-51.5 125.5t51.5 126t126.5 51zM969 1628q59 0 99 40t40 99q0 57 -40.5 98.5t-98.5 41.5t-99 -41.5t-41 -98.5q0 -58 40.5 -98.5t99.5 -40.5zM1518 1393l-146 -828q-29 -166 -122.5 -300
t-237.5 -212t-312 -78t-285 77.5t-164 212t-18 300.5l146 828h45l-145 -828q-27 -154 14.5 -278.5t148 -197.5t260.5 -73q233 0 408 157t217 392l146 828h45z" />
    <glyph glyph-name="uring" unicode="&#x16f;" horiz-adv-x="1196" 
d="M682 1120q-75 0 -126.5 50.5t-51.5 125.5t51.5 126t126.5 51t126.5 -51t51.5 -126t-51.5 -125.5t-126.5 -50.5zM682 1436q-58 0 -98.5 -41.5t-40.5 -98.5q0 -58 40.5 -98.5t98.5 -40.5t98.5 40.5t40.5 98.5q0 57 -40.5 98.5t-98.5 41.5zM1020 922h43l-162 -922h-43
l27 147q-79 -82 -193 -127t-239 -45q-170 0 -257 103t-55 287l99 557h43l-99 -557q-29 -165 49 -257t228 -92q125 0 242.5 53.5t193.5 147.5z" />
    <glyph glyph-name="Uhungarumlaut" unicode="&#x170;" horiz-adv-x="1579" 
d="M967 1835h49l-176 -279h-49zM1221 1835h49l-178 -279h-48zM1518 1393l-146 -828q-29 -166 -122.5 -300t-237.5 -212t-312 -78t-285 77.5t-164 212t-18 300.5l146 828h45l-145 -828q-27 -154 14.5 -278.5t148 -197.5t260.5 -73q233 0 408 157t217 392l146 828h45z" />
    <glyph glyph-name="uhungarumlaut" unicode="&#x171;" horiz-adv-x="1196" 
d="M705 1405l-177 -279h-49l176 279h50zM958 1405l-178 -279h-47l176 279h49zM1020 922h43l-162 -922h-43l27 147q-79 -82 -193 -127t-239 -45q-170 0 -257 103t-55 287l99 557h43l-99 -557q-29 -165 49 -257t228 -92q125 0 242.5 53.5t193.5 147.5z" />
    <glyph glyph-name="Uogonek" unicode="&#x172;" horiz-adv-x="1579" 
d="M1473 1393h45l-146 -828q-31 -173 -131.5 -310.5t-249.5 -211.5l2 -2q-43 -21 -73 -38.5t-63.5 -45t-51 -62t-17.5 -75.5q0 -72 53.5 -114t141.5 -42q25 0 57 4l4 -43q-27 -6 -67 -6q-105 0 -169.5 54t-64.5 143q0 97 86 172q-67 -13 -129 -13q-168 0 -285 77.5t-164 212
t-18 300.5l146 828h45l-145 -828q-27 -154 14.5 -278.5t148 -197.5t260.5 -73q233 0 408 157t217 392z" />
    <glyph glyph-name="uogonek" unicode="&#x173;" horiz-adv-x="1196" 
d="M889 -375q25 0 57 4l4 -43q-27 -6 -67 -6q-105 0 -169.5 54t-64.5 143q0 149 215 254l21 116q-79 -82 -193 -127t-239 -45q-170 0 -257 103t-55 287l99 557h43l-99 -557q-29 -165 49 -257t228 -92q125 0 242.5 53.5t193.5 147.5l123 705h43l-162 -922h-2q-44 -21 -73 -38
t-63 -44t-51.5 -61.5t-17.5 -75.5q0 -72 53.5 -114t141.5 -42z" />
    <glyph glyph-name="Wcircumflex" unicode="&#x174;" horiz-adv-x="2076" 
d="M1284 1815l-285 -250h-63l313 278h74l207 -278h-53zM2126 1393h49l-737 -1403h-43l-207 1337l-682 -1337h-43l-242 1403h45l228 -1336l682 1336h45l206 -1334z" />
    <glyph glyph-name="wcircumflex" unicode="&#x175;" horiz-adv-x="1570" 
d="M985 1364l-285 -250h-63l313 279h74l207 -279h-53zM1499 922h47l-512 -922h-47l-137 850l-434 -850h-47l-189 922h45l174 -856l441 856h43l137 -861z" />
    <glyph glyph-name="Ycircumflex" unicode="&#x176;" horiz-adv-x="1310" 
d="M856 1815l-285 -250h-63l313 278h74l207 -278h-53zM1425 1393l-745 -867l-92 -526h-45l92 526l-438 867h51l414 -820l708 820h55z" />
    <glyph glyph-name="ycircumflex" unicode="&#x177;" horiz-adv-x="1148" 
d="M723 1364l-285 -250h-63l313 279h74l207 -279h-54zM1130 922h56l-889 -1368h-55l250 385l-312 983h49l295 -932z" />
    <glyph glyph-name="Ydieresis" unicode="&#x178;" horiz-adv-x="1310" 
d="M641 1606q-22 0 -36.5 14.5t-14.5 36.5t14.5 36.5t36.5 14.5t36.5 -14.5t14.5 -36.5t-14.5 -36.5t-36.5 -14.5zM981 1606q-22 0 -36.5 14.5t-14.5 36.5t14.5 36.5t36.5 14.5t36.5 -14.5t14.5 -36.5t-14.5 -36.5t-36.5 -14.5zM1425 1393l-745 -867l-92 -526h-45l92 526
l-438 867h51l414 -820l708 820h55z" />
    <glyph glyph-name="Zacute" unicode="&#x179;" horiz-adv-x="1341" 
d="M1071 1835l-229 -279h-49l227 279h51zM1339 1393l-6 -35l-1190 -1317h959l-8 -41h-1024l6 35l1196 1317h-944l8 41h1003z" />
    <glyph glyph-name="zacute" unicode="&#x17a;" horiz-adv-x="1001" 
d="M860 1403l-229 -279h-49l227 279h51zM961 922l-7 -35l-845 -846h696l-8 -41h-756l6 35l844 846h-666l8 41h728z" />
    <glyph glyph-name="Zdotaccent" unicode="&#x17b;" horiz-adv-x="1341" 
d="M854 1606q-22 0 -36.5 14.5t-14.5 36.5t14.5 36.5t36.5 14.5t36.5 -14.5t14.5 -36.5t-14.5 -36.5t-36.5 -14.5zM1339 1393l-6 -35l-1190 -1317h959l-8 -41h-1024l6 35l1196 1317h-944l8 41h1003z" />
    <glyph glyph-name="zdotaccent" unicode="&#x17c;" horiz-adv-x="1001" 
d="M625 1217q-22 0 -37 14.5t-15 36.5t15 36.5t37 14.5t36.5 -14.5t14.5 -36.5t-14.5 -36.5t-36.5 -14.5zM961 922l-7 -35l-845 -846h696l-8 -41h-756l6 35l844 846h-666l8 41h728z" />
    <glyph glyph-name="Zcaron" unicode="&#x17d;" horiz-adv-x="1341" 
d="M926 1565h-72l-211 278h53l195 -250l283 250h61zM1339 1393l-6 -35l-1190 -1317h959l-8 -41h-1024l6 35l1196 1317h-944l8 41h1003z" />
    <glyph glyph-name="zcaron" unicode="&#x17e;" horiz-adv-x="1001" 
d="M657 1114h-71l-211 279h53l195 -250l282 250h62zM225 881l8 41h728l-7 -35l-845 -846h696l-8 -41h-756l6 35l844 846h-666z" />
    <glyph glyph-name="florin" unicode="&#x192;" horiz-adv-x="870" 
d="M889 1403q67 0 162 -25l-17 -37q-89 21 -151 21q-104 0 -175.5 -68t-109.5 -190l-115 -367h353l-9 -41h-356l-160 -530q-43 -140 -127.5 -219.5t-206.5 -79.5q-70 0 -161 24l16 37q85 -20 152 -20q104 0 175 68t109 190l160 530h-266l8 41h270l115 367q45 140 129 219.5
t205 79.5z" />
    <glyph glyph-name="uni01CD" unicode="&#x1cd;" horiz-adv-x="1517" 
d="M991 1565h-71l-211 278h53l194 -250l283 250h61zM1305 0l-146 500h-786l-322 -500h-53l899 1393h47l408 -1393h-47zM399 541h748l-234 796z" />
    <glyph glyph-name="uni01CE" unicode="&#x1ce;" horiz-adv-x="1280" 
d="M811 1114h-72l-211 279h54l194 -250l283 250h61zM1114 922h43l-164 -922h-43l27 154q-179 -179 -420 -179q-182 0 -298 118t-116 296q0 111 49.5 214.5t130.5 178t188 119.5t218 45q240 0 356 -180zM563 16q121 0 231 54t195 153l84 473q-50 100 -140 154.5t-210 54.5
q-101 0 -199 -41.5t-171.5 -110t-119 -163t-45.5 -195.5q0 -163 105.5 -271t269.5 -108z" />
    <glyph glyph-name="Scommaaccent" unicode="&#x218;" horiz-adv-x="1337" 
d="M813 1417q223 0 346.5 -101.5t120.5 -264.5h-45q-3 151 -116 238t-312 87q-215 0 -344 -98.5t-129 -247.5q0 -106 73.5 -171.5t225.5 -94.5l198 -39q185 -36 264 -117t79 -219q0 -185 -149 -299.5t-404 -114.5q-251 0 -381 116.5t-123 342.5h45q-3 -205 115.5 -311.5
t351.5 -106.5t366 100.5t133 262.5q0 122 -69.5 198t-245.5 109l-205 39q-319 60 -319 303q0 168 145 278.5t379 110.5zM469 -465l117 201q-28 0 -41 13t-13 34q0 22 14.5 36.5t37.5 14.5q19 0 35 -13.5t16 -41.5q0 -20 -18.5 -55t-110.5 -189h-37z" />
    <glyph glyph-name="scommaaccent" unicode="&#x219;" horiz-adv-x="1116" 
d="M162 258q9 -115 98 -178.5t250 -63.5q165 0 263.5 65t98.5 179q0 147 -180 178l-213 35q-120 21 -178.5 67.5t-58.5 133.5q0 125 110 198.5t281 73.5q170 0 267 -73.5t85 -198.5h-41q6 113 -73.5 172t-237.5 59q-160 0 -254 -59.5t-94 -163.5q0 -69 47.5 -108.5
t154.5 -59.5l195 -33q50 -9 86 -21t72.5 -35.5t55.5 -63.5t19 -95q0 -136 -112.5 -213.5t-292.5 -77.5q-178 0 -281.5 75.5t-111.5 207.5h45zM373 -465l116 201q-53 0 -53 47q0 22 14 36.5t37 14.5q19 0 35.5 -13.5t16.5 -41.5q0 -20 -18.5 -55t-110.5 -189h-37z" />
    <glyph glyph-name="uni021A" unicode="&#x21a;" horiz-adv-x="1273" 
d="M1376 1393l-8 -41h-553l-237 -1352h-46l238 1352h-553l8 41h1151zM512 -166q19 0 35 -13.5t16 -41.5q0 -20 -18.5 -55t-110.5 -189h-37l117 201q-53 0 -53 47q0 22 14 36.5t37 14.5z" />
    <glyph glyph-name="uni021B" unicode="&#x21b;" horiz-adv-x="845" 
d="M418 881l-101 -566q-23 -135 27.5 -217t157.5 -82q86 0 160 31l2 -47q-103 -25 -170 -25q-126 0 -187 93.5t-33 246.5l101 566h-287l6 41h287l61 348h43l-61 -348h356l-6 -41h-356zM414 -166q19 0 35 -13.5t16 -41.5q0 -20 -18.5 -55t-110.5 -189h-37l117 201
q-28 0 -41 13t-13 34q0 22 14.5 36.5t37.5 14.5z" />
    <glyph glyph-name="circumflex" unicode="&#x2c6;" 
d="M893 1176l-193 249l-284 -249h-64l314 278h73l207 -278h-53z" />
    <glyph glyph-name="caron" unicode="&#x2c7;" 
d="M995 1454h62l-309 -278h-72l-211 278h53l195 -250z" />
    <glyph glyph-name="breve" unicode="&#x2d8;" 
d="M956 1403q-14 -81 -64 -140.5t-113 -86.5t-130 -27q-106 0 -175.5 67t-49.5 187h41q-17 -101 41.5 -158t144.5 -57q52 0 105.5 22.5t98 73.5t56.5 119h45z" />
    <glyph glyph-name="dotaccent" unicode="&#x2d9;" 
d="M676 1176q-22 0 -36.5 14.5t-14.5 36.5t14.5 36.5t36.5 14.5t36.5 -14.5t14.5 -36.5t-14.5 -36.5t-36.5 -14.5z" />
    <glyph glyph-name="ring" unicode="&#x2da;" 
d="M655 1513q75 0 127 -50.5t52 -125.5t-52 -125.5t-127 -50.5t-126.5 50.5t-51.5 125.5t51.5 125.5t126.5 50.5zM655 1198q59 0 99.5 40.5t40.5 98.5q0 57 -41 98.5t-99 41.5t-98.5 -41.5t-40.5 -98.5q0 -59 40 -99t99 -40z" />
    <glyph glyph-name="ogonek" unicode="&#x2db;" 
d="M737 -14q-44 -21 -73 -38t-63 -44t-51.5 -61.5t-17.5 -75.5q0 -72 53.5 -114t141.5 -42q25 0 57 4l4 -43q-27 -6 -67 -6q-105 0 -169.5 53.5t-64.5 142.5q0 50 21.5 93t60.5 75.5t71.5 53t76.5 41.5z" />
    <glyph glyph-name="tilde" unicode="&#x2dc;" 
d="M913 1386q0 -73 -39.5 -112t-97.5 -36.5t-112 42.5l-78 55q-40 30 -84.5 33.5t-75.5 -24t-31 -80.5h-39q0 54 26 89.5t64.5 45.5t81.5 2.5t78 -33.5l76 -53q70 -52 131 -31.5t61 102.5h39z" />
    <glyph glyph-name="hungarumlaut" unicode="&#x2dd;" 
d="M633 1446h49l-176 -279h-49zM887 1446h49l-178 -279h-47z" />
    <glyph glyph-name="uni0326" unicode="&#x326;" horiz-adv-x="0" 
d="M-764 -465l117 201q-53 0 -53 47q0 22 14 36.5t37 14.5q19 0 35 -13.5t16 -41.5q0 -20 -18.5 -55t-110.5 -189h-37z" />
    <glyph glyph-name="Wgrave" unicode="&#x1e80;" horiz-adv-x="2076" 
d="M1237 1556h-49l-180 279h51zM2126 1393h49l-737 -1403h-43l-207 1337l-682 -1337h-43l-242 1403h45l228 -1336l682 1336h45l206 -1334z" />
    <glyph glyph-name="wgrave" unicode="&#x1e81;" horiz-adv-x="1570" 
d="M903 1126h-49l-180 279h51zM1499 922h47l-512 -922h-47l-137 850l-434 -850h-47l-189 922h45l174 -856l441 856h43l137 -861z" />
    <glyph glyph-name="Wacute" unicode="&#x1e82;" horiz-adv-x="2076" 
d="M1477 1835l-230 -279h-49l227 279h52zM2126 1393h49l-737 -1403h-43l-207 1337l-682 -1337h-43l-242 1403h45l228 -1336l682 1336h45l206 -1334z" />
    <glyph glyph-name="wacute" unicode="&#x1e83;" horiz-adv-x="1570" 
d="M1141 1403l-230 -279h-49l228 279h51zM1499 922h47l-512 -922h-47l-137 850l-434 -850h-47l-189 922h45l174 -856l441 856h43l137 -861z" />
    <glyph glyph-name="Wdieresis" unicode="&#x1e84;" horiz-adv-x="2076" 
d="M1069 1606q-22 0 -36.5 14.5t-14.5 36.5t14.5 36.5t36.5 14.5t36.5 -14.5t14.5 -36.5t-14.5 -36.5t-36.5 -14.5zM1409 1606q-22 0 -36.5 14.5t-14.5 36.5t14.5 36.5t36.5 14.5t36.5 -14.5t14.5 -36.5t-14.5 -36.5t-36.5 -14.5zM2126 1393h49l-737 -1403h-43l-207 1337
l-682 -1337h-43l-242 1403h45l228 -1336l682 1336h45l206 -1334z" />
    <glyph glyph-name="wdieresis" unicode="&#x1e85;" horiz-adv-x="1570" 
d="M735 1217q-22 0 -36.5 14.5t-14.5 36.5t14.5 36.5t36.5 14.5t36.5 -14.5t14.5 -36.5t-14.5 -36.5t-36.5 -14.5zM1075 1217q-22 0 -36.5 14.5t-14.5 36.5t14.5 36.5t36.5 14.5t36.5 -14.5t14.5 -36.5t-14.5 -36.5t-36.5 -14.5zM1499 922h47l-512 -922h-47l-137 850
l-434 -850h-47l-189 922h45l174 -856l441 856h43l137 -861z" />
    <glyph glyph-name="uni1E9E" unicode="&#x1e9e;" horiz-adv-x="1466" 
d="M1444 1393l-6 -33l-629 -604h106q183 0 290.5 -88t107.5 -234q0 -200 -165.5 -329.5t-418.5 -129.5q-126 0 -248 35l8 45q116 -39 250 -39q230 0 378.5 115.5t148.5 296.5q0 130 -96.5 208.5t-260.5 78.5h-178l2 22l641 615h-569q-181 0 -310 -110t-161 -292l-168 -950
h-43l168 950q35 199 178.5 321t343.5 122h631z" />
    <glyph glyph-name="Ygrave" unicode="&#x1ef2;" horiz-adv-x="1310" 
d="M809 1556h-49l-180 279h51zM1425 1393l-745 -867l-92 -526h-45l92 526l-438 867h51l414 -820l708 820h55z" />
    <glyph glyph-name="ygrave" unicode="&#x1ef3;" horiz-adv-x="1148" 
d="M711 1126h-49l-181 279h51zM1130 922h56l-889 -1368h-55l250 385l-312 983h49l295 -932z" />
    <glyph glyph-name="endash" unicode="&#x2013;" horiz-adv-x="1509" 
d="M262 553h1018l8 43h-1018z" />
    <glyph glyph-name="emdash" unicode="&#x2014;" horiz-adv-x="1945" 
d="M262 553h1454l8 43h-1454z" />
    <glyph glyph-name="quoteleft" unicode="&#x2018;" horiz-adv-x="364" 
d="M426 1393l-164 -318q37 -6 37 -41q0 -20 -13.5 -33.5t-33.5 -13.5t-33.5 13.5t-13.5 33.5q0 18 35 84l149 275h37z" />
    <glyph glyph-name="quoteright" unicode="&#x2019;" horiz-adv-x="364" 
d="M197 993l163 318q-36 6 -36 41q0 20 13.5 33.5t33.5 13.5t33.5 -13.5t13.5 -33.5q0 -18 -35 -84l-150 -275h-36z" />
    <glyph glyph-name="quotesinglbase" unicode="&#x201a;" horiz-adv-x="362" 
d="M-37 -328l164 318q-37 6 -37 41q0 20 13.5 33.5t33.5 13.5t33.5 -13.5t13.5 -33.5t-34 -84l-150 -275h-37z" />
    <glyph glyph-name="quotedblleft" unicode="&#x201c;" horiz-adv-x="651" 
d="M426 1393l-164 -318q37 -6 37 -41q0 -20 -13.5 -33.5t-33.5 -13.5t-33.5 13.5t-13.5 33.5q0 18 35 84l149 275h37zM713 1393l-164 -318q37 -6 37 -41q0 -20 -13.5 -33.5t-33.5 -13.5t-33.5 13.5t-13.5 33.5t34 84l150 275h37z" />
    <glyph glyph-name="quotedblright" unicode="&#x201d;" horiz-adv-x="653" 
d="M197 993l163 318q-36 6 -36 41q0 20 13.5 33.5t33.5 13.5t33.5 -13.5t13.5 -33.5q0 -18 -35 -84l-150 -275h-36zM485 993l164 318q-37 6 -37 41q0 20 13.5 33.5t33.5 13.5t34 -13.5t14 -33.5q0 -18 -35 -84l-150 -275h-37z" />
    <glyph glyph-name="quotedblbase" unicode="&#x201e;" horiz-adv-x="651" 
d="M-37 -328l164 318q-37 6 -37 41q0 20 13.5 33.5t33.5 13.5t33.5 -13.5t13.5 -33.5t-34 -84l-150 -275h-37zM252 -328l164 318q-37 6 -37 41q0 20 13.5 33.5t33.5 13.5t33.5 -13.5t13.5 -33.5q0 -18 -35 -84l-149 -275h-37z" />
    <glyph glyph-name="dagger" unicode="&#x2020;" horiz-adv-x="827" 
d="M823 1180h-270l-80 -455h-43l80 455h-268l8 43h268l47 268h43l-47 -268h270z" />
    <glyph glyph-name="daggerdbl" unicode="&#x2021;" horiz-adv-x="829" 
d="M561 1221l-37 -203h271l-7 -43h-270l-45 -250h-43l45 250h-268l6 43h268l37 203h-268l6 43h268l41 227h43l-41 -227h271l-7 -43h-270z" />
    <glyph glyph-name="bullet" unicode="&#x2022;" horiz-adv-x="624" 
d="M342 410q-80 0 -139.5 59.5t-59.5 138.5q0 80 59.5 139.5t139.5 59.5q81 0 141 -59.5t60 -139.5t-59.5 -139t-141.5 -59z" />
    <glyph glyph-name="ellipsis" unicode="&#x2026;" horiz-adv-x="1001" 
d="M74 -16q-20 0 -33.5 13.5t-13.5 33.5t13.5 33.5t33.5 13.5t33.5 -13.5t13.5 -33.5t-13.5 -33.5t-33.5 -13.5zM432 -16q-20 0 -33.5 13.5t-13.5 33.5t13.5 33.5t33.5 13.5t33.5 -13.5t13.5 -33.5t-13.5 -33.5t-33.5 -13.5zM776 -16q-20 0 -33.5 13.5t-13.5 33.5t13.5 33.5
t33.5 13.5t33.5 -13.5t13.5 -33.5t-13.5 -33.5t-33.5 -13.5z" />
    <glyph glyph-name="perthousand" unicode="&#x2030;" horiz-adv-x="3223" 
d="M723 1423q135 0 220 -89.5t85 -227.5q0 -119 -61 -220t-162 -158.5t-215 -57.5q-137 0 -222 89.5t-85 227.5q0 119 61.5 220t163 158.5t215.5 57.5zM1647 1393l-910 -1393h-49l909 1393h50zM715 1380q-74 0 -145 -30.5t-125 -81.5t-86.5 -122.5t-32.5 -150.5
q0 -121 76.5 -200.5t195.5 -79.5q153 0 270 113t117 270q0 122 -75.5 202t-194.5 80zM1796 723q135 0 221 -89.5t86 -227.5q0 -119 -61 -220.5t-162.5 -159t-216.5 -57.5q-135 0 -220 90t-85 228q0 119 61 220t162 158.5t215 57.5zM2716 723q137 0 222 -89.5t85 -227.5
q0 -119 -61 -220.5t-162.5 -159t-216.5 -57.5q-135 0 -220.5 90t-85.5 228q0 119 61.5 220t162.5 158.5t215 57.5zM1790 680q-101 0 -190.5 -51t-144 -140t-54.5 -194q0 -121 75.5 -201t194.5 -80q75 0 146 30t124.5 81t86 122.5t32.5 149.5q0 123 -75.5 203t-194.5 80z
M2710 680q-101 0 -190.5 -51t-144.5 -140t-55 -194q0 -121 76 -201t195 -80q75 0 146 30t124.5 81t86 122.5t32.5 149.5q0 123 -75.5 203t-194.5 80z" />
    <glyph glyph-name="guilsinglleft" unicode="&#x2039;" horiz-adv-x="540" 
d="M393 811h53l-301 -299l197 -291h-51l-199 295z" />
    <glyph glyph-name="guilsinglright" unicode="&#x203a;" horiz-adv-x="540" 
d="M168 221h-53l301 299l-197 291h51l199 -295z" />
    <glyph glyph-name="fraction" unicode="&#x2044;" horiz-adv-x="835" 
d="M897 1393l-909 -1393h-49l909 1393h49z" />
    <glyph glyph-name="uni2070" unicode="&#x2070;" horiz-adv-x="864" 
d="M602 1415q129 0 199.5 -85t70.5 -222q0 -126 -49.5 -231t-143 -168.5t-212.5 -63.5q-128 0 -199 85.5t-71 223.5q0 125 50.5 230t144 168t210.5 63zM473 686q103 0 184.5 57.5t125.5 152t44 206.5q0 122 -60.5 198t-170.5 76q-154 0 -254 -122.5t-100 -292.5
q0 -123 60 -199t171 -76z" />
    <glyph glyph-name="uni2074" unicode="&#x2074;" horiz-adv-x="794" 
d="M766 872l-8 -41h-137l-29 -169h-41l29 169h-433l7 29l342 539h45l-330 -527h377l43 250h41l-43 -250h137z" />
    <glyph glyph-name="uni2075" unicode="&#x2075;" horiz-adv-x="747" 
d="M760 1360h-428l-53 -295h-41l59 334h469zM678 911q0 70 -52 113t-143 43l-204 -2l8 41h207q106 0 166.5 -51t60.5 -137q0 -113 -87.5 -193t-221.5 -80q-106 0 -172.5 57.5t-69.5 153.5h45q3 -79 59.5 -125.5t143.5 -46.5q112 0 186 66.5t74 160.5z" />
    <glyph glyph-name="uni2076" unicode="&#x2076;" horiz-adv-x="733" 
d="M483 1149q107 0 172.5 -58t65.5 -153q0 -125 -96 -209t-232 -84q-107 0 -173 59.5t-66 155.5q0 58 22.5 104.5t67.5 96.5l325 338h54l-256 -271q61 21 116 21zM399 684q113 0 195 70t82 174q0 80 -56 130t-145 50q-118 0 -188 -64l-11 -10q-77 -69 -77 -170
q0 -80 55 -130t145 -50z" />
    <glyph glyph-name="uni2077" unicode="&#x2077;" horiz-adv-x="595" 
d="M209 1399h524l-6 -27l-508 -710h-53l498 696h-463z" />
    <glyph glyph-name="uni2078" unicode="&#x2078;" horiz-adv-x="772" 
d="M598 1051q67 -21 104 -62.5t37 -99.5q0 -106 -91.5 -175t-233.5 -69q-114 0 -181 51t-67 135q0 82 57 140t154 82q-113 40 -113 141q0 93 83.5 157t201.5 64q98 0 159.5 -48.5t61.5 -121.5q0 -71 -47 -121t-125 -73zM309 1198q0 -62 48.5 -97.5t131.5 -35.5q102 0 169 48
t67 126q0 60 -49 99.5t-131 39.5q-97 0 -166.5 -52.5t-69.5 -127.5zM420 684q118 0 195 57.5t77 145.5q0 66 -56 106.5t-153 40.5q-118 0 -193 -54t-75 -140q0 -70 55.5 -113t149.5 -43z" />
    <glyph glyph-name="uni2079" unicode="&#x2079;" horiz-adv-x="733" 
d="M575 1432q107 0 173.5 -60t66.5 -155q0 -58 -22.5 -104.5t-67.5 -96.5l-326 -338h-53l256 270q-58 -20 -117 -20q-107 0 -172 58t-65 153q0 125 95.5 209t231.5 84zM692 1042q78 70 78 170q0 80 -55.5 130.5t-145.5 50.5q-112 0 -194 -70t-82 -174q0 -80 56 -130t145 -50
q119 0 188 63z" />
    <glyph glyph-name="uni2080" unicode="&#x2080;" horiz-adv-x="864" 
d="M420 385q129 0 199.5 -85t70.5 -222q0 -126 -49.5 -231t-143 -168.5t-212.5 -63.5q-129 0 -200 85.5t-71 223.5q0 125 50.5 230t144.5 168t211 63zM291 -344q103 0 184.5 57.5t125.5 152t44 206.5q0 122 -60.5 198t-170.5 76q-154 0 -254.5 -123t-100.5 -293
q0 -122 60.5 -198t171.5 -76z" />
    <glyph glyph-name="uni2081" unicode="&#x2081;" horiz-adv-x="589" 
d="M193 -330h213l-9 -39h-487l8 39h232l114 649l-229 -77l6 41l254 86h22z" />
    <glyph glyph-name="uni2082" unicode="&#x2082;" horiz-adv-x="722" 
d="M305 -127l-252 -203h422l-6 -39h-502l4 25l301 242q58 46 84 67.5t62.5 56t50.5 57t25.5 53t11.5 63.5q0 67 -46 109t-128 42q-87 0 -148.5 -45t-83.5 -121h-43q25 94 99 149.5t180 55.5q100 0 156.5 -51.5t56.5 -132.5q0 -44 -13 -80.5t-46 -76.5t-73.5 -76.5
t-111.5 -94.5z" />
    <glyph glyph-name="uni2083" unicode="&#x2083;" horiz-adv-x="745" 
d="M401 4q55 -19 85 -58.5t30 -95.5q0 -101 -82.5 -166t-212.5 -65q-115 0 -181 49.5t-60 132.5h45q-3 -65 51 -104t147 -39q109 0 179.5 52t70.5 136q0 63 -48.5 101.5t-129.5 38.5h-68l9 37h67v-3v3q90 0 150.5 52.5t60.5 131.5q0 64 -47 101.5t-129 37.5
q-84 0 -142.5 -38t-80.5 -103h-43q25 83 97.5 131.5t174.5 48.5q98 0 154.5 -47t56.5 -125q0 -73 -41.5 -128.5t-112.5 -80.5z" />
    <glyph glyph-name="uni2084" unicode="&#x2084;" horiz-adv-x="794" 
d="M584 -158l-9 -41h-137l-28 -170h-41l28 170h-432l6 29l342 539h45l-329 -527h377l43 250h40l-43 -250h138z" />
    <glyph glyph-name="uni2085" unicode="&#x2085;" horiz-adv-x="747" 
d="M578 330h-428l-54 -295h-41l60 334h469zM496 -119q0 70 -52 113t-143 43l-205 -2l8 41h207q106 0 167 -51.5t61 -137.5q0 -112 -88 -192t-222 -80q-106 0 -172 57.5t-69 153.5h45q3 -79 59.5 -125.5t143.5 -46.5q112 0 186 66.5t74 160.5z" />
    <glyph glyph-name="uni2086" unicode="&#x2086;" horiz-adv-x="733" 
d="M301 119q107 0 172.5 -58t65.5 -153q0 -125 -96 -209t-232 -84q-107 0 -173.5 60t-66.5 155q0 58 22.5 104.5t67.5 96.5l326 338h53l-256 -271q61 21 117 21zM217 -346q113 0 195 70t82 174q0 80 -56 130t-145 50q-119 0 -189 -64l-10 -10q-78 -70 -78 -170
q0 -80 55.5 -130t145.5 -50z" />
    <glyph glyph-name="uni2087" unicode="&#x2087;" horiz-adv-x="595" 
d="M27 369h524l-6 -27l-508 -711h-53l497 697h-463z" />
    <glyph glyph-name="uni2088" unicode="&#x2088;" horiz-adv-x="772" 
d="M416 20q67 -21 104 -62t37 -99q0 -106 -92 -175t-234 -69q-114 0 -180.5 51t-66.5 135q0 82 57 140t154 82q-113 40 -113 141q0 93 83.5 157t201.5 64q98 0 159.5 -48.5t61.5 -121.5q0 -71 -47 -121.5t-125 -73.5zM127 168q0 -62 48.5 -97.5t131.5 -35.5q102 0 169 48
t67 126q0 60 -49.5 99.5t-131.5 39.5q-97 0 -166 -52.5t-69 -127.5zM238 -346q118 0 195 57.5t77 145.5q0 66 -56 106.5t-153 40.5q-118 0 -193 -54t-75 -140q0 -70 55.5 -113t149.5 -43z" />
    <glyph glyph-name="uni2089" unicode="&#x2089;" horiz-adv-x="733" 
d="M391 387q107 0 173.5 -60t66.5 -155q0 -58 -22.5 -104.5t-67.5 -96.5l-326 -338h-53l256 271q-61 -21 -117 -21q-107 0 -172.5 58t-65.5 153q0 125 96 209t232 84zM508 -2q78 70 78 170q0 80 -55.5 130t-145.5 50q-112 0 -194 -70t-82 -174q0 -80 55.5 -130t144.5 -50
q119 0 189 64z" />
    <glyph glyph-name="Euro" unicode="&#x20ac;" horiz-adv-x="1828" 
d="M1200 1374q-241 0 -451 -147t-303 -375h762l-18 -41h-758q-22 -59 -31 -115q-13 -82 -10 -151h684l-16 -41h-664q25 -215 179.5 -350.5t383.5 -135.5q226 0 408.5 116t265.5 304h49q-89 -207 -287 -335t-442 -128q-248 0 -414 148t-190 381h-282l6 41h274q-3 69 10 151
q7 49 29 115h-266l8 41h274q98 246 323 405.5t484 159.5q244 0 396.5 -128t167.5 -335h-50q-15 189 -155.5 304.5t-366.5 115.5z" />
    <glyph glyph-name="uni20B9" unicode="&#x20b9;" horiz-adv-x="1267" 
d="M1278 1393l-6 -41h-527q104 -42 160 -122.5t56 -191.5q0 -23 -3 -47h250l-8 -41h-248q-33 -184 -194 -290.5t-398 -106.5h-124l583 -553h-65l-584 553l8 41h191q214 0 360 95t176 261h-641l8 41h639q2 14 2 41q0 150 -110.5 235t-300.5 85h-191l6 41h961z" />
    <glyph glyph-name="uni2116" unicode="&#x2116;" horiz-adv-x="2873" 
d="M1249 59l236 1334h45l-246 -1393h-53l-797 1333l-235 -1333h-45l245 1393h52zM2087 262q-182 0 -298 118t-116 296q0 111 49.5 214.5t130.5 178t188 119.5t218 45q180 0 296 -119t116 -297q0 -147 -83.5 -276.5t-218 -204t-282.5 -74.5zM2253 1192q-101 0 -199 -41.5
t-171.5 -110t-119 -163t-45.5 -195.5q0 -163 105.5 -271t269.5 -108q100 0 197.5 41t171 109t119 162.5t45.5 195.5q0 162 -105.5 271.5t-267.5 109.5zM1597 0l9 41h929l-8 -41h-930z" />
    <glyph glyph-name="uni2117" unicode="&#x2117;" horiz-adv-x="1798" 
d="M940 1423q201 0 372 -94t272.5 -262t101.5 -371t-101.5 -371t-272.5 -262t-372 -94q-150 0 -287 55.5t-238 151.5t-160.5 231.5t-59.5 288.5t59.5 288.5t160.5 231.5t238 151.5t287 55.5zM940 1384q-187 0 -348 -90t-257.5 -249t-96.5 -349t96.5 -349t257.5 -249t348 -90
t348.5 90t259 249t97.5 349t-97.5 349t-259 249t-348.5 90zM979 1100q140 0 225.5 -69t85.5 -181t-85.5 -180t-225.5 -68h-229v-309h-41v807h270zM979 1063h-229v-424h229q122 0 196 58t74 153t-74.5 154t-195.5 59z" />
    <glyph glyph-name="trademark" unicode="&#x2122;" horiz-adv-x="1374" 
d="M698 1391l-4 -33h-239l-99 -565h-37l99 565h-236l4 33h512zM1407 1391l-104 -598h-37l94 528l-330 -438h-16l-180 444l-93 -534h-36l104 598h35l184 -453l340 453h39z" />
    <glyph glyph-name="oneeighth" unicode="&#x215b;" horiz-adv-x="1507" 
d="M92 659l8 39h232l114 650l-229 -78l6 41l254 86h23l-125 -699h213l-8 -39h-488zM1161 1393h49l-909 -1393h-49zM1214 389q67 -21 104.5 -62.5t37.5 -99.5q0 -106 -92 -174.5t-234 -68.5q-114 0 -181 51t-67 135q0 82 57 139.5t154 81.5q-112 40 -112 141q0 93 83 157.5
t201 64.5q98 0 159.5 -48.5t61.5 -121.5q0 -71 -47 -121.5t-125 -73.5zM926 537q0 -62 49 -98t131 -36q101 0 168 48.5t67 126.5q0 60 -49 99.5t-131 39.5q-97 0 -166 -52.5t-69 -127.5zM1036 23q119 0 196 57t77 145q0 66 -56 107t-153 41q-117 0 -193 -54.5t-76 -140.5
q0 -70 55.5 -112.5t149.5 -42.5z" />
    <glyph glyph-name="threeeighths" unicode="&#x215c;" horiz-adv-x="1619" 
d="M698 887q0 -102 -82.5 -167t-212.5 -65q-114 0 -180.5 50t-60.5 133h45q-3 -65 51.5 -104.5t147.5 -39.5q108 0 178.5 52.5t70.5 136.5q0 63 -48.5 101t-129.5 38h-67l8 37h67v-2v2q90 0 150.5 52.5t60.5 131.5q0 64 -47 101.5t-129 37.5q-84 0 -142.5 -38t-80.5 -103
h-43q25 83 97.5 131.5t174.5 48.5q98 0 154.5 -47t56.5 -125q0 -73 -41 -128.5t-112 -80.5q114 -39 114 -153zM1266 1393h49l-909 -1393h-50zM1327 389q67 -21 104 -62.5t37 -99.5q0 -106 -91.5 -174.5t-233.5 -68.5q-114 0 -181 51t-67 135q0 82 57 139.5t154 81.5
q-113 40 -113 141q0 93 83.5 157.5t201.5 64.5q98 0 159.5 -48.5t61.5 -121.5q0 -71 -47 -121.5t-125 -73.5zM1038 537q0 -62 49 -98t132 -36q101 0 168 48.5t67 126.5q0 60 -49 99.5t-131 39.5q-97 0 -166.5 -52.5t-69.5 -127.5zM1149 23q118 0 195 57t77 145q0 66 -56 107
t-153 41q-117 0 -192.5 -54.5t-75.5 -140.5q0 -70 55.5 -112.5t149.5 -42.5z" />
    <glyph glyph-name="fiveeighths" unicode="&#x215d;" horiz-adv-x="1632" 
d="M760 1358h-428l-53 -295h-41l59 334h469zM1286 1393h49l-909 -1393h-49zM721 915q0 -113 -87.5 -192.5t-221.5 -79.5q-106 0 -172.5 57.5t-69.5 153.5h45q3 -79 59.5 -125.5t143.5 -46.5q112 0 186 66.5t74 160.5q0 70 -52 113t-143 43l-204 -2l8 41h207
q106 0 166.5 -51.5t60.5 -137.5zM1339 389q67 -21 104.5 -62.5t37.5 -99.5q0 -106 -92 -174.5t-234 -68.5q-114 0 -181 51t-67 135q0 82 57 139.5t154 81.5q-112 40 -112 141q0 93 83 157.5t201 64.5q98 0 159.5 -48.5t61.5 -121.5q0 -71 -47 -121.5t-125 -73.5zM1051 537
q0 -62 49 -98t131 -36q101 0 168 48.5t67 126.5q0 60 -49 99.5t-131 39.5q-97 0 -166 -52.5t-69 -127.5zM1161 23q119 0 196 57t77 145q0 66 -56 107t-153 41q-117 0 -193 -54.5t-76 -140.5q0 -70 55.5 -112.5t149.5 -42.5z" />
    <glyph glyph-name="seveneighths" unicode="&#x215e;" horiz-adv-x="1421" 
d="M219 659h-53l498 697h-463l8 41h524l-6 -27zM1042 1393h50l-910 -1393h-49zM1128 389q67 -21 104.5 -62.5t37.5 -99.5q0 -106 -92 -174.5t-234 -68.5q-114 0 -181 51t-67 135q0 82 57 139.5t154 81.5q-112 40 -112 141q0 93 83 157.5t201 64.5q98 0 159.5 -48.5
t61.5 -121.5q0 -71 -47 -121.5t-125 -73.5zM840 537q0 -62 49 -98t131 -36q101 0 168 48.5t67 126.5q0 60 -49 99.5t-131 39.5q-97 0 -166 -52.5t-69 -127.5zM950 23q119 0 196 57t77 145q0 66 -56 107t-153 41q-117 0 -193 -54.5t-76 -140.5q0 -70 55.5 -112.5t149.5 -42.5
z" />
    <glyph glyph-name="arrowleft" unicode="&#x2190;" horiz-adv-x="1568" 
d="M1487 680h-1337l663 -664l-31 -28l-712 712l712 713l31 -29l-663 -663h1337v-41z" />
    <glyph glyph-name="arrowup" unicode="&#x2191;" horiz-adv-x="1609" 
d="M784 0v1337l-663 -663l-29 31l713 712l713 -712l-29 -31l-664 663v-1337h-41z" />
    <glyph glyph-name="arrowright" unicode="&#x2192;" horiz-adv-x="1568" 
d="M82 680v41h1337l-663 663l30 29l713 -713l-713 -712l-30 28l663 664h-1337z" />
    <glyph glyph-name="arrowdown" unicode="&#x2193;" horiz-adv-x="1609" 
d="M784 1393h41v-1338l664 664l29 -31l-713 -713l-713 713l29 31l663 -664v1338z" />
    <glyph glyph-name="uni2196" unicode="&#x2196;" horiz-adv-x="1685" 
d="M1583 23l-29 -29l-1327 1327v-938l-43 2v1008h1008l2 -43h-938z" />
    <glyph glyph-name="uni2197" unicode="&#x2197;" horiz-adv-x="1767" 
d="M184 23l1327 1327h-938l2 43h1008v-1008l-43 -2v938l-1327 -1327z" />
    <glyph glyph-name="uni2198" unicode="&#x2198;" horiz-adv-x="1685" 
d="M102 1370l29 29l1327 -1327v938l43 -2v-1008h-1007l-2 43h938z" />
    <glyph glyph-name="uni2199" unicode="&#x2199;" horiz-adv-x="1634" 
d="M1583 1370l-1327 -1327h938l-2 -43h-1008v1008l43 2v-938l1327 1327z" />
    <glyph glyph-name="minus" unicode="&#x2212;" horiz-adv-x="1396" 
d="M274 625l9 43h905l-8 -43h-906z" />
    <glyph glyph-name="R.ss02" horiz-adv-x="1435" 
d="M1317 1028q0 -212 -168 -343.5t-432 -131.5h-250l723 -553h-78l-721 553h-94l-98 -553h-45l245 1393h467q212 0 331.5 -94.5t119.5 -270.5zM436 1352l-133 -756h420q239 0 394 117.5t155 308.5q0 160 -106 245t-298 85h-432z" />
    <glyph glyph-name="Racute.ss02" horiz-adv-x="1435" 
d="M1069 1835l-229 -279h-49l227 279h51zM1317 1028q0 -212 -168 -343.5t-432 -131.5h-250l723 -553h-78l-721 553h-94l-98 -553h-45l245 1393h467q212 0 331.5 -94.5t119.5 -270.5zM436 1352l-133 -756h420q239 0 394 117.5t155 308.5q0 160 -106 245t-298 85h-432z" />
    <glyph glyph-name="Rcaron.ss02" horiz-adv-x="1435" 
d="M924 1565h-72l-211 278h53l195 -250l282 250h62zM1317 1028q0 -212 -168 -343.5t-432 -131.5h-250l723 -553h-78l-721 553h-94l-98 -553h-45l245 1393h467q212 0 331.5 -94.5t119.5 -270.5zM436 1352l-133 -756h420q239 0 394 117.5t155 308.5q0 160 -106 245t-298 85
h-432z" />
    <glyph glyph-name="Rcommaaccent.ss02" horiz-adv-x="1435" 
d="M1317 1028q0 -212 -168 -343.5t-432 -131.5h-250l723 -553h-78l-721 553h-94l-98 -553h-45l245 1393h467q212 0 331.5 -94.5t119.5 -270.5zM436 1352l-133 -756h420q239 0 394 117.5t155 308.5q0 160 -106 245t-298 85h-432zM582 -166q19 0 35 -13.5t16 -41.5
q0 -20 -18.5 -55t-110.5 -189h-37l117 201q-28 0 -41 13t-13 34q0 22 14.5 36.5t37.5 14.5z" />
    <glyph glyph-name="Q.ss03" horiz-adv-x="1744" 
d="M1040 1417q176 0 316 -81t217.5 -221.5t77.5 -313.5q0 -164 -73 -317.5t-192.5 -264.5t-277.5 -177.5t-322 -66.5q-176 0 -316 81.5t-217 222t-77 313.5q0 164 73 317.5t192 264t277 177t322 66.5zM793 18q123 0 244.5 40t223 112.5t179.5 168t122 214t44 242.5
q0 121 -42.5 228t-117 184t-181.5 122t-231 45q-123 0 -244.5 -39.5t-223 -112.5t-179.5 -168t-122 -213.5t-44 -242.5q0 -162 72 -294t203.5 -209t296.5 -77zM784 -203l664 -178l-16 -47q-275 71 -662 190z" />
    <glyph glyph-name="i.loclTRK" horiz-adv-x="505" 
d="M399 1241q-20 0 -33.5 13.5t-13.5 33.5t13.5 33.5t33.5 13.5t33.5 -13.5t13.5 -33.5t-13.5 -33.5t-33.5 -13.5zM311 922h43l-161 -922h-43z" />
    <glyph glyph-name="germandbls.case" horiz-adv-x="1466" 
d="M1444 1393l-6 -33l-629 -604h106q183 0 290.5 -88t107.5 -234q0 -200 -165.5 -329.5t-418.5 -129.5q-126 0 -248 35l8 45q116 -39 250 -39q230 0 378.5 115.5t148.5 296.5q0 130 -96.5 208.5t-260.5 78.5h-178l2 22l641 615h-569q-181 0 -310 -110t-161 -292l-168 -950
h-43l168 950q35 199 178.5 321t343.5 122h631z" />
    <glyph glyph-name="l.ss01" horiz-adv-x="681" 
d="M424 1454l-217 -1227q-39 -217 137 -217q53 0 162 23l2 -39q-106 -25 -170 -25q-219 0 -174 258l217 1227h43z" />
    <glyph glyph-name="lacute.ss01" horiz-adv-x="681" 
d="M645 1935h51l-229 -278h-49zM424 1454l-217 -1227q-39 -217 137 -217q53 0 162 23l2 -39q-106 -25 -170 -25q-219 0 -174 258l217 1227h43z" />
    <glyph glyph-name="lcaron.ss01" horiz-adv-x="681" 
d="M424 1454l-217 -1227q-39 -217 137 -217q53 0 162 23l2 -39q-106 -25 -170 -25q-219 0 -174 258l217 1227h43zM629 1454h45l-96 -348h-39z" />
    <glyph glyph-name="lcommaaccent.ss01" horiz-adv-x="681" 
d="M424 1454l-217 -1227q-39 -217 137 -217q53 0 162 23l2 -39q-106 -25 -170 -25q-219 0 -174 258l217 1227h43zM176 -465l117 201q-53 0 -53 47q0 22 14 36.5t37 14.5q19 0 35 -13.5t16 -41.5q0 -20 -18.5 -55t-110.5 -189h-37z" />
    <glyph glyph-name="ldot.ss01" horiz-adv-x="681" 
d="M424 1454l-217 -1227q-39 -217 137 -217q53 0 162 23l2 -39q-106 -25 -170 -25q-219 0 -174 258l217 1227h43zM496 573q-22 0 -37 15t-15 37t15 36.5t37 14.5t36.5 -14.5t14.5 -36.5t-14.5 -37t-36.5 -15z" />
    <glyph glyph-name="lslash.ss01" horiz-adv-x="681" 
d="M344 10q53 0 162 23l2 -39q-106 -25 -170 -25q-219 0 -174 258l76 432l-142 -77l11 51l141 78l131 743h43l-127 -719l219 121l-10 -51l-217 -119l-82 -459q-39 -217 137 -217z" />
    <glyph glyph-name="y.ss04" horiz-adv-x="1220" 
d="M1042 922h43l-172 -985q-34 -188 -165.5 -298t-321.5 -110q-165 0 -265.5 83t-109.5 216h47q9 -115 98 -186.5t236 -71.5q171 0 289 99t149 268l37 213q-79 -85 -190.5 -130t-224.5 -45q-185 0 -273 102t-55 288l98 557h43l-98 -557q-30 -167 48 -258t243 -91
q118 0 233.5 54.5t188.5 150.5z" />
    <glyph glyph-name="yacute.ss04" horiz-adv-x="1220" 
d="M936 1403l-229 -279h-50l228 279h51zM1042 922h43l-172 -985q-34 -188 -165.5 -298t-321.5 -110q-165 0 -265.5 83t-109.5 216h47q9 -115 98 -186.5t236 -71.5q171 0 289 99t149 268l37 213q-79 -85 -190.5 -130t-224.5 -45q-185 0 -273 102t-55 288l98 557h43l-98 -557
q-30 -167 48 -258t243 -91q118 0 233.5 54.5t188.5 150.5z" />
    <glyph glyph-name="ycircumflex.ss04" horiz-adv-x="1220" 
d="M780 1364l-284 -250h-64l313 279h74l207 -279h-53zM1042 922h43l-172 -985q-34 -188 -165.5 -298t-321.5 -110q-165 0 -265.5 83t-109.5 216h47q9 -115 98 -186.5t236 -71.5q171 0 289 99t149 268l37 213q-79 -85 -190.5 -130t-224.5 -45q-185 0 -273 102t-55 288l98 557
h43l-98 -557q-30 -167 48 -258t243 -91q118 0 233.5 54.5t188.5 150.5z" />
    <glyph glyph-name="ydieresis.ss04" horiz-adv-x="1220" 
d="M530 1217q-22 0 -36.5 14.5t-14.5 36.5t14.5 36.5t36.5 14.5t37 -14.5t15 -36.5t-15 -36.5t-37 -14.5zM870 1217q-22 0 -36.5 14.5t-14.5 36.5t14.5 36.5t36.5 14.5t37 -14.5t15 -36.5t-15 -36.5t-37 -14.5zM1042 922h43l-172 -985q-34 -188 -165.5 -298t-321.5 -110
q-165 0 -265.5 83t-109.5 216h47q9 -115 98 -186.5t236 -71.5q171 0 289 99t149 268l37 213q-79 -85 -190.5 -130t-224.5 -45q-185 0 -273 102t-55 288l98 557h43l-98 -557q-30 -167 48 -258t243 -91q118 0 233.5 54.5t188.5 150.5z" />
    <glyph glyph-name="ygrave.ss04" horiz-adv-x="1220" 
d="M698 1126h-49l-180 279h51zM1042 922h43l-172 -985q-34 -188 -165.5 -298t-321.5 -110q-165 0 -265.5 83t-109.5 216h47q9 -115 98 -186.5t236 -71.5q171 0 289 99t149 268l37 213q-79 -85 -190.5 -130t-224.5 -45q-185 0 -273 102t-55 288l98 557h43l-98 -557
q-30 -167 48 -258t243 -91q118 0 233.5 54.5t188.5 150.5z" />
    <glyph glyph-name="a.ss06" horiz-adv-x="1124" 
d="M643 946q190 0 278.5 -118.5t51.5 -321.5l-88 -506h-45l22 129q-196 -154 -440 -154q-152 0 -240 64.5t-88 177.5q0 123 99.5 206t275.5 83h459q35 184 -43.5 291.5t-247.5 107.5q-144 0 -238.5 -68t-130.5 -202h-49q42 153 151 232t273 79zM434 20q248 0 438 166l48 277
h-457q-154 0 -238 -68.5t-84 -169.5q0 -95 79.5 -150t213.5 -55z" />
    <glyph glyph-name="aacute.ss06" horiz-adv-x="1124" 
d="M946 1403l-229 -279h-49l227 279h51zM643 946q190 0 278.5 -118.5t51.5 -321.5l-88 -506h-45l22 129q-196 -154 -440 -154q-152 0 -240 64.5t-88 177.5q0 123 99.5 206t275.5 83h459q35 184 -43.5 291.5t-247.5 107.5q-144 0 -238.5 -68t-130.5 -202h-49q42 153 151 232
t273 79zM434 20q248 0 438 166l48 277h-457q-154 0 -238 -68.5t-84 -169.5q0 -95 79.5 -150t213.5 -55z" />
    <glyph glyph-name="abreve.ss06" horiz-adv-x="1124" 
d="M645 1108q-106 0 -175.5 67t-49.5 187h41q-17 -101 41.5 -158t144.5 -57q52 0 105.5 22.5t98 73.5t56.5 119h45q-14 -81 -64 -140.5t-113 -86.5t-130 -27zM643 946q190 0 278.5 -118.5t51.5 -321.5l-88 -506h-45l22 129q-196 -154 -440 -154q-152 0 -240 64.5t-88 177.5
q0 123 99.5 206t275.5 83h459q35 184 -43.5 291.5t-247.5 107.5q-144 0 -238.5 -68t-130.5 -202h-49q42 153 151 232t273 79zM434 20q248 0 438 166l48 277h-457q-154 0 -238 -68.5t-84 -169.5q0 -95 79.5 -150t213.5 -55z" />
    <glyph glyph-name="uni01CE.ss06" horiz-adv-x="1124" 
d="M743 1114h-71l-211 279h53l195 -250l282 250h62zM643 946q190 0 278.5 -118.5t51.5 -321.5l-88 -506h-45l22 129q-196 -154 -440 -154q-152 0 -240 64.5t-88 177.5q0 123 99.5 206t275.5 83h459q35 184 -43.5 291.5t-247.5 107.5q-144 0 -238.5 -68t-130.5 -202h-49
q42 153 151 232t273 79zM434 20q248 0 438 166l48 277h-457q-154 0 -238 -68.5t-84 -169.5q0 -95 79.5 -150t213.5 -55z" />
    <glyph glyph-name="acircumflex.ss06" horiz-adv-x="1116" 
d="M750 1364l-285 -250h-64l314 279h73l207 -279h-53zM643 946q190 0 278.5 -118.5t51.5 -321.5l-88 -506h-45l22 129q-196 -154 -440 -154q-152 0 -240 64.5t-88 177.5q0 123 99.5 206t275.5 83h459q35 184 -43.5 291.5t-247.5 107.5q-144 0 -238.5 -68t-130.5 -202h-49
q42 153 151 232t273 79zM434 20q248 0 438 166l48 277h-457q-154 0 -238 -68.5t-84 -169.5q0 -95 79.5 -150t213.5 -55z" />
    <glyph glyph-name="adieresis.ss06" horiz-adv-x="1124" 
d="M541 1217q-22 0 -37 14.5t-15 36.5t15 36.5t37 14.5t36.5 -14.5t14.5 -36.5t-14.5 -36.5t-36.5 -14.5zM881 1217q-22 0 -37 14.5t-15 36.5t15 36.5t37 14.5t36.5 -14.5t14.5 -36.5t-14.5 -36.5t-36.5 -14.5zM643 946q190 0 278.5 -118.5t51.5 -321.5l-88 -506h-45l22 129
q-196 -154 -440 -154q-152 0 -240 64.5t-88 177.5q0 123 99.5 206t275.5 83h459q35 184 -43.5 291.5t-247.5 107.5q-144 0 -238.5 -68t-130.5 -202h-49q42 153 151 232t273 79zM434 20q248 0 438 166l48 277h-457q-154 0 -238 -68.5t-84 -169.5q0 -95 79.5 -150t213.5 -55z
" />
    <glyph glyph-name="agrave.ss06" horiz-adv-x="1124" 
d="M709 1126h-50l-180 279h51zM643 946q190 0 278.5 -118.5t51.5 -321.5l-88 -506h-45l22 129q-196 -154 -440 -154q-152 0 -240 64.5t-88 177.5q0 123 99.5 206t275.5 83h459q35 184 -43.5 291.5t-247.5 107.5q-144 0 -238.5 -68t-130.5 -202h-49q42 153 151 232t273 79z
M434 20q248 0 438 166l48 277h-457q-154 0 -238 -68.5t-84 -169.5q0 -95 79.5 -150t213.5 -55z" />
    <glyph glyph-name="amacron.ss06" horiz-adv-x="1116" 
d="M991 1204l-8 -37h-565l8 37h565zM643 946q190 0 278.5 -118.5t51.5 -321.5l-88 -506h-45l22 129q-196 -154 -440 -154q-152 0 -240 64.5t-88 177.5q0 123 99.5 206t275.5 83h459q35 184 -43.5 291.5t-247.5 107.5q-144 0 -238.5 -68t-130.5 -202h-49q42 153 151 232
t273 79zM434 20q248 0 438 166l48 277h-457q-154 0 -238 -68.5t-84 -169.5q0 -95 79.5 -150t213.5 -55z" />
    <glyph glyph-name="aogonek.ss06" horiz-adv-x="1124" 
d="M885 0q-44 -21 -73 -38t-63 -44t-51.5 -61.5t-17.5 -75.5q0 -72 53 -114t141 -42q26 0 58 4l4 -43q-27 -6 -68 -6q-105 0 -169 54t-64 143q0 147 209 252l18 100q-196 -154 -440 -154q-152 0 -240 64.5t-88 177.5q0 123 99.5 206t275.5 83h459q35 184 -43.5 291.5
t-247.5 107.5q-144 0 -238.5 -68t-130.5 -202h-49q42 153 151 232t273 79q190 0 278.5 -118.5t51.5 -321.5zM434 20q248 0 438 166l48 277h-457q-154 0 -238 -68.5t-84 -169.5q0 -95 79.5 -150t213.5 -55z" />
    <glyph glyph-name="aring.ss06" horiz-adv-x="1116" 
d="M690 1120q-75 0 -126.5 50.5t-51.5 125.5t51.5 126t126.5 51t126.5 -51t51.5 -126t-51.5 -125.5t-126.5 -50.5zM690 1436q-58 0 -98.5 -41.5t-40.5 -98.5q0 -58 40.5 -98.5t98.5 -40.5t98.5 40.5t40.5 98.5q0 57 -40.5 98.5t-98.5 41.5zM643 946q190 0 278.5 -118.5
t51.5 -321.5l-88 -506h-45l22 129q-196 -154 -440 -154q-152 0 -240 64.5t-88 177.5q0 123 99.5 206t275.5 83h459q35 184 -43.5 291.5t-247.5 107.5q-144 0 -238.5 -68t-130.5 -202h-49q42 153 151 232t273 79zM434 20q248 0 438 166l48 277h-457q-154 0 -238 -68.5
t-84 -169.5q0 -95 79.5 -150t213.5 -55z" />
    <glyph glyph-name="atilde.ss06" horiz-adv-x="1116" 
d="M649 1294q-40 30 -84 33.5t-75 -24t-31 -80.5h-39q0 54 26 89.5t64.5 45.5t81.5 2.5t78 -33.5l75 -53q71 -52 132 -31t61 103h39q0 -73 -40 -112.5t-98 -37t-112 42.5zM643 946q190 0 278.5 -118.5t51.5 -321.5l-88 -506h-45l22 129q-196 -154 -440 -154
q-152 0 -240 64.5t-88 177.5q0 123 99.5 206t275.5 83h459q35 184 -43.5 291.5t-247.5 107.5q-144 0 -238.5 -68t-130.5 -202h-49q42 153 151 232t273 79zM434 20q248 0 438 166l48 277h-457q-154 0 -238 -68.5t-84 -169.5q0 -95 79.5 -150t213.5 -55z" />
    <glyph glyph-name="zero.osf" horiz-adv-x="1411" 
d="M819 1118q210 0 335.5 -127t125.5 -342q0 -147 -53 -274t-143 -214t-211 -136.5t-255 -49.5q-210 0 -335 127t-125 342q0 147 52.5 274t142 214t210.5 136.5t256 49.5zM625 16q123 0 234 46t193 126.5t130.5 199t48.5 255.5q0 199 -114 316.5t-304 117.5
q-123 0 -234 -45.5t-193 -126t-130.5 -199t-48.5 -255.5q0 -199 114 -317t304 -118z" />
    <glyph glyph-name="one.osf" horiz-adv-x="1015" 
d="M481 41h389l-8 -41h-862l8 41h430l180 1032l-425 -158l8 48l450 163h21z" />
    <glyph glyph-name="two.osf" horiz-adv-x="1099" 
d="M446 238l-317 -197h776l-6 -41h-876l4 27l389 239q230 142 297 190q171 123 221 237q27 62 27 128q0 131 -86.5 203t-235.5 72q-166 0 -292.5 -91t-170.5 -241h-43q43 168 182.5 270.5t327.5 102.5q169 0 266 -81t97 -229q0 -40 -9 -77t-21.5 -69t-39.5 -67t-50 -61.5
t-66.5 -61.5t-75.5 -59.5t-90 -62.5t-97.5 -62.5t-110.5 -68.5z" />
    <glyph glyph-name="three.osf" horiz-adv-x="1202" 
d="M743 420q106 -32 166 -110.5t60 -186.5q0 -192 -148.5 -313t-380.5 -121q-203 0 -322 91t-106 240h45q-8 -131 97.5 -210.5t285.5 -79.5q211 0 347.5 108t136.5 279q0 128 -89.5 205t-242.5 77h-121l6 41h121q176 0 292 106t116 269q0 127 -89 201t-247 74t-274 -74.5
t-156 -202.5h-47q41 146 170 231.5t309 85.5q179 0 279 -82.5t100 -226.5t-84.5 -251.5t-223.5 -149.5z" />
    <glyph glyph-name="four.osf" horiz-adv-x="1323" 
d="M1116 106l-8 -40h-254l-59 -332h-43l59 332h-780l6 26l633 1034h47l-621 -1020h721l86 488h43l-86 -488h256z" />
    <glyph glyph-name="five.osf" horiz-adv-x="1185" 
d="M1116 1071h-770l-129 -526h420q188 0 295.5 -93.5t107.5 -250.5q0 -139 -70.5 -254.5t-197.5 -183.5t-285 -68q-217 0 -340.5 102.5t-126.5 284.5h48q5 -163 117.5 -254.5t308.5 -91.5q215 0 358 134.5t143 324.5q0 141 -97.5 225t-270.5 84l-463 -2l149 610h809z" />
    <glyph glyph-name="six.osf" horiz-adv-x="1294" 
d="M725 911q189 0 304.5 -107t115.5 -284q0 -157 -80 -283t-213.5 -194t-292.5 -68q-189 0 -303.5 107t-114.5 285q0 109 41 198.5t119 175.5l610 652h64l-512 -539q128 57 262 57zM567 16q143 0 264 62t194 176.5t73 257.5q0 161 -104.5 259.5t-274.5 98.5
q-215 0 -363 -129l-24 -26q-144 -144 -144 -342q0 -162 104 -259.5t275 -97.5z" />
    <glyph glyph-name="seven.osf" horiz-adv-x="1028" 
d="M170 1106h934l-4 -29l-948 -1364h-58l944 1352h-874z" />
    <glyph glyph-name="eight.osf" horiz-adv-x="1306" 
d="M856 735q135 -29 211 -110.5t76 -196.5q0 -198 -164 -325.5t-414 -127.5q-201 0 -317.5 92.5t-116.5 249.5q0 160 113 272t301 148q-108 30 -169 100.5t-61 172.5q0 113 69 207t185 147t252 53q169 0 274 -87t105 -224q0 -142 -94 -239t-250 -132zM358 1014
q0 -124 94.5 -193t249.5 -69q126 0 228 40.5t163.5 121t61.5 186.5q0 123 -93.5 200.5t-246.5 77.5q-188 0 -322.5 -106t-134.5 -258zM571 16q228 0 376.5 114.5t148.5 293.5q0 133 -108.5 214t-291.5 81q-227 0 -373.5 -109.5t-146.5 -285.5q0 -141 106.5 -224.5
t288.5 -83.5z" />
    <glyph glyph-name="nine.osf" horiz-adv-x="1294" 
d="M760 1098q189 0 303.5 -106.5t114.5 -284.5q0 -109 -41 -199t-119 -176l-610 -651h-64l512 538q-128 -57 -262 -57q-189 0 -304.5 107t-115.5 284q0 157 80 283t213.5 194t292.5 68zM987 358q143 143 143 342q0 162 -103.5 259.5t-274.5 97.5q-143 0 -264 -62
t-194 -176.5t-73 -257.5q0 -161 104.5 -259.5t274.5 -98.5q215 0 363 129z" />
    <glyph glyph-name="zero.osf.zero" horiz-adv-x="1411" 
d="M819 1118q210 0 335.5 -127t125.5 -342q0 -147 -53 -274t-143 -214t-211 -136.5t-255 -49.5q-210 0 -335 127t-125 342q0 147 52.5 274t142 214t210.5 136.5t256 49.5zM813 1077q-123 0 -234 -45.5t-193 -126t-130.5 -199t-48.5 -255.5q0 -138 57 -240l891 702
q-117 164 -342 164zM625 16q123 0 234 46t193 126.5t130.5 199t48.5 255.5q0 134 -55 238l-889 -705q54 -77 141 -118.5t197 -41.5z" />
    <glyph glyph-name="zero.tf" horiz-adv-x="1372" 
d="M856 1417q201 0 314.5 -149.5t113.5 -405.5q0 -251 -91 -454.5t-248 -318t-347 -114.5q-201 0 -314.5 149.5t-113.5 405.5q0 251 91 454.5t248 318t347 114.5zM606 16q174 0 318.5 109t228.5 302.5t84 430.5q0 239 -103 378.5t-286 139.5q-174 0 -318.5 -108.5
t-228.5 -302t-84 -430.5q0 -239 103 -379t286 -140z" />
    <glyph glyph-name="one.tf" horiz-adv-x="1372" 
d="M1098 41l-8 -41h-945l9 41h444l227 1298l-426 -157l9 47l450 164h21l-238 -1352h457z" />
    <glyph glyph-name="two.tf" horiz-adv-x="1372" 
d="M772 463l-512 -422h811l-8 -41h-897l6 27l567 465q78 64 118 97.5t95 82.5t80.5 79t57.5 72t45 77t22.5 77.5t9.5 89.5q0 140 -92.5 224.5t-251.5 84.5q-169 0 -299 -88.5t-174 -236.5h-43q42 166 186 266t334 100q179 0 283 -94t104 -250q0 -57 -9 -104.5t-33.5 -95.5
t-54.5 -88.5t-85.5 -95t-111.5 -103t-148 -123.5z" />
    <glyph glyph-name="three.tf" horiz-adv-x="1372" 
d="M901 707q106 -32 165.5 -110.5t59.5 -186.5q0 -192 -148 -313.5t-380 -121.5q-203 0 -322 91.5t-106 240.5h45q-8 -131 97.5 -211t285.5 -80q210 0 346.5 108t136.5 279q0 128 -89 205.5t-242 77.5h-121l6 41h121q176 0 291.5 106t115.5 269q0 127 -89 200.5t-247 73.5
t-274 -74.5t-156 -201.5h-47q41 146 170 231.5t309 85.5q179 0 279 -82.5t100 -226.5t-84 -251.5t-223 -149.5z" />
    <glyph glyph-name="four.tf" horiz-adv-x="1372" 
d="M1208 373l-8 -41h-254l-59 -332h-43l59 332h-780l6 26l633 1035h47l-621 -1020h721l86 487h43l-86 -487h256z" />
    <glyph glyph-name="five.tf" horiz-adv-x="1372" 
d="M1253 1352h-770l-129 -527h420q189 0 296.5 -93.5t107.5 -250.5q0 -139 -70.5 -254.5t-197.5 -183.5t-285 -68q-217 0 -340.5 102.5t-126.5 284.5h47q5 -163 117.5 -254.5t308.5 -91.5q215 0 358.5 134.5t143.5 324.5q0 141 -98 225t-271 84l-463 -2l150 611h809z" />
    <glyph glyph-name="six.tf" horiz-adv-x="1372" 
d="M741 911q189 0 304.5 -107t115.5 -284q0 -157 -80 -283t-213.5 -194t-292.5 -68q-189 0 -303 107t-114 285q0 109 40.5 198.5t118.5 175.5l611 652h63l-512 -539q128 57 262 57zM584 16q143 0 264 62t193.5 176.5t72.5 257.5q0 161 -104.5 259.5t-274.5 98.5
q-214 0 -362 -129l-25 -26q-143 -143 -143 -342q0 -162 104 -259.5t275 -97.5z" />
    <glyph glyph-name="seven.tf" horiz-adv-x="1372" 
d="M383 1393h934l-4 -29l-948 -1364h-58l944 1352h-874z" />
    <glyph glyph-name="eight.tf" horiz-adv-x="1372" 
d="M889 735q135 -29 211 -110.5t76 -196.5q0 -198 -164 -325.5t-414 -127.5q-200 0 -317 92.5t-117 249.5q0 160 113 272t301 148q-108 30 -169 100.5t-61 172.5q0 113 69 207t185 147t252 53q169 0 274 -87t105 -224q0 -142 -94 -239t-250 -132zM391 1014q0 -124 94.5 -193
t249.5 -69q126 0 228 40.5t163.5 121t61.5 186.5q0 123 -93.5 200.5t-246.5 77.5q-188 0 -322.5 -106t-134.5 -258zM604 16q228 0 376 114.5t148 293.5q0 133 -108 214t-291 81q-227 0 -373.5 -109.5t-146.5 -285.5q0 -141 106.5 -224.5t288.5 -83.5z" />
    <glyph glyph-name="nine.tf" horiz-adv-x="1372" 
d="M842 1417q189 0 303.5 -106.5t114.5 -284.5q0 -109 -41 -199t-119 -176l-611 -651h-63l512 539q-130 -58 -262 -58q-189 0 -304.5 107t-115.5 284q0 157 80 283t213.5 194t292.5 68zM1069 678q143 143 143 342q0 162 -103.5 259t-274.5 97q-143 0 -264 -62t-194 -176
t-73 -257q0 -161 104.5 -260t274.5 -99q214 0 362 129z" />
    <glyph glyph-name="zero.zero" horiz-adv-x="1462" 
d="M901 1417q225 0 347 -149.5t122 -407.5q0 -252 -90 -453t-256.5 -316.5t-380.5 -115.5q-225 0 -347 149.5t-122 407.5q0 252 90 453t256.5 316.5t380.5 115.5zM893 1376q-198 0 -352 -109.5t-237 -300t-83 -427.5q0 -163 49 -279l975 928q-112 188 -352 188zM651 16
q198 0 352 110t237 300.5t83 427.5q0 175 -59 299l-973 -934q110 -203 360 -203z" />
    <glyph glyph-name="zero.dnom" horiz-adv-x="864" 
d="M485 754q129 0 200 -85.5t71 -222.5q0 -126 -50 -231t-143.5 -168t-212.5 -63q-128 0 -199 85.5t-71 223.5q0 125 50.5 230t144 168t210.5 63zM356 25q155 0 255 122t100 293q0 121 -61 198t-171 77q-154 0 -254 -122.5t-100 -293.5q0 -123 60 -198.5t171 -75.5z" />
    <glyph glyph-name="one.dnom" horiz-adv-x="589" 
d="M258 39h213l-8 -39h-488l9 39h231l115 649l-230 -78l6 41l254 86h23z" />
    <glyph glyph-name="two.dnom" horiz-adv-x="722" 
d="M371 242l-252 -203h422l-6 -39h-502l4 25l301 241q57 46 84 68t62.5 55.5t50 57t25.5 53.5t11 63q0 67 -46 109.5t-128 42.5q-87 0 -148 -45t-83 -121h-43q25 94 98.5 149.5t179.5 55.5q100 0 156.5 -52t56.5 -133q0 -57 -27 -107.5t-74 -96.5t-142 -123z" />
    <glyph glyph-name="three.dnom" horiz-adv-x="745" 
d="M467 373q55 -19 85 -58.5t30 -95.5q0 -101 -82.5 -166t-212.5 -65q-115 0 -181.5 49.5t-60.5 132.5h45q-3 -65 51 -104t148 -39q109 0 179.5 52t70.5 136q0 63 -48.5 101t-130.5 38h-67l8 37h68v-2v2q90 0 150.5 52.5t60.5 131.5q0 64 -47.5 102t-129.5 38
q-84 0 -142.5 -38t-80.5 -104h-43q25 83 98 132t175 49q98 0 154.5 -47t56.5 -125q0 -73 -41.5 -128.5t-112.5 -80.5z" />
    <glyph glyph-name="four.dnom" horiz-adv-x="794" 
d="M649 211l-8 -41h-137l-29 -170h-41l29 170h-432l6 29l342 538h45l-330 -526h377l43 250h41l-43 -250h137z" />
    <glyph glyph-name="five.dnom" horiz-adv-x="747" 
d="M643 698h-428l-53 -295h-41l59 334h469zM561 250q0 70 -51.5 113t-142.5 43l-205 -3l8 41h207q106 0 166.5 -51t60.5 -137q0 -113 -87.5 -192.5t-221.5 -79.5q-106 0 -172.5 57.5t-69.5 153.5h45q3 -79 59.5 -125.5t143.5 -46.5q112 0 186 66.5t74 160.5z" />
    <glyph glyph-name="six.dnom" horiz-adv-x="733" 
d="M367 487q107 0 172 -58t65 -153q0 -125 -95.5 -208.5t-232.5 -83.5q-107 0 -173 59.5t-66 155.5q0 58 22.5 104t67.5 96l326 338h53l-256 -270q58 20 117 20zM283 23q113 0 194.5 69.5t81.5 173.5q0 80 -56 130t-145 50q-119 0 -188 -63l-10 -10q-78 -70 -78 -170
q0 -80 55.5 -130t145.5 -50z" />
    <glyph glyph-name="seven.dnom" horiz-adv-x="595" 
d="M92 737h524l-6 -26l-508 -711h-53l498 696h-463z" />
    <glyph glyph-name="eight.dnom" horiz-adv-x="772" 
d="M481 389q67 -21 104.5 -62.5t37.5 -99.5q0 -106 -92 -174.5t-234 -68.5q-114 0 -181 51t-67 135q0 82 57 139.5t154 81.5q-113 40 -113 141q0 93 83.5 157.5t201.5 64.5q98 0 159.5 -48.5t61.5 -121.5q0 -71 -47 -121.5t-125 -73.5zM193 537q0 -62 49 -98t131 -36
q101 0 168 48.5t67 126.5q0 60 -49 99.5t-131 39.5q-97 0 -166 -52.5t-69 -127.5zM303 23q118 0 195 57t77 145q0 66 -56 107t-152 41q-117 0 -193 -54.5t-76 -140.5q0 -70 55.5 -112.5t149.5 -42.5z" />
    <glyph glyph-name="nine.dnom" horiz-adv-x="733" 
d="M457 756q107 0 173 -59.5t66 -155.5q0 -58 -22.5 -104.5t-67.5 -96.5l-325 -338h-54l256 270q-58 -20 -116 -20q-107 0 -172.5 58t-65.5 153q0 125 96 209t232 84zM573 367q78 70 78 170q0 80 -55 130t-145 50q-113 0 -195 -70t-82 -174q0 -80 56 -130t145 -50
q119 0 188 63z" />
    <glyph glyph-name="zero.numr" horiz-adv-x="864" 
d="M602 1413q129 0 199.5 -85t70.5 -222q0 -126 -49.5 -231t-143 -168.5t-212.5 -63.5q-128 0 -199 85.5t-71 223.5q0 125 50.5 230t144 168t210.5 63zM473 684q103 0 184.5 57.5t125.5 152t44 206.5q0 122 -60.5 198t-170.5 76q-154 0 -254 -122.5t-100 -293.5
q0 -123 60 -198.5t171 -75.5z" />
    <glyph glyph-name="one.numr" horiz-adv-x="589" 
d="M375 698h213l-8 -39h-488l8 39h232l114 650l-229 -78l6 41l254 86h23z" />
    <glyph glyph-name="two.numr" horiz-adv-x="722" 
d="M487 901l-251 -203h421l-6 -39h-501l4 25l301 242q57 46 84 68t62.5 55.5t50 57t25.5 53.5t11 63q0 67 -46 109t-128 42q-87 0 -148 -45t-83 -121h-43q25 94 98.5 149.5t179.5 55.5q100 0 156.5 -51.5t56.5 -132.5q0 -44 -13 -80.5t-46 -76.5t-73.5 -76.5t-111.5 -94.5z
" />
    <glyph glyph-name="three.numr" horiz-adv-x="745" 
d="M584 1040q114 -39 114 -153q0 -102 -82.5 -167t-212.5 -65q-114 0 -180.5 50t-60.5 133h45q-3 -65 51.5 -104.5t147.5 -39.5q108 0 178.5 52.5t70.5 136.5q0 63 -48.5 101t-129.5 38h-67l8 37h67v-2v2q90 0 150.5 52.5t60.5 131.5q0 64 -47 101.5t-129 37.5
q-84 0 -142.5 -38t-80.5 -103h-43q25 83 97.5 131.5t174.5 48.5q98 0 154.5 -47t56.5 -125q0 -73 -41 -128.5t-112 -80.5z" />
    <glyph glyph-name="four.numr" horiz-adv-x="794" 
d="M766 870l-8 -41h-137l-29 -170h-41l29 170h-433l7 29l342 539h45l-330 -527h377l43 250h41l-43 -250h137z" />
    <glyph glyph-name="five.numr" horiz-adv-x="747" 
d="M760 1358h-428l-53 -295h-41l59 334h469zM678 909q0 70 -52 113t-143 43l-204 -2l8 41h207q106 0 166.5 -51.5t60.5 -137.5q0 -113 -87.5 -192.5t-221.5 -79.5q-106 0 -172.5 57.5t-69.5 153.5h45q3 -79 59.5 -125.5t143.5 -46.5q112 0 186 66.5t74 160.5z" />
    <glyph glyph-name="six.numr" horiz-adv-x="733" 
d="M483 1147q107 0 172.5 -58t65.5 -153q0 -125 -96 -209t-232 -84q-107 0 -173 59.5t-66 155.5q0 58 22.5 104.5t67.5 96.5l325 338h54l-256 -271q61 21 116 21zM399 682q113 0 195 70t82 174q0 80 -56 130t-145 50q-118 0 -188 -64l-11 -10q-77 -69 -77 -170
q0 -80 55 -130t145 -50z" />
    <glyph glyph-name="seven.numr" horiz-adv-x="595" 
d="M209 1397h524l-6 -27l-508 -711h-53l498 697h-463z" />
    <glyph glyph-name="eight.numr" horiz-adv-x="772" 
d="M598 1057q67 -21 104 -62.5t37 -99.5q0 -106 -91.5 -175t-233.5 -69q-114 0 -181 51.5t-67 135.5q0 82 57 139.5t154 81.5q-113 40 -113 141q0 93 83.5 157t201.5 64q98 0 159.5 -48.5t61.5 -121.5q0 -71 -47 -121t-125 -73zM309 1204q0 -62 48.5 -97.5t131.5 -35.5
q102 0 169 48t67 126q0 60 -49 99.5t-131 39.5q-97 0 -166.5 -52.5t-69.5 -127.5zM420 690q118 0 195 57.5t77 145.5q0 66 -56 106.5t-153 40.5q-118 0 -193 -54t-75 -140q0 -70 55.5 -113t149.5 -43z" />
    <glyph glyph-name="nine.numr" horiz-adv-x="733" 
d="M573 1423q107 0 173.5 -60t66.5 -155q0 -58 -22.5 -104t-67.5 -96l-326 -338h-53l256 270q-58 -20 -117 -20q-107 0 -172 57.5t-65 152.5q0 125 95.5 209t231.5 84zM690 1034q78 70 78 170q0 80 -55.5 130t-145.5 50q-113 0 -194.5 -69.5t-81.5 -173.5q0 -80 56 -130
t145 -50q119 0 188 63z" />
    <glyph glyph-name="backslash.case" horiz-adv-x="710" 
d="M604 -96l-502 1591h45l502 -1591h-45z" />
    <glyph glyph-name="periodcentered.case" horiz-adv-x="299" 
d="M188 635q-20 0 -33.5 13.5t-13.5 33.5t13.5 33.5t33.5 13.5t34 -13.5t14 -33.5t-14 -33.5t-34 -13.5z" />
    <glyph glyph-name="bullet.case" horiz-adv-x="624" 
d="M354 481q-79 0 -138.5 59.5t-59.5 139.5t59.5 139.5t138.5 59.5q81 0 141 -59.5t60 -139.5t-60 -139.5t-141 -59.5z" />
    <glyph glyph-name="exclamdown.case" horiz-adv-x="505" 
d="M412 1409q20 0 33.5 -13.5t13.5 -33.5t-13.5 -33.5t-33.5 -13.5t-33.5 13.5t-13.5 33.5t13.5 33.5t33.5 13.5zM150 0l188 1065h45l-188 -1065h-45z" />
    <glyph glyph-name="questiondown.case" 
d="M807 1315q-20 0 -33.5 13.5t-13.5 33.5t13.5 33.5t33.5 13.5t33.5 -13.5t13.5 -33.5t-13.5 -33.5t-33.5 -13.5zM535 -31q-170 0 -272.5 102.5t-102.5 256.5q0 128 69 238.5t191 176.5t268 66l41 233h41l-41 -274h-47q-130 0 -240.5 -60t-173.5 -159.5t-63 -212.5
q0 -139 93 -232.5t245 -93.5q127 0 243 76t166 197h45q-56 -142 -186 -228t-276 -86z" />
    <glyph glyph-name="slash.case" horiz-adv-x="751" 
d="M29 -96h-45l780 1591h45z" />
    <glyph glyph-name="braceleft.case" horiz-adv-x="735" 
d="M467 1024q-25 -138 -72.5 -214t-128.5 -105q70 -29 91.5 -106.5t-3.5 -213.5l-28 -162q-23 -135 27 -217t157 -82l-6 -41q-126 0 -187.5 93.5t-33.5 246.5l28 162q29 161 -13 230t-171 69l6 41q129 0 196 69t95 230l29 162q28 154 121 247t219 93l-7 -41
q-104 0 -186 -87.5t-104 -211.5z" />
    <glyph glyph-name="braceright.case" horiz-adv-x="733" 
d="M352 385q25 138 72.5 214.5t128.5 105.5q-70 29 -91.5 106t3.5 213l29 162q23 135 -27.5 217t-157.5 82l6 41q127 0 188.5 -93.5t33.5 -246.5l-29 -162q-29 -161 13 -230t171 -69l-6 -41q-129 0 -196 -69t-95 -230l-28 -162q-28 -154 -121 -247t-219 -93l6 41
q104 0 186.5 87.5t104.5 211.5z" />
    <glyph glyph-name="bracketleft.case" horiz-adv-x="700" 
d="M455 1454l-267 -1515h269l-8 -41h-312l283 1597h311l-8 -41h-268z" />
    <glyph glyph-name="bracketright.case" horiz-adv-x="700" 
d="M330 -61l266 1515h-268l8 41h311l-282 -1597h-312l8 41h269z" />
    <glyph glyph-name="parenleft.case" horiz-adv-x="731" 
d="M735 1450q-216 -156 -340 -341t-172 -441q-96 -448 240 -762l-31 -31q-170 147 -236 357t-16 442q50 263 181 461t354 346z" />
    <glyph glyph-name="parenright.case" horiz-adv-x="731" 
d="M375 1481q170 -147 236 -357t16 -442q-50 -263 -181 -461t-354 -346l-20 31q216 156 340 341t172 441q96 448 -240 762z" />
    <glyph glyph-name="emdash.case" horiz-adv-x="1947" 
d="M285 678h1454l8 43h-1454z" />
    <glyph glyph-name="endash.case" horiz-adv-x="1511" 
d="M285 676h1018l8 43h-1018z" />
    <glyph glyph-name="hyphen.case" horiz-adv-x="1136" 
d="M285 678h643l8 39h-643z" />
    <glyph glyph-name="guillemotleft.case" horiz-adv-x="827" 
d="M426 995h53l-301 -299l197 -290h-51l-199 294zM713 995h53l-301 -299l197 -290h-52l-198 294z" />
    <glyph glyph-name="guillemotright.case" horiz-adv-x="827" 
d="M201 406h-54l302 299l-197 290h51l199 -295zM487 406h-53l301 299l-196 290h51l198 -295z" />
    <glyph glyph-name="guilsinglleft.case" horiz-adv-x="540" 
d="M426 995h53l-301 -299l197 -290h-51l-199 294z" />
    <glyph glyph-name="guilsinglright.case" horiz-adv-x="540" 
d="M201 406h-54l302 299l-197 290h51l199 -295z" />
    <glyph glyph-name="cent.tf" horiz-adv-x="1372" 
d="M774 905q-190 0 -333 -128t-177 -316q-33 -188 64.5 -316.5t287.5 -128.5q138 0 248.5 68.5t159.5 185.5h47q-56 -135 -181 -215t-282 -80h-6l-47 -264h-43l47 266q-187 19 -280.5 155t-59.5 329q36 193 177.5 328.5t334.5 154.5l49 283h43l-49 -281h8q156 0 252 -79.5
t105 -215.5h-47q-9 117 -94.5 185.5t-223.5 68.5z" />
    <glyph glyph-name="dollar.tf" horiz-adv-x="1372" 
d="M838 1417q219 -1 340 -103t118 -263h-45q-3 151 -116 238t-312 87q-215 0 -344 -98.5t-129 -247.5q0 -106 73.5 -171.5t225.5 -94.5l199 -39q185 -36 263.5 -117t78.5 -219q0 -185 -149 -299.5t-404 -114.5q-37 0 -53 2l-47 -266h-43l47 269q-204 22 -309 137t-99 317h45
q-3 -205 115.5 -311.5t351.5 -106.5t366.5 100.5t133.5 262.5q0 122 -70 198t-246 109l-204 39q-320 60 -320 303q0 162 135 271t355 118l49 281h43z" />
    <glyph glyph-name="Euro.tf" horiz-adv-x="1372" 
d="M965 1423q149 0 249 -61t140 -174h-56q-37 93 -126 143.5t-216 50.5q-227 0 -393 -144t-235 -386h731l-19 -41h-725q-30 -140 -30 -266h641l-17 -41h-624q8 -228 119.5 -361t310.5 -133q115 0 213 41.5t164 118.5h59q-77 -96 -191.5 -148.5t-250.5 -52.5
q-220 0 -341.5 144t-129.5 391h-117l6 41h111q0 126 30 266h-94l8 41h99q72 260 253.5 415.5t430.5 155.5z" />
    <glyph glyph-name="florin.tf" horiz-adv-x="1372" 
d="M1155 1403q67 0 162 -25l-17 -37q-89 21 -151 21q-104 0 -175.5 -68t-109.5 -190l-114 -367h352l-8 -41h-357l-159 -530q-43 -140 -127.5 -219.5t-206.5 -79.5q-70 0 -162 24l16 37q85 -20 152 -20q104 0 175.5 68t109.5 190l159 530h-266l8 41h271l114 367
q45 140 129 219.5t205 79.5z" />
    <glyph glyph-name="uni20B9.tf" horiz-adv-x="1372" 
d="M1331 1393l-6 -41h-526q104 -42 159.5 -122t55.5 -192q0 -31 -2 -47h250l-9 -41h-247q-33 -184 -194 -290.5t-398 -106.5h-125l583 -553h-65l-584 553l8 41h191q214 0 360 95t176 261h-641l9 41h639q2 14 2 41q0 150 -111 235t-301 85h-190l6 41h960z" />
    <glyph glyph-name="sterling.tf" horiz-adv-x="1372" 
d="M936 1423q190 0 293.5 -105.5t89.5 -283.5h-45q11 159 -82.5 253.5t-263.5 94.5q-186 0 -319 -112.5t-165 -296.5l-59 -338h557l-8 -41h-555l-98 -553h858l-9 -41h-1081l8 41h179l98 553h-180l8 41h178l59 338q35 202 183 326t354 124z" />
    <glyph glyph-name="yen.tf" horiz-adv-x="1372" 
d="M721 526l-8 -47h395l-8 -43h-395l-29 -172h393l-6 -43h-395l-39 -221h-45l39 221h-396l6 43h398l28 172h-395l8 43h396l8 47l-338 867h51l318 -824l604 824h51z" />
    <glyph glyph-name="arrowup.ss05" horiz-adv-x="1128" 
d="M358 1202l484 -483l-484 -483l-30 28l454 455l-454 455z" />
    <glyph glyph-name="arrowright.ss05" horiz-adv-x="1169" 
d="M801 1174l-455 -455l455 -455l-31 -28l-483 483l483 483z" />
    <glyph glyph-name="arrowdown.ss05" horiz-adv-x="1376" 
d="M1143 874l28 -30l-483 -484l-483 484l28 30l455 -454z" />
    <glyph glyph-name="arrowleft.ss05" horiz-adv-x="1376" 
d="M1171 412l-28 -31l-455 455l-455 -455l-28 31l483 483z" />
    <glyph glyph-name="at.case" horiz-adv-x="1937" 
d="M1135 1423q148 0 278.5 -53t222 -144t144.5 -216t53 -265q0 -134 -45 -249.5t-136 -190t-210 -74.5q-157 0 -174 148q-149 -162 -346 -162q-142 0 -233 90.5t-91 235.5q0 127 65.5 230.5t170.5 159.5t223 56q181 0 274 -137l19 98h43l-74 -418q-23 -127 5 -193.5
t124 -66.5q98 0 176 63t120 168.5t42 231.5q0 132 -50.5 251t-137 205.5t-209 137.5t-261.5 51q-169 0 -335.5 -68.5t-294.5 -183t-207.5 -276.5t-79.5 -336q0 -183 84.5 -332t233.5 -234t333 -85q140 0 278.5 47.5t258.5 134.5l22 -37q-262 -188 -565 -188q-147 0 -276 52
t-221 142.5t-144.5 217.5t-52.5 272q0 151 54 293t148.5 253.5t216.5 196t265.5 129.5t288.5 45zM932 258q189 0 334 164q0 45 10 110l47 265q-42 72 -110.5 111.5t-157.5 39.5q-166 0 -289 -113.5t-123 -285.5q0 -130 81 -210.5t208 -80.5z" />
    <glyph glyph-name="bar.case" horiz-adv-x="516" 
d="M418 1495h45l-281 -1591h-45z" />
    <glyph glyph-name="brokenbar.case" horiz-adv-x="518" 
d="M463 1495l-121 -692h-45l121 692h45zM305 594l-123 -690h-45l123 690h45z" />
    <glyph glyph-name="registered.ss07" horiz-adv-x="1798" 
d="M938 1423q150 0 287 -55.5t238 -151.5t160.5 -231.5t59.5 -288.5t-59.5 -288.5t-160.5 -231.5t-238 -151.5t-287 -55.5t-287 55.5t-238 151.5t-160.5 231.5t-59.5 288.5t59.5 288.5t160.5 231.5t238 151.5t287 55.5zM938 8q187 0 348.5 90t258.5 249t97 349t-97 349
t-258.5 249t-348.5 90t-348 -90t-257.5 -249t-96.5 -349t96.5 -349t257.5 -249t348 -90zM1262 850q0 -105 -77.5 -172.5t-205.5 -75.5l301 -309h-53l-297 309h-209v-309h-41v807h270q140 0 226 -69t86 -181zM721 1063v-424h229q122 0 196.5 58t74.5 153t-75 154t-196 59
h-229z" />
    <glyph glyph-name="caron.alt" 
d="M606 1393h45l-96 -349h-39z" />
    <glyph glyph-name="acute.case" 
d="M842 1835h51l-229 -279h-50z" />
    <glyph glyph-name="breve.case" 
d="M956 1833q-14 -81 -64 -140.5t-113 -86.5t-130 -27q-106 0 -175.5 67t-49.5 187h41q-17 -101 41.5 -158t144.5 -57q52 0 105.5 22.5t98 73.5t56.5 119h45z" />
    <glyph glyph-name="caron.case" 
d="M995 1843h62l-309 -278h-72l-211 278h53l195 -250z" />
    <glyph glyph-name="circumflex.case" 
d="M893 1565l-193 250l-284 -250h-64l314 278h73l207 -278h-53z" />
    <glyph glyph-name="dieresis.case" 
d="M485 1708q22 0 37 -14.5t15 -36.5t-15 -36.5t-37 -14.5t-36.5 14.5t-14.5 36.5t14.5 36.5t36.5 14.5zM825 1708q22 0 37 -14.5t15 -36.5t-15 -36.5t-37 -14.5t-36.5 14.5t-14.5 36.5t14.5 36.5t36.5 14.5z" />
    <glyph glyph-name="dotaccent.case" 
d="M676 1606q-22 0 -36.5 14.5t-14.5 36.5t14.5 36.5t36.5 14.5t36.5 -14.5t14.5 -36.5t-14.5 -36.5t-36.5 -14.5z" />
    <glyph glyph-name="grave.case" 
d="M506 1835l178 -279h-49l-180 279h51z" />
    <glyph glyph-name="hungarumlaut.case" 
d="M633 1835h49l-176 -279h-49zM887 1835h49l-178 -279h-47z" />
    <glyph glyph-name="macron.case" 
d="M365 1634h565l-8 -37h-566z" />
    <glyph glyph-name="ring.case" 
d="M655 1944q75 0 127 -51t52 -126t-52 -125.5t-127 -50.5t-126.5 50.5t-51.5 125.5t51.5 126t126.5 51zM655 1628q59 0 99.5 40.5t40.5 98.5q0 57 -41 98.5t-99 41.5t-98.5 -41.5t-40.5 -98.5q0 -59 40 -99t99 -40z" />
    <glyph glyph-name="tilde.case" 
d="M913 1776q0 -73 -39.5 -112.5t-97.5 -37t-112 42.5l-78 55q-40 30 -84.5 33.5t-75.5 -24t-31 -80.5h-39q0 54 26 89.5t64.5 45.5t81.5 2.5t78 -33.5l76 -53q70 -52 131 -31t61 103h39z" />
    </font>
</defs>
</svg>
