<?xml version="1.0" standalone="no"?>
<!DOCTYPE svg PUBLIC "-//W3C//DTD SVG 1.1//EN" "http://www.w3.org/Graphics/SVG/1.1/DTD/svg11.dtd" >
<svg xmlns="http://www.w3.org/2000/svg" xmlns:xlink="http://www.w3.org/1999/xlink" version="1.1">
<metadata>
Created by FontForge 20170731 at Fri Jul  1 11:02:02 2022
 By Aleksey,,,
Copyright (c) 2017 by Rene' Bieder. All rights reserved.
</metadata>
<defs>
<font id="Campton-SemiBold" horiz-adv-x="1228" >
  <font-face 
    font-family="Campton SemiBold"
    font-weight="600"
    font-stretch="normal"
    units-per-em="2048"
    panose-1="2 11 0 4 2 1 2 2 2 3"
    ascent="1577"
    descent="-471"
    x-height="977"
    cap-height="1393"
    bbox="-770 -514 3006 2003"
    underline-thickness="102"
    underline-position="-307"
    unicode-range="U+0020-FB02"
  />
<missing-glyph horiz-adv-x="1781" 
d="M205 1393h1372v-1393h-1372v1393zM1434 264v985h-985zM348 1120v-977h977z" />
    <glyph glyph-name="fi" unicode="fi" horiz-adv-x="1452" 
d="M1323 977v-977h-268v752h-506v-752h-268v752h-271v225h271v84q0 191 121 304.5t311 113.5q101 0 213 -33l-37 -217q-88 18 -144 18q-91 0 -143.5 -50t-52.5 -136v-84h774z" />
    <glyph glyph-name="fl" unicode="fl" horiz-adv-x="1452" 
d="M1055 1454h268v-1454h-268v752h-506v-752h-268v752h-271v225h271v84q0 191 121 304.5t311 113.5q101 0 213 -33l-37 -227q-86 28 -144 28q-91 0 -143.5 -50t-52.5 -136v-84h506v477z" />
    <glyph glyph-name=".notdef" horiz-adv-x="1781" 
d="M205 1393h1372v-1393h-1372v1393zM1434 264v985h-985zM348 1120v-977h977z" />
    <glyph glyph-name=".null" horiz-adv-x="0" 
 />
    <glyph glyph-name="nonmarkingreturn" horiz-adv-x="682" 
 />
    <glyph glyph-name="space" unicode=" " horiz-adv-x="532" 
 />
    <glyph glyph-name="exclam" unicode="!" horiz-adv-x="583" 
d="M432 1393l-22 -947h-238l-22 947h282zM291 -12q-67 0 -114.5 45t-47.5 112q0 65 47.5 110.5t114.5 45.5q68 0 116 -45t48 -111q0 -67 -48 -112t-116 -45z" />
    <glyph glyph-name="quotedbl" unicode="&#x22;" horiz-adv-x="768" 
d="M72 1475h227v-572h-227v572zM469 1475h227v-572h-227v572z" />
    <glyph glyph-name="numbersign" unicode="#" horiz-adv-x="1576" 
d="M1239 776l-63 -198h227v-244h-303l-105 -334h-278l104 334h-284l-105 -334h-278l104 334h-197v244h273l63 198h-223v244h299l117 375h278l-116 -375h284l117 375h279l-117 -375h201v-244h-277zM961 776h-285l-64 -198h285z" />
    <glyph glyph-name="dollar" unicode="$" horiz-adv-x="1372" 
d="M823 801q214 -43 321 -133.5t107 -255.5q0 -171 -113.5 -285t-308.5 -143v-224h-241v224q-212 28 -342.5 153.5t-143.5 321.5h277q17 -109 108.5 -172.5t235.5 -63.5q116 0 179 40.5t63 113.5q0 118 -185 151l-225 43q-397 76 -397 408q0 177 116 292t314 140v225h241
v-231q80 -13 149 -42.5t131 -79.5t101.5 -130.5t49.5 -183.5h-277q-29 209 -276 209q-118 0 -186 -44.5t-68 -129.5q0 -72 50.5 -110.5t155.5 -59.5z" />
    <glyph glyph-name="percent" unicode="%" horiz-adv-x="2224" 
d="M569 1417q175 0 291.5 -111t116.5 -288q0 -180 -116.5 -292t-291.5 -112q-176 0 -292.5 112t-116.5 292q0 177 116.5 288t292.5 111zM1667 1393l-952 -1393h-187l953 1393h186zM569 805q87 0 147 59t60 154q0 92 -60 150.5t-147 58.5q-88 0 -148.5 -58.5t-60.5 -150.5
q0 -95 60.5 -154t148.5 -59zM1655 778q176 0 292.5 -111t116.5 -288q0 -180 -116.5 -292t-292.5 -112q-175 0 -291.5 112t-116.5 292q0 177 116.5 288t291.5 111zM1655 166q88 0 148.5 59t60.5 154q0 92 -60.5 150.5t-148.5 58.5q-87 0 -147 -58.5t-60 -150.5q0 -95 60 -154
t147 -59z" />
    <glyph glyph-name="ampersand" unicode="&#x26;" horiz-adv-x="1476" 
d="M1446 0h-352l-113 106q-172 -137 -397 -137q-235 0 -379 121t-144 318q0 119 62.5 214.5t173.5 153.5q-92 126 -92 248q0 175 127 287t317 112q185 0 300.5 -112.5t137.5 -300.5h-270q-10 83 -55.5 128.5t-114.5 45.5q-70 0 -117 -46t-47 -118q0 -26 6 -50t24.5 -53
t34 -50.5t54 -60.5t64 -63.5t82.5 -78.5l221 -211l172 274h280l-258 -412q-12 -20 -18 -28zM584 207q110 0 219 67l-293 277q-19 19 -55 51q-133 -71 -133 -192q0 -82 77 -142.5t185 -60.5z" />
    <glyph glyph-name="quotesingle" unicode="'" horiz-adv-x="370" 
d="M72 1475h227v-572h-227v572z" />
    <glyph glyph-name="parenleft" unicode="(" horiz-adv-x="755" 
d="M715 1337q-112 -119 -179.5 -216t-110 -226t-42.5 -279t42.5 -278.5t110 -225.5t179.5 -216l-174 -175q-212 186 -322 412t-110 483t110 483t322 412z" />
    <glyph glyph-name="parenright" unicode=")" horiz-adv-x="755" 
d="M215 1511q212 -186 322 -412t110 -483t-110 -483t-322 -412l-174 175q112 119 179.5 216t110 225.5t42.5 278.5t-42.5 279t-110 226t-179.5 216z" />
    <glyph glyph-name="asterisk" unicode="*" horiz-adv-x="837" 
d="M563 1073l193 -119l-74 -129l-186 113v-197h-154v197l-186 -113l-74 129l192 119l-192 117l74 133l186 -115v197h154v-197l186 115l74 -133z" />
    <glyph glyph-name="plus" unicode="+" horiz-adv-x="1398" 
d="M1194 557h-367v-350h-256v350h-366v248h366v350h256v-350h367v-248z" />
    <glyph glyph-name="comma" unicode="," horiz-adv-x="446" 
d="M61 -195l99 209q-97 40 -97 131q0 64 47 109t113 45q68 0 115 -45t47 -109q0 -31 -8.5 -56.5t-44.5 -88.5l-111 -195h-160z" />
    <glyph glyph-name="hyphen" unicode="-" horiz-adv-x="1124" 
d="M205 408h715v247h-715v-247z" />
    <glyph glyph-name="period" unicode="." horiz-adv-x="448" 
d="M223 -14q-67 0 -114.5 45t-47.5 112q0 65 47.5 110.5t114.5 45.5q68 0 116 -45t48 -111q0 -67 -48 -112t-116 -45z" />
    <glyph glyph-name="slash" unicode="/" horiz-adv-x="831" 
d="M862 1495l-512 -1823h-258l512 1823h258z" />
    <glyph glyph-name="zero" unicode="0" horiz-adv-x="1472" 
d="M737 1417q194 0 337.5 -94t216.5 -256t73 -371t-73 -371t-216.5 -256t-337.5 -94t-338 94t-217 256t-73 371t73 371t217 256t338 94zM737 227q113 0 192.5 63t116.5 167t37 239t-37 239t-116.5 167t-192.5 63q-114 0 -194 -63t-117 -167t-37 -239t37 -239t117 -167
t194 -63z" />
    <glyph glyph-name="one" unicode="1" horiz-adv-x="1062" 
d="M717 227h336v-227h-971v227h356v860l-340 -114v256l459 164h160v-1166z" />
    <glyph glyph-name="two" unicode="2" horiz-adv-x="1148" 
d="M502 227h545v-227h-941v143l433 521q16 19 51 61t48 58.5t38 48t34.5 49t22 42t17 45.5t4.5 42q0 69 -48 118.5t-147 49.5q-94 0 -149 -54t-66 -155h-276q5 203 140.5 325.5t360.5 122.5q113 0 203 -33t146 -89.5t85 -129.5t29 -157q0 -99 -55.5 -189.5t-204.5 -267.5z
" />
    <glyph glyph-name="three" unicode="3" horiz-adv-x="1169" 
d="M889 702q188 -98 188 -309q0 -178 -137.5 -298t-341.5 -120q-209 0 -347 109.5t-169 298.5h270q19 -78 85 -124t161 -46q94 0 156.5 51.5t62.5 128.5q0 86 -70 136.5t-186 50.5h-106v223h106q95 0 152 52t57 136q0 85 -54.5 137t-140.5 52q-88 0 -144.5 -49t-65.5 -130
h-271q14 187 145 301.5t336 114.5q201 0 328 -119.5t127 -304.5q0 -190 -141 -291z" />
    <glyph glyph-name="four" unicode="4" horiz-adv-x="1306" 
d="M1225 512v-238h-183v-274h-268v274h-713v172l392 947h282l-354 -881h393v403h268v-403h183z" />
    <glyph glyph-name="five" unicode="5" horiz-adv-x="1212" 
d="M618 897q216 0 351 -126t135 -322q0 -206 -138 -340t-354 -134q-214 0 -347 109t-163 299h271q53 -170 239 -170q100 0 166 64t66 163q0 97 -71 158t-189 61h-420v734h883v-248h-627v-248h198z" />
    <glyph glyph-name="six" unicode="6" horiz-adv-x="1245" 
d="M627 954q233 0 384.5 -138.5t151.5 -346.5q0 -212 -152 -353t-388 -141q-156 0 -280.5 65.5t-192.5 176.5t-68 244q0 86 31 165.5t98 186.5l367 580h323zM623 199q118 0 194 74.5t76 179.5q0 106 -76 182t-194 76q-107 0 -183 -54q-51 -69 -70.5 -113.5t-19.5 -94.5
q0 -102 78 -176t195 -74z" />
    <glyph glyph-name="seven" unicode="7" horiz-adv-x="1032" 
d="M20 1393h973v-168l-561 -1225h-307l522 1133h-627v260z" />
    <glyph glyph-name="eight" unicode="8" horiz-adv-x="1263" 
d="M963 735q105 -53 162 -141t57 -201q0 -188 -148.5 -303t-402.5 -115q-252 0 -400.5 115t-148.5 303q0 113 57 201t162 141q-164 101 -164 291q0 174 137.5 282.5t356.5 108.5t356 -108.5t137 -282.5q0 -192 -161 -291zM631 1200q-99 0 -160 -53t-61 -137q0 -85 61.5 -143
t159.5 -58t160.5 58.5t62.5 142.5q0 83 -62 136.5t-161 53.5zM631 205q106 0 176 60t70 147t-70 146.5t-176 59.5t-175 -59t-69 -147q0 -89 69 -148t175 -59z" />
    <glyph glyph-name="nine" unicode="9" horiz-adv-x="1245" 
d="M623 1417q156 0 280.5 -65.5t192 -176t67.5 -243.5q0 -86 -31 -165.5t-98 -186.5l-366 -580h-324l274 438q-233 0 -384.5 139t-151.5 347q0 212 152.5 352.5t388.5 140.5zM623 682q108 0 182 53q51 69 70.5 114t19.5 95q0 102 -77.5 176t-194.5 74q-118 0 -194.5 -74.5
t-76.5 -179.5q0 -106 76.5 -182t194.5 -76z" />
    <glyph glyph-name="colon" unicode=":" horiz-adv-x="448" 
d="M223 678q-67 0 -114.5 45.5t-47.5 112.5q0 65 47.5 110t114.5 45q68 0 116 -45t48 -110q0 -67 -48 -112.5t-116 -45.5zM223 -14q-67 0 -114.5 45t-47.5 112q0 65 47.5 110.5t114.5 45.5q68 0 116 -45t48 -111q0 -67 -48 -112t-116 -45z" />
    <glyph glyph-name="semicolon" unicode=";" horiz-adv-x="448" 
d="M223 678q-67 0 -114.5 45.5t-47.5 112.5q0 65 47.5 110t114.5 45q68 0 116 -45t48 -110q0 -67 -48 -112.5t-116 -45.5zM63 -195l99 209q-96 39 -96 131q0 64 46.5 109t112.5 45q68 0 115 -45t47 -109q0 -31 -8.5 -56.5t-44.5 -88.5l-111 -195h-160z" />
    <glyph glyph-name="less" unicode="&#x3c;" horiz-adv-x="1110" 
d="M102 760l865 389v-268l-568 -254l568 -256v-269l-865 390v268z" />
    <glyph glyph-name="equal" unicode="=" horiz-adv-x="1396" 
d="M1192 989v-248h-987v248h987zM1192 580v-248h-987v248h987z" />
    <glyph glyph-name="greater" unicode="&#x3e;" horiz-adv-x="1110" 
d="M1008 760v-268l-865 -390v269l568 256l-568 254v268z" />
    <glyph glyph-name="question" unicode="?" horiz-adv-x="1071" 
d="M582 436h-209l-21 326h148q98 0 163.5 56.5t65.5 152.5q0 94 -56.5 150.5t-150.5 56.5q-86 0 -144 -48.5t-67 -128.5h-270q14 190 136 302t333 112q135 0 243.5 -54.5t172 -156t63.5 -231.5q0 -167 -105.5 -269.5t-289.5 -123.5zM471 -12q-67 0 -114.5 45t-47.5 112
q0 65 47.5 110.5t114.5 45.5q68 0 116 -45t48 -111q0 -67 -48 -112t-116 -45z" />
    <glyph glyph-name="at" unicode="@" horiz-adv-x="2048" 
d="M1038 1372q190 0 354.5 -64t281.5 -177t184 -273.5t67 -347.5q0 -100 -19.5 -181t-60.5 -143.5t-110 -96.5t-162 -34q-213 0 -299 135q-55 -62 -134.5 -97.5t-170.5 -35.5q-179 0 -298.5 124.5t-119.5 305.5q0 183 119.5 308t298.5 125q140 0 245 -78v59h238v-473
q0 -174 121 -174q160 0 160 252q0 195 -90 351t-249 242.5t-356 86.5q-148 0 -281 -54t-229 -146t-152.5 -220.5t-56.5 -271.5q0 -192 96 -351.5t257.5 -249.5t351.5 -90q249 0 442 148l107 -162q-234 -172 -545 -172q-148 0 -285 42t-249 121.5t-195.5 186t-129.5 242.5
t-46 285q0 247 121.5 448.5t331 315.5t462.5 114zM1008 270q55 0 112.5 29t98.5 94q-5 36 -5 90v107q-38 60 -93.5 90.5t-112.5 30.5q-84 0 -149.5 -61.5t-65.5 -160.5t65 -159t150 -60z" />
    <glyph glyph-name="A" unicode="A" horiz-adv-x="1540" 
d="M1206 0l-114 279h-641l-115 -279h-299l604 1393h260l602 -1393h-297zM551 526h438l-219 533z" />
    <glyph glyph-name="B" unicode="B" horiz-adv-x="1394" 
d="M1047 721q126 -27 191 -120t65 -220q0 -172 -135.5 -276.5t-364.5 -104.5h-660v1393h629q221 0 345 -98t124 -269q0 -104 -53 -188.5t-141 -116.5zM739 1147h-317v-342h317q113 0 176.5 51.5t63.5 132.5q0 76 -60.5 117t-179.5 41zM791 246q116 0 176.5 48.5t60.5 121.5
q0 74 -61.5 116.5t-165.5 42.5h-379v-329h369z" />
    <glyph glyph-name="C" unicode="C" horiz-adv-x="1624" 
d="M834 236q153 0 255 83.5t140 237.5h287q-47 -266 -232 -424t-450 -158q-149 0 -282.5 54t-231 148t-154.5 229t-57 290t57 290t154.5 229t231 148t282.5 54q265 0 450 -157.5t232 -423.5h-287q-38 154 -140 237.5t-255 83.5q-192 0 -317.5 -128.5t-125.5 -332.5
t125.5 -332t317.5 -128z" />
    <glyph glyph-name="D" unicode="D" horiz-adv-x="1531" 
d="M678 1393q157 0 295.5 -53t237 -144.5t155.5 -220t57 -273.5q0 -198 -97 -358.5t-267.5 -252t-380.5 -91.5h-535v1393h535zM678 258q126 0 232.5 59t168.5 161t62 224q0 180 -135.5 306.5t-327.5 126.5h-256v-877h256z" />
    <glyph glyph-name="E" unicode="E" horiz-adv-x="1253" 
d="M1167 1135h-745v-320h663v-258h-663v-299h745v-258h-1024v1393h1024v-258z" />
    <glyph glyph-name="F" unicode="F" horiz-adv-x="1196" 
d="M1153 1135h-731v-359h639v-258h-639v-518h-279v1393h1010v-258z" />
    <glyph glyph-name="G" unicode="G" horiz-adv-x="1671" 
d="M813 774h725v-774h-217l-18 201q-156 -226 -469 -226q-155 0 -291 56t-230.5 151t-149 224t-54.5 270q0 162 57.5 301.5t156.5 235.5t234 150t287 54q114 0 220 -31t198 -91.5t160.5 -160t99.5 -227.5h-299q-26 73 -71 125t-98.5 77.5t-103.5 36.5t-102 11
q-201 0 -329 -131t-128 -350q0 -87 31.5 -166.5t87.5 -140t140.5 -97t183.5 -36.5q147 0 248.5 76t144.5 204h-414v258z" />
    <glyph glyph-name="H" unicode="H" horiz-adv-x="1486" 
d="M1065 1393h278v-1393h-278v551h-643v-551h-279v1393h279v-584h643v584z" />
    <glyph glyph-name="I" unicode="I" horiz-adv-x="565" 
d="M143 1393h279v-1393h-279v1393z" />
    <glyph glyph-name="J" unicode="J" horiz-adv-x="1220" 
d="M1098 1393v-869q0 -265 -147 -407t-404 -142q-147 0 -263 56t-186.5 166.5t-77.5 261.5h283q4 -110 77 -166.5t185 -56.5q110 0 180 77.5t70 218.5v861h283z" />
    <glyph glyph-name="K" unicode="K" horiz-adv-x="1458" 
d="M1081 0l-432 571l-227 -256v-315h-279v1393h279v-699l625 699h333l-544 -613l602 -780h-357z" />
    <glyph glyph-name="L" unicode="L" horiz-adv-x="1185" 
d="M422 258h719v-258h-998v1393h279v-1135z" />
    <glyph glyph-name="M" unicode="M" horiz-adv-x="1736" 
d="M1593 1393v-1393h-278v778l-363 -573h-168v2l-366 579l4 -786h-279v1393h197l528 -844l529 844h196z" />
    <glyph glyph-name="N" unicode="N" horiz-adv-x="1533" 
d="M1112 1393h279v-1393h-215l-754 874v-874h-279v1393h207l762 -899v899z" />
    <glyph glyph-name="O" unicode="O" horiz-adv-x="1667" 
d="M834 1417q197 0 364 -96t264 -262t97 -363t-97 -363t-264 -262t-364 -96t-364 96t-264 262t-97 363t97 363t264 262t364 96zM834 236q189 0 315.5 134t126.5 326t-126.5 326.5t-315.5 134.5t-316 -134.5t-127 -326.5t127 -326t316 -134z" />
    <glyph glyph-name="P" unicode="P" horiz-adv-x="1282" 
d="M680 1393q250 0 402.5 -134t152.5 -354q0 -233 -163.5 -374.5t-432.5 -141.5h-217v-389h-279v1393h537zM670 645q131 0 211 71.5t80 188.5q0 103 -80.5 167.5t-210.5 64.5h-248v-492h248z" />
    <glyph glyph-name="Q" unicode="Q" horiz-adv-x="1667" 
d="M1559 696q0 -155 -62 -293.5t-172 -238.5l229 -273l-206 -190l-269 315q-118 -41 -245 -41q-197 0 -364 96t-264 262t-97 363t97 363t264 262t364 96t364 -96t264 -262t97 -363zM391 696q0 -192 127 -326t316 -134t315.5 134t126.5 326t-126.5 326.5t-315.5 134.5
t-316 -134.5t-127 -326.5z" />
    <glyph glyph-name="R" unicode="R" horiz-adv-x="1406" 
d="M1028 0l-319 442h-287v-442h-279v1393h588q156 0 279.5 -58.5t194.5 -167t71 -249.5q0 -144 -72.5 -253t-199.5 -167l362 -498h-338zM422 1135v-435h299q119 0 199.5 60.5t80.5 157.5t-80.5 157t-199.5 60h-299z" />
    <glyph glyph-name="S" unicode="S" horiz-adv-x="1372" 
d="M686 1417q76 0 147.5 -12t146.5 -43.5t132 -80.5t97.5 -129t50.5 -183h-277q-29 209 -276 209q-118 0 -186 -44.5t-68 -129.5q0 -72 50.5 -110.5t155.5 -59.5l164 -33q214 -43 321 -133.5t107 -255.5q0 -198 -149 -317.5t-395 -119.5q-260 0 -425 130.5t-180 353.5h277
q17 -109 108.5 -172.5t235.5 -63.5q116 0 179 40.5t63 113.5q0 118 -185 151l-225 43q-397 76 -397 408q0 199 145 318.5t383 119.5z" />
    <glyph glyph-name="T" unicode="T" horiz-adv-x="1335" 
d="M1280 1393v-258h-473v-1135h-279v1135h-473v258h1225z" />
    <glyph glyph-name="U" unicode="U" horiz-adv-x="1492" 
d="M1370 1393v-766q0 -304 -170 -478t-455 -174q-283 0 -452.5 174t-169.5 478v766h278v-766q0 -178 94 -284.5t250 -106.5t251.5 106.5t95.5 284.5v766h278z" />
    <glyph glyph-name="V" unicode="V" horiz-adv-x="1593" 
d="M1247 1393h305l-626 -1401h-256l-629 1401h307l449 -1022z" />
    <glyph glyph-name="W" unicode="W" horiz-adv-x="2172" 
d="M1837 1393h295l-459 -1401h-274l-312 899l-313 -899h-274l-459 1401h295l303 -963l330 963h235l330 -963z" />
    <glyph glyph-name="X" unicode="X" horiz-adv-x="1380" 
d="M1356 0h-324l-342 479l-342 -479h-323l477 688l-469 705h340l317 -482l316 482h340l-469 -705z" />
    <glyph glyph-name="Y" unicode="Y" horiz-adv-x="1427" 
d="M1100 1393h309l-553 -934v-459h-283v459l-555 934h310l385 -658z" />
    <glyph glyph-name="Z" unicode="Z" horiz-adv-x="1337" 
d="M524 254h725v-254h-1165v131l747 1008h-716v254h1124v-131z" />
    <glyph glyph-name="bracketleft" unicode="[" horiz-adv-x="774" 
d="M412 1237v-1266h301v-258h-570v1782h570v-258h-301z" />
    <glyph glyph-name="backslash" unicode="\" horiz-adv-x="831" 
d="M31 1495h258l512 -1823h-258z" />
    <glyph glyph-name="bracketright" unicode="]" horiz-adv-x="774" 
d="M362 1237h-301v258h570v-1782h-570v258h301v1266z" />
    <glyph glyph-name="asciicircum" unicode="^" horiz-adv-x="858" 
d="M549 1393l268 -492h-246l-141 293l-143 -293h-246l268 492h240z" />
    <glyph glyph-name="underscore" unicode="_" horiz-adv-x="1286" 
d="M61 -420v236h1164v-236h-1164z" />
    <glyph glyph-name="grave" unicode="`" 
d="M678 1446l149 -309h-241l-205 309h297z" />
    <glyph glyph-name="a" unicode="a" horiz-adv-x="1247" 
d="M850 977h268v-977h-268v55q-124 -80 -281 -80q-202 0 -344.5 150t-142.5 362q0 140 65 258.5t177 187t245 68.5q158 0 281 -79v55zM610 219q159 0 240 115v309q-81 115 -240 115q-113 0 -186.5 -79t-73.5 -192q0 -111 73.5 -189.5t186.5 -78.5z" />
    <glyph glyph-name="b" unicode="b" horiz-adv-x="1247" 
d="M678 1001q202 0 344.5 -150t142.5 -362q0 -140 -65 -258.5t-177 -187t-245 -68.5q-157 0 -281 80v-55h-268v1454h268v-532q123 79 281 79zM637 219q113 0 186.5 78.5t73.5 191.5q0 111 -73.5 190t-186.5 79q-160 0 -240 -115v-309q80 -115 240 -115z" />
    <glyph glyph-name="c" unicode="c" horiz-adv-x="1171" 
d="M602 219q82 0 140 43.5t73 114.5h275q-23 -176 -160.5 -289t-327.5 -113q-145 0 -264 67t-187.5 184.5t-68.5 260.5q0 218 150 366t370 148q189 0 327 -113t161 -290h-275q-15 71 -73 115.5t-140 44.5q-113 0 -182.5 -78t-69.5 -193t69.5 -191.5t182.5 -76.5z" />
    <glyph glyph-name="d" unicode="d" horiz-adv-x="1247" 
d="M850 1454h268v-1454h-268v55q-124 -80 -281 -80q-133 0 -245 68.5t-177 187t-65 258.5q0 212 142.5 362t344.5 150q158 0 281 -79v532zM610 219q159 0 240 115v309q-81 115 -240 115q-113 0 -186.5 -79t-73.5 -190q0 -113 73.5 -191.5t186.5 -78.5z" />
    <glyph glyph-name="e" unicode="e" horiz-adv-x="1163" 
d="M586 1001q165 0 285.5 -77t173.5 -212t28 -302h-717q16 -91 77 -145t171 -54q57 0 94 12t62 43h297q-49 -137 -171 -214t-284 -77q-232 0 -376 145.5t-144 366.5q0 145 63 262t178.5 184.5t262.5 67.5zM588 774q-93 0 -149.5 -50t-76.5 -132h445q-20 182 -219 182z" />
    <glyph glyph-name="f" unicode="f" horiz-adv-x="925" 
d="M928 977v-225h-379v-752h-268v752h-271v225h271v84q0 191 121 304.5t311 113.5q101 0 213 -33l-37 -227q-86 28 -144 28q-91 0 -143.5 -50t-52.5 -136v-84h379z" />
    <glyph glyph-name="g" unicode="g" horiz-adv-x="1247" 
d="M850 977h268v-983q0 -225 -139 -357.5t-361 -132.5q-210 0 -352 117.5t-157 302.5h272q9 -80 72 -128t165 -48t167 65t65 181v125q-121 -78 -281 -78q-132 0 -244.5 65t-177.5 173.5t-65 232.5q0 216 140.5 352.5t346.5 136.5q162 0 281 -77v53zM610 272q156 0 240 123
v252q-84 123 -240 123q-116 0 -188 -71t-72 -187q0 -91 74.5 -165.5t185.5 -74.5z" />
    <glyph glyph-name="h" unicode="h" horiz-adv-x="1226" 
d="M680 1001q196 0 314 -128t118 -343v-530h-268v514q0 119 -57.5 181.5t-163.5 62.5q-119 0 -226 -125v-633h-268v1454h268v-551q124 98 283 98z" />
    <glyph glyph-name="i" unicode="i" horiz-adv-x="585" 
d="M293 1167q-69 0 -116.5 45.5t-47.5 112.5q0 69 47.5 114.5t116.5 45.5q68 0 116 -46t48 -114q0 -67 -48 -112.5t-116 -45.5zM160 977h268v-977h-268v977z" />
    <glyph glyph-name="j" unicode="j" horiz-adv-x="555" 
d="M262 1167q-68 0 -116 45.5t-48 112.5q0 68 48 114t116 46q69 0 116.5 -45.5t47.5 -114.5q0 -67 -47.5 -112.5t-116.5 -45.5zM397 977v-1014q0 -115 -20 -195.5t-69.5 -141t-136.5 -90.5t-216 -32l-23 234q115 9 156 48.5t41 141.5v1049h268z" />
    <glyph glyph-name="k" unicode="k" horiz-adv-x="1185" 
d="M829 0l-268 377l-164 -172v-205h-268v1454h268v-897l391 420h340l-383 -406l431 -571h-347z" />
    <glyph glyph-name="l" unicode="l" horiz-adv-x="526" 
d="M129 1454h268v-1454h-268v1454z" />
    <glyph glyph-name="m" unicode="m" horiz-adv-x="1859" 
d="M1296 1001q203 0 326 -120.5t123 -337.5v-543h-268v543q0 110 -53 162.5t-146 52.5q-130 0 -213 -103q6 -47 6 -96v-559h-268v559q0 199 -182 199q-136 0 -224 -115v-643h-268v977h268v-66q108 90 258 90q202 0 312 -122q143 122 329 122z" />
    <glyph glyph-name="n" unicode="n" horiz-adv-x="1226" 
d="M680 1001q196 0 314 -128t118 -343v-530h-268v514q0 119 -57.5 181.5t-163.5 62.5q-119 0 -226 -125v-633h-268v977h268v-74q124 98 283 98z" />
    <glyph glyph-name="o" unicode="o" horiz-adv-x="1202" 
d="M602 1001q229 0 373.5 -143.5t144.5 -370.5q0 -226 -144.5 -369t-373.5 -143q-230 0 -375 143t-145 369q0 227 145 370.5t375 143.5zM602 219q110 0 180 75t70 193q0 120 -70 195.5t-180 75.5q-112 0 -182 -75.5t-70 -195.5q0 -119 70 -193.5t182 -74.5z" />
    <glyph glyph-name="p" unicode="p" horiz-adv-x="1247" 
d="M678 997q133 0 245 -67.5t177 -185t65 -257.5q0 -139 -65 -256t-177 -184t-245 -67q-162 0 -281 77v-534h-268v1454h268v-57q119 77 281 77zM637 211q113 0 186.5 82t73.5 194q0 113 -73.5 196t-186.5 83q-155 0 -240 -121v-313q85 -121 240 -121z" />
    <glyph glyph-name="q" unicode="q" horiz-adv-x="1247" 
d="M850 977h268v-1454h-268v534q-119 -77 -281 -77q-133 0 -245 67t-177 184t-65 256q0 140 65 257.5t177 185t245 67.5q162 0 281 -77v57zM610 211q155 0 240 121v313q-85 121 -240 121q-113 0 -186.5 -83t-73.5 -196q0 -112 73.5 -194t186.5 -82z" />
    <glyph glyph-name="r" unicode="r" horiz-adv-x="804" 
d="M397 864q135 129 346 129v-254q-225 -12 -346 -147v-592h-268v977h268v-113z" />
    <glyph glyph-name="s" unicode="s" horiz-adv-x="1032" 
d="M309 338q11 -79 65 -112t146 -33q80 0 127 20.5t47 60.5q0 30 -25.5 52.5t-74.5 31.5l-211 37q-57 10 -106 30t-91.5 53t-67 85.5t-24.5 118.5q0 149 115 235.5t303 86.5q59 0 111 -7t110 -28.5t100.5 -56.5t73 -96t37.5 -142h-248q-4 62 -55 89.5t-129 27.5
q-74 0 -113 -22.5t-39 -59.5q0 -32 28 -59t93 -38l176 -28q293 -52 293 -285q0 -157 -121 -240.5t-315 -83.5q-68 0 -128 10.5t-118 36.5t-101 66t-71.5 104.5t-34.5 147.5z" />
    <glyph glyph-name="t" unicode="t" horiz-adv-x="925" 
d="M829 262l37 -244q-111 -43 -235 -43q-194 0 -302 112t-108 302v363h-209v225h209v354h268v-354h359v-225h-359v-363q0 -83 47 -124.5t126 -41.5q71 0 167 39z" />
    <glyph glyph-name="u" unicode="u" horiz-adv-x="1226" 
d="M829 977h269v-977h-269v78q-131 -103 -282 -103q-195 0 -313.5 131.5t-118.5 346.5v524h268v-508q0 -120 57.5 -185t163.5 -65q118 0 225 129v629z" />
    <glyph glyph-name="v" unicode="v" horiz-adv-x="1187" 
d="M872 977h285l-446 -977h-234l-446 977h284l279 -633z" />
    <glyph glyph-name="w" unicode="w" horiz-adv-x="1630" 
d="M1309 977h290l-344 -977h-233l-207 606l-207 -606h-233l-344 977h291l170 -571l210 571h226l211 -571z" />
    <glyph glyph-name="x" unicode="x" horiz-adv-x="1142" 
d="M752 494l-2 -2l362 -492h-319l-220 305l-223 -305h-319l362 492l-2 2l-360 485h327l211 -289l215 289h328z" />
    <glyph glyph-name="y" unicode="y" horiz-adv-x="1255" 
d="M942 979h283l-625 -1454h-283l205 479l-491 975h286l330 -688z" />
    <glyph glyph-name="z" unicode="z" horiz-adv-x="1019" 
d="M954 977v-143l-487 -611h487v-223h-888v123l501 631h-489v223h876z" />
    <glyph glyph-name="braceleft" unicode="{" horiz-adv-x="722" 
d="M496 838q0 -99 -30.5 -148.5t-123.5 -77.5q93 -28 123.5 -77t30.5 -148v-305q0 -54 45.5 -87.5t120.5 -33.5v-262q-195 0 -315 105.5t-120 277.5v297q0 21 -2 37.5t-7.5 28.5t-11 20t-18 13.5t-22.5 8.5t-29.5 4.5t-34 2t-41.5 0.5v237q27 0 41.5 0.5t34 2t29.5 4.5
t22.5 8.5t18 13.5t11 20t7.5 28.5t2 37.5v297q0 172 120 277.5t315 105.5v-262q-75 0 -120.5 -33.5t-45.5 -87.5v-305z" />
    <glyph glyph-name="bar" unicode="|" horiz-adv-x="659" 
d="M205 1495h250v-1823h-250v1823z" />
    <glyph glyph-name="braceright" unicode="}" horiz-adv-x="753" 
d="M258 838v305q0 54 -45.5 87.5t-120.5 33.5v262q195 0 314.5 -105.5t119.5 -277.5v-297q0 -21 2 -37.5t7.5 -28.5t11 -20t18 -13.5t22.5 -8.5t29.5 -4.5t34 -2t41.5 -0.5v-237q-27 0 -41.5 -0.5t-34 -2t-29.5 -4.5t-22.5 -8.5t-18 -13.5t-11 -20t-7.5 -28.5t-2 -37.5v-297
q0 -172 -119.5 -277.5t-314.5 -105.5v262q75 0 120.5 33.5t45.5 87.5v305q0 99 30.5 148t123.5 77q-93 28 -123.5 77.5t-30.5 148.5z" />
    <glyph glyph-name="asciitilde" unicode="~" horiz-adv-x="901" 
d="M866 834q0 -84 -26 -148t-68.5 -98.5t-94 -50t-104.5 -8.5t-98 32l-108 66q-27 16 -47 16.5t-30.5 -11.5t-15 -27.5t-4.5 -33.5h-235q0 84 26 148t68.5 98.5t94 50t104.5 8.5t98 -32l109 -66q37 -24 58.5 -15t29.5 27.5t8 43.5h235z" />
    <glyph glyph-name="exclamdown" unicode="&#xa1;" horiz-adv-x="583" 
d="M291 991q68 0 116 -45t48 -112q0 -66 -48 -111t-116 -45q-67 0 -114.5 45.5t-47.5 110.5q0 67 47.5 112t114.5 45zM432 -414h-282l22 946h238z" />
    <glyph glyph-name="cent" unicode="&#xa2;" horiz-adv-x="1171" 
d="M602 219q82 0 140 43.5t73 114.5h275q-19 -145 -118 -249t-245 -138v-209h-242v207q-177 37 -290 175t-113 324t113 324.5t290 177.5v238h242v-240q146 -34 245 -139t118 -250h-275q-15 71 -73 115.5t-140 44.5q-113 0 -182.5 -78t-69.5 -193t69.5 -191.5t182.5 -76.5z
" />
    <glyph glyph-name="sterling" unicode="&#xa3;" horiz-adv-x="1249" 
d="M451 561v-328h720v-233h-1110v233h121v328h-121v234h121v133q0 222 140 355.5t370 133.5q210 0 346.5 -113t159.5 -305h-272q-19 86 -80.5 133.5t-153.5 47.5q-110 0 -175.5 -68t-65.5 -184v-133h397v-234h-397z" />
    <glyph glyph-name="yen" unicode="&#xa5;" horiz-adv-x="1427" 
d="M1409 1393l-459 -777h262v-194h-356v-92h356v-195h-356v-135h-283v135h-358v195h358v92h-358v194h264l-461 777h310l385 -658l387 658h309z" />
    <glyph glyph-name="brokenbar" unicode="&#xa6;" horiz-adv-x="659" 
d="M455 1495v-807h-250v807h250zM455 479v-807h-250v807h250z" />
    <glyph glyph-name="section" unicode="&#xa7;" horiz-adv-x="1116" 
d="M1055 471q0 -169 -144 -256q54 -83 54 -197q0 -161 -116 -253.5t-292 -92.5q-190 0 -311.5 107.5t-143.5 283.5h295q6 -68 44 -108.5t112 -40.5q58 0 95.5 30.5t37.5 82.5q0 88 -90 129l-244 112q-162 74 -226.5 157t-64.5 191q0 171 146 254q-55 83 -55 199
q0 160 115.5 252t291.5 92q190 0 311.5 -107t143.5 -282h-295q-7 67 -45 108.5t-111 41.5q-58 0 -95.5 -31.5t-37.5 -81.5q0 -85 90 -129l244 -115q162 -76 226.5 -157.5t64.5 -188.5zM471 481l248 -114q30 12 47.5 39t17.5 59q0 41 -34.5 73.5t-104.5 65.5l-246 115
q-31 -10 -49 -37t-18 -61q0 -75 139 -140z" />
    <glyph glyph-name="dieresis" unicode="&#xa8;" 
d="M395 1444q69 0 117.5 -46.5t48.5 -113.5t-48.5 -113.5t-117.5 -46.5t-117.5 46.5t-48.5 113.5t48.5 113.5t117.5 46.5zM836 1444q69 0 117 -46.5t48 -113.5t-48 -113.5t-117 -46.5t-117.5 46.5t-48.5 113.5t48.5 113.5t117.5 46.5z" />
    <glyph glyph-name="copyright" unicode="&#xa9;" horiz-adv-x="1708" 
d="M854 1423q150 0 287 -55.5t238 -151.5t160.5 -231.5t59.5 -288.5t-59.5 -288.5t-160.5 -231.5t-238 -151.5t-287 -55.5t-287 55.5t-238 151.5t-160.5 231.5t-59.5 288.5t59.5 288.5t160.5 231.5t238 151.5t287 55.5zM852 145q111 0 214 43t179.5 115.5t122 175.5
t45.5 217t-45.5 217t-122 175.5t-179.5 115.5t-214 43t-214 -43t-178.5 -115.5t-121 -175.5t-45.5 -217t45.5 -217t121 -175.5t178.5 -115.5t214 -43zM856 844q-65 0 -108 -44t-43 -108t43 -107.5t108 -43.5q45 0 81.5 22.5t51.5 59.5h207q-22 -122 -115 -196.5t-223 -74.5
q-151 0 -251.5 96.5t-100.5 243.5t100.5 243.5t251.5 96.5q130 0 223 -74t115 -196h-207q-15 37 -51.5 59.5t-81.5 22.5z" />
    <glyph glyph-name="ordfeminine" unicode="&#xaa;" horiz-adv-x="722" 
d="M365 1403q133 0 215 -76t82 -209v-389h-183v37q-73 -49 -164 -49q-125 0 -199.5 57t-74.5 156q0 93 67 140.5t183 47.5h188q0 57 -23.5 91t-90.5 34q-48 0 -79 -21.5t-34 -62.5h-184q2 51 20.5 93t47.5 69.5t67.5 46t78.5 27t83 8.5zM324 866q83 0 155 47v70h-200
q-27 0 -44.5 -12.5t-17.5 -32.5q0 -28 25.5 -50t81.5 -22z" />
    <glyph glyph-name="guillemotleft" unicode="&#xab;" horiz-adv-x="937" 
d="M240 831h258l-189 -315l189 -315h-258l-189 315zM629 831h258l-189 -315l189 -315h-258l-189 315z" />
    <glyph glyph-name="registered" unicode="&#xae;" horiz-adv-x="1167" 
d="M584 1417q141 0 260.5 -66t190.5 -184t71 -260t-71 -259.5t-190.5 -183t-260.5 -65.5t-261 65.5t-191 183t-71 259.5t71 260t191 184t261 66zM582 535q152 0 263 109t111 263q0 155 -111 265t-263 110t-262.5 -109.5t-110.5 -265.5q0 -154 110.5 -263t262.5 -109z
M780 981q0 -89 -78 -129l95 -141h-133l-74 120h-64v-120h-106v426h186q77 0 125.5 -43t48.5 -113zM526 1036v-108h78q66 0 66 55q0 24 -17.5 38.5t-48.5 14.5h-78z" />
    <glyph glyph-name="macron" unicode="&#xaf;" 
d="M328 1395h573v-219h-573v219z" />
    <glyph glyph-name="degree" unicode="&#xb0;" horiz-adv-x="954" 
d="M477 1423q155 0 257 -98.5t102 -249.5q0 -152 -102 -251t-257 -99t-256.5 99t-101.5 251q0 151 101.5 249.5t256.5 98.5zM477 924q63 0 108.5 44.5t45.5 106.5q0 61 -45.5 105.5t-108.5 44.5t-108 -44t-45 -106t45 -106.5t108 -44.5z" />
    <glyph glyph-name="plusminus" unicode="&#xb1;" horiz-adv-x="1396" 
d="M1192 907v-248h-365v-266h-256v266h-366v248h366v269h256v-269h365zM205 313h987v-247h-987v247z" />
    <glyph glyph-name="uni00B2" unicode="&#xb2;" horiz-adv-x="753" 
d="M391 745h301v-165h-616v104l301 324q59 62 81.5 96.5t22.5 69.5q0 38 -26.5 60.5t-69.5 22.5q-55 0 -84 -28.5t-31 -81.5h-198q2 131 82 209t225 78q143 0 223 -72.5t80 -175.5q0 -60 -30 -121t-105 -145z" />
    <glyph glyph-name="uni00B3" unicode="&#xb3;" horiz-adv-x="780" 
d="M602 1010q107 -60 107 -181q0 -111 -87 -186.5t-227 -75.5q-136 0 -220.5 70t-106.5 192h198q32 -88 131 -88q54 0 87.5 25t33.5 63q0 91 -145 91h-66v161h66q52 0 83 26.5t31 66.5t-25.5 64t-74.5 24q-45 0 -70 -25t-28 -63h-199q9 122 88.5 192t208.5 70q133 0 212 -73
t79 -187q0 -106 -76 -166z" />
    <glyph glyph-name="acute" unicode="&#xb4;" 
d="M612 1446h297l-204 -309h-242z" />
    <glyph glyph-name="paragraph" unicode="&#xb6;" horiz-adv-x="1587" 
d="M569 1393h889v-1721h-278v1481h-172v-1481h-279v750h-160q-226 0 -377 139.5t-151 360.5q0 209 151 340t377 131zM729 1153h-160q-115 0 -185.5 -64.5t-70.5 -168.5q0 -110 70.5 -178t185.5 -68h160v479z" />
    <glyph glyph-name="periodcentered" unicode="&#xb7;" horiz-adv-x="448" 
d="M223 422q-67 0 -114.5 45.5t-47.5 112.5q0 65 47.5 110t114.5 45q68 0 116 -45t48 -110q0 -67 -48 -112.5t-116 -45.5z" />
    <glyph glyph-name="cedilla" unicode="&#xb8;" 
d="M766 -102l-123 -328h-231l88 328h266z" />
    <glyph glyph-name="uni00B9" unicode="&#xb9;" horiz-adv-x="696" 
d="M471 754h215v-166h-625v166h220v460l-211 -61v172l295 98h106v-669z" />
    <glyph glyph-name="ordmasculine" unicode="&#xba;" horiz-adv-x="792" 
d="M397 719q-144 0 -249 98t-105 250q0 149 105 244.5t249 95.5t248.5 -95.5t104.5 -244.5q0 -152 -104.5 -250t-248.5 -98zM397 887q69 0 117.5 50t48.5 130q0 75 -48.5 122.5t-117.5 47.5q-71 0 -120.5 -47.5t-49.5 -122.5q0 -80 49.5 -130t120.5 -50z" />
    <glyph glyph-name="guillemotright" unicode="&#xbb;" horiz-adv-x="937" 
d="M309 831l189 -315l-189 -315h-258l189 315l-189 315h258zM698 831l189 -315l-189 -315h-258l189 315l-189 315h258z" />
    <glyph glyph-name="onequarter" unicode="&#xbc;" horiz-adv-x="1908" 
d="M686 557h-625v166h220v461l-211 -62v172l295 99h106v-670h215v-166zM1354 1393h186l-952 -1393h-187zM1847 330v-174h-106v-156h-197v156h-440v127l239 553h207l-211 -506h205v227h197v-227h106z" />
    <glyph glyph-name="onehalf" unicode="&#xbd;" horiz-adv-x="1880" 
d="M686 557h-625v166h220v461l-211 -62v172l295 99h106v-670h215v-166zM1366 1393h186l-952 -1393h-186zM1518 166h301v-166h-617v104l301 324q60 63 82.5 97t22.5 69q0 38 -27 61t-70 23q-55 0 -83.5 -29t-30.5 -82h-199q2 131 82 209t225 78q143 0 223 -72.5t80 -175.5
q0 -60 -30 -121t-105 -145z" />
    <glyph glyph-name="threequarters" unicode="&#xbe;" horiz-adv-x="1847" 
d="M709 807q0 -111 -87 -186.5t-227 -75.5q-136 0 -220.5 70t-106.5 192h198q32 -88 131 -88q54 0 87.5 25t33.5 63q0 90 -145 90h-66v162h66q52 0 83 26t31 66t-25.5 64t-74.5 24q-45 0 -70 -25t-28 -63h-199q9 122 88.5 192t208.5 70q133 0 212 -73t79 -187
q0 -106 -76 -166q107 -60 107 -180zM1313 1393h186l-952 -1393h-187zM1786 330v-174h-107v-156h-196v156h-441v127l240 553h207l-211 -506h205v227h196v-227h107z" />
    <glyph glyph-name="questiondown" unicode="&#xbf;" horiz-adv-x="1071" 
d="M600 1120q67 0 114.5 -45t47.5 -112q0 -65 -47.5 -110.5t-114.5 -45.5q-68 0 -116 45t-48 111q0 67 48 112t116 45zM489 672h209l21 -326h-148q-98 0 -163.5 -56.5t-65.5 -152.5q0 -94 56.5 -150.5t150.5 -56.5q86 0 144 48.5t67 127.5h270q-14 -190 -136 -301.5
t-333 -111.5q-135 0 -243.5 54.5t-172 156t-63.5 231.5q0 167 105.5 269.5t289.5 123.5z" />
    <glyph glyph-name="Agrave" unicode="&#xc0;" horiz-adv-x="1540" 
d="M918 1546h-242l-205 309h297zM1206 0l-114 279h-641l-115 -279h-299l604 1393h260l602 -1393h-297zM551 526h438l-219 533z" />
    <glyph glyph-name="Aacute" unicode="&#xc1;" horiz-adv-x="1540" 
d="M1090 1855l-205 -309h-242l150 309h297zM1206 0l-114 279h-641l-115 -279h-299l604 1393h260l602 -1393h-297zM551 526h438l-219 533z" />
    <glyph glyph-name="Acircumflex" unicode="&#xc2;" horiz-adv-x="1540" 
d="M770 1694l-119 -148h-250l242 318h252l242 -318h-250zM1206 0l-114 279h-641l-115 -279h-299l604 1393h260l602 -1393h-297zM551 526h438l-219 533z" />
    <glyph glyph-name="Atilde" unicode="&#xc3;" horiz-adv-x="1540" 
d="M696 1636q-25 15 -43 15.5t-27.5 -10t-13.5 -24.5t-4 -30h-215q0 94 36.5 160t91.5 92t116 25.5t113 -29.5l98 -59q25 -15 43 -15.5t27.5 10t13.5 24.5t4 30h215q0 -94 -36.5 -160t-91 -92t-115.5 -25.5t-113 29.5zM1206 0l-114 279h-641l-115 -279h-299l604 1393h260
l602 -1393h-297zM551 526h438l-219 533z" />
    <glyph glyph-name="Adieresis" unicode="&#xc4;" horiz-adv-x="1540" 
d="M549 1534q-69 0 -117.5 46.5t-48.5 113.5t48.5 113t117.5 46t117.5 -46t48.5 -113t-48.5 -113.5t-117.5 -46.5zM989 1534q-69 0 -117.5 46.5t-48.5 113.5t48.5 113t117.5 46t117.5 -46t48.5 -113t-48.5 -113.5t-117.5 -46.5zM1206 0l-114 279h-641l-115 -279h-299
l604 1393h260l602 -1393h-297zM551 526h438l-219 533z" />
    <glyph glyph-name="Aring" unicode="&#xc5;" horiz-adv-x="1540" 
d="M770 1559q-107 0 -172.5 61.5t-65.5 161.5t65.5 160.5t172.5 60.5t172.5 -60.5t65.5 -160.5t-65.5 -161.5t-172.5 -61.5zM770 1868q-40 0 -64 -24t-24 -62q0 -40 24 -64t64 -24t64 24t24 64q0 38 -24 62t-64 24zM1206 0l-114 279h-641l-115 -279h-299l604 1393h260
l602 -1393h-297zM551 526h438l-219 533z" />
    <glyph glyph-name="AE" unicode="&#xc6;" horiz-adv-x="2187" 
d="M2101 1135h-745v-320h663v-258h-663v-299h745v-258h-1024v279h-502l-196 -279h-342l1014 1393h1050v-258zM756 537h321v456z" />
    <glyph glyph-name="Ccedilla" unicode="&#xc7;" horiz-adv-x="1624" 
d="M834 236q153 0 255 83.5t140 237.5h287q-47 -266 -232 -424t-450 -158q-149 0 -282.5 54t-231 148t-154.5 229t-57 290t57 290t154.5 229t231 148t282.5 54q265 0 450 -157.5t232 -423.5h-287q-38 154 -140 237.5t-255 83.5q-192 0 -317.5 -128.5t-125.5 -332.5
t125.5 -332t317.5 -128zM608 -430l88 328h267l-123 -328h-232z" />
    <glyph glyph-name="Egrave" unicode="&#xc8;" horiz-adv-x="1253" 
d="M795 1546h-242l-205 309h297zM1167 1135h-745v-320h663v-258h-663v-299h745v-258h-1024v1393h1024v-258z" />
    <glyph glyph-name="Eacute" unicode="&#xc9;" horiz-adv-x="1253" 
d="M967 1855l-205 -309h-242l150 309h297zM1167 1135h-745v-320h663v-258h-663v-299h745v-258h-1024v1393h1024v-258z" />
    <glyph glyph-name="Ecircumflex" unicode="&#xca;" horiz-adv-x="1253" 
d="M647 1694l-119 -148h-249l241 318h252l242 -318h-250zM1167 1135h-745v-320h663v-258h-663v-299h745v-258h-1024v1393h1024v-258z" />
    <glyph glyph-name="Edieresis" unicode="&#xcb;" horiz-adv-x="1253" 
d="M426 1534q-69 0 -117.5 46.5t-48.5 113.5t48.5 113t117.5 46t117.5 -46t48.5 -113t-48.5 -113.5t-117.5 -46.5zM866 1534q-69 0 -117.5 46.5t-48.5 113.5t48.5 113t117.5 46t117.5 -46t48.5 -113t-48.5 -113.5t-117.5 -46.5zM1167 1135h-745v-320h663v-258h-663v-299h745
v-258h-1024v1393h1024v-258z" />
    <glyph glyph-name="Igrave" unicode="&#xcc;" horiz-adv-x="565" 
d="M281 1855l149 -309h-242l-204 309h297zM143 1393h279v-1393h-279v1393z" />
    <glyph glyph-name="Iacute" unicode="&#xcd;" horiz-adv-x="565" 
d="M305 1855h297l-205 -309h-241zM143 1393h279v-1393h-279v1393z" />
    <glyph glyph-name="Icircumflex" unicode="&#xce;" horiz-adv-x="565" 
d="M399 1546l-116 148l-119 -148h-250l242 318h252l241 -318h-250zM143 1393h279v-1393h-279v1393z" />
    <glyph glyph-name="Idieresis" unicode="&#xcf;" horiz-adv-x="565" 
d="M61 1853q69 0 117.5 -46t48.5 -113t-48.5 -113.5t-117.5 -46.5t-117 46.5t-48 113.5t48 113t117 46zM502 1853q69 0 117.5 -46t48.5 -113t-48.5 -113.5t-117.5 -46.5t-117.5 46.5t-48.5 113.5t48.5 113t117.5 46zM143 1393h279v-1393h-279v1393z" />
    <glyph glyph-name="Eth" unicode="&#xd0;" horiz-adv-x="1511" 
d="M678 1393q157 0 295.5 -53t237 -144.5t155.5 -220t57 -273.5q0 -198 -97 -358.5t-267.5 -252t-380.5 -91.5h-535v571h-129v238h129v584h535zM678 258q126 0 232.5 59t168.5 161t62 224q0 180 -135.5 306.5t-327.5 126.5h-256v-326h250v-238h-250v-313h256z" />
    <glyph glyph-name="Ntilde" unicode="&#xd1;" horiz-adv-x="1533" 
d="M694 1636q-25 15 -43 15.5t-27.5 -10t-13.5 -24.5t-4 -30h-215q0 94 36.5 160t91.5 92t116 25.5t113 -29.5l98 -59q25 -15 43 -15.5t27.5 10t13.5 24.5t4 30h215q0 -94 -36.5 -160t-91 -92t-115.5 -25.5t-113 29.5zM1112 1393h279v-1393h-215l-754 874v-874h-279v1393
h207l762 -899v899z" />
    <glyph glyph-name="Ograve" unicode="&#xd2;" horiz-adv-x="1667" 
d="M831 1855l150 -309h-242l-204 309h296zM834 1417q197 0 364 -96t264 -262t97 -363t-97 -363t-264 -262t-364 -96t-364 96t-264 262t-97 363t97 363t264 262t364 96zM834 236q189 0 315.5 134t126.5 326t-126.5 326.5t-315.5 134.5t-316 -134.5t-127 -326.5t127 -326
t316 -134z" />
    <glyph glyph-name="Oacute" unicode="&#xd3;" horiz-adv-x="1667" 
d="M856 1855h297l-205 -309h-241zM834 1417q197 0 364 -96t264 -262t97 -363t-97 -363t-264 -262t-364 -96t-364 96t-264 262t-97 363t97 363t264 262t364 96zM834 236q189 0 315.5 134t126.5 326t-126.5 326.5t-315.5 134.5t-316 -134.5t-127 -326.5t127 -326t316 -134z
" />
    <glyph glyph-name="Ocircumflex" unicode="&#xd4;" horiz-adv-x="1667" 
d="M950 1546l-116 148l-119 -148h-250l242 318h251l242 -318h-250zM834 1417q197 0 364 -96t264 -262t97 -363t-97 -363t-264 -262t-364 -96t-364 96t-264 262t-97 363t97 363t264 262t364 96zM834 236q189 0 315.5 134t126.5 326t-126.5 326.5t-315.5 134.5t-316 -134.5
t-127 -326.5t127 -326t316 -134z" />
    <glyph glyph-name="Otilde" unicode="&#xd5;" horiz-adv-x="1667" 
d="M1214 1825q0 -94 -36.5 -160t-91 -92t-115.5 -25.5t-113 29.5l-98 59q-25 15 -43 15.5t-27.5 -10t-13.5 -24.5t-4 -30h-215q0 94 36.5 160t91 92t115.5 25.5t113 -29.5l98 -59q25 -15 43 -15.5t27.5 10t13.5 24.5t4 30h215zM834 1417q197 0 364 -96t264 -262t97 -363
t-97 -363t-264 -262t-364 -96t-364 96t-264 262t-97 363t97 363t264 262t364 96zM834 236q189 0 315.5 134t126.5 326t-126.5 326.5t-315.5 134.5t-316 -134.5t-127 -326.5t127 -326t316 -134z" />
    <glyph glyph-name="Odieresis" unicode="&#xd6;" horiz-adv-x="1667" 
d="M612 1853q69 0 117.5 -46t48.5 -113t-48.5 -113.5t-117.5 -46.5t-117.5 46.5t-48.5 113.5t48.5 113t117.5 46zM1053 1853q69 0 117.5 -46t48.5 -113t-48.5 -113.5t-117.5 -46.5t-117.5 46.5t-48.5 113.5t48.5 113t117.5 46zM834 1417q197 0 364 -96t264 -262t97 -363
t-97 -363t-264 -262t-364 -96t-364 96t-264 262t-97 363t97 363t264 262t364 96zM834 236q189 0 315.5 134t126.5 326t-126.5 326.5t-315.5 134.5t-316 -134.5t-127 -326.5t127 -326t316 -134z" />
    <glyph glyph-name="multiply" unicode="&#xd7;" horiz-adv-x="1394" 
d="M874 662l289 -291l-176 -176l-289 290l-290 -290l-177 176l291 291l-291 288l177 176l290 -288l289 288l176 -176z" />
    <glyph glyph-name="Oslash" unicode="&#xd8;" horiz-adv-x="1667" 
d="M1374 1178q88 -97 136.5 -221t48.5 -261q0 -197 -97 -363t-264 -262t-364 -96q-206 0 -381 107l-109 -131l-166 139l109 131q-85 95 -131.5 217.5t-46.5 257.5q0 197 97 363t264 262t364 96q204 0 372 -102l92 110l166 -139zM391 696q0 -147 76 -262l567 676
q-89 47 -200 47q-189 0 -316 -134.5t-127 -326.5zM834 236q189 0 315.5 134t126.5 326q0 150 -80 269l-569 -678q94 -51 207 -51z" />
    <glyph glyph-name="Ugrave" unicode="&#xd9;" horiz-adv-x="1492" 
d="M745 1855l150 -309h-242l-204 309h296zM1370 1393v-766q0 -304 -170 -478t-455 -174q-283 0 -452.5 174t-169.5 478v766h278v-766q0 -178 94 -284.5t250 -106.5t251.5 106.5t95.5 284.5v766h278z" />
    <glyph glyph-name="Uacute" unicode="&#xda;" horiz-adv-x="1492" 
d="M770 1855h297l-205 -309h-241zM1370 1393v-766q0 -304 -170 -478t-455 -174q-283 0 -452.5 174t-169.5 478v766h278v-766q0 -178 94 -284.5t250 -106.5t251.5 106.5t95.5 284.5v766h278z" />
    <glyph glyph-name="Ucircumflex" unicode="&#xdb;" horiz-adv-x="1492" 
d="M864 1546l-116 148l-119 -148h-250l242 318h251l242 -318h-250zM1370 1393v-766q0 -304 -170 -478t-455 -174q-283 0 -452.5 174t-169.5 478v766h278v-766q0 -178 94 -284.5t250 -106.5t251.5 106.5t95.5 284.5v766h278z" />
    <glyph glyph-name="Udieresis" unicode="&#xdc;" horiz-adv-x="1492" 
d="M526 1853q69 0 117.5 -46t48.5 -113t-48.5 -113.5t-117.5 -46.5t-117.5 46.5t-48.5 113.5t48.5 113t117.5 46zM967 1853q69 0 117.5 -46t48.5 -113t-48.5 -113.5t-117.5 -46.5t-117.5 46.5t-48.5 113.5t48.5 113t117.5 46zM1370 1393v-766q0 -304 -170 -478t-455 -174
q-283 0 -452.5 174t-169.5 478v766h278v-766q0 -178 94 -284.5t250 -106.5t251.5 106.5t95.5 284.5v766h278z" />
    <glyph glyph-name="Yacute" unicode="&#xdd;" horiz-adv-x="1427" 
d="M1034 1855l-205 -309h-241l149 309h297zM1100 1393h309l-553 -934v-459h-283v459l-555 934h310l385 -658z" />
    <glyph glyph-name="Thorn" unicode="&#xde;" horiz-adv-x="1282" 
d="M680 1200q250 0 402.5 -133.5t152.5 -353.5q0 -233 -163.5 -374.5t-432.5 -141.5h-217v-197h-279v1393h279v-193h258zM670 453q131 0 212 71.5t81 188.5q0 103 -81.5 167t-211.5 64h-248v-491h248z" />
    <glyph glyph-name="germandbls" unicode="&#xdf;" horiz-adv-x="1335" 
d="M967 745q128 -36 197 -122.5t69 -219.5q0 -192 -138.5 -302.5t-381.5 -110.5q-33 0 -123 4v223h104q137 0 208 51.5t71 139.5q0 82 -58.5 128t-158.5 46h-140v196q69 13 118 39t72.5 59.5t33.5 64.5t10 65q0 82 -53.5 130t-153.5 48q-246 0 -246 -328v-856h-268v856
q0 271 133.5 416t378.5 145q219 0 344 -109t125 -296q0 -189 -143 -267z" />
    <glyph glyph-name="agrave" unicode="&#xe0;" horiz-adv-x="1247" 
d="M786 1137h-241l-205 309h297zM850 977h268v-977h-268v55q-124 -80 -281 -80q-202 0 -344.5 150t-142.5 362q0 140 65 258.5t177 187t245 68.5q158 0 281 -79v55zM610 219q159 0 240 115v309q-81 115 -240 115q-113 0 -186.5 -79t-73.5 -192q0 -111 73.5 -189.5
t186.5 -78.5z" />
    <glyph glyph-name="aacute" unicode="&#xe1;" horiz-adv-x="1247" 
d="M958 1446l-204 -309h-242l150 309h296zM850 977h268v-977h-268v55q-124 -80 -281 -80q-202 0 -344.5 150t-142.5 362q0 140 65 258.5t177 187t245 68.5q158 0 281 -79v55zM610 219q159 0 240 115v309q-81 115 -240 115q-113 0 -186.5 -79t-73.5 -192q0 -111 73.5 -189.5
t186.5 -78.5z" />
    <glyph glyph-name="acircumflex" unicode="&#xe2;" horiz-adv-x="1247" 
d="M639 1264l-119 -148h-250l242 318h252l242 -318h-250zM850 977h268v-977h-268v55q-124 -80 -281 -80q-202 0 -344.5 150t-142.5 362q0 140 65 258.5t177 187t245 68.5q158 0 281 -79v55zM610 219q159 0 240 115v309q-81 115 -240 115q-113 0 -186.5 -79t-73.5 -192
q0 -111 73.5 -189.5t186.5 -78.5z" />
    <glyph glyph-name="atilde" unicode="&#xe3;" horiz-adv-x="1247" 
d="M565 1227q-25 15 -43 15.5t-27.5 -10t-13.5 -24.5t-4 -30h-215q0 76 24 134t62.5 89.5t85.5 45.5t95 7.5t89 -29.5l99 -59q25 -15 43 -15.5t27.5 10t13.5 24.5t4 30h215q0 -94 -36.5 -160t-91 -92t-115.5 -25.5t-113 29.5zM850 977h268v-977h-268v55q-124 -80 -281 -80
q-202 0 -344.5 150t-142.5 362q0 140 65 258.5t177 187t245 68.5q158 0 281 -79v55zM610 219q159 0 240 115v309q-81 115 -240 115q-113 0 -186.5 -79t-73.5 -192q0 -111 73.5 -189.5t186.5 -78.5z" />
    <glyph glyph-name="adieresis" unicode="&#xe4;" horiz-adv-x="1247" 
d="M420 1124q-69 0 -117.5 46.5t-48.5 113.5t48.5 113.5t117.5 46.5t117.5 -46.5t48.5 -113.5t-48.5 -113.5t-117.5 -46.5zM860 1124q-69 0 -117.5 46.5t-48.5 113.5t48.5 113.5t117.5 46.5t117.5 -46.5t48.5 -113.5t-48.5 -113.5t-117.5 -46.5zM850 977h268v-977h-268v55
q-124 -80 -281 -80q-202 0 -344.5 150t-142.5 362q0 140 65 258.5t177 187t245 68.5q158 0 281 -79v55zM610 219q159 0 240 115v309q-81 115 -240 115q-113 0 -186.5 -79t-73.5 -192q0 -111 73.5 -189.5t186.5 -78.5z" />
    <glyph glyph-name="aring" unicode="&#xe5;" horiz-adv-x="1247" 
d="M639 1108q-107 0 -172.5 61.5t-65.5 161.5t65.5 160.5t172.5 60.5t172.5 -60.5t65.5 -160.5t-65.5 -161.5t-172.5 -61.5zM639 1417q-40 0 -64 -24t-24 -62q0 -40 24 -64t64 -24t64 24t24 64q0 38 -24 62t-64 24zM850 977h268v-977h-268v55q-124 -80 -281 -80
q-202 0 -344.5 150t-142.5 362q0 140 65 258.5t177 187t245 68.5q158 0 281 -79v55zM610 219q159 0 240 115v309q-81 115 -240 115q-113 0 -186.5 -79t-73.5 -192q0 -111 73.5 -189.5t186.5 -78.5z" />
    <glyph glyph-name="ae" unicode="&#xe6;" horiz-adv-x="1806" 
d="M1229 1001q165 0 285.5 -77t173.5 -212t28 -302h-717q16 -91 77 -145t171 -54q57 0 94 12t62 43h297q-49 -137 -171 -214t-284 -77q-234 0 -381 150q-172 -143 -391 -143q-189 0 -300.5 84.5t-111.5 232.5q0 140 105 211.5t293 71.5h270q0 42 -7 73.5t-25.5 61
t-56.5 45.5t-93 16q-73 0 -122 -34t-56 -95h-269q3 74 31 134.5t71.5 100.5t101 67t118.5 38.5t125 11.5q219 0 340 -127q137 127 342 127zM1231 774q-93 0 -149 -50t-76 -132h444q-20 182 -219 182zM485 201q74 0 136 20.5t137 73.5q-19 54 -23 88h-295q-59 0 -91 -22
t-32 -56q0 -44 40 -74t128 -30z" />
    <glyph glyph-name="ccedilla" unicode="&#xe7;" horiz-adv-x="1171" 
d="M602 219q82 0 140 43.5t73 114.5h275q-23 -176 -160.5 -289t-327.5 -113q-145 0 -264 67t-187.5 184.5t-68.5 260.5q0 218 150 366t370 148q189 0 327 -113t161 -290h-275q-15 71 -73 115.5t-140 44.5q-113 0 -182.5 -78t-69.5 -193t69.5 -191.5t182.5 -76.5zM381 -430
l88 328h266l-123 -328h-231z" />
    <glyph glyph-name="egrave" unicode="&#xe8;" horiz-adv-x="1163" 
d="M745 1137h-241l-205 309h297zM586 1001q165 0 285.5 -77t173.5 -212t28 -302h-717q16 -91 77 -145t171 -54q57 0 94 12t62 43h297q-49 -137 -171 -214t-284 -77q-232 0 -376 145.5t-144 366.5q0 145 63 262t178.5 184.5t262.5 67.5zM588 774q-93 0 -149.5 -50t-76.5 -132
h445q-20 182 -219 182z" />
    <glyph glyph-name="eacute" unicode="&#xe9;" horiz-adv-x="1163" 
d="M918 1446l-205 -309h-242l150 309h297zM586 1001q165 0 285.5 -77t173.5 -212t28 -302h-717q16 -91 77 -145t171 -54q57 0 94 12t62 43h297q-49 -137 -171 -214t-284 -77q-232 0 -376 145.5t-144 366.5q0 145 63 262t178.5 184.5t262.5 67.5zM588 774q-93 0 -149.5 -50
t-76.5 -132h445q-20 182 -219 182z" />
    <glyph glyph-name="ecircumflex" unicode="&#xea;" horiz-adv-x="1163" 
d="M598 1264l-119 -148h-250l242 318h252l242 -318h-250zM586 1001q165 0 285.5 -77t173.5 -212t28 -302h-717q16 -91 77 -145t171 -54q57 0 94 12t62 43h297q-49 -137 -171 -214t-284 -77q-232 0 -376 145.5t-144 366.5q0 145 63 262t178.5 184.5t262.5 67.5zM588 774
q-93 0 -149.5 -50t-76.5 -132h445q-20 182 -219 182z" />
    <glyph glyph-name="edieresis" unicode="&#xeb;" horiz-adv-x="1163" 
d="M379 1124q-69 0 -117.5 46.5t-48.5 113.5t48.5 113.5t117.5 46.5t117.5 -46.5t48.5 -113.5t-48.5 -113.5t-117.5 -46.5zM819 1124q-69 0 -117.5 46.5t-48.5 113.5t48.5 113.5t117.5 46.5t117.5 -46.5t48.5 -113.5t-48.5 -113.5t-117.5 -46.5zM586 1001q165 0 285.5 -77
t173.5 -212t28 -302h-717q16 -91 77 -145t171 -54q57 0 94 12t62 43h297q-49 -137 -171 -214t-284 -77q-232 0 -376 145.5t-144 366.5q0 145 63 262t178.5 184.5t262.5 67.5zM588 774q-93 0 -149.5 -50t-76.5 -132h445q-20 182 -219 182z" />
    <glyph glyph-name="igrave" unicode="&#xec;" horiz-adv-x="544" 
d="M270 1446l150 -309h-242l-205 309h297zM139 977h269v-977h-269v977z" />
    <glyph glyph-name="iacute" unicode="&#xed;" horiz-adv-x="544" 
d="M295 1446h297l-205 -309h-242zM139 977h269v-977h-269v977z" />
    <glyph glyph-name="icircumflex" unicode="&#xee;" horiz-adv-x="544" 
d="M389 1116l-117 148l-118 -148h-250l241 318h252l242 -318h-250zM139 977h269v-977h-269v977z" />
    <glyph glyph-name="idieresis" unicode="&#xef;" horiz-adv-x="544" 
d="M53 1444q69 0 117.5 -46.5t48.5 -113.5t-48.5 -113.5t-117.5 -46.5t-117.5 46.5t-48.5 113.5t48.5 113.5t117.5 46.5zM494 1444q69 0 117 -46.5t48 -113.5t-48 -113.5t-117 -46.5t-117.5 46.5t-48.5 113.5t48.5 113.5t117.5 46.5zM139 977h269v-977h-269v977z" />
    <glyph glyph-name="eth" unicode="&#xf0;" horiz-adv-x="1202" 
d="M827 1212q142 -147 217.5 -333t75.5 -392q0 -224 -147.5 -371t-370.5 -147q-224 0 -372 147t-148 371q0 222 147.5 366t372.5 144q55 0 111 -16q-55 77 -135 141l-295 -106l-68 176l172 61q-98 56 -203 103l271 114q114 -49 207 -116l208 76l68 -177zM602 213
q112 0 181 78t69 196q0 115 -69 191t-181 76q-113 0 -182.5 -76t-69.5 -191q0 -118 69.5 -196t182.5 -78z" />
    <glyph glyph-name="ntilde" unicode="&#xf1;" horiz-adv-x="1226" 
d="M541 1227q-25 15 -43 15.5t-27.5 -10t-13.5 -24.5t-4 -30h-215q0 76 24 134t62.5 89.5t85.5 45.5t95 7.5t89 -29.5l98 -59q25 -15 43 -15.5t27.5 10t13.5 24.5t4 30h215q0 -94 -36.5 -160t-91 -92t-115.5 -25.5t-113 29.5zM680 1001q196 0 314 -128t118 -343v-530h-268
v514q0 119 -57.5 181.5t-163.5 62.5q-119 0 -226 -125v-633h-268v977h268v-74q124 98 283 98z" />
    <glyph glyph-name="ograve" unicode="&#xf2;" horiz-adv-x="1202" 
d="M600 1446l150 -309h-242l-205 309h297zM602 1001q229 0 373.5 -143.5t144.5 -370.5q0 -226 -144.5 -369t-373.5 -143q-230 0 -375 143t-145 369q0 227 145 370.5t375 143.5zM602 219q110 0 180 75t70 193q0 120 -70 195.5t-180 75.5q-112 0 -182 -75.5t-70 -195.5
q0 -119 70 -193.5t182 -74.5z" />
    <glyph glyph-name="oacute" unicode="&#xf3;" horiz-adv-x="1202" 
d="M625 1446h297l-205 -309h-242zM602 1001q229 0 373.5 -143.5t144.5 -370.5q0 -226 -144.5 -369t-373.5 -143q-230 0 -375 143t-145 369q0 227 145 370.5t375 143.5zM602 219q110 0 180 75t70 193q0 120 -70 195.5t-180 75.5q-112 0 -182 -75.5t-70 -195.5
q0 -119 70 -193.5t182 -74.5z" />
    <glyph glyph-name="ocircumflex" unicode="&#xf4;" horiz-adv-x="1202" 
d="M719 1116l-117 148l-119 -148h-250l242 318h252l242 -318h-250zM602 1001q229 0 373.5 -143.5t144.5 -370.5q0 -226 -144.5 -369t-373.5 -143q-230 0 -375 143t-145 369q0 227 145 370.5t375 143.5zM602 219q110 0 180 75t70 193q0 120 -70 195.5t-180 75.5
q-112 0 -182 -75.5t-70 -195.5q0 -119 70 -193.5t182 -74.5z" />
    <glyph glyph-name="otilde" unicode="&#xf5;" horiz-adv-x="1202" 
d="M983 1415q0 -94 -36.5 -160t-91 -92t-115.5 -25.5t-113 29.5l-99 60q-25 15 -43 15.5t-27.5 -10t-13.5 -24.5t-4 -30h-215q0 76 24 134t63 89.5t86 45.5t95 7.5t89 -29.5l98 -59q25 -15 43 -15.5t27.5 10t13.5 24.5t4 30h215zM602 1001q229 0 373.5 -143.5t144.5 -370.5
q0 -226 -144.5 -369t-373.5 -143q-230 0 -375 143t-145 369q0 227 145 370.5t375 143.5zM602 219q110 0 180 75t70 193q0 120 -70 195.5t-180 75.5q-112 0 -182 -75.5t-70 -195.5q0 -119 70 -193.5t182 -74.5z" />
    <glyph glyph-name="odieresis" unicode="&#xf6;" horiz-adv-x="1202" 
d="M383 1444q69 0 117.5 -46.5t48.5 -113.5t-48.5 -113.5t-117.5 -46.5t-117.5 46.5t-48.5 113.5t48.5 113.5t117.5 46.5zM823 1444q69 0 117.5 -46.5t48.5 -113.5t-48.5 -113.5t-117.5 -46.5t-117.5 46.5t-48.5 113.5t48.5 113.5t117.5 46.5zM602 1001q229 0 373.5 -143.5
t144.5 -370.5q0 -226 -144.5 -369t-373.5 -143q-230 0 -375 143t-145 369q0 227 145 370.5t375 143.5zM602 219q110 0 180 75t70 193q0 120 -70 195.5t-180 75.5q-112 0 -182 -75.5t-70 -195.5q0 -119 70 -193.5t182 -74.5z" />
    <glyph glyph-name="divide" unicode="&#xf7;" horiz-adv-x="1396" 
d="M698 928q-65 0 -110 43t-45 106q0 64 45 108t110 44t111.5 -44t46.5 -108q0 -63 -46.5 -106t-111.5 -43zM205 557v248h987v-248h-987zM698 145q-65 0 -110 43.5t-45 106.5q0 64 45 107.5t110 43.5t111.5 -43.5t46.5 -107.5q0 -63 -46.5 -106.5t-111.5 -43.5z" />
    <glyph glyph-name="oslash" unicode="&#xf8;" horiz-adv-x="1202" 
d="M1004 829q116 -138 116 -342q0 -226 -144.5 -369t-373.5 -143q-144 0 -262 62l-55 -66l-142 115l54 64q-115 137 -115 337q0 227 145 370.5t375 143.5q146 0 258 -59l72 86l141 -115zM350 487q0 -67 25 -125l317 379q-46 17 -90 17q-112 0 -182 -75.5t-70 -195.5z
M602 219q110 0 180 75t70 193q0 67 -27 129l-319 -380q49 -17 96 -17z" />
    <glyph glyph-name="ugrave" unicode="&#xf9;" horiz-adv-x="1226" 
d="M762 1137h-242l-205 309h297zM829 977h269v-977h-269v78q-131 -103 -282 -103q-195 0 -313.5 131.5t-118.5 346.5v524h268v-508q0 -120 57.5 -185t163.5 -65q118 0 225 129v629z" />
    <glyph glyph-name="uacute" unicode="&#xfa;" horiz-adv-x="1226" 
d="M934 1446l-205 -309h-242l150 309h297zM829 977h269v-977h-269v78q-131 -103 -282 -103q-195 0 -313.5 131.5t-118.5 346.5v524h268v-508q0 -120 57.5 -185t163.5 -65q118 0 225 129v629z" />
    <glyph glyph-name="ucircumflex" unicode="&#xfb;" horiz-adv-x="1226" 
d="M614 1264l-118 -148h-250l241 318h252l242 -318h-250zM829 977h269v-977h-269v78q-131 -103 -282 -103q-195 0 -313.5 131.5t-118.5 346.5v524h268v-508q0 -120 57.5 -185t163.5 -65q118 0 225 129v629z" />
    <glyph glyph-name="udieresis" unicode="&#xfc;" horiz-adv-x="1226" 
d="M395 1124q-69 0 -117.5 46.5t-48.5 113.5t48.5 113.5t117.5 46.5t117.5 -46.5t48.5 -113.5t-48.5 -113.5t-117.5 -46.5zM836 1124q-69 0 -117.5 46.5t-48.5 113.5t48.5 113.5t117.5 46.5t117 -46.5t48 -113.5t-48 -113.5t-117 -46.5zM829 977h269v-977h-269v78
q-131 -103 -282 -103q-195 0 -313.5 131.5t-118.5 346.5v524h268v-508q0 -120 57.5 -185t163.5 -65q118 0 225 129v629z" />
    <glyph glyph-name="yacute" unicode="&#xfd;" horiz-adv-x="1255" 
d="M948 1446l-205 -309h-241l149 309h297zM942 979h283l-625 -1454h-283l205 479l-491 975h286l330 -688z" />
    <glyph glyph-name="thorn" unicode="&#xfe;" horiz-adv-x="1247" 
d="M678 997q133 0 245 -67.5t177 -185t65 -257.5q0 -139 -65 -256t-177 -184t-245 -67q-162 0 -281 77v-534h-268v1931h268v-534q119 77 281 77zM637 211q113 0 186.5 82t73.5 194q0 113 -73.5 196t-186.5 83q-155 0 -240 -121v-313q85 -121 240 -121z" />
    <glyph glyph-name="ydieresis" unicode="&#xff;" horiz-adv-x="1255" 
d="M410 1124q-69 0 -117.5 46.5t-48.5 113.5t48.5 113.5t117.5 46.5t117 -46.5t48 -113.5t-48 -113.5t-117 -46.5zM850 1124q-69 0 -117.5 46.5t-48.5 113.5t48.5 113.5t117.5 46.5t117.5 -46.5t48.5 -113.5t-48.5 -113.5t-117.5 -46.5zM942 979h283l-625 -1454h-283
l205 479l-491 975h286l330 -688z" />
    <glyph glyph-name="Amacron" unicode="&#x100;" horiz-adv-x="1540" 
d="M1057 1767v-219h-574v219h574zM1206 0l-114 279h-641l-115 -279h-299l604 1393h260l602 -1393h-297zM551 526h438l-219 533z" />
    <glyph glyph-name="amacron" unicode="&#x101;" horiz-adv-x="1247" 
d="M926 1395v-219h-574v219h574zM850 977h268v-977h-268v55q-124 -80 -281 -80q-202 0 -344.5 150t-142.5 362q0 140 65 258.5t177 187t245 68.5q158 0 281 -79v55zM610 219q159 0 240 115v309q-81 115 -240 115q-113 0 -186.5 -79t-73.5 -192q0 -111 73.5 -189.5
t186.5 -78.5z" />
    <glyph glyph-name="Abreve" unicode="&#x102;" horiz-adv-x="1540" 
d="M770 1546q-147 0 -236.5 84.5t-89.5 241.5h195q0 -148 131 -148q59 0 95 34.5t36 113.5h195q0 -157 -89.5 -241.5t-236.5 -84.5zM1206 0l-114 279h-641l-115 -279h-299l604 1393h260l602 -1393h-297zM551 526h438l-219 533z" />
    <glyph glyph-name="abreve" unicode="&#x103;" horiz-adv-x="1247" 
d="M639 1104q-147 0 -236.5 84.5t-89.5 241.5h195q0 -148 131 -148q59 0 95 34.5t36 113.5h195q0 -157 -89.5 -241.5t-236.5 -84.5zM850 977h268v-977h-268v55q-124 -80 -281 -80q-202 0 -344.5 150t-142.5 362q0 140 65 258.5t177 187t245 68.5q158 0 281 -79v55zM610 219
q159 0 240 115v309q-81 115 -240 115q-113 0 -186.5 -79t-73.5 -192q0 -111 73.5 -189.5t186.5 -78.5z" />
    <glyph glyph-name="Aogonek" unicode="&#x104;" horiz-adv-x="1540" 
d="M1499 -117l27 -196q-56 -25 -150 -25q-135 0 -218 65.5t-83 172.5q0 97 105 163l-88 216h-641l-115 -279h-299l604 1393h260l602 -1393h-131q-74 -19 -74 -72q0 -57 113 -57q35 0 88 12zM551 526h438l-219 533z" />
    <glyph glyph-name="aogonek" unicode="&#x105;" horiz-adv-x="1247" 
d="M1188 -127l26 -197q-54 -24 -149 -24q-135 0 -218 65t-83 172q0 88 86 152v14q-124 -80 -281 -80q-202 0 -344.5 150t-142.5 362q0 140 65 258.5t177 187t245 68.5q158 0 281 -79v55h268v-977q-72 -9 -101.5 -28.5t-29.5 -53.5q0 -57 113 -57q36 0 88 12zM610 219
q159 0 240 115v309q-81 115 -240 115q-113 0 -186.5 -79t-73.5 -192q0 -111 73.5 -189.5t186.5 -78.5z" />
    <glyph glyph-name="Cacute" unicode="&#x106;" horiz-adv-x="1624" 
d="M1153 1855l-205 -309h-241l149 309h297zM834 236q153 0 255 83.5t140 237.5h287q-47 -266 -232 -424t-450 -158q-149 0 -282.5 54t-231 148t-154.5 229t-57 290t57 290t154.5 229t231 148t282.5 54q265 0 450 -157.5t232 -423.5h-287q-38 154 -140 237.5t-255 83.5
q-192 0 -317.5 -128.5t-125.5 -332.5t125.5 -332t317.5 -128z" />
    <glyph glyph-name="cacute" unicode="&#x107;" horiz-adv-x="1171" 
d="M905 1446l-205 -309h-241l149 309h297zM602 219q82 0 140 43.5t73 114.5h275q-23 -176 -160.5 -289t-327.5 -113q-145 0 -264 67t-187.5 184.5t-68.5 260.5q0 218 150 366t370 148q189 0 327 -113t161 -290h-275q-15 71 -73 115.5t-140 44.5q-113 0 -182.5 -78
t-69.5 -193t69.5 -191.5t182.5 -76.5z" />
    <glyph glyph-name="Cdotaccent" unicode="&#x10a;" horiz-adv-x="1624" 
d="M834 1534q-69 0 -117.5 46.5t-48.5 113.5t48.5 113t117.5 46t117 -46t48 -113t-48 -113.5t-117 -46.5zM834 236q153 0 255 83.5t140 237.5h287q-47 -266 -232 -424t-450 -158q-149 0 -282.5 54t-231 148t-154.5 229t-57 290t57 290t154.5 229t231 148t282.5 54
q265 0 450 -157.5t232 -423.5h-287q-38 154 -140 237.5t-255 83.5q-192 0 -317.5 -128.5t-125.5 -332.5t125.5 -332t317.5 -128z" />
    <glyph glyph-name="cdotaccent" unicode="&#x10b;" horiz-adv-x="1171" 
d="M586 1124q-69 0 -117.5 46.5t-48.5 113.5t48.5 113.5t117.5 46.5t117.5 -46.5t48.5 -113.5t-48.5 -113.5t-117.5 -46.5zM602 219q82 0 140 43.5t73 114.5h275q-23 -176 -160.5 -289t-327.5 -113q-145 0 -264 67t-187.5 184.5t-68.5 260.5q0 218 150 366t370 148
q189 0 327 -113t161 -290h-275q-15 71 -73 115.5t-140 44.5q-113 0 -182.5 -78t-69.5 -193t69.5 -191.5t182.5 -76.5z" />
    <glyph glyph-name="Ccaron" unicode="&#x10c;" horiz-adv-x="1624" 
d="M958 1526h-251l-242 317h250l119 -147l116 147h250zM834 236q153 0 255 83.5t140 237.5h287q-47 -266 -232 -424t-450 -158q-149 0 -282.5 54t-231 148t-154.5 229t-57 290t57 290t154.5 229t231 148t282.5 54q265 0 450 -157.5t232 -423.5h-287q-38 154 -140 237.5
t-255 83.5q-192 0 -317.5 -128.5t-125.5 -332.5t125.5 -332t317.5 -128z" />
    <glyph glyph-name="ccaron" unicode="&#x10d;" horiz-adv-x="1171" 
d="M711 1116h-252l-242 318h250l119 -148l116 148h250zM602 219q82 0 140 43.5t73 114.5h275q-23 -176 -160.5 -289t-327.5 -113q-145 0 -264 67t-187.5 184.5t-68.5 260.5q0 218 150 366t370 148q189 0 327 -113t161 -290h-275q-15 71 -73 115.5t-140 44.5
q-113 0 -182.5 -78t-69.5 -193t69.5 -191.5t182.5 -76.5z" />
    <glyph glyph-name="Dcaron" unicode="&#x10e;" horiz-adv-x="1531" 
d="M819 1526h-252l-241 317h249l119 -147l117 147h250zM678 1393q157 0 295.5 -53t237 -144.5t155.5 -220t57 -273.5q0 -198 -97 -358.5t-267.5 -252t-380.5 -91.5h-535v1393h535zM678 258q126 0 232.5 59t168.5 161t62 224q0 180 -135.5 306.5t-327.5 126.5h-256v-877h256z
" />
    <glyph glyph-name="dcaron" unicode="&#x10f;" horiz-adv-x="1247" 
d="M850 922v532h268v-1454h-268v55q-124 -80 -281 -80q-133 0 -245 68.5t-177 187t-65 258.5q0 212 142.5 362t344.5 150q158 0 281 -79zM1239 1454h272l-79 -418h-203zM610 219q159 0 240 115v309q-81 115 -240 115q-113 0 -186.5 -79t-73.5 -190q0 -113 73.5 -191.5
t186.5 -78.5z" />
    <glyph glyph-name="Dcroat" unicode="&#x110;" horiz-adv-x="1511" 
d="M678 1393q157 0 295.5 -53t237 -144.5t155.5 -220t57 -273.5q0 -198 -97 -358.5t-267.5 -252t-380.5 -91.5h-535v571h-129v238h129v584h535zM678 258q126 0 232.5 59t168.5 161t62 224q0 180 -135.5 306.5t-327.5 126.5h-256v-326h250v-238h-250v-313h256z" />
    <glyph glyph-name="dcroat" unicode="&#x111;" horiz-adv-x="1247" 
d="M1186 1335v-221h-68v-1114h-268v55q-124 -80 -281 -80q-133 0 -245 68.5t-177 187t-65 258.5q0 212 142.5 362t344.5 150q158 0 281 -79v192h-322v221h322v119h268v-119h68zM610 219q159 0 240 115v309q-81 115 -240 115q-113 0 -186.5 -79t-73.5 -190
q0 -113 73.5 -191.5t186.5 -78.5z" />
    <glyph glyph-name="Emacron" unicode="&#x112;" horiz-adv-x="1253" 
d="M934 1767v-219h-574v219h574zM1167 1135h-745v-320h663v-258h-663v-299h745v-258h-1024v1393h1024v-258z" />
    <glyph glyph-name="emacron" unicode="&#x113;" horiz-adv-x="1163" 
d="M885 1395v-219h-574v219h574zM586 1001q165 0 285.5 -77t173.5 -212t28 -302h-717q16 -91 77 -145t171 -54q57 0 94 12t62 43h297q-49 -137 -171 -214t-284 -77q-232 0 -376 145.5t-144 366.5q0 145 63 262t178.5 184.5t262.5 67.5zM588 774q-93 0 -149.5 -50t-76.5 -132
h445q-20 182 -219 182z" />
    <glyph glyph-name="Edotaccent" unicode="&#x116;" horiz-adv-x="1253" 
d="M647 1534q-69 0 -117.5 46.5t-48.5 113.5t48.5 113t117.5 46t117.5 -46t48.5 -113t-48.5 -113.5t-117.5 -46.5zM1167 1135h-745v-320h663v-258h-663v-299h745v-258h-1024v1393h1024v-258z" />
    <glyph glyph-name="edotaccent" unicode="&#x117;" horiz-adv-x="1163" 
d="M598 1124q-69 0 -117.5 46.5t-48.5 113.5t48.5 113.5t117.5 46.5t117.5 -46.5t48.5 -113.5t-48.5 -113.5t-117.5 -46.5zM586 1001q165 0 285.5 -77t173.5 -212t28 -302h-717q16 -91 77 -145t171 -54q57 0 94 12t62 43h297q-49 -137 -171 -214t-284 -77q-232 0 -376 145.5
t-144 366.5q0 145 63 262t178.5 184.5t262.5 67.5zM588 774q-93 0 -149.5 -50t-76.5 -132h445q-20 182 -219 182z" />
    <glyph glyph-name="Eogonek" unicode="&#x118;" horiz-adv-x="1253" 
d="M1237 -127l27 -197q-54 -24 -150 -24q-135 0 -218 65t-83 172q0 61 41 111h-711v1393h1024v-258h-745v-320h663v-258h-663v-299h745v-258q-72 -9 -101.5 -28.5t-29.5 -53.5q0 -57 113 -57q35 0 88 12z" />
    <glyph glyph-name="eogonek" unicode="&#x119;" horiz-adv-x="1161" 
d="M586 1001q165 0 285.5 -77t173.5 -212t28 -302h-717q16 -91 77 -145t171 -54q57 0 94 12t62 43h297q-47 -129 -158 -205q-34 -29 -51 -56.5t-20 -43t-3 -39.5q0 -78 113 -78q31 0 88 13l27 -197q-56 -25 -150 -25q-135 0 -218 65.5t-83 172.5q0 47 25 102h-25
q-232 0 -376 145.5t-144 366.5q0 145 63 262t178.5 184.5t262.5 67.5zM588 774q-93 0 -149.5 -50t-76.5 -132h445q-20 182 -219 182z" />
    <glyph glyph-name="Ecaron" unicode="&#x11a;" horiz-adv-x="1253" 
d="M772 1526h-252l-241 317h249l119 -147l117 147h250zM1167 1135h-745v-320h663v-258h-663v-299h745v-258h-1024v1393h1024v-258z" />
    <glyph glyph-name="ecaron" unicode="&#x11b;" horiz-adv-x="1163" 
d="M723 1116h-252l-242 318h250l119 -148l117 148h250zM586 1001q165 0 285.5 -77t173.5 -212t28 -302h-717q16 -91 77 -145t171 -54q57 0 94 12t62 43h297q-49 -137 -171 -214t-284 -77q-232 0 -376 145.5t-144 366.5q0 145 63 262t178.5 184.5t262.5 67.5zM588 774
q-93 0 -149.5 -50t-76.5 -132h445q-20 182 -219 182z" />
    <glyph glyph-name="Gbreve" unicode="&#x11e;" horiz-adv-x="1671" 
d="M836 1546q-147 0 -236.5 84.5t-89.5 241.5h195q0 -148 131 -148q59 0 95 34.5t36 113.5h194q0 -157 -89 -241.5t-236 -84.5zM813 774h725v-774h-217l-18 201q-156 -226 -469 -226q-155 0 -291 56t-230.5 151t-149 224t-54.5 270q0 162 57.5 301.5t156.5 235.5t234 150
t287 54q114 0 220 -31t198 -91.5t160.5 -160t99.5 -227.5h-299q-26 73 -71 125t-98.5 77.5t-103.5 36.5t-102 11q-201 0 -329 -131t-128 -350q0 -87 31.5 -166.5t87.5 -140t140.5 -97t183.5 -36.5q147 0 248.5 76t144.5 204h-414v258z" />
    <glyph glyph-name="gbreve" unicode="&#x11f;" horiz-adv-x="1247" 
d="M639 1104q-147 0 -236.5 84.5t-89.5 241.5h195q0 -148 131 -148q59 0 95 34.5t36 113.5h195q0 -157 -89.5 -241.5t-236.5 -84.5zM850 977h268v-983q0 -225 -139 -357.5t-361 -132.5q-210 0 -352 117.5t-157 302.5h272q9 -80 72 -128t165 -48t167 65t65 181v125
q-121 -78 -281 -78q-132 0 -244.5 65t-177.5 173.5t-65 232.5q0 216 140.5 352.5t346.5 136.5q162 0 281 -77v53zM610 272q156 0 240 123v252q-84 123 -240 123q-116 0 -188 -71t-72 -187q0 -91 74.5 -165.5t185.5 -74.5z" />
    <glyph glyph-name="Gdotaccent" unicode="&#x120;" horiz-adv-x="1671" 
d="M836 1534q-69 0 -117.5 46.5t-48.5 113.5t48.5 113t117.5 46t117 -46t48 -113t-48 -113.5t-117 -46.5zM813 774h725v-774h-217l-18 201q-156 -226 -469 -226q-155 0 -291 56t-230.5 151t-149 224t-54.5 270q0 162 57.5 301.5t156.5 235.5t234 150t287 54q114 0 220 -31
t198 -91.5t160.5 -160t99.5 -227.5h-299q-26 73 -71 125t-98.5 77.5t-103.5 36.5t-102 11q-201 0 -329 -131t-128 -350q0 -87 31.5 -166.5t87.5 -140t140.5 -97t183.5 -36.5q147 0 248.5 76t144.5 204h-414v258z" />
    <glyph glyph-name="gdotaccent" unicode="&#x121;" horiz-adv-x="1247" 
d="M639 1124q-69 0 -117.5 46.5t-48.5 113.5t48.5 113.5t117.5 46.5t117.5 -46.5t48.5 -113.5t-48.5 -113.5t-117.5 -46.5zM850 977h268v-983q0 -225 -139 -357.5t-361 -132.5q-210 0 -352 117.5t-157 302.5h272q9 -80 72 -128t165 -48t167 65t65 181v125q-121 -78 -281 -78
q-132 0 -244.5 65t-177.5 173.5t-65 232.5q0 216 140.5 352.5t346.5 136.5q162 0 281 -77v53zM610 272q156 0 240 123v252q-84 123 -240 123q-116 0 -188 -71t-72 -187q0 -91 74.5 -165.5t185.5 -74.5z" />
    <glyph glyph-name="Gcommaaccent" unicode="&#x122;" horiz-adv-x="1671" 
d="M813 774h725v-774h-217l-18 201q-156 -226 -469 -226q-155 0 -291 56t-230.5 151t-149 224t-54.5 270q0 162 57.5 301.5t156.5 235.5t234 150t287 54q114 0 220 -31t198 -91.5t160.5 -160t99.5 -227.5h-299q-26 73 -71 125t-98.5 77.5t-103.5 36.5t-102 11
q-201 0 -329 -131t-128 -350q0 -87 31.5 -166.5t87.5 -140t140.5 -97t183.5 -36.5q147 0 248.5 76t144.5 204h-414v258zM836 -92q63 0 107 -41t44 -100q0 -41 -19 -77.5t-122 -203.5h-148l76 156q-90 38 -90 125q0 58 45 99.5t107 41.5z" />
    <glyph glyph-name="gcommaaccent" unicode="&#x123;" horiz-adv-x="1257" 
d="M629 1130q-63 0 -107.5 41.5t-44.5 100.5q0 40 18.5 75.5t122.5 204.5h148l-76 -155q90 -38 90 -125q0 -58 -44.5 -100t-106.5 -42zM850 977h268v-983q0 -225 -139 -357.5t-361 -132.5q-210 0 -352 117.5t-157 302.5h272q9 -80 72 -128t165 -48t167 65t65 181v125
q-121 -78 -281 -78q-132 0 -244.5 65t-177.5 173.5t-65 232.5q0 216 140.5 352.5t346.5 136.5q162 0 281 -77v53zM610 272q156 0 240 123v252q-84 123 -240 123q-116 0 -188 -71t-72 -187q0 -91 74.5 -165.5t185.5 -74.5z" />
    <glyph glyph-name="Hbar" unicode="&#x126;" horiz-adv-x="1486" 
d="M1432 1188v-209h-89v-979h-278v551h-643v-551h-279v979h-110v209h110v205h279v-205h643v205h278v-205h89zM1065 809v170h-643v-170h643z" />
    <glyph glyph-name="hbar" unicode="&#x127;" horiz-adv-x="1226" 
d="M680 1001q196 0 314 -128t118 -343v-530h-268v514q0 119 -57.5 181.5t-163.5 62.5q-119 0 -226 -125v-633h-268v1184h-70v188h70v82h268v-82h273v-188h-273v-281q124 98 283 98z" />
    <glyph glyph-name="Imacron" unicode="&#x12a;" horiz-adv-x="565" 
d="M-4 1767h573v-219h-573v219zM143 1393h279v-1393h-279v1393z" />
    <glyph glyph-name="imacron" unicode="&#x12b;" horiz-adv-x="544" 
d="M-14 1395h573v-219h-573v219zM139 977h269v-977h-269v977z" />
    <glyph glyph-name="Iogonek" unicode="&#x12e;" horiz-adv-x="565" 
d="M492 -127l26 -197q-54 -24 -149 -24q-135 0 -218 65t-83 172q0 84 75 144v1360h279v-1393q-72 -9 -101.5 -28.5t-29.5 -53.5q0 -57 112 -57q37 0 89 12z" />
    <glyph glyph-name="iogonek" unicode="&#x12f;" horiz-adv-x="544" 
d="M293 1167q-69 0 -116.5 45.5t-47.5 112.5q0 69 47.5 114.5t116.5 45.5q68 0 116 -46t48 -114q0 -67 -48 -112.5t-116 -45.5zM477 -127l27 -197q-54 -24 -150 -24q-135 0 -218 65t-83 172q0 100 107 166v922h268v-977h-20q-72 -9 -102 -28.5t-30 -53.5q0 -57 113 -57
q35 0 88 12z" />
    <glyph glyph-name="Idotaccent" unicode="&#x130;" horiz-adv-x="565" 
d="M283 1540q-72 0 -123 49t-51 119q0 71 50.5 119.5t123.5 48.5t123.5 -48.5t50.5 -119.5q0 -70 -51 -119t-123 -49zM143 1393h279v-1393h-279v1393z" />
    <glyph glyph-name="dotlessi" unicode="&#x131;" horiz-adv-x="544" 
d="M139 977h269v-977h-269v977z" />
    <glyph glyph-name="IJ" unicode="&#x132;" horiz-adv-x="1785" 
d="M143 1393h279v-1393h-279v1393zM1663 1393v-869q0 -265 -147 -407t-404 -142q-147 0 -263 56t-186 166.5t-77 261.5h282q4 -110 77 -166.5t185 -56.5q110 0 180 77.5t70 218.5v861h283z" />
    <glyph glyph-name="ij" unicode="&#x133;" horiz-adv-x="1140" 
d="M293 1167q-69 0 -116.5 45.5t-47.5 112.5q0 69 47.5 114.5t116.5 45.5q68 0 116 -46t48 -114q0 -67 -48 -112.5t-116 -45.5zM848 1167q-68 0 -116 45.5t-48 112.5q0 68 48 114t116 46q69 0 116.5 -45.5t47.5 -114.5q0 -67 -47.5 -112.5t-116.5 -45.5zM160 977h268v-977
h-268v977zM983 977v-1014q0 -115 -20 -195.5t-69.5 -141t-136.5 -90.5t-216 -32l-23 234q115 9 156 48.5t41 141.5v1049h268z" />
    <glyph glyph-name="Kcommaaccent" unicode="&#x136;" horiz-adv-x="1458" 
d="M836 780l602 -780h-357l-432 571l-227 -256v-315h-279v1393h279v-699l625 699h333zM729 -92q63 0 107.5 -41.5t44.5 -99.5q0 -38 -16 -71t-92 -155q-7 -12 -11 -18t-10.5 -17t-12.5 -20h-147l76 156q-90 38 -90 125q0 58 44.5 99.5t106.5 41.5z" />
    <glyph glyph-name="kcommaaccent" unicode="&#x137;" horiz-adv-x="1185" 
d="M745 571l431 -571h-347l-268 377l-164 -172v-205h-268v1454h268v-897l391 420h340zM594 -92q63 0 107 -41t44 -100q0 -41 -19 -77.5t-122 -203.5h-147l75 156q-90 38 -90 125q0 58 45 99.5t107 41.5z" />
    <glyph glyph-name="Lacute" unicode="&#x139;" horiz-adv-x="1185" 
d="M598 1855l-205 -309h-241l149 309h297zM422 258h719v-258h-998v1393h279v-1135z" />
    <glyph glyph-name="lacute" unicode="&#x13a;" horiz-adv-x="526" 
d="M287 1923h297l-205 -309h-242zM129 1454h268v-1454h-268v1454z" />
    <glyph glyph-name="Lcommaaccent" unicode="&#x13b;" horiz-adv-x="1185" 
d="M422 258h719v-258h-998v1393h279v-1135zM676 -92q63 0 107 -41t44 -100q0 -41 -19 -77.5t-122 -203.5h-147l75 156q-90 38 -90 125q0 58 45 99.5t107 41.5z" />
    <glyph glyph-name="lcommaaccent" unicode="&#x13c;" horiz-adv-x="526" 
d="M129 1454h268v-1454h-268v1454zM121 -514l76 156q-91 39 -91 125q0 58 45 99.5t107 41.5q63 0 107.5 -41.5t44.5 -99.5q0 -38 -16 -71t-92 -155q-22 -35 -34 -55h-147z" />
    <glyph glyph-name="Lcaron" unicode="&#x13d;" horiz-adv-x="1185" 
d="M422 258h719v-258h-998v1393h279v-1135zM938 1393l-80 -418h-203l11 418h272z" />
    <glyph glyph-name="lcaron" unicode="&#x13e;" horiz-adv-x="526" 
d="M129 1454h268v-1454h-268v1454zM477 1454h273l-80 -418h-203z" />
    <glyph glyph-name="Ldot" unicode="&#x13f;" horiz-adv-x="1185" 
d="M422 258h719v-258h-998v1393h279v-1135zM809 555q-69 0 -117.5 46.5t-48.5 113.5t48.5 113t117.5 46t117.5 -46t48.5 -113t-48.5 -113.5t-117.5 -46.5z" />
    <glyph glyph-name="ldot" unicode="&#x140;" horiz-adv-x="854" 
d="M129 1454h268v-1454h-268v1454zM606 522q-69 0 -117.5 46.5t-48.5 113.5t48.5 113.5t117.5 46.5t117.5 -46.5t48.5 -113.5t-48.5 -113.5t-117.5 -46.5z" />
    <glyph glyph-name="Lslash" unicode="&#x141;" horiz-adv-x="1185" 
d="M422 258h719v-258h-998v494l-123 -50v232l123 49v668h279v-559l330 129v-232l-330 -129v-344z" />
    <glyph glyph-name="lslash" unicode="&#x142;" horiz-adv-x="526" 
d="M526 1010v-273l-129 -53v-684h-268v575l-129 -53v273l129 53v606h268v-498z" />
    <glyph glyph-name="Nacute" unicode="&#x143;" horiz-adv-x="1533" 
d="M1087 1855l-204 -309h-242l150 309h296zM1112 1393h279v-1393h-215l-754 874v-874h-279v1393h207l762 -899v899z" />
    <glyph glyph-name="nacute" unicode="&#x144;" horiz-adv-x="1226" 
d="M934 1446l-205 -309h-242l150 309h297zM680 1001q196 0 314 -128t118 -343v-530h-268v514q0 119 -57.5 181.5t-163.5 62.5q-119 0 -226 -125v-633h-268v977h268v-74q124 98 283 98z" />
    <glyph glyph-name="Ncommaaccent" unicode="&#x145;" horiz-adv-x="1533" 
d="M1112 1393h279v-1393h-215l-754 874v-874h-279v1393h207l762 -899v899zM768 -92q63 0 107.5 -41.5t44.5 -99.5q0 -38 -16 -71t-92 -155q-7 -12 -11 -18t-10.5 -17t-12.5 -20h-147l76 156q-91 39 -91 125q0 58 45 99.5t107 41.5z" />
    <glyph glyph-name="ncommaaccent" unicode="&#x146;" horiz-adv-x="1226" 
d="M680 1001q196 0 314 -128t118 -343v-530h-268v514q0 119 -57.5 181.5t-163.5 62.5q-119 0 -226 -125v-633h-268v977h268v-74q124 98 283 98zM614 -92q63 0 107.5 -41.5t44.5 -99.5q0 -41 -19 -77.5t-122 -203.5h-148l76 156q-90 38 -90 125q0 58 44.5 99.5t106.5 41.5z
" />
    <glyph glyph-name="Ncaron" unicode="&#x147;" horiz-adv-x="1533" 
d="M893 1526h-252l-242 317h250l119 -147l117 147h250zM1112 1393h279v-1393h-215l-754 874v-874h-279v1393h207l762 -899v899z" />
    <glyph glyph-name="ncaron" unicode="&#x148;" horiz-adv-x="1226" 
d="M739 1116h-252l-241 318h250l118 -148l117 148h250zM680 1001q196 0 314 -128t118 -343v-530h-268v514q0 119 -57.5 181.5t-163.5 62.5q-119 0 -226 -125v-633h-268v977h268v-74q124 98 283 98z" />
    <glyph glyph-name="Omacron" unicode="&#x14c;" horiz-adv-x="1667" 
d="M547 1767h573v-219h-573v219zM834 1417q197 0 364 -96t264 -262t97 -363t-97 -363t-264 -262t-364 -96t-364 96t-264 262t-97 363t97 363t264 262t364 96zM834 236q189 0 315.5 134t126.5 326t-126.5 326.5t-315.5 134.5t-316 -134.5t-127 -326.5t127 -326t316 -134z" />
    <glyph glyph-name="omacron" unicode="&#x14d;" horiz-adv-x="1202" 
d="M315 1395h574v-219h-574v219zM602 1001q229 0 373.5 -143.5t144.5 -370.5q0 -226 -144.5 -369t-373.5 -143q-230 0 -375 143t-145 369q0 227 145 370.5t375 143.5zM602 219q110 0 180 75t70 193q0 120 -70 195.5t-180 75.5q-112 0 -182 -75.5t-70 -195.5
q0 -119 70 -193.5t182 -74.5z" />
    <glyph glyph-name="Ohungarumlaut" unicode="&#x150;" horiz-adv-x="1667" 
d="M672 1855h276l-164 -309h-221zM979 1855h276l-163 -309h-222zM834 1417q197 0 364 -96t264 -262t97 -363t-97 -363t-264 -262t-364 -96t-364 96t-264 262t-97 363t97 363t264 262t364 96zM834 236q189 0 315.5 134t126.5 326t-126.5 326.5t-315.5 134.5t-316 -134.5
t-127 -326.5t127 -326t316 -134z" />
    <glyph glyph-name="ohungarumlaut" unicode="&#x151;" horiz-adv-x="1202" 
d="M440 1446h277l-164 -309h-221zM748 1446h276l-164 -309h-221zM602 1001q229 0 373.5 -143.5t144.5 -370.5q0 -226 -144.5 -369t-373.5 -143q-230 0 -375 143t-145 369q0 227 145 370.5t375 143.5zM602 219q110 0 180 75t70 193q0 120 -70 195.5t-180 75.5
q-112 0 -182 -75.5t-70 -195.5q0 -119 70 -193.5t182 -74.5z" />
    <glyph glyph-name="OE" unicode="&#x152;" horiz-adv-x="2064" 
d="M1978 1135h-745v-320h663v-258h-663v-299h745v-258h-1104q-218 0 -393 90t-273.5 249t-98.5 357t98.5 357.5t273.5 249.5t393 90h1104v-258zM874 260h80v873h-80q-219 0 -351 -122t-132 -315t132 -314.5t351 -121.5z" />
    <glyph glyph-name="oe" unicode="&#x153;" horiz-adv-x="1943" 
d="M1366 1001q165 0 285.5 -77t173.5 -212t28 -302h-716q16 -91 76.5 -145t170.5 -54q57 0 94 12t62 43h297q-49 -137 -171 -214t-284 -77q-241 0 -391 160q-68 -76 -168.5 -118t-220.5 -42q-230 0 -375 143t-145 369q0 227 145 370.5t375 143.5q243 0 389 -159
q67 75 163.5 117t211.5 42zM1368 774q-93 0 -149 -50t-76 -132h444q-20 182 -219 182zM602 219q110 0 180 75t70 193q0 120 -70 195.5t-180 75.5q-112 0 -182 -75.5t-70 -195.5q0 -119 70 -193.5t182 -74.5z" />
    <glyph glyph-name="Racute" unicode="&#x154;" horiz-adv-x="1406" 
d="M942 1855l-205 -309h-241l149 309h297zM1028 0l-319 442h-287v-442h-279v1393h588q156 0 279.5 -58.5t194.5 -167t71 -249.5q0 -144 -72.5 -253t-199.5 -167l362 -498h-338zM422 1135v-435h299q119 0 199.5 60.5t80.5 157.5t-80.5 157t-199.5 60h-299z" />
    <glyph glyph-name="racute" unicode="&#x155;" horiz-adv-x="804" 
d="M758 1446l-205 -309h-242l150 309h297zM397 977v-113q135 129 346 129v-254q-225 -12 -346 -147v-592h-268v977h268z" />
    <glyph glyph-name="Rcommaaccent" unicode="&#x156;" horiz-adv-x="1406" 
d="M1004 498l362 -498h-338l-319 442h-287v-442h-279v1393h588q156 0 279.5 -58.5t194.5 -167t71 -249.5q0 -144 -72.5 -253t-199.5 -167zM422 1135v-435h299q119 0 199.5 60.5t80.5 157.5t-80.5 157t-199.5 60h-299zM705 -92q63 0 107 -41t44 -100q0 -41 -19 -77.5
t-122 -203.5h-148l76 156q-90 38 -90 125q0 58 45 99.5t107 41.5z" />
    <glyph glyph-name="rcommaaccent" unicode="&#x157;" horiz-adv-x="804" 
d="M397 864q135 129 346 129v-254q-225 -12 -346 -147v-592h-268v977h268v-113zM254 -92q63 0 107.5 -41.5t44.5 -99.5q0 -38 -16 -71t-92 -155q-22 -35 -34 -55h-147l76 156q-91 39 -91 125q0 58 45 99.5t107 41.5z" />
    <glyph glyph-name="Rcaron" unicode="&#x158;" horiz-adv-x="1406" 
d="M748 1526h-252l-242 317h250l119 -147l116 147h250zM1028 0l-319 442h-287v-442h-279v1393h588q156 0 279.5 -58.5t194.5 -167t71 -249.5q0 -144 -72.5 -253t-199.5 -167l362 -498h-338zM422 1135v-435h299q119 0 199.5 60.5t80.5 157.5t-80.5 157t-199.5 60h-299z" />
    <glyph glyph-name="rcaron" unicode="&#x159;" horiz-adv-x="804" 
d="M563 1116h-252l-241 318h249l119 -148l117 148h250zM397 977v-113q135 129 346 129v-254q-225 -12 -346 -147v-592h-268v977h268z" />
    <glyph glyph-name="Sacute" unicode="&#x15a;" horiz-adv-x="1372" 
d="M709 1855h297l-205 -309h-242zM686 1417q76 0 147.5 -12t146.5 -43.5t132 -80.5t97.5 -129t50.5 -183h-277q-29 209 -276 209q-118 0 -186 -44.5t-68 -129.5q0 -72 50.5 -110.5t155.5 -59.5l164 -33q214 -43 321 -133.5t107 -255.5q0 -198 -149 -317.5t-395 -119.5
q-260 0 -425 130.5t-180 353.5h277q17 -109 108.5 -172.5t235.5 -63.5q116 0 179 40.5t63 113.5q0 118 -185 151l-225 43q-397 76 -397 408q0 199 145 318.5t383 119.5z" />
    <glyph glyph-name="sacute" unicode="&#x15b;" horiz-adv-x="1032" 
d="M539 1446h297l-205 -309h-242zM309 338q11 -79 65 -112t146 -33q80 0 127 20.5t47 60.5q0 30 -25.5 52.5t-74.5 31.5l-211 37q-57 10 -106 30t-91.5 53t-67 85.5t-24.5 118.5q0 149 115 235.5t303 86.5q59 0 111 -7t110 -28.5t100.5 -56.5t73 -96t37.5 -142h-248
q-4 62 -55 89.5t-129 27.5q-74 0 -113 -22.5t-39 -59.5q0 -32 28 -59t93 -38l176 -28q293 -52 293 -285q0 -157 -121 -240.5t-315 -83.5q-68 0 -128 10.5t-118 36.5t-101 66t-71.5 104.5t-34.5 147.5z" />
    <glyph glyph-name="Scedilla" unicode="&#x15e;" horiz-adv-x="1372" 
d="M686 1417q76 0 147.5 -12t146.5 -43.5t132 -80.5t97.5 -129t50.5 -183h-277q-29 209 -276 209q-118 0 -186 -44.5t-68 -129.5q0 -72 50.5 -110.5t155.5 -59.5l164 -33q214 -43 321 -133.5t107 -255.5q0 -198 -149 -317.5t-395 -119.5q-260 0 -425 130.5t-180 353.5h277
q17 -109 108.5 -172.5t235.5 -63.5q116 0 179 40.5t63 113.5q0 118 -185 151l-225 43q-397 76 -397 408q0 199 145 318.5t383 119.5zM856 -102l-123 -328h-231l88 328h266z" />
    <glyph glyph-name="scedilla" unicode="&#x15f;" horiz-adv-x="1032" 
d="M309 338q11 -79 65 -112t146 -33q80 0 127 20.5t47 60.5q0 30 -25.5 52.5t-74.5 31.5l-211 37q-57 10 -106 30t-91.5 53t-67 85.5t-24.5 118.5q0 149 115 235.5t303 86.5q59 0 111 -7t110 -28.5t100.5 -56.5t73 -96t37.5 -142h-248q-4 62 -55 89.5t-129 27.5
q-74 0 -113 -22.5t-39 -59.5q0 -32 28 -59t93 -38l176 -28q293 -52 293 -285q0 -157 -121 -240.5t-315 -83.5q-68 0 -128 10.5t-118 36.5t-101 66t-71.5 104.5t-34.5 147.5zM657 -102l-122 -328h-232l88 328h266z" />
    <glyph glyph-name="Scaron" unicode="&#x160;" horiz-adv-x="1372" 
d="M803 1843h250l-242 -317h-252l-242 317h250l119 -147zM686 1417q76 0 147.5 -12t146.5 -43.5t132 -80.5t97.5 -129t50.5 -183h-277q-29 209 -276 209q-118 0 -186 -44.5t-68 -129.5q0 -72 50.5 -110.5t155.5 -59.5l164 -33q214 -43 321 -133.5t107 -255.5
q0 -198 -149 -317.5t-395 -119.5q-260 0 -425 130.5t-180 353.5h277q17 -109 108.5 -172.5t235.5 -63.5q116 0 179 40.5t63 113.5q0 118 -185 151l-225 43q-397 76 -397 408q0 199 145 318.5t383 119.5z" />
    <glyph glyph-name="scaron" unicode="&#x161;" horiz-adv-x="1032" 
d="M633 1434h250l-242 -318h-252l-242 318h250l119 -148zM309 338q11 -79 65 -112t146 -33q80 0 127 20.5t47 60.5q0 30 -25.5 52.5t-74.5 31.5l-211 37q-57 10 -106 30t-91.5 53t-67 85.5t-24.5 118.5q0 149 115 235.5t303 86.5q59 0 111 -7t110 -28.5t100.5 -56.5t73 -96
t37.5 -142h-248q-4 62 -55 89.5t-129 27.5q-74 0 -113 -22.5t-39 -59.5q0 -32 28 -59t93 -38l176 -28q293 -52 293 -285q0 -157 -121 -240.5t-315 -83.5q-68 0 -128 10.5t-118 36.5t-101 66t-71.5 104.5t-34.5 147.5z" />
    <glyph glyph-name="uni0162" unicode="&#x162;" horiz-adv-x="1335" 
d="M1280 1393v-258h-473v-1135h-279v1135h-473v258h1225zM455 -430l88 328h266l-123 -328h-231z" />
    <glyph glyph-name="uni0163" unicode="&#x163;" horiz-adv-x="925" 
d="M866 18q-111 -43 -235 -43q-194 0 -302 112t-108 302v363h-209v225h209v354h268v-354h359v-225h-359v-363q0 -83 47 -124.5t126 -41.5q71 0 167 39zM340 -430l88 328h266l-123 -328h-231z" />
    <glyph glyph-name="Tcaron" unicode="&#x164;" horiz-adv-x="1335" 
d="M793 1526h-252l-242 317h250l119 -147l116 147h250zM1280 1393v-258h-473v-1135h-279v1135h-473v258h1225z" />
    <glyph glyph-name="tcaron" unicode="&#x165;" horiz-adv-x="925" 
d="M862 1458l-80 -418h-202l10 418h272zM829 262l37 -244q-111 -43 -235 -43q-194 0 -302 112t-108 302v363h-209v225h209v354h268v-354h359v-225h-359v-363q0 -83 47 -124.5t126 -41.5q71 0 167 39z" />
    <glyph glyph-name="Umacron" unicode="&#x16a;" horiz-adv-x="1492" 
d="M461 1767h573v-219h-573v219zM1370 1393v-766q0 -304 -170 -478t-455 -174q-283 0 -452.5 174t-169.5 478v766h278v-766q0 -178 94 -284.5t250 -106.5t251.5 106.5t95.5 284.5v766h278z" />
    <glyph glyph-name="umacron" unicode="&#x16b;" horiz-adv-x="1226" 
d="M901 1395v-219h-573v219h573zM829 977h269v-977h-269v78q-131 -103 -282 -103q-195 0 -313.5 131.5t-118.5 346.5v524h268v-508q0 -120 57.5 -185t163.5 -65q118 0 225 129v629z" />
    <glyph glyph-name="Uring" unicode="&#x16e;" horiz-adv-x="1492" 
d="M748 2003q107 0 172 -60.5t65 -160.5t-65 -161.5t-172 -61.5t-172.5 61.5t-65.5 161.5t65.5 160.5t172.5 60.5zM748 1694q40 0 64 24t24 64q0 38 -24 62t-64 24t-64.5 -24t-24.5 -62q0 -40 24.5 -64t64.5 -24zM1370 1393v-766q0 -304 -170 -478t-455 -174
q-283 0 -452.5 174t-169.5 478v766h278v-766q0 -178 94 -284.5t250 -106.5t251.5 106.5t95.5 284.5v766h278z" />
    <glyph glyph-name="uring" unicode="&#x16f;" horiz-adv-x="1226" 
d="M614 1108q-107 0 -172 61.5t-65 161.5t65 160.5t172 60.5t172.5 -60.5t65.5 -160.5t-65.5 -161.5t-172.5 -61.5zM614 1417q-40 0 -64 -24t-24 -62q0 -40 24 -64t64 -24t64 24t24 64q0 38 -24 62t-64 24zM829 977h269v-977h-269v78q-131 -103 -282 -103
q-195 0 -313.5 131.5t-118.5 346.5v524h268v-508q0 -120 57.5 -185t163.5 -65q118 0 225 129v629z" />
    <glyph glyph-name="Uhungarumlaut" unicode="&#x170;" horiz-adv-x="1492" 
d="M586 1855h276l-164 -309h-221zM893 1855h276l-163 -309h-222zM1370 1393v-766q0 -304 -170 -478t-455 -174q-283 0 -452.5 174t-169.5 478v766h278v-766q0 -178 94 -284.5t250 -106.5t251.5 106.5t95.5 284.5v766h278z" />
    <glyph glyph-name="uhungarumlaut" unicode="&#x171;" horiz-adv-x="1226" 
d="M729 1446l-164 -309h-221l109 309h276zM872 1137h-221l109 309h276zM829 977h269v-977h-269v78q-131 -103 -282 -103q-195 0 -313.5 131.5t-118.5 346.5v524h268v-508q0 -120 57.5 -185t163.5 -65q118 0 225 129v629z" />
    <glyph glyph-name="Uogonek" unicode="&#x172;" horiz-adv-x="1492" 
d="M1092 1393h278v-766q0 -199 -76 -345.5t-213 -224.5q-172 -118 -172 -209q0 -32 24.5 -52.5t80.5 -20.5q36 0 88 12l26 -223q-64 -19 -149 -19q-134 0 -213.5 65t-79.5 173q0 95 94 192h-35q-283 0 -452.5 174t-169.5 478v766h278v-766q0 -178 94 -284.5t250 -106.5
t251.5 106.5t95.5 284.5v766z" />
    <glyph glyph-name="uogonek" unicode="&#x173;" horiz-adv-x="1226" 
d="M1167 -127l27 -197q-54 -24 -150 -24q-135 0 -218 65t-83 172q0 88 86 152v37q-131 -103 -282 -103q-195 0 -313.5 131.5t-118.5 346.5v524h268v-508q0 -120 57.5 -185t163.5 -65q118 0 225 129v629h269v-977q-72 -9 -101.5 -28.5t-29.5 -53.5q0 -57 112 -57q35 0 88 12z
" />
    <glyph glyph-name="Wcircumflex" unicode="&#x174;" horiz-adv-x="2172" 
d="M1087 1694l-118 -148h-250l242 318h251l242 -318h-250zM1837 1393h295l-459 -1401h-274l-312 899l-313 -899h-274l-459 1401h295l303 -963l330 963h235l330 -963z" />
    <glyph glyph-name="wcircumflex" unicode="&#x175;" horiz-adv-x="1630" 
d="M815 1264l-119 -148h-250l242 318h252l242 -318h-250zM1309 977h290l-344 -977h-233l-207 606l-207 -606h-233l-344 977h291l170 -571l210 571h226l211 -571z" />
    <glyph glyph-name="Ycircumflex" unicode="&#x176;" horiz-adv-x="1427" 
d="M715 1694l-119 -148h-250l242 318h252l241 -318h-250zM1100 1393h309l-553 -934v-459h-283v459l-555 934h310l385 -658z" />
    <glyph glyph-name="ycircumflex" unicode="&#x177;" horiz-adv-x="1255" 
d="M629 1264l-119 -148h-250l242 318h252l241 -318h-250zM942 979h283l-625 -1454h-283l205 479l-491 975h286l330 -688z" />
    <glyph glyph-name="Ydieresis" unicode="&#x178;" horiz-adv-x="1427" 
d="M494 1534q-69 0 -117.5 46.5t-48.5 113.5t48.5 113t117.5 46t117 -46t48 -113t-48 -113.5t-117 -46.5zM934 1534q-69 0 -117.5 46.5t-48.5 113.5t48.5 113t117.5 46t117.5 -46t48.5 -113t-48.5 -113.5t-117.5 -46.5zM1100 1393h309l-553 -934v-459h-283v459l-555 934h310
l385 -658z" />
    <glyph glyph-name="Zacute" unicode="&#x179;" horiz-adv-x="1337" 
d="M989 1855l-205 -309h-241l149 309h297zM524 254h725v-254h-1165v131l747 1008h-716v254h1124v-131z" />
    <glyph glyph-name="zacute" unicode="&#x17a;" horiz-adv-x="1019" 
d="M829 1446l-204 -309h-242l149 309h297zM954 977v-143l-487 -611h487v-223h-888v123l501 631h-489v223h876z" />
    <glyph glyph-name="Zdotaccent" unicode="&#x17b;" horiz-adv-x="1337" 
d="M670 1534q-69 0 -117.5 46.5t-48.5 113.5t48.5 113t117.5 46t117.5 -46t48.5 -113t-48.5 -113.5t-117.5 -46.5zM524 254h725v-254h-1165v131l747 1008h-716v254h1124v-131z" />
    <glyph glyph-name="zdotaccent" unicode="&#x17c;" horiz-adv-x="1019" 
d="M510 1124q-69 0 -117.5 46.5t-48.5 113.5t48.5 113.5t117.5 46.5t117.5 -46.5t48.5 -113.5t-48.5 -113.5t-117.5 -46.5zM954 977v-143l-487 -611h487v-223h-888v123l501 631h-489v223h876z" />
    <glyph glyph-name="Zcaron" unicode="&#x17d;" horiz-adv-x="1337" 
d="M795 1526h-252l-242 317h250l119 -147l116 147h250zM524 254h725v-254h-1165v131l747 1008h-716v254h1124v-131z" />
    <glyph glyph-name="zcaron" unicode="&#x17e;" horiz-adv-x="1019" 
d="M635 1116h-252l-242 318h250l119 -148l117 148h250zM954 977v-143l-487 -611h487v-223h-888v123l501 631h-489v223h876z" />
    <glyph glyph-name="florin" unicode="&#x192;" horiz-adv-x="1196" 
d="M934 1155q-87 0 -136.5 -49.5t-60.5 -136.5l-26 -197h344v-225h-373l-47 -346q-27 -201 -134.5 -317.5t-287.5 -116.5q-124 0 -233 32l36 234q93 -19 144 -19q87 0 136 49.5t60 137.5l47 346h-266v225h295l27 197q27 201 134.5 317.5t287.5 116.5q121 0 233 -33l-37 -233
q-88 18 -143 18z" />
    <glyph glyph-name="uni01CD" unicode="&#x1cd;" horiz-adv-x="1540" 
d="M895 1526h-252l-242 317h250l119 -147l117 147h250zM1206 0l-114 279h-641l-115 -279h-299l604 1393h260l602 -1393h-297zM551 526h438l-219 533z" />
    <glyph glyph-name="uni01CE" unicode="&#x1ce;" horiz-adv-x="1247" 
d="M764 1116h-252l-242 318h250l119 -148l117 148h250zM850 977h268v-977h-268v55q-124 -80 -281 -80q-202 0 -344.5 150t-142.5 362q0 140 65 258.5t177 187t245 68.5q158 0 281 -79v55zM610 219q159 0 240 115v309q-81 115 -240 115q-113 0 -186.5 -79t-73.5 -192
q0 -111 73.5 -189.5t186.5 -78.5z" />
    <glyph glyph-name="Scommaaccent" unicode="&#x218;" horiz-adv-x="1372" 
d="M686 1417q76 0 147.5 -12t146.5 -43.5t132 -80.5t97.5 -129t50.5 -183h-277q-29 209 -276 209q-118 0 -186 -44.5t-68 -129.5q0 -72 50.5 -110.5t155.5 -59.5l164 -33q214 -43 321 -133.5t107 -255.5q0 -198 -149 -317.5t-395 -119.5q-260 0 -425 130.5t-180 353.5h277
q17 -109 108.5 -172.5t235.5 -63.5q116 0 179 40.5t63 113.5q0 118 -185 151l-225 43q-397 76 -397 408q0 199 145 318.5t383 119.5zM590 -514l76 156q-91 39 -91 125q0 58 45 99.5t107 41.5q63 0 107.5 -41.5t44.5 -99.5q0 -38 -16 -71t-92 -155q-7 -12 -11 -18t-10.5 -17
t-12.5 -20h-147z" />
    <glyph glyph-name="scommaaccent" unicode="&#x219;" horiz-adv-x="1032" 
d="M309 338q11 -79 65 -112t146 -33q80 0 127 20.5t47 60.5q0 30 -25.5 52.5t-74.5 31.5l-211 37q-57 10 -106 30t-91.5 53t-67 85.5t-24.5 118.5q0 149 115 235.5t303 86.5q59 0 111 -7t110 -28.5t100.5 -56.5t73 -96t37.5 -142h-248q-4 62 -55 89.5t-129 27.5
q-74 0 -113 -22.5t-39 -59.5q0 -32 28 -59t93 -38l176 -28q293 -52 293 -285q0 -157 -121 -240.5t-315 -83.5q-68 0 -128 10.5t-118 36.5t-101 66t-71.5 104.5t-34.5 147.5zM391 -514l76 156q-90 38 -90 125q0 58 44.5 99.5t106.5 41.5q63 0 107.5 -41.5t44.5 -99.5
q0 -41 -19 -77.5t-122 -203.5h-148z" />
    <glyph glyph-name="uni021A" unicode="&#x21a;" horiz-adv-x="1335" 
d="M1280 1393v-258h-473v-1135h-279v1135h-473v258h1225zM674 -92q63 0 107 -41t44 -100q0 -41 -19 -77.5t-122 -203.5h-147l75 156q-90 38 -90 125q0 58 45 99.5t107 41.5z" />
    <glyph glyph-name="uni021B" unicode="&#x21b;" horiz-adv-x="925" 
d="M866 18q-111 -43 -235 -43q-194 0 -302 112t-108 302v363h-209v225h209v354h268v-354h359v-225h-359v-363q0 -83 47 -124.5t126 -41.5q71 0 167 39zM504 -92q63 0 107 -41t44 -100q0 -41 -19 -77.5t-122 -203.5h-147l75 156q-90 38 -90 125q0 58 45 99.5t107 41.5z" />
    <glyph glyph-name="circumflex" unicode="&#x2c6;" 
d="M733 1116l-117 148l-118 -148h-250l241 318h252l242 -318h-250z" />
    <glyph glyph-name="caron" unicode="&#x2c7;" 
d="M733 1434h250l-242 -318h-252l-241 318h250l118 -148z" />
    <glyph glyph-name="breve" unicode="&#x2d8;" 
d="M940 1421q0 -157 -89.5 -241t-236.5 -84t-236 84t-89 241h194q0 -147 131 -147t131 147h195z" />
    <glyph glyph-name="dotaccent" unicode="&#x2d9;" 
d="M614 1124q-69 0 -117 46.5t-48 113.5t48 113.5t117 46.5t117.5 -46.5t48.5 -113.5t-48.5 -113.5t-117.5 -46.5z" />
    <glyph glyph-name="ring" unicode="&#x2da;" 
d="M608 1552q107 0 172.5 -60.5t65.5 -160.5t-65.5 -161.5t-172.5 -61.5t-172 61.5t-65 161.5t65 160.5t172 60.5zM608 1243q40 0 64 24t24 64q0 38 -24 62t-64 24t-64 -24t-24 -62q0 -40 24 -64t64 -24z" />
    <glyph glyph-name="ogonek" unicode="&#x2db;" 
d="M760 10q-72 -9 -101.5 -28.5t-29.5 -53.5q0 -57 112 -57q35 0 88 12l27 -196q-56 -25 -149 -25q-135 0 -218 65.5t-83 172.5q0 89 88 153t243 76z" />
    <glyph glyph-name="tilde" unicode="&#x2dc;" 
d="M997 1415q0 -94 -36.5 -160t-91 -92t-115.5 -25.5t-113 29.5l-98 60q-25 15 -43 15.5t-27.5 -10t-13.5 -24.5t-4 -30h-215q0 76 24 134t62.5 89.5t85.5 45.5t95 7.5t89 -29.5l98 -59q25 -15 43 -15.5t27.5 10t13.5 24.5t4 30h215z" />
    <glyph glyph-name="hungarumlaut" unicode="&#x2dd;" 
d="M449 1446h276l-164 -309h-221zM756 1446h276l-164 -309h-221z" />
    <glyph glyph-name="uni0326" unicode="&#x326;" horiz-adv-x="0" 
d="M-756 -514l76 156q-90 38 -90 125q0 58 45 99.5t107 41.5q63 0 107 -41t44 -100q0 -41 -19 -77.5t-122 -203.5h-148z" />
    <glyph glyph-name="Wgrave" unicode="&#x1e80;" horiz-adv-x="2172" 
d="M1235 1546h-242l-205 309h297zM1837 1393h295l-459 -1401h-274l-312 899l-313 -899h-274l-459 1401h295l303 -963l330 963h235l330 -963z" />
    <glyph glyph-name="wgrave" unicode="&#x1e81;" horiz-adv-x="1630" 
d="M963 1137h-242l-205 309h297zM1309 977h290l-344 -977h-233l-207 606l-207 -606h-233l-344 977h291l170 -571l210 571h226l211 -571z" />
    <glyph glyph-name="Wacute" unicode="&#x1e82;" horiz-adv-x="2172" 
d="M1407 1855l-205 -309h-241l149 309h297zM1837 1393h295l-459 -1401h-274l-312 899l-313 -899h-274l-459 1401h295l303 -963l330 963h235l330 -963z" />
    <glyph glyph-name="wacute" unicode="&#x1e83;" horiz-adv-x="1630" 
d="M1135 1446l-205 -309h-242l150 309h297zM1309 977h290l-344 -977h-233l-207 606l-207 -606h-233l-344 977h291l170 -571l210 571h226l211 -571z" />
    <glyph glyph-name="Wdieresis" unicode="&#x1e84;" horiz-adv-x="2172" 
d="M866 1534q-69 0 -117.5 46.5t-48.5 113.5t48.5 113t117.5 46t117.5 -46t48.5 -113t-48.5 -113.5t-117.5 -46.5zM1307 1534q-69 0 -117.5 46.5t-48.5 113.5t48.5 113t117.5 46t117.5 -46t48.5 -113t-48.5 -113.5t-117.5 -46.5zM1837 1393h295l-459 -1401h-274l-312 899
l-313 -899h-274l-459 1401h295l303 -963l330 963h235l330 -963z" />
    <glyph glyph-name="wdieresis" unicode="&#x1e85;" horiz-adv-x="1630" 
d="M596 1124q-69 0 -117.5 46.5t-48.5 113.5t48.5 113.5t117.5 46.5t117.5 -46.5t48.5 -113.5t-48.5 -113.5t-117.5 -46.5zM1036 1124q-69 0 -117.5 46.5t-48.5 113.5t48.5 113.5t117.5 46.5t117.5 -46.5t48.5 -113.5t-48.5 -113.5t-117.5 -46.5zM1309 977h290l-344 -977
h-233l-207 606l-207 -606h-233l-344 977h291l170 -571l210 571h226l211 -571z" />
    <glyph glyph-name="uni1E9E" unicode="&#x1e9e;" horiz-adv-x="1503" 
d="M1083 840q158 -30 254.5 -140.5t96.5 -273.5q0 -200 -146 -328.5t-385 -128.5q-147 0 -274 31v246q126 -39 239 -39q127 0 205 57.5t78 151.5q0 91 -77.5 146.5t-203.5 55.5h-137v132l273 385h-306q-117 0 -187.5 -67.5t-70.5 -176.5v-891h-278v881q0 230 147.5 371
t388.5 141h676v-168z" />
    <glyph glyph-name="Ygrave" unicode="&#x1ef2;" horiz-adv-x="1427" 
d="M862 1546h-241l-205 309h297zM1100 1393h309l-553 -934v-459h-283v459l-555 934h310l385 -658z" />
    <glyph glyph-name="ygrave" unicode="&#x1ef3;" horiz-adv-x="1255" 
d="M776 1137h-241l-205 309h297zM942 979h283l-625 -1454h-283l205 479l-491 975h286l330 -688z" />
    <glyph glyph-name="endash" unicode="&#x2013;" horiz-adv-x="1427" 
d="M205 420h1018v227h-1018v-227z" />
    <glyph glyph-name="emdash" unicode="&#x2014;" horiz-adv-x="2154" 
d="M205 420h1745v227h-1745v-227z" />
    <glyph glyph-name="quoteleft" unicode="&#x2018;" horiz-adv-x="446" 
d="M385 1479l-98 -209q96 -39 96 -131q0 -64 -47 -109t-113 -45q-68 0 -115 45t-47 109q0 30 9 55.5t45 89.5l110 195h160z" />
    <glyph glyph-name="quoteright" unicode="&#x2019;" horiz-adv-x="446" 
d="M61 985l99 209q-97 40 -97 131q0 64 47 109t113 45q68 0 115 -45t47 -109q0 -31 -8.5 -56.5t-44.5 -88.5l-111 -195h-160z" />
    <glyph glyph-name="quotesinglbase" unicode="&#x201a;" horiz-adv-x="446" 
d="M61 -195l99 209q-97 40 -97 131q0 64 47 109t113 45q68 0 115 -45t47 -109q0 -31 -8.5 -56.5t-44.5 -88.5l-111 -195h-160z" />
    <glyph glyph-name="quotedblleft" unicode="&#x201c;" horiz-adv-x="835" 
d="M385 1479l-98 -209q96 -39 96 -131q0 -64 -47 -109t-113 -45q-68 0 -115 45t-47 109q0 30 9 55.5t45 89.5l110 195h160zM774 1479l-98 -209q96 -39 96 -131q0 -64 -47 -109t-113 -45q-67 0 -114 44.5t-47 109.5q0 31 8.5 56.5t44.5 88.5l110 195h160z" />
    <glyph glyph-name="quotedblright" unicode="&#x201d;" horiz-adv-x="835" 
d="M61 985l99 209q-97 40 -97 131q0 64 47 109t113 45q68 0 115 -45t47 -109q0 -31 -8.5 -56.5t-44.5 -88.5l-111 -195h-160zM451 985l98 209q-96 39 -96 131q0 64 46.5 109t112.5 45q68 0 115 -45t47 -109q0 -31 -8.5 -56.5t-44.5 -88.5l-111 -195h-159z" />
    <glyph glyph-name="quotedblbase" unicode="&#x201e;" horiz-adv-x="841" 
d="M61 -195l99 209q-97 40 -97 131q0 64 47 109t113 45q68 0 115 -45t47 -109q0 -31 -8.5 -56.5t-44.5 -88.5l-111 -195h-160zM457 -195l98 209q-96 39 -96 131q0 64 46.5 109t112.5 45q68 0 115 -45t47 -109q0 -31 -8.5 -56.5t-44.5 -88.5l-111 -195h-159z" />
    <glyph glyph-name="dagger" unicode="&#x2020;" horiz-adv-x="835" 
d="M743 1059h-237v-443h-176v443h-238v176h238v238h176v-238h237v-176z" />
    <glyph glyph-name="daggerdbl" unicode="&#x2021;" horiz-adv-x="835" 
d="M506 1104v-111h237v-176h-237v-201h-176v201h-238v176h238v111h-238v176h238v193h176v-193h237v-176h-237z" />
    <glyph glyph-name="bullet" unicode="&#x2022;" horiz-adv-x="686" 
d="M342 330q-113 0 -197 83t-84 195t84 195.5t197 83.5q114 0 198.5 -83.5t84.5 -195.5t-84.5 -195t-198.5 -83z" />
    <glyph glyph-name="ellipsis" unicode="&#x2026;" horiz-adv-x="1404" 
d="M223 -14q-67 0 -114.5 45t-47.5 112q0 65 47.5 110.5t114.5 45.5q68 0 116 -45t48 -111q0 -67 -48 -112t-116 -45zM694 -14q-67 0 -114.5 45t-47.5 112q0 65 47.5 110.5t114.5 45.5q68 0 116 -45t48 -111q0 -67 -48 -112t-116 -45zM1180 -14q-67 0 -114.5 45t-47.5 112
q0 65 47.5 110.5t114.5 45.5q68 0 115.5 -45t47.5 -111q0 -67 -47.5 -112t-115.5 -45z" />
    <glyph glyph-name="perthousand" unicode="&#x2030;" horiz-adv-x="3166" 
d="M569 1417q175 0 291.5 -111t116.5 -288q0 -180 -116.5 -292t-291.5 -112q-176 0 -292.5 112t-116.5 292q0 177 116.5 288t292.5 111zM1667 1393l-952 -1393h-187l953 1393h186zM569 805q87 0 147 59t60 154q0 92 -60 150.5t-147 58.5q-88 0 -148.5 -58.5t-60.5 -150.5
q0 -95 60.5 -154t148.5 -59zM1655 778q176 0 292.5 -111t116.5 -288q0 -180 -116.5 -292t-292.5 -112q-175 0 -291.5 112t-116.5 292q0 177 116.5 288t291.5 111zM2597 778q176 0 292.5 -111t116.5 -288q0 -180 -116.5 -292t-292.5 -112q-175 0 -291.5 112t-116.5 292
q0 177 116.5 288t291.5 111zM1655 166q88 0 148.5 59t60.5 154q0 92 -60.5 150.5t-148.5 58.5q-87 0 -147 -58.5t-60 -150.5q0 -95 60 -154t147 -59zM2597 166q88 0 148.5 59t60.5 154q0 92 -60.5 150.5t-148.5 58.5q-87 0 -147 -58.5t-60 -150.5q0 -95 60 -154t147 -59z
" />
    <glyph glyph-name="guilsinglleft" unicode="&#x2039;" horiz-adv-x="548" 
d="M240 831h258l-189 -315l189 -315h-258l-189 315z" />
    <glyph glyph-name="guilsinglright" unicode="&#x203a;" horiz-adv-x="548" 
d="M309 831l189 -315l-189 -315h-258l189 315l-189 315h258z" />
    <glyph glyph-name="fraction" unicode="&#x2044;" horiz-adv-x="1015" 
d="M1077 1393l-952 -1393h-186l952 1393h186z" />
    <glyph glyph-name="uni2070" unicode="&#x2070;" horiz-adv-x="925" 
d="M463 1434q125 0 217 -58.5t138 -156.5t46 -222q0 -190 -107 -313t-294 -123q-186 0 -294 123t-108 313t108 313.5t294 123.5zM463 745q96 0 146 71.5t50 180.5t-50 180.5t-146 71.5t-146.5 -72t-50.5 -180t50.5 -180t146.5 -72z" />
    <glyph glyph-name="uni2074" unicode="&#x2074;" horiz-adv-x="856" 
d="M795 918v-175h-107v-155h-196v155h-441v127l240 553h207l-211 -505h205v227h196v-227h107z" />
    <glyph glyph-name="uni2075" unicode="&#x2075;" horiz-adv-x="808" 
d="M410 1137q148 0 227.5 -76t79.5 -203q0 -125 -88.5 -207t-229.5 -82q-139 0 -224 68t-103 184h198q30 -78 129 -78q57 0 93 32t36 79q0 51 -30.5 81t-91.5 30h-293v458h571v-182h-385v-104h111z" />
    <glyph glyph-name="uni2076" unicode="&#x2076;" horiz-adv-x="798" 
d="M430 1167q138 -9 222.5 -92t84.5 -203q0 -129 -93.5 -216t-242.5 -87q-147 0 -243.5 87.5t-96.5 209.5q0 52 20.5 101t65.5 120l209 336h236zM401 731q60 0 100 37t40 92q0 59 -39.5 96t-100.5 37t-102 -35q-41 -64 -41 -94q0 -55 40 -94t103 -39z" />
    <glyph glyph-name="uni2077" unicode="&#x2077;" horiz-adv-x="700" 
d="M41 1423h618v-123l-335 -712h-226l305 645h-362v190z" />
    <glyph glyph-name="uni2078" unicode="&#x2078;" horiz-adv-x="847" 
d="M645 1020q121 -70 121 -203q0 -113 -92 -184.5t-250 -71.5q-157 0 -249.5 71.5t-92.5 184.5q0 137 123 203q-90 62 -90 170q0 109 86 176.5t223 67.5t223 -67.5t86 -176.5q0 -110 -88 -170zM424 1276q-47 0 -79 -27.5t-32 -70.5q0 -46 32 -75.5t79 -29.5t79 29.5t32 75.5
q0 43 -32 70.5t-79 27.5zM424 729q54 0 86.5 28t32.5 74t-32.5 74.5t-86.5 28.5t-86.5 -28.5t-32.5 -74.5t32.5 -74t86.5 -28z" />
    <glyph glyph-name="uni2079" unicode="&#x2079;" horiz-adv-x="798" 
d="M397 1436q147 0 243.5 -87.5t96.5 -209.5q0 -52 -20.5 -101t-65.5 -120l-209 -336h-235l162 256q-138 9 -223 92t-85 203q0 129 93.5 216t242.5 87zM397 1012q62 0 103 35q41 64 41 94q0 55 -40.5 94t-103.5 39q-60 0 -99.5 -36.5t-39.5 -92.5q0 -59 39 -96t100 -37z" />
    <glyph glyph-name="uni2080" unicode="&#x2080;" horiz-adv-x="925" 
d="M463 485q187 0 294 -123t107 -313t-107 -313t-294 -123q-186 0 -294 123t-108 313t108 313t294 123zM463 -203q96 0 146 71.5t50 180.5t-50 180.5t-146 71.5t-146.5 -72t-50.5 -180t50.5 -180t146.5 -72z" />
    <glyph glyph-name="uni2081" unicode="&#x2081;" horiz-adv-x="696" 
d="M471 -203h215v-166h-625v166h220v461l-211 -61v172l295 98h106v-670z" />
    <glyph glyph-name="uni2082" unicode="&#x2082;" horiz-adv-x="753" 
d="M391 -203h301v-166h-616v105l301 323q59 62 81.5 96.5t22.5 69.5q0 38 -26.5 61t-69.5 23q-55 0 -84 -28.5t-31 -81.5h-198q2 130 82 208t225 78q144 0 223.5 -72t79.5 -175q0 -60 -30 -121.5t-105 -145.5z" />
    <glyph glyph-name="uni2083" unicode="&#x2083;" horiz-adv-x="780" 
d="M602 53q107 -60 107 -180q0 -111 -87 -186.5t-227 -75.5q-136 0 -220.5 70t-106.5 192h198q32 -88 131 -88q54 0 87.5 25t33.5 63q0 90 -145 90h-66v162h66q52 0 83 26t31 66t-25.5 64t-74.5 24q-45 0 -70 -25t-28 -63h-199q9 122 88.5 192t208.5 70q133 0 212 -73
t79 -187q0 -106 -76 -166z" />
    <glyph glyph-name="uni2084" unicode="&#x2084;" horiz-adv-x="856" 
d="M795 -39v-174h-107v-156h-196v156h-441v127l240 553h207l-211 -506h205v227h196v-227h107z" />
    <glyph glyph-name="uni2085" unicode="&#x2085;" horiz-adv-x="808" 
d="M410 180q148 0 227.5 -75.5t79.5 -202.5q0 -125 -88.5 -207t-229.5 -82q-139 0 -224 68t-103 184h198q30 -78 129 -78q57 0 93 32t36 79q0 51 -30.5 80.5t-91.5 29.5h-293v459h571v-182h-385v-105h111z" />
    <glyph glyph-name="uni2086" unicode="&#x2086;" horiz-adv-x="798" 
d="M430 211q138 -9 222.5 -92t84.5 -203q0 -129 -93.5 -216t-242.5 -87q-147 0 -243.5 87.5t-96.5 209.5q0 52 20.5 101t65.5 120l209 336h236zM401 -225q60 0 100 37t40 92q0 59 -39.5 96t-100.5 37t-102 -35q-41 -64 -41 -94q0 -55 40 -94t103 -39z" />
    <glyph glyph-name="uni2087" unicode="&#x2087;" horiz-adv-x="700" 
d="M41 467h618v-123l-335 -713h-226l305 645h-362v191z" />
    <glyph glyph-name="uni2088" unicode="&#x2088;" horiz-adv-x="847" 
d="M645 72q121 -70 121 -203q0 -113 -92 -184.5t-250 -71.5q-157 0 -249.5 71.5t-92.5 184.5q0 137 123 203q-90 62 -90 170t86 175.5t223 67.5t223 -67.5t86 -175.5q0 -110 -88 -170zM424 328q-47 0 -79 -28t-32 -71q0 -46 32 -75t79 -29t79 29t32 75q0 43 -32 71t-79 28z
M424 -219q54 0 86.5 28t32.5 74t-32.5 74.5t-86.5 28.5t-86.5 -28.5t-32.5 -74.5t32.5 -74t86.5 -28z" />
    <glyph glyph-name="uni2089" unicode="&#x2089;" horiz-adv-x="798" 
d="M397 487q147 0 243.5 -87.5t96.5 -209.5q0 -52 -20.5 -101t-65.5 -120l-209 -336h-235l162 256q-138 9 -223 92t-85 203q0 129 93.5 216t242.5 87zM397 63q62 0 103 35q41 64 41 95q0 55 -40.5 94t-103.5 39q-60 0 -99.5 -36.5t-39.5 -92.5q0 -59 39 -96.5t100 -37.5z
" />
    <glyph glyph-name="Euro" unicode="&#x20ac;" horiz-adv-x="1757" 
d="M967 236q153 0 255 83.5t140 237.5h287q-47 -266 -232 -424t-450 -158q-231 0 -415.5 123.5t-262.5 329.5h-207v188h164q-4 54 -4 80v39h-160v189h192q70 224 259 358.5t434 134.5q265 0 450 -157.5t232 -423.5h-287q-38 154 -140 237.5t-255 83.5q-130 0 -234 -62
t-158 -171h533l-49 -189h-533q-2 -12 -2 -39q0 -40 6 -80h502l-47 -188h-387q59 -91 155 -141.5t214 -50.5z" />
    <glyph glyph-name="uni20B9" unicode="&#x20b9;" horiz-adv-x="1257" 
d="M1114 1176h-307q44 -63 63 -152h244v-217h-244q-32 -127 -129.5 -213t-244.5 -123l518 -471h-400l-471 442v258h217q78 0 135.5 28t86.5 79h-439v217h441q-62 111 -224 111h-217v258h971v-217z" />
    <glyph glyph-name="uni2116" unicode="&#x2116;" horiz-adv-x="2820" 
d="M2159 379q-230 0 -375.5 143t-145.5 369q0 227 145.5 370.5t375.5 143.5q229 0 373.5 -143.5t144.5 -370.5q0 -226 -144.5 -369t-373.5 -143zM1112 494v899h279v-1393h-215l-754 874v-874h-279v1393h207zM2159 1161q-112 0 -182 -75t-70 -195q0 -119 70 -193.5t182 -74.5
q110 0 179.5 74.5t69.5 193.5q0 120 -69.5 195t-179.5 75zM1663 0v238h987v-238h-987z" />
    <glyph glyph-name="uni2117" unicode="&#x2117;" horiz-adv-x="1708" 
d="M854 1423q150 0 287 -55.5t238 -151.5t160.5 -231.5t59.5 -288.5t-59.5 -288.5t-160.5 -231.5t-238 -151.5t-287 -55.5t-287 55.5t-238 151.5t-160.5 231.5t-59.5 288.5t59.5 288.5t160.5 231.5t238 151.5t287 55.5zM852 1247q-111 0 -214 -43t-178.5 -115.5t-121 -175.5
t-45.5 -217t45.5 -217t121 -175.5t178.5 -115.5t214 -43t214 43t179.5 115.5t122 175.5t45.5 217t-45.5 217t-122 175.5t-179.5 115.5t-214 43zM901 1040q117 0 189.5 -64t72.5 -169t-72.5 -165t-195.5 -60h-113v-183h-159v641h278zM899 889h-117v-164h117q47 0 72.5 22.5
t25.5 61.5q0 36 -26 58t-72 22z" />
    <glyph glyph-name="trademark" unicode="&#x2122;" horiz-adv-x="1429" 
d="M604 1391v-146h-196v-452h-150v452h-197v146h543zM1337 1391v-598h-151v290l-148 -223h-82v2l-149 225l2 -294h-150v598h109l229 -336l230 336h110z" />
    <glyph glyph-name="oneeighth" unicode="&#x215b;" horiz-adv-x="1931" 
d="M686 557h-625v166h220v461l-211 -62v172l295 99h106v-670h215v-166zM1366 1393h186l-952 -1393h-186zM1729 440q120 -69 120 -202q0 -113 -92 -184.5t-250 -71.5q-157 0 -249.5 71.5t-92.5 184.5q0 136 123 202q-90 62 -90 170q0 109 86 176.5t223 67.5t223.5 -68
t86.5 -176q0 -110 -88 -170zM1507 696q-47 0 -78.5 -27.5t-31.5 -70.5q0 -46 31.5 -75t78.5 -29t79 29t32 75q0 43 -32 70.5t-79 27.5zM1507 150q54 0 86.5 28t32.5 74t-32.5 74t-86.5 28t-86 -28t-32 -74t32 -74t86 -28z" />
    <glyph glyph-name="threeeighths" unicode="&#x215c;" horiz-adv-x="1892" 
d="M709 807q0 -111 -87 -186.5t-227 -75.5q-136 0 -220.5 70t-106.5 192h198q32 -88 131 -88q54 0 87.5 25t33.5 63q0 90 -145 90h-66v162h66q52 0 83 26t31 66t-25.5 64t-74.5 24q-45 0 -70 -25t-28 -63h-199q9 122 88.5 192t208.5 70q133 0 212 -73t79 -187
q0 -106 -76 -166q107 -60 107 -180zM1313 1393h186l-952 -1393h-187zM1690 440q120 -69 120 -202q0 -113 -92 -184.5t-250 -71.5q-157 0 -249.5 71.5t-92.5 184.5q0 136 123 202q-90 62 -90 170q0 109 86 176.5t223 67.5t223.5 -68t86.5 -176q0 -110 -88 -170zM1468 696
q-47 0 -78.5 -27.5t-31.5 -70.5q0 -46 31.5 -75t78.5 -29t79 29t32 75q0 43 -32 70.5t-79 27.5zM1468 150q54 0 86.5 28t32.5 74t-32.5 74t-86.5 28t-86 -28t-32 -74t32 -74t86 -28z" />
    <glyph glyph-name="fiveeighths" unicode="&#x215d;" horiz-adv-x="1894" 
d="M717 827q0 -124 -88.5 -206t-229.5 -82q-139 0 -224 68t-103 184h198q30 -78 129 -78q57 0 93 31.5t36 78.5q0 51 -30.5 81t-91.5 30h-293v459h571v-183h-385v-104h111q148 0 227.5 -76t79.5 -203zM1323 1393h186l-952 -1393h-186zM1692 440q120 -69 120 -202
q0 -113 -92 -184.5t-250 -71.5q-157 0 -249.5 71.5t-92.5 184.5q0 136 123 202q-90 62 -90 170q0 109 86 176.5t223 67.5t223.5 -68t86.5 -176q0 -110 -88 -170zM1470 696q-47 0 -78.5 -27.5t-31.5 -70.5q0 -46 31.5 -75t78.5 -29t79 29t32 75q0 43 -32 70.5t-79 27.5z
M1470 150q54 0 86.5 28t32.5 74t-32.5 74t-86.5 28t-86 -28t-32 -74t32 -74t86 -28z" />
    <glyph glyph-name="seveneighths" unicode="&#x215e;" horiz-adv-x="1728" 
d="M324 557h-226l305 645h-362v191h618v-123zM1108 1393h186l-952 -1393h-186zM1526 440q121 -70 121 -202q0 -113 -92 -184.5t-250 -71.5q-157 0 -249.5 71.5t-92.5 184.5q0 136 122 202q-90 62 -90 170t86.5 176t223.5 68t223 -67.5t86 -176.5q0 -110 -88 -170zM1305 696
q-47 0 -79 -27.5t-32 -70.5q0 -46 32 -75t79 -29t78.5 29t31.5 75q0 43 -31.5 70.5t-78.5 27.5zM1305 150q54 0 86 28t32 74t-32 74t-86 28t-86.5 -28t-32.5 -74t32.5 -74t86.5 -28z" />
    <glyph glyph-name="arrowleft" unicode="&#x2190;" horiz-adv-x="1568" 
d="M1487 571h-946l411 -399l-178 -178l-704 704l704 705l178 -178l-409 -398h944v-256z" />
    <glyph glyph-name="arrowup" unicode="&#x2191;" horiz-adv-x="1593" 
d="M670 0v946l-400 -411l-178 178l705 704l704 -704l-178 -178l-397 409v-944h-256z" />
    <glyph glyph-name="arrowright" unicode="&#x2192;" horiz-adv-x="1568" 
d="M82 571v256h944l-410 398l179 178l704 -705l-704 -704l-179 178l412 399h-946z" />
    <glyph glyph-name="arrowdown" unicode="&#x2193;" horiz-adv-x="1593" 
d="M670 1393h256v-944l397 409l178 -178l-704 -705l-705 705l178 178l400 -412v947z" />
    <glyph glyph-name="uni2196" unicode="&#x2196;" horiz-adv-x="1626" 
d="M1575 180l-180 -180l-961 961l2 -566h-252v998h998v-252l-568 2z" />
    <glyph glyph-name="uni2197" unicode="&#x2197;" horiz-adv-x="1626" 
d="M51 180l961 963l-568 -2v252h998v-998h-252l2 566l-961 -961z" />
    <glyph glyph-name="uni2198" unicode="&#x2198;" horiz-adv-x="1626" 
d="M51 1212l180 181l961 -961l-2 565h252v-997h-998v252l568 -2z" />
    <glyph glyph-name="uni2199" unicode="&#x2199;" horiz-adv-x="1626" 
d="M1575 1212l-961 -962l568 2v-252h-998v997h252l-2 -565l961 961z" />
    <glyph glyph-name="minus" unicode="&#x2212;" horiz-adv-x="1396" 
d="M205 557v248h987v-248h-987z" />
    <glyph glyph-name="R.ss02" horiz-adv-x="1406" 
d="M977 0l-494 442h-61v-442h-279v1393h578q251 0 403 -130t152 -345q0 -182 -111.5 -305.5t-302.5 -157.5l504 -455h-389zM422 1135v-435h289q131 0 210.5 59.5t79.5 158.5t-79.5 158t-210.5 59h-289z" />
    <glyph glyph-name="Racute.ss02" horiz-adv-x="1406" 
d="M983 1855l-205 -309h-241l149 309h297zM977 0l-494 442h-61v-442h-279v1393h578q251 0 403 -130t152 -345q0 -182 -111.5 -305.5t-302.5 -157.5l504 -455h-389zM422 1135v-435h289q131 0 210.5 59.5t79.5 158.5t-79.5 158t-210.5 59h-289z" />
    <glyph glyph-name="Rcaron.ss02" horiz-adv-x="1406" 
d="M788 1526h-251l-242 317h250l119 -147l116 147h250zM977 0l-494 442h-61v-442h-279v1393h578q251 0 403 -130t152 -345q0 -182 -111.5 -305.5t-302.5 -157.5l504 -455h-389zM422 1135v-435h289q131 0 210.5 59.5t79.5 158.5t-79.5 158t-210.5 59h-289z" />
    <glyph glyph-name="Rcommaaccent.ss02" horiz-adv-x="1406" 
d="M862 455l504 -455h-389l-494 442h-61v-442h-279v1393h578q251 0 403 -130t152 -345q0 -182 -111.5 -305.5t-302.5 -157.5zM422 1135v-435h289q131 0 210.5 59.5t79.5 158.5t-79.5 158t-210.5 59h-289zM684 -92q63 0 107.5 -41.5t44.5 -99.5q0 -38 -16 -71t-92 -155
q-7 -12 -11 -18t-10.5 -17t-12.5 -20h-147l76 156q-91 39 -91 125q0 58 45 99.5t107 41.5z" />
    <glyph glyph-name="Q.ss03" horiz-adv-x="1667" 
d="M834 1417q197 0 364 -96t264 -262t97 -363t-97 -363t-264 -262t-364 -96t-364 96t-264 262t-97 363t97 363t264 262t364 96zM834 236q189 0 315.5 134t126.5 326t-126.5 326.5t-315.5 134.5t-316 -134.5t-127 -326.5t127 -326t316 -134zM797 -111l682 -82l-54 -264
q-325 65 -673 144z" />
    <glyph glyph-name="i.loclTRK" horiz-adv-x="585" 
d="M293 1167q-69 0 -116.5 45.5t-47.5 112.5q0 69 47.5 114.5t116.5 45.5q68 0 116 -46t48 -114q0 -67 -48 -112.5t-116 -45.5zM160 977h268v-977h-268v977z" />
    <glyph glyph-name="germandbls.case" horiz-adv-x="1503" 
d="M1083 840q158 -30 254.5 -140.5t96.5 -273.5q0 -200 -146 -328.5t-385 -128.5q-147 0 -274 31v246q126 -39 239 -39q127 0 205 57.5t78 151.5q0 91 -77.5 146.5t-203.5 55.5h-137v132l273 385h-306q-117 0 -187.5 -67.5t-70.5 -176.5v-891h-278v881q0 230 147.5 371
t388.5 141h676v-168z" />
    <glyph glyph-name="l.ss01" horiz-adv-x="774" 
d="M397 1454v-1112q0 -125 123 -125q62 0 156 27l37 -232q-139 -43 -236 -43q-168 0 -258 92t-90 261v1132h268z" />
    <glyph glyph-name="lacute.ss01" horiz-adv-x="774" 
d="M287 1923h297l-205 -309h-242zM397 1454v-1112q0 -125 123 -125q62 0 156 27l37 -232q-139 -43 -236 -43q-168 0 -258 92t-90 261v1132h268z" />
    <glyph glyph-name="lcaron.ss01" horiz-adv-x="774" 
d="M397 1454v-1112q0 -125 123 -125q62 0 156 27l37 -232q-139 -43 -236 -43q-168 0 -258 92t-90 261v1132h268zM539 1454h272l-80 -418h-203z" />
    <glyph glyph-name="lcommaaccent.ss01" horiz-adv-x="774" 
d="M397 1454v-1112q0 -125 123 -125q62 0 156 27l37 -232q-139 -43 -236 -43q-168 0 -258 92t-90 261v1132h268zM281 -514l75 156q-90 38 -90 125q0 58 45 99.5t107 41.5q63 0 107 -41t44 -100q0 -41 -19 -77.5t-122 -203.5h-147z" />
    <glyph glyph-name="ldot.ss01" horiz-adv-x="854" 
d="M397 1454v-1112q0 -125 123 -125q62 0 156 27l37 -232q-139 -43 -236 -43q-168 0 -258 92t-90 261v1132h268zM647 522q-69 0 -117.5 46.5t-48.5 113.5t48.5 113.5t117.5 46.5t117.5 -46.5t48.5 -113.5t-48.5 -113.5t-117.5 -46.5z" />
    <glyph glyph-name="lslash.ss01" horiz-adv-x="774" 
d="M676 244l37 -232q-139 -43 -236 -43q-168 0 -258 92t-90 261v253l-129 -53v273l129 53v606h268v-498l160 66v-272l-160 -66v-342q0 -125 123 -125q62 0 156 27z" />
    <glyph glyph-name="y.ss04" horiz-adv-x="1241" 
d="M844 977h268v-983q0 -225 -139 -357.5t-361 -132.5q-210 0 -352.5 117.5t-157.5 302.5h273q9 -80 72 -128t165 -48t167 65t65 181v139q-130 -102 -283 -102q-195 0 -313.5 131t-118.5 346v469h268v-453q0 -120 57.5 -185t163.5 -65q118 0 226 129v574z" />
    <glyph glyph-name="yacute.ss04" horiz-adv-x="1241" 
d="M940 1446l-205 -309h-241l149 309h297zM844 977h268v-983q0 -225 -139 -357.5t-361 -132.5q-210 0 -352.5 117.5t-157.5 302.5h273q9 -80 72 -128t165 -48t167 65t65 181v139q-130 -102 -283 -102q-195 0 -313.5 131t-118.5 346v469h268v-453q0 -120 57.5 -185t163.5 -65
q118 0 226 129v574z" />
    <glyph glyph-name="ycircumflex.ss04" horiz-adv-x="1241" 
d="M621 1264l-119 -148h-250l242 318h251l242 -318h-250zM844 977h268v-983q0 -225 -139 -357.5t-361 -132.5q-210 0 -352.5 117.5t-157.5 302.5h273q9 -80 72 -128t165 -48t167 65t65 181v139q-130 -102 -283 -102q-195 0 -313.5 131t-118.5 346v469h268v-453
q0 -120 57.5 -185t163.5 -65q118 0 226 129v574z" />
    <glyph glyph-name="ydieresis.ss04" horiz-adv-x="1241" 
d="M401 1124q-69 0 -117 46.5t-48 113.5t48 113.5t117 46.5t117.5 -46.5t48.5 -113.5t-48.5 -113.5t-117.5 -46.5zM842 1124q-69 0 -117.5 46.5t-48.5 113.5t48.5 113.5t117.5 46.5t117.5 -46.5t48.5 -113.5t-48.5 -113.5t-117.5 -46.5zM844 977h268v-983
q0 -225 -139 -357.5t-361 -132.5q-210 0 -352.5 117.5t-157.5 302.5h273q9 -80 72 -128t165 -48t167 65t65 181v139q-130 -102 -283 -102q-195 0 -313.5 131t-118.5 346v469h268v-453q0 -120 57.5 -185t163.5 -65q118 0 226 129v574z" />
    <glyph glyph-name="ygrave.ss04" horiz-adv-x="1241" 
d="M768 1137h-242l-204 309h296zM844 977h268v-983q0 -225 -139 -357.5t-361 -132.5q-210 0 -352.5 117.5t-157.5 302.5h273q9 -80 72 -128t165 -48t167 65t65 181v139q-130 -102 -283 -102q-195 0 -313.5 131t-118.5 346v469h268v-453q0 -120 57.5 -185t163.5 -65
q118 0 226 129v574z" />
    <glyph glyph-name="a.ss06" horiz-adv-x="1107" 
d="M561 1001q126 0 221 -37t153 -119t58 -202v-643h-264v57q-129 -82 -276 -82q-186 0 -289 86.5t-103 237.5q0 139 101.5 211t275.5 72h291v61q0 61 -42.5 95t-125.5 34q-177 0 -192 -123h-269q4 92 44.5 162t106 110.5t143.5 60t167 19.5zM485 195q67 0 122.5 17t121.5 60
v111h-297q-58 0 -86.5 -23.5t-28.5 -58.5q0 -44 40 -75t128 -31z" />
    <glyph glyph-name="aacute.ss06" horiz-adv-x="1107" 
d="M874 1446l-204 -309h-242l150 309h296zM561 1001q126 0 221 -37t153 -119t58 -202v-643h-264v57q-129 -82 -276 -82q-186 0 -289 86.5t-103 237.5q0 139 101.5 211t275.5 72h291v61q0 61 -42.5 95t-125.5 34q-177 0 -192 -123h-269q4 92 44.5 162t106 110.5t143.5 60
t167 19.5zM485 195q67 0 122.5 17t121.5 60v111h-297q-58 0 -86.5 -23.5t-28.5 -58.5q0 -44 40 -75t128 -31z" />
    <glyph glyph-name="abreve.ss06" horiz-adv-x="1107" 
d="M555 1104q-147 0 -236.5 84.5t-89.5 241.5h195q0 -148 131 -148q59 0 95 34.5t36 113.5h195q0 -157 -89.5 -241.5t-236.5 -84.5zM561 1001q126 0 221 -37t153 -119t58 -202v-643h-264v57q-129 -82 -276 -82q-186 0 -289 86.5t-103 237.5q0 139 101.5 211t275.5 72h291v61
q0 61 -42.5 95t-125.5 34q-177 0 -192 -123h-269q4 92 44.5 162t106 110.5t143.5 60t167 19.5zM485 195q67 0 122.5 17t121.5 60v111h-297q-58 0 -86.5 -23.5t-28.5 -58.5q0 -44 40 -75t128 -31z" />
    <glyph glyph-name="uni01CE.ss06" horiz-adv-x="1107" 
d="M680 1116h-252l-242 318h250l119 -148l117 148h250zM561 1001q126 0 221 -37t153 -119t58 -202v-643h-264v57q-129 -82 -276 -82q-186 0 -289 86.5t-103 237.5q0 139 101.5 211t275.5 72h291v61q0 61 -42.5 95t-125.5 34q-177 0 -192 -123h-269q4 92 44.5 162t106 110.5
t143.5 60t167 19.5zM485 195q67 0 122.5 17t121.5 60v111h-297q-58 0 -86.5 -23.5t-28.5 -58.5q0 -44 40 -75t128 -31z" />
    <glyph glyph-name="acircumflex.ss06" horiz-adv-x="1107" 
d="M555 1264l-119 -148h-250l242 318h252l242 -318h-250zM561 1001q126 0 221 -37t153 -119t58 -202v-643h-264v57q-129 -82 -276 -82q-186 0 -289 86.5t-103 237.5q0 139 101.5 211t275.5 72h291v61q0 61 -42.5 95t-125.5 34q-177 0 -192 -123h-269q4 92 44.5 162
t106 110.5t143.5 60t167 19.5zM485 195q67 0 122.5 17t121.5 60v111h-297q-58 0 -86.5 -23.5t-28.5 -58.5q0 -44 40 -75t128 -31z" />
    <glyph glyph-name="adieresis.ss06" horiz-adv-x="1107" 
d="M336 1124q-69 0 -117.5 46.5t-48.5 113.5t48.5 113.5t117.5 46.5t117.5 -46.5t48.5 -113.5t-48.5 -113.5t-117.5 -46.5zM776 1124q-69 0 -117.5 46.5t-48.5 113.5t48.5 113.5t117.5 46.5t117.5 -46.5t48.5 -113.5t-48.5 -113.5t-117.5 -46.5zM561 1001q126 0 221 -37
t153 -119t58 -202v-643h-264v57q-129 -82 -276 -82q-186 0 -289 86.5t-103 237.5q0 139 101.5 211t275.5 72h291v61q0 61 -42.5 95t-125.5 34q-177 0 -192 -123h-269q4 92 44.5 162t106 110.5t143.5 60t167 19.5zM485 195q67 0 122.5 17t121.5 60v111h-297
q-58 0 -86.5 -23.5t-28.5 -58.5q0 -44 40 -75t128 -31z" />
    <glyph glyph-name="agrave.ss06" horiz-adv-x="1107" 
d="M702 1137h-241l-205 309h297zM561 1001q126 0 221 -37t153 -119t58 -202v-643h-264v57q-129 -82 -276 -82q-186 0 -289 86.5t-103 237.5q0 139 101.5 211t275.5 72h291v61q0 61 -42.5 95t-125.5 34q-177 0 -192 -123h-269q4 92 44.5 162t106 110.5t143.5 60t167 19.5z
M485 195q67 0 122.5 17t121.5 60v111h-297q-58 0 -86.5 -23.5t-28.5 -58.5q0 -44 40 -75t128 -31z" />
    <glyph glyph-name="amacron.ss06" horiz-adv-x="1107" 
d="M842 1395v-219h-574v219h574zM561 1001q126 0 221 -37t153 -119t58 -202v-643h-264v57q-129 -82 -276 -82q-186 0 -289 86.5t-103 237.5q0 139 101.5 211t275.5 72h291v61q0 61 -42.5 95t-125.5 34q-177 0 -192 -123h-269q4 92 44.5 162t106 110.5t143.5 60t167 19.5z
M485 195q67 0 122.5 17t121.5 60v111h-297q-58 0 -86.5 -23.5t-28.5 -58.5q0 -44 40 -75t128 -31z" />
    <glyph glyph-name="aogonek.ss06" horiz-adv-x="1107" 
d="M1063 -127l27 -197q-54 -24 -150 -24q-135 0 -218 65t-83 172q0 91 90 154v14q-129 -82 -276 -82q-186 0 -289 86.5t-103 237.5q0 139 101.5 211t275.5 72h291v61q0 61 -42.5 95t-125.5 34q-177 0 -192 -123h-269q4 92 44.5 162t106 110.5t143.5 60t167 19.5
q126 0 221 -37t153 -119t58 -202v-643q-72 -9 -101.5 -28.5t-29.5 -53.5q0 -57 113 -57q35 0 88 12zM485 195q67 0 122.5 17t121.5 60v111h-297q-58 0 -86.5 -23.5t-28.5 -58.5q0 -44 40 -75t128 -31z" />
    <glyph glyph-name="aring.ss06" horiz-adv-x="1107" 
d="M555 1108q-107 0 -172.5 61.5t-65.5 161.5t65.5 160.5t172.5 60.5t172.5 -60.5t65.5 -160.5t-65.5 -161.5t-172.5 -61.5zM555 1417q-40 0 -64 -24t-24 -62q0 -40 24 -64t64 -24t64 24t24 64q0 38 -24 62t-64 24zM561 1001q126 0 221 -37t153 -119t58 -202v-643h-264v57
q-129 -82 -276 -82q-186 0 -289 86.5t-103 237.5q0 139 101.5 211t275.5 72h291v61q0 61 -42.5 95t-125.5 34q-177 0 -192 -123h-269q4 92 44.5 162t106 110.5t143.5 60t167 19.5zM485 195q67 0 122.5 17t121.5 60v111h-297q-58 0 -86.5 -23.5t-28.5 -58.5q0 -44 40 -75
t128 -31z" />
    <glyph glyph-name="atilde.ss06" horiz-adv-x="1107" 
d="M481 1227q-25 15 -43 15.5t-27.5 -10t-13.5 -24.5t-4 -30h-215q0 76 24 134t63 89.5t86 45.5t95 7.5t89 -29.5l98 -59q25 -15 43 -15.5t27.5 10t13.5 24.5t4 30h215q0 -94 -36.5 -160t-91 -92t-115.5 -25.5t-113 29.5zM561 1001q126 0 221 -37t153 -119t58 -202v-643
h-264v57q-129 -82 -276 -82q-186 0 -289 86.5t-103 237.5q0 139 101.5 211t275.5 72h291v61q0 61 -42.5 95t-125.5 34q-177 0 -192 -123h-269q4 92 44.5 162t106 110.5t143.5 60t167 19.5zM485 195q67 0 122.5 17t121.5 60v111h-297q-58 0 -86.5 -23.5t-28.5 -58.5
q0 -44 40 -75t128 -31z" />
    <glyph glyph-name="zero.osf" horiz-adv-x="1323" 
d="M664 1139q254 0 415.5 -161.5t161.5 -420.5t-161.5 -420.5t-415.5 -161.5t-418 161.5t-164 420.5t164 420.5t418 161.5zM664 221q132 0 221.5 94t89.5 242t-89.5 242t-221.5 94q-134 0 -225 -94t-91 -242t91 -242t225 -94z" />
    <glyph glyph-name="one.osf" horiz-adv-x="1062" 
d="M717 227h336v-227h-971v227h356v594l-340 -114v256l459 163h160v-899z" />
    <glyph glyph-name="two.osf" horiz-adv-x="1148" 
d="M610 227h437v-227h-941v143l287 213q25 19 81.5 59.5t85.5 62.5t72.5 58.5t65.5 63t39 59t17 62.5q0 68 -48 117t-147 49q-100 0 -157.5 -57t-63.5 -158h-270q5 206 132 330t349 124q113 0 206 -34t152.5 -91.5t92 -132t32.5 -157.5q0 -52 -14 -99t-42.5 -88t-61 -75.5
t-82 -71.5t-92.5 -66t-103 -67q-18 -11 -27 -17z" />
    <glyph glyph-name="three.osf" horiz-adv-x="1169" 
d="M889 416q188 -98 188 -310q0 -178 -137.5 -297.5t-341.5 -119.5q-209 0 -347 109t-169 298h270q19 -78 85 -124t161 -46q94 0 156.5 51.5t62.5 128.5q0 86 -70 136.5t-186 50.5h-106v223h106q94 0 151.5 52.5t57.5 136.5q0 85 -54.5 136.5t-140.5 51.5
q-88 0 -144.5 -48.5t-65.5 -129.5h-271q14 187 145 301t336 114q202 0 328.5 -119t126.5 -304q0 -190 -141 -291z" />
    <glyph glyph-name="four.osf" horiz-adv-x="1306" 
d="M1225 238v-238h-183v-274h-268v274h-713v172l392 946h282l-354 -880h393v403h268v-403h183z" />
    <glyph glyph-name="five.osf" horiz-adv-x="1212" 
d="M618 616q216 0 351 -126t135 -322q0 -206 -138 -339.5t-354 -133.5q-214 0 -347 108.5t-163 298.5h271q53 -170 239 -170q100 0 166 64.5t66 163.5q0 97 -71 158t-189 61h-420v733h883v-248h-627v-248h198z" />
    <glyph glyph-name="six.osf" horiz-adv-x="1245" 
d="M627 954q233 0 384.5 -138.5t151.5 -346.5q0 -212 -152 -353t-388 -141q-156 0 -280.5 65.5t-192.5 176.5t-68 244q0 86 31 165.5t98 186.5l367 580h323zM623 199q118 0 194 74.5t76 179.5q0 106 -76 182t-194 76q-107 0 -183 -54q-51 -69 -70.5 -113.5t-19.5 -94.5
q0 -102 78 -176t195 -74z" />
    <glyph glyph-name="seven.osf" horiz-adv-x="1032" 
d="M20 1106h973v-168l-561 -1225h-307l522 1133h-627v260z" />
    <glyph glyph-name="eight.osf" horiz-adv-x="1263" 
d="M963 735q105 -53 162 -141t57 -201q0 -188 -148.5 -303t-402.5 -115q-252 0 -400.5 115t-148.5 303q0 113 57 201t162 141q-164 101 -164 291q0 174 137.5 282.5t356.5 108.5t356 -108.5t137 -282.5q0 -192 -161 -291zM631 1200q-99 0 -160 -53t-61 -137q0 -85 61.5 -143
t159.5 -58t160.5 58.5t62.5 142.5q0 83 -62 136.5t-161 53.5zM631 205q106 0 176 60t70 147t-70 146.5t-176 59.5t-175 -59t-69 -147q0 -89 69 -148t175 -59z" />
    <glyph glyph-name="nine.osf" horiz-adv-x="1245" 
d="M623 1139q117 0 218.5 -38.5t171.5 -104t110 -154.5t40 -189q0 -86 -31 -165.5t-98 -186.5l-366 -580h-324l274 439q-233 0 -384.5 138.5t-151.5 346.5q0 212 152.5 353t388.5 141zM623 403q106 0 182 54q51 69 70.5 114t19.5 95q0 102 -77.5 175.5t-194.5 73.5
q-118 0 -194.5 -74t-76.5 -179q0 -106 76.5 -182.5t194.5 -76.5z" />
    <glyph glyph-name="zero.osf.zero" horiz-adv-x="1323" 
d="M664 1139q254 0 415.5 -161.5t161.5 -420.5t-161.5 -420.5t-415.5 -161.5t-418 161.5t-164 420.5t164 420.5t418 161.5zM664 893q-134 0 -225 -94t-91 -242q0 -94 39 -170l447 455q-76 51 -170 51zM664 221q132 0 221.5 94t89.5 242q0 93 -37 166l-444 -453
q74 -49 170 -49z" />
    <glyph glyph-name="zero.tf" horiz-adv-x="1372" 
d="M686 1417q194 0 332.5 -94.5t206 -255t67.5 -371.5t-67.5 -371.5t-206 -255t-332.5 -94.5q-146 0 -262 54t-191.5 150.5t-115 228t-39.5 288.5t39.5 288.5t115 228t191.5 150.5t262 54zM686 227q85 0 149 35.5t102 100.5t56.5 148t18.5 185t-18.5 185t-56.5 148
t-102 100.5t-149 35.5q-86 0 -150.5 -35.5t-102.5 -100.5t-56.5 -148t-18.5 -185t18.5 -185t56.5 -148t102.5 -100.5t150.5 -35.5z" />
    <glyph glyph-name="one.tf" horiz-adv-x="1372" 
d="M1217 227v-227h-1053v227h411v860l-339 -114v256l458 164h160v-1166h363z" />
    <glyph glyph-name="two.tf" horiz-adv-x="1372" 
d="M627 227h544v-227h-940v143l433 521q16 19 51 61t48 58.5t38 48t34.5 49t22 42t17 45.5t4.5 42q0 69 -48 118.5t-147 49.5q-94 0 -149 -54t-66 -155h-276q5 203 140.5 325.5t360.5 122.5q113 0 203 -33t146 -89.5t85 -129.5t29 -157q0 -99 -55.5 -189.5t-204.5 -267.5z
" />
    <glyph glyph-name="three.tf" horiz-adv-x="1372" 
d="M1014 702q188 -98 188 -309q0 -178 -137.5 -298t-341.5 -120q-209 0 -347 109.5t-169 298.5h270q19 -78 85 -124t161 -46q94 0 156.5 51.5t62.5 128.5q0 86 -70 136.5t-186 50.5h-106v223h106q95 0 152 52t57 136q0 85 -54.5 137t-140.5 52q-88 0 -145 -49t-66 -130h-270
q14 187 145 301.5t336 114.5q201 0 328 -119.5t127 -304.5q0 -190 -141 -291z" />
    <glyph glyph-name="four.tf" horiz-adv-x="1372" 
d="M1270 512v-238h-183v-274h-268v274h-713v172l392 947h282l-354 -881h393v403h268v-403h183z" />
    <glyph glyph-name="five.tf" horiz-adv-x="1372" 
d="M711 897q215 0 350 -126t135 -322q0 -206 -137.5 -340t-353.5 -134q-214 0 -347 109t-163 299h270q53 -170 240 -170q100 0 165.5 64t65.5 163q0 97 -71 158t-189 61h-420v734h883v-248h-627v-248h199z" />
    <glyph glyph-name="six.tf" horiz-adv-x="1372" 
d="M684 954q233 0 385 -138.5t152 -346.5q0 -212 -152.5 -353t-388.5 -141q-156 0 -280.5 65.5t-192.5 176.5t-68 244q0 86 31 165.5t98 186.5l367 580h323zM680 199q118 0 194 74.5t76 179.5q0 106 -76 182t-194 76q-106 0 -182 -54q-51 -69 -70.5 -113.5t-19.5 -94.5
q0 -102 77.5 -176t194.5 -74z" />
    <glyph glyph-name="seven.tf" horiz-adv-x="1372" 
d="M209 1393h973v-168l-561 -1225h-308l523 1133h-627v260z" />
    <glyph glyph-name="eight.tf" horiz-adv-x="1372" 
d="M1018 735q105 -53 162 -141t57 -201q0 -188 -148.5 -303t-402.5 -115q-252 0 -400.5 115t-148.5 303q0 113 57 201t162 141q-163 101 -163 291q0 174 137 282.5t356 108.5t356.5 -108.5t137.5 -282.5q0 -191 -162 -291zM686 1200q-99 0 -160 -53t-61 -137
q0 -85 61.5 -143t159.5 -58t160.5 58.5t62.5 142.5q0 83 -62 136.5t-161 53.5zM686 205q106 0 176 60t70 147t-70 146.5t-176 59.5t-175 -59t-69 -147q0 -89 69 -148t175 -59z" />
    <glyph glyph-name="nine.tf" horiz-adv-x="1372" 
d="M694 1417q156 0 280.5 -65.5t192.5 -176t68 -243.5q0 -86 -31 -165.5t-98 -186.5l-367 -580h-323l274 438q-233 0 -384.5 139t-151.5 347q0 212 152 352.5t388 140.5zM694 682q109 0 183 53q51 69 70.5 114t19.5 95q0 102 -78 176t-195 74q-118 0 -194 -74.5t-76 -179.5
q0 -106 76 -182t194 -76z" />
    <glyph glyph-name="zero.zero" horiz-adv-x="1472" 
d="M737 1417q194 0 337.5 -94t216.5 -256t73 -371t-73 -371t-216.5 -256t-337.5 -94t-338 94t-217 256t-73 371t73 371t217 256t338 94zM737 1165q-114 0 -194 -63t-117 -167t-37 -239q0 -149 45 -256l469 682q-72 43 -166 43zM737 227q113 0 192.5 63t116.5 167t37 239
q0 153 -45 260l-473 -682q71 -47 172 -47z" />
    <glyph glyph-name="zero.dnom" horiz-adv-x="925" 
d="M463 854q187 0 294 -123t107 -313t-107 -313t-294 -123q-186 0 -294 123t-108 313t108 313t294 123zM463 166q96 0 146 71.5t50 180.5t-50 180.5t-146 71.5t-146.5 -72t-50.5 -180t50.5 -180t146.5 -72z" />
    <glyph glyph-name="one.dnom" horiz-adv-x="696" 
d="M471 166h215v-166h-625v166h220v461l-211 -62v172l295 99h106v-670z" />
    <glyph glyph-name="two.dnom" horiz-adv-x="753" 
d="M391 166h301v-166h-616v104l301 324q59 62 81.5 96.5t22.5 69.5q0 38 -26.5 61t-69.5 23q-55 0 -84 -29t-31 -82h-198q2 131 82 209t225 78q143 0 223 -72.5t80 -175.5q0 -60 -30 -121t-105 -145z" />
    <glyph glyph-name="three.dnom" horiz-adv-x="780" 
d="M602 422q107 -60 107 -180q0 -111 -87 -186.5t-227 -75.5q-136 0 -220.5 70t-106.5 192h198q32 -88 131 -88q54 0 87.5 25t33.5 63q0 90 -145 90h-66v162h66q52 0 83 26t31 66t-25.5 64t-74.5 24q-45 0 -70 -25t-28 -63h-199q9 122 88.5 192t208.5 70q133 0 212 -73
t79 -187q0 -106 -76 -166z" />
    <glyph glyph-name="four.dnom" horiz-adv-x="856" 
d="M795 330v-174h-107v-156h-196v156h-441v127l240 553h207l-211 -506h205v227h196v-227h107z" />
    <glyph glyph-name="five.dnom" horiz-adv-x="808" 
d="M410 549q148 0 227.5 -76t79.5 -203q0 -124 -88.5 -206t-229.5 -82q-139 0 -224 67.5t-103 183.5h198q29 -77 129 -77q57 0 93 31.5t36 78.5q0 51 -30.5 81t-91.5 30h-293v459h571v-183h-385v-104h111z" />
    <glyph glyph-name="six.dnom" horiz-adv-x="798" 
d="M430 580q138 -9 222.5 -92t84.5 -203q0 -129 -93.5 -216t-242.5 -87q-147 0 -243.5 87.5t-96.5 209.5q0 52 20.5 101t65.5 120l209 336h236zM401 143q60 0 100 37t40 92q0 59 -39.5 96.5t-100.5 37.5t-102 -35q-41 -64 -41 -95q0 -55 40 -94t103 -39z" />
    <glyph glyph-name="seven.dnom" horiz-adv-x="700" 
d="M41 836h618v-123l-335 -713h-226l305 645h-362v191z" />
    <glyph glyph-name="eight.dnom" horiz-adv-x="847" 
d="M645 440q121 -70 121 -202q0 -113 -92 -184.5t-250 -71.5q-157 0 -249.5 71.5t-92.5 184.5q0 136 123 202q-90 62 -90 170q0 109 86 176.5t223 67.5t223 -67.5t86 -176.5q0 -110 -88 -170zM424 696q-47 0 -79 -27.5t-32 -70.5q0 -46 32 -75t79 -29t79 29t32 75
q0 43 -32 70.5t-79 27.5zM424 150q54 0 86.5 28t32.5 74t-32.5 74t-86.5 28t-86.5 -28t-32.5 -74t32.5 -74t86.5 -28z" />
    <glyph glyph-name="nine.dnom" horiz-adv-x="798" 
d="M397 856q147 0 243.5 -87.5t96.5 -209.5q0 -52 -20.5 -101t-65.5 -120l-209 -336h-235l162 256q-138 9 -223 92t-85 203q0 129 93.5 216t242.5 87zM397 432q62 0 103 35q41 64 41 94q0 55 -40.5 94t-103.5 39q-60 0 -99.5 -36.5t-39.5 -92.5q0 -59 39 -96t100 -37z" />
    <glyph glyph-name="zero.numr" horiz-adv-x="925" 
d="M463 1411q187 0 294 -123t107 -313t-107 -313t-294 -123q-186 0 -294 123t-108 313t108 313t294 123zM463 723q96 0 146 71.5t50 180.5t-50 180.5t-146 71.5t-146.5 -72t-50.5 -180t50.5 -180t146.5 -72z" />
    <glyph glyph-name="one.numr" horiz-adv-x="696" 
d="M471 723h215v-166h-625v166h220v461l-211 -62v172l295 99h106v-670z" />
    <glyph glyph-name="two.numr" horiz-adv-x="753" 
d="M391 723h301v-166h-616v105l301 323q59 62 81.5 96.5t22.5 69.5q0 38 -26.5 61t-69.5 23q-55 0 -84 -29t-31 -82h-198q2 131 82 209t225 78q143 0 223 -72.5t80 -175.5q0 -60 -30 -121t-105 -145z" />
    <glyph glyph-name="three.numr" horiz-adv-x="780" 
d="M602 987q107 -60 107 -180q0 -111 -87 -186.5t-227 -75.5q-136 0 -220.5 70t-106.5 192h198q32 -88 131 -88q54 0 87.5 25t33.5 63q0 90 -145 90h-66v162h66q52 0 83 26t31 66t-25.5 64t-74.5 24q-45 0 -70 -25t-28 -63h-199q9 122 88.5 192t208.5 70q133 0 212 -73
t79 -187q0 -106 -76 -166z" />
    <glyph glyph-name="four.numr" horiz-adv-x="856" 
d="M795 887v-174h-107v-156h-196v156h-441v127l240 553h207l-211 -506h205v227h196v-227h107z" />
    <glyph glyph-name="five.numr" horiz-adv-x="808" 
d="M410 1106q148 0 227.5 -76t79.5 -203q0 -124 -88.5 -206t-229.5 -82q-139 0 -224 68t-103 184h198q30 -78 129 -78q57 0 93 31.5t36 78.5q0 51 -30.5 81t-91.5 30h-293v459h571v-183h-385v-104h111z" />
    <glyph glyph-name="six.numr" horiz-adv-x="798" 
d="M430 1137q138 -9 222.5 -92t84.5 -203q0 -129 -93.5 -216t-242.5 -87q-147 0 -243.5 87.5t-96.5 209.5q0 52 20.5 101t65.5 120l209 336h236zM401 700q60 0 100 37t40 92q0 59 -39.5 96.5t-100.5 37.5t-102 -35q-41 -64 -41 -94q0 -56 40 -95t103 -39z" />
    <glyph glyph-name="seven.numr" horiz-adv-x="700" 
d="M41 1393h618v-123l-335 -713h-226l305 645h-362v191z" />
    <glyph glyph-name="eight.numr" horiz-adv-x="847" 
d="M645 1006q121 -70 121 -203q0 -113 -92 -184.5t-250 -71.5q-157 0 -249.5 71.5t-92.5 184.5q0 137 123 203q-90 62 -90 170t86 175.5t223 67.5t223 -67.5t86 -175.5q0 -110 -88 -170zM424 1262q-47 0 -79 -28t-32 -71q0 -46 32 -75t79 -29t79 29t32 75q0 43 -32 71
t-79 28zM424 715q54 0 86.5 28t32.5 74t-32.5 74.5t-86.5 28.5t-86.5 -28.5t-32.5 -74.5t32.5 -74t86.5 -28z" />
    <glyph glyph-name="nine.numr" horiz-adv-x="798" 
d="M397 1421q147 0 243.5 -87.5t96.5 -209.5q0 -52 -20.5 -101t-65.5 -120l-209 -336h-235l162 256q-138 9 -223 92t-85 203q0 129 93.5 216t242.5 87zM397 997q62 0 103 35q41 64 41 94q0 55 -40.5 94.5t-103.5 39.5q-60 0 -99.5 -37t-39.5 -93q0 -59 39 -96t100 -37z" />
    <glyph glyph-name="backslash.case" horiz-adv-x="786" 
d="M477 -96l-446 1591h278l447 -1591h-279z" />
    <glyph glyph-name="periodcentered.case" horiz-adv-x="448" 
d="M223 547q-67 0 -114.5 45.5t-47.5 112.5q0 65 47.5 110t114.5 45q68 0 116 -45t48 -110q0 -67 -48 -112.5t-116 -45.5z" />
    <glyph glyph-name="bullet.case" horiz-adv-x="686" 
d="M342 401q-113 0 -197 83.5t-84 195.5t84 195t197 83q114 0 198.5 -83t84.5 -195t-84.5 -195.5t-198.5 -83.5z" />
    <glyph glyph-name="exclamdown.case" horiz-adv-x="583" 
d="M291 1405q68 0 116 -45.5t48 -112.5q0 -65 -48 -110t-116 -45q-67 0 -114.5 45t-47.5 110q0 67 47.5 112.5t114.5 45.5zM432 0h-282l22 946h238z" />
    <glyph glyph-name="questiondown.case" horiz-adv-x="1071" 
d="M600 1405q67 0 114.5 -45.5t47.5 -112.5q0 -65 -47.5 -110t-114.5 -45q-68 0 -116 45t-48 110q0 67 48 112.5t116 45.5zM489 956h209l21 -325h-148q-98 0 -163.5 -56.5t-65.5 -152.5q0 -94 56.5 -150.5t150.5 -56.5q86 0 144 48.5t67 127.5h270q-14 -190 -136 -302
t-333 -112q-135 0 -243.5 54.5t-172 156.5t-63.5 232q0 167 105.5 269.5t289.5 123.5z" />
    <glyph glyph-name="slash.case" horiz-adv-x="786" 
d="M309 -96h-278l446 1591h279z" />
    <glyph glyph-name="braceleft.case" horiz-adv-x="722" 
d="M496 930q0 -99 -30.5 -148t-123.5 -77q93 -28 123.5 -77.5t30.5 -148.5v-213q0 -54 45.5 -87.5t120.5 -33.5v-262q-195 0 -315 105.5t-120 277.5v205q0 21 -2 37.5t-7.5 28.5t-11 20t-18 13.5t-22.5 8.5t-29.5 4.5t-34 2t-41.5 0.5v237q27 0 41.5 0.5t34 2t29.5 4.5
t22.5 8.5t18 13.5t11 20t7.5 28.5t2 37.5v205q0 172 120 277.5t315 105.5v-262q-75 0 -120.5 -33.5t-45.5 -87.5v-213z" />
    <glyph glyph-name="braceright.case" horiz-adv-x="753" 
d="M258 930v213q0 54 -45.5 87.5t-120.5 33.5v262q195 0 314.5 -105.5t119.5 -277.5v-205q0 -21 2 -37.5t7.5 -28.5t11 -20t18 -13.5t22.5 -8.5t29.5 -4.5t34 -2t41.5 -0.5v-237q-27 0 -41.5 -0.5t-34 -2t-29.5 -4.5t-22.5 -8.5t-18 -13.5t-11 -20t-7.5 -28.5t-2 -37.5v-205
q0 -172 -119.5 -277.5t-314.5 -105.5v262q75 0 120.5 33.5t45.5 87.5v213q0 99 30.5 148.5t123.5 77.5q-93 28 -123.5 77t-30.5 148z" />
    <glyph glyph-name="bracketleft.case" horiz-adv-x="774" 
d="M412 1237v-1071h301v-258h-570v1587h570v-258h-301z" />
    <glyph glyph-name="bracketright.case" horiz-adv-x="774" 
d="M362 1237h-301v258h570v-1587h-570v258h301v1071z" />
    <glyph glyph-name="parenleft.case" horiz-adv-x="722" 
d="M682 1337q-83 -88 -133 -151t-88.5 -136.5t-54 -151.5t-15.5 -179q0 -133 32 -235t90 -184t169 -200l-174 -174q-209 190 -304 373t-95 420t95 419.5t304 372.5z" />
    <glyph glyph-name="parenright.case" horiz-adv-x="722" 
d="M215 1511q209 -190 304 -372.5t95 -419.5t-95 -420t-304 -373l-174 174q111 118 169 200t90 184t32 235q0 101 -15.5 179t-54 151.5t-88.5 136.5t-133 151z" />
    <glyph glyph-name="emdash.case" horiz-adv-x="2154" 
d="M205 563h1745v228h-1745v-228z" />
    <glyph glyph-name="endash.case" horiz-adv-x="1427" 
d="M205 563h1018v228h-1018v-228z" />
    <glyph glyph-name="hyphen.case" horiz-adv-x="1124" 
d="M205 551h715v248h-715v-248z" />
    <glyph glyph-name="guillemotleft.case" horiz-adv-x="937" 
d="M240 995h258l-189 -315l189 -315h-258l-189 315zM629 995h258l-189 -315l189 -315h-258l-189 315z" />
    <glyph glyph-name="guillemotright.case" horiz-adv-x="937" 
d="M309 995l189 -315l-189 -315h-258l189 315l-189 315h258zM698 995l189 -315l-189 -315h-258l189 315l-189 315h258z" />
    <glyph glyph-name="guilsinglleft.case" horiz-adv-x="548" 
d="M240 995h258l-189 -315l189 -315h-258l-189 315z" />
    <glyph glyph-name="guilsinglright.case" horiz-adv-x="548" 
d="M309 995l189 -315l-189 -315h-258l189 315l-189 315h258z" />
    <glyph glyph-name="cent.tf" horiz-adv-x="1372" 
d="M711 219q82 0 140 43.5t73 114.5h274q-19 -145 -117.5 -249t-244.5 -138v-209h-242v207q-177 37 -290.5 175t-113.5 324q0 185 113.5 324t290.5 178v238h242v-240q146 -34 244.5 -139t117.5 -250h-274q-15 71 -73 115.5t-140 44.5q-113 0 -182.5 -78t-69.5 -193
t69.5 -191.5t182.5 -76.5z" />
    <glyph glyph-name="dollar.tf" horiz-adv-x="1372" 
d="M815 801q214 -43 321 -133.5t107 -255.5q0 -171 -113.5 -285t-308.5 -143v-224h-241v224q-212 28 -342.5 153.5t-143.5 321.5h277q17 -109 108.5 -172.5t235.5 -63.5q115 0 178 40t63 114q0 118 -184 151l-225 43q-397 76 -397 408q0 177 116 292t314 140v225h241v-231
q80 -13 149 -42.5t130.5 -79.5t101 -130.5t49.5 -183.5h-276q-29 209 -277 209q-118 0 -186 -44.5t-68 -129.5q0 -72 50.5 -110.5t156.5 -59.5z" />
    <glyph glyph-name="Euro.tf" horiz-adv-x="1372" 
d="M770 227q143 0 195 78h329q-61 -156 -197 -243t-327 -87q-223 0 -376.5 122t-215.5 331h-125v188h90q-2 27 -2 80v39h-88v189h113q55 227 212.5 360t391.5 133q202 0 343.5 -98t197.5 -270h-312q-28 57 -87.5 86.5t-141.5 29.5q-117 0 -196 -64t-117 -177h520l-49 -189
h-506v-39q0 -26 4 -80h475l-47 -188h-383q90 -201 299 -201z" />
    <glyph glyph-name="florin.tf" horiz-adv-x="1372" 
d="M1094 1155q-87 0 -136.5 -49.5t-60.5 -136.5l-27 -197h344v-225h-372l-47 -346q-27 -201 -134.5 -317.5t-287.5 -116.5q-125 0 -234 32l37 234q93 -19 143 -19q87 0 136.5 49.5t60.5 137.5l47 346h-266v225h295l26 197q27 201 134.5 317.5t287.5 116.5q122 0 234 -33
l-37 -233q-88 18 -143 18z" />
    <glyph glyph-name="uni20B9.tf" horiz-adv-x="1372" 
d="M1212 1176h-307q45 -66 64 -152h243v-217h-243q-32 -127 -129.5 -213t-245.5 -123l518 -471h-399l-471 442v258h217q160 0 221 107h-438v217h440q-62 111 -223 111h-217v258h970v-217z" />
    <glyph glyph-name="sterling.tf" horiz-adv-x="1372" 
d="M530 561v-328h721v-233h-1110v233h121v328h-121v234h121v133q0 222 140 355.5t370 133.5q210 0 346.5 -113t159.5 -305h-272q-19 86 -80.5 133.5t-153.5 47.5q-110 0 -176 -68t-66 -184v-133h398v-234h-398z" />
    <glyph glyph-name="yen.tf" horiz-adv-x="1372" 
d="M1300 1393l-391 -777h277v-194h-357v-92h357v-195h-357v-135h-282v135h-359v195h359v92h-359v194h279l-393 777h309l303 -625l305 625h309z" />
    <glyph glyph-name="arrowup.ss05" horiz-adv-x="1167" 
d="M963 684l-164 -164l-375 -373l-164 164l375 373l-379 375l164 164l379 -375z" />
    <glyph glyph-name="arrowright.ss05" horiz-adv-x="1167" 
d="M911 1059l-379 -375l375 -373l-164 -164l-374 373l-164 164l164 164l379 375z" />
    <glyph glyph-name="arrowdown.ss05" horiz-adv-x="1443" 
d="M1260 815l-373 -375l-164 -164l-164 164l-375 379l164 164l375 -379l373 375z" />
    <glyph glyph-name="arrowleft.ss05" horiz-adv-x="1443" 
d="M1260 440l-164 -164l-373 375l-375 -379l-164 164l375 379l164 164l164 -164z" />
    <glyph glyph-name="at.case" horiz-adv-x="2048" 
d="M1038 1516q253 0 455.5 -109.5t317 -307t114.5 -446.5q0 -208 -85.5 -331t-266.5 -123q-213 0 -299 135q-55 -62 -134.5 -97.5t-170.5 -35.5q-179 0 -298.5 124.5t-119.5 305.5q0 183 119.5 307.5t298.5 124.5q140 0 245 -78v59h238v-473q0 -174 121 -174q160 0 160 252
q0 195 -90 351t-249 242.5t-356 86.5q-148 0 -281 -54t-229 -146t-152.5 -220.5t-56.5 -271.5q0 -144 56.5 -273t152 -220t225 -144t271.5 -53q251 0 442 147l107 -162q-234 -172 -545 -172q-148 0 -285 42t-249 121.5t-195.5 186t-129.5 242.5t-46 285q0 185 71.5 348.5
t193.5 279.5t291.5 183.5t358.5 67.5zM1008 414q55 0 112.5 29t98.5 94q-5 36 -5 90v106q-38 60 -93.5 90.5t-112.5 30.5q-84 0 -149.5 -61t-65.5 -160t65 -159t150 -60z" />
    <glyph glyph-name="bar.case" horiz-adv-x="659" 
d="M205 1495h250v-1591h-250v1591z" />
    <glyph glyph-name="brokenbar.case" horiz-adv-x="659" 
d="M455 1495v-692h-250v692h250zM455 594v-690h-250v690h250z" />
    <glyph glyph-name="registered.ss07" horiz-adv-x="1708" 
d="M854 1423q150 0 287 -55.5t238 -151.5t160.5 -231.5t59.5 -288.5t-59.5 -288.5t-160.5 -231.5t-238 -151.5t-287 -55.5t-287 55.5t-238 151.5t-160.5 231.5t-59.5 288.5t59.5 288.5t160.5 231.5t238 151.5t287 55.5zM852 145q111 0 214 43t179.5 115.5t122 175.5
t45.5 217t-45.5 217t-122 175.5t-179.5 115.5t-214 43t-214 -43t-178.5 -115.5t-121 -175.5t-45.5 -217t45.5 -217t121 -175.5t178.5 -115.5t214 -43zM1149 807q0 -67 -30.5 -117t-86.5 -76l142 -215h-201l-111 183h-94v-183h-160v641h279q117 0 189.5 -64t72.5 -169z
M768 889v-164h117q47 0 72.5 22.5t25.5 61.5q0 36 -26 58t-72 22h-117z" />
    <glyph glyph-name="caron.alt" 
d="M494 1393h272l-80 -418h-203z" />
    <glyph glyph-name="acute.case" 
d="M612 1774h297l-204 -310h-242z" />
    <glyph glyph-name="breve.case" 
d="M940 1790q0 -157 -89.5 -241.5t-236.5 -84.5t-236 84.5t-89 241.5h194q0 -148 131 -148q59 0 95 34.5t36 113.5h195z" />
    <glyph glyph-name="caron.case" 
d="M733 1761h250l-242 -317h-252l-241 317h250l118 -147z" />
    <glyph glyph-name="circumflex.case" 
d="M733 1444l-117 147l-118 -147h-250l241 317h252l242 -317h-250z" />
    <glyph glyph-name="dieresis.case" 
d="M395 1812q69 0 117.5 -46t48.5 -113t-48.5 -113.5t-117.5 -46.5t-117.5 46.5t-48.5 113.5t48.5 113t117.5 46zM836 1812q69 0 117 -46t48 -113t-48 -113.5t-117 -46.5t-117.5 46.5t-48.5 113.5t48.5 113t117.5 46z" />
    <glyph glyph-name="dotaccent.case" 
d="M614 1493q-69 0 -117 46.5t-48 113.5t48 113t117 46t117.5 -46t48.5 -113t-48.5 -113.5t-117.5 -46.5z" />
    <glyph glyph-name="grave.case" 
d="M678 1774l149 -310h-241l-205 310h297z" />
    <glyph glyph-name="hungarumlaut.case" 
d="M449 1774h276l-164 -310h-221zM756 1774h276l-164 -310h-221z" />
    <glyph glyph-name="macron.case" 
d="M328 1722h573v-219h-573v219z" />
    <glyph glyph-name="ring.case" 
d="M608 1921q107 0 172.5 -60.5t65.5 -160.5t-65.5 -161.5t-172.5 -61.5t-172 61.5t-65 161.5t65 160.5t172 60.5zM608 1612q40 0 64 24t24 64q0 38 -24 62t-64 24t-64 -24t-24 -62q0 -40 24 -64t64 -24z" />
    <glyph glyph-name="tilde.case" 
d="M997 1743q0 -94 -36.5 -160t-91 -92t-115.5 -25.5t-113 29.5l-98 59q-25 15 -43 15.5t-27.5 -10t-13.5 -24.5t-4 -30h-215q0 94 36.5 160t91 92t115.5 25.5t113 -29.5l98 -59q25 -15 43 -15.5t27.5 10t13.5 24.5t4 30h215z" />
    </font>
</defs>
</svg>
