<?xml version="1.0" standalone="no"?>
<!DOCTYPE svg PUBLIC "-//W3C//DTD SVG 1.1//EN" "http://www.w3.org/Graphics/SVG/1.1/DTD/svg11.dtd" >
<svg xmlns="http://www.w3.org/2000/svg" xmlns:xlink="http://www.w3.org/1999/xlink" version="1.1">
<metadata>
Created by FontForge 20170731 at Fri Jul  1 11:02:01 2022
 By Aleksey,,,
Copyright (c) 2016 by Rene' Bieder. All rights reserved.
</metadata>
<defs>
<font id="Campton-LightItalic" horiz-adv-x="1228" >
  <font-face 
    font-family="Campton Light"
    font-weight="300"
    font-style="italic"
    font-stretch="normal"
    units-per-em="2048"
    panose-1="2 11 0 4 2 1 2 2 2 3"
    ascent="1577"
    descent="-471"
    x-height="936"
    cap-height="1393"
    bbox="-772 -477 3031 1960"
    underline-thickness="102"
    underline-position="-307"
    slope="-10"
    unicode-range="U+0020-FB02"
  />
<missing-glyph horiz-adv-x="1781" 
d="M205 1393h1372v-1393h-1372v1393zM1434 264v985h-985zM348 1120v-977h977z" />
    <glyph glyph-name="fi" unicode="fi" horiz-adv-x="1257" 
d="M1153 936l-164 -936h-100l149 848h-583l-150 -848h-98l147 848h-278l16 88h279l37 211q25 149 128 240.5t244 91.5q79 0 178 -27l-32 -88q-77 22 -150 22q-103 0 -177 -67t-93 -176l-37 -207h684z" />
    <glyph glyph-name="fl" unicode="fl" horiz-adv-x="1257" 
d="M1147 1454h100l-258 -1454h-100l149 848h-583l-150 -848h-98l147 848h-278l16 88h279l37 211q25 149 128 240.5t244 91.5q79 0 178 -27l-32 -88q-77 22 -150 22q-103 0 -177 -67t-93 -176l-37 -207h586z" />
    <glyph glyph-name=".notdef" horiz-adv-x="1781" 
d="M205 1393h1372v-1393h-1372v1393zM1434 264v985h-985zM348 1120v-977h977z" />
    <glyph glyph-name=".null" horiz-adv-x="0" 
 />
    <glyph glyph-name="nonmarkingreturn" horiz-adv-x="682" 
 />
    <glyph glyph-name="space" unicode=" " horiz-adv-x="563" 
 />
    <glyph glyph-name="exclam" unicode="!" horiz-adv-x="524" 
d="M479 1393l-188 -1035h-94l178 1035h104zM190 -16q-32 0 -53.5 21.5t-21.5 53.5t21.5 53t53.5 21t54 -21t22 -53t-22 -53.5t-54 -21.5z" />
    <glyph glyph-name="quotedbl" unicode="&#x22;" horiz-adv-x="661" 
d="M281 1413h90l-97 -541h-88zM602 1413h88l-94 -541h-90z" />
    <glyph glyph-name="numbersign" unicode="#" horiz-adv-x="1484" 
d="M1190 872l-174 -356h268l-14 -86h-297l-209 -430h-102l208 430h-460l-209 -430h-103l209 430h-225l14 86h254l174 356h-252l15 86h280l213 437h103l-213 -437h460l213 437h103l-213 -437h242l-15 -86h-270zM1087 872h-460l-174 -356h460z" />
    <glyph glyph-name="dollar" unicode="$" horiz-adv-x="1345" 
d="M850 1419q207 -8 329 -110.5t115 -278.5h-102q-2 139 -100.5 219t-280.5 80q-193 0 -310.5 -88t-117.5 -223q0 -94 67 -151.5t203 -84.5l189 -39q184 -36 266 -116t82 -217q0 -194 -156 -315.5t-416 -121.5h-22l-45 -249h-92l45 256q-199 26 -301 144.5t-92 315.5h102
q-6 -372 426 -372q207 0 324.5 87t117.5 228q0 103 -61 168.5t-215 95.5l-209 41q-328 67 -322 322q3 168 136.5 279t345.5 128l47 266h94z" />
    <glyph glyph-name="percent" unicode="%" horiz-adv-x="2283" 
d="M711 1423q140 0 227.5 -90.5t87.5 -230.5q0 -123 -62.5 -226t-166 -161t-222.5 -58q-140 0 -227.5 91t-87.5 233q0 122 63 224.5t166.5 160t221.5 57.5zM1657 1393l-920 -1393h-84l920 1393h84zM592 739q140 0 246 101.5t106 246.5q0 111 -70 183.5t-178 72.5
q-140 0 -247 -102t-107 -248q0 -109 71 -181.5t179 -72.5zM1780 735q140 0 228.5 -90.5t88.5 -230.5q0 -123 -63 -226t-166.5 -161t-222.5 -58q-140 0 -228 91t-88 233q0 122 63 224.5t166.5 160t221.5 57.5zM1659 51q141 0 247.5 101.5t106.5 246.5q0 111 -69 183.5
t-177 72.5q-141 0 -247.5 -102t-106.5 -248q0 -110 69 -182t177 -72z" />
    <glyph glyph-name="ampersand" unicode="&#x26;" horiz-adv-x="1499" 
d="M1106 272l-6 -8l256 -264h-137l-189 195q-234 -220 -508 -220q-192 0 -304 94t-112 246q0 84 32.5 159t87.5 131t123 97.5t145 65.5q-103 135 -103 254q0 171 130.5 286t320.5 115q158 0 246.5 -92.5t78.5 -259.5h-98q4 127 -62 194.5t-182 67.5q-140 0 -235.5 -87.5
t-95.5 -217.5q0 -36 8 -69t31 -72.5t42 -67.5t65.5 -79t74.5 -80.5t94 -96.5l231 -239l301 333h105zM541 66q232 0 432 188l-252 260q-110 113 -174 188q-152 -49 -246 -144.5t-94 -225.5q0 -119 90.5 -192.5t243.5 -73.5z" />
    <glyph glyph-name="quotesingle" unicode="'" horiz-adv-x="339" 
d="M283 1413h88l-97 -541h-88z" />
    <glyph glyph-name="parenleft" unicode="(" horiz-adv-x="749" 
d="M770 1413q-141 -104 -239.5 -215t-167.5 -255t-99 -318q-47 -241 10 -442.5t209 -356.5l-73 -66q-169 154 -232.5 387t-15.5 488q93 537 553 854z" />
    <glyph glyph-name="parenright" unicode=")" horiz-adv-x="749" 
d="M393 1489q169 -154 232.5 -387t15.5 -488q-93 -537 -553 -854l-55 76q213 158 337.5 344.5t168.5 444.5q47 241 -10.5 442t-209.5 356z" />
    <glyph glyph-name="asterisk" unicode="*" horiz-adv-x="817" 
d="M571 1143l263 63l16 -61l-260 -66l176 -176l-47 -47l-176 176l-66 -258l-63 17l67 262l-260 -68l-18 64l258 65l-170 170l47 47l170 -172l67 262l64 -18z" />
    <glyph glyph-name="plus" unicode="+" horiz-adv-x="1398" 
d="M1188 608h-414l-74 -411h-98l72 411h-414l16 94h414l74 412h98l-71 -412h413z" />
    <glyph glyph-name="comma" unicode="," horiz-adv-x="382" 
d="M-39 -295l158 291q-51 15 -51 63q0 31 21.5 52.5t53.5 21.5t54 -21.5t22 -52.5q0 -33 -49 -112l-141 -242h-68z" />
    <glyph glyph-name="hyphen" unicode="-" horiz-adv-x="1134" 
d="M244 518h661l19 92h-662z" />
    <glyph glyph-name="period" unicode="." horiz-adv-x="335" 
d="M96 -14q-32 0 -54 21t-22 52q0 32 22 54t54 22t54 -22t22 -54q0 -31 -22 -52t-54 -21z" />
    <glyph glyph-name="slash" unicode="/" horiz-adv-x="823" 
d="M903 1495l-874 -1823h-99l875 1823h98z" />
    <glyph glyph-name="zero" unicode="0" horiz-adv-x="1466" 
d="M903 1417q231 0 355 -151.5t124 -413.5q0 -184 -53.5 -345.5t-148.5 -278.5t-233.5 -185t-301.5 -68q-230 0 -355.5 153t-125.5 413q0 185 53.5 346t149 278t234.5 184.5t302 67.5zM662 70q183 0 324 103.5t215.5 279.5t74.5 395t-101 347t-290 128q-138 0 -254 -60
t-194.5 -164.5t-122.5 -246.5t-44 -305q0 -220 101 -348.5t291 -128.5z" />
    <glyph glyph-name="one" unicode="1" horiz-adv-x="1028" 
d="M522 88h375l-16 -88h-889l16 88h412l207 1188l-408 -141l17 94l460 164h56z" />
    <glyph glyph-name="two" unicode="2" horiz-adv-x="1142" 
d="M682 485l-463 -397h737l-16 -88h-907l10 55l561 480q192 164 254 230q107 113 127 223q6 34 6 71q0 121 -78.5 194.5t-220.5 73.5q-153 0 -267.5 -80.5t-152.5 -216.5h-100q43 177 187.5 282t342.5 105q184 0 290 -95.5t106 -250.5q0 -64 -15 -118.5t-41 -103t-81 -108
t-115.5 -114.5t-163.5 -142z" />
    <glyph glyph-name="three" unicode="3" horiz-adv-x="1198" 
d="M831 705q94 -37 145.5 -110.5t51.5 -174.5q0 -197 -147.5 -321t-384.5 -124q-204 0 -325.5 97t-109.5 254h101q-3 -118 88.5 -189t251.5 -71q185 0 306.5 96t121.5 246q0 114 -82.5 182.5t-222.5 68.5h-119l14 86h119q158 0 262.5 95.5t104.5 242.5q0 113 -78 178.5
t-215 65.5q-142 0 -242.5 -68t-136.5 -184h-103q41 157 174 249.5t320 92.5q178 0 279.5 -86.5t101.5 -234.5q0 -137 -74 -240t-201 -151z" />
    <glyph glyph-name="four" unicode="4" horiz-adv-x="1318" 
d="M1184 408l-17 -91h-237l-56 -317h-98l55 317h-761l12 64l612 1012h107l-592 -985h639l82 466h98l-82 -466h238z" />
    <glyph glyph-name="five" unicode="5" horiz-adv-x="1193" 
d="M1167 1300h-739l-109 -456h371q188 0 297 -96.5t109 -255.5q0 -106 -42.5 -201t-116.5 -164.5t-179.5 -110.5t-225.5 -41q-217 0 -338.5 105t-123.5 289h104q6 -143 103.5 -223t269.5 -80q191 0 319.5 120t128.5 289q0 126 -88 202.5t-243 76.5l-463 -2l153 641h828z" />
    <glyph glyph-name="six" unicode="6" horiz-adv-x="1282" 
d="M721 922q194 0 312 -109.5t118 -288.5q0 -155 -80 -281.5t-217 -197t-301 -70.5q-195 0 -312.5 110t-117.5 288q0 109 42.5 198.5t127.5 188.5l575 633h129l-454 -498q89 27 178 27zM567 61q129 0 239 56.5t175.5 159.5t65.5 229q0 145 -93.5 235t-248.5 90
q-188 0 -322 -112l-16 -19q-140 -143 -140 -317q0 -145 93 -233.5t247 -88.5z" />
    <glyph glyph-name="seven" unicode="7" horiz-adv-x="1028" 
d="M213 1393h944l-10 -64l-905 -1329h-125l884 1296h-804z" />
    <glyph glyph-name="eight" unicode="8" horiz-adv-x="1296" 
d="M907 735q117 -38 180.5 -116t63.5 -185q0 -201 -167 -330t-425 -129q-207 0 -326.5 94.5t-119.5 252.5q0 152 99.5 261t270.5 154q-91 36 -140.5 103t-49.5 161q0 117 70.5 212.5t190 149.5t261.5 54q176 0 283.5 -88.5t107.5 -228.5q0 -132 -81 -227.5t-218 -137.5z
M393 1006q0 -111 84 -175.5t221 -64.5q173 0 289.5 87.5t116.5 229.5q0 110 -83 180t-220 70q-168 0 -288 -95t-120 -232zM573 63q200 0 332.5 103.5t132.5 261.5q0 120 -95.5 193t-256.5 73q-201 0 -331 -99.5t-130 -256.5q0 -125 94 -200t254 -75z" />
    <glyph glyph-name="nine" unicode="9" horiz-adv-x="1282" 
d="M809 1417q195 0 312.5 -109.5t117.5 -287.5q0 -109 -42.5 -198.5t-127.5 -188.5l-575 -633h-129l454 498q-89 -27 -178 -27q-195 0 -312.5 109t-117.5 288q0 155 80 281.5t217 197t301 70.5zM995 692q140 143 140 318q0 145 -93 233t-247 88q-129 0 -239 -56.5
t-175.5 -159t-65.5 -228.5q0 -146 94 -236t248 -90q186 0 322 113z" />
    <glyph glyph-name="colon" unicode=":" horiz-adv-x="342" 
d="M244 807q-32 0 -54 21.5t-22 52.5q0 32 22 53.5t54 21.5t53.5 -21.5t21.5 -53.5q0 -31 -21.5 -52.5t-53.5 -21.5zM98 -14q-32 0 -53.5 21t-21.5 52q0 32 21.5 54t53.5 22t54 -22t22 -54q0 -31 -22 -52t-54 -21z" />
    <glyph glyph-name="semicolon" unicode=";" horiz-adv-x="385" 
d="M276 807q-32 0 -53.5 21.5t-21.5 52.5q0 32 21.5 53.5t53.5 21.5t54 -21.5t22 -53.5q0 -31 -22 -52.5t-54 -21.5zM-37 -295l158 291q-51 15 -51 63q0 31 21.5 52.5t53.5 21.5t54 -21.5t22 -52.5q0 -33 -49 -112l-141 -242h-68z" />
    <glyph glyph-name="less" unicode="&#x3c;" horiz-adv-x="1110" 
d="M78 565l18 103l938 419l-18 -108l-817 -371l686 -362l-17 -101z" />
    <glyph glyph-name="equal" unicode="=" horiz-adv-x="1460" 
d="M1300 913l-14 -94h-987l14 94h987zM1233 520l-16 -94h-988l17 94h987z" />
    <glyph glyph-name="greater" unicode="&#x3e;" horiz-adv-x="1110" 
d="M1075 668l-18 -103l-938 -420l18 109l817 371l-686 362l17 100z" />
    <glyph glyph-name="question" unicode="?" horiz-adv-x="1189" 
d="M729 1421q176 0 280.5 -102t104.5 -262q0 -127 -67 -234t-185 -171.5t-262 -67.5l-41 -211h-82l39 286h72q176 0 301 114t125 271q0 124 -81.5 205.5t-215.5 81.5q-117 0 -221 -68.5t-148 -179.5h-100q53 153 187 245.5t294 92.5zM461 133q31 0 53.5 -21t22.5 -53
t-22.5 -53.5t-53.5 -21.5q-32 0 -54 21.5t-22 53.5t22 53t54 21z" />
    <glyph glyph-name="at" unicode="@" horiz-adv-x="1959" 
d="M1128 1303q153 0 286 -53t226 -145t146 -219.5t53 -271.5q0 -104 -26 -198.5t-75.5 -170t-128 -120.5t-175.5 -45q-171 0 -201 141q-145 -151 -340 -151q-146 0 -238 94t-92 242q0 128 66.5 234.5t173.5 165t229 58.5q171 0 264 -121l17 88h92l-78 -432
q-21 -118 6.5 -178.5t114.5 -60.5q92 0 163 60t107.5 159t36.5 219q0 173 -81.5 316.5t-228.5 227t-329 83.5q-168 0 -332 -67.5t-289.5 -180t-202.5 -270.5t-77 -328q0 -179 82 -324.5t228 -229t327 -83.5q134 0 268 45t250 129l37 -70q-264 -184 -567 -184
q-152 0 -284.5 53t-226.5 145.5t-148 222.5t-54 279q0 155 54.5 300t151.5 260t222 201.5t273.5 133t299.5 46.5zM920 154q176 0 307 155q3 49 12 105l39 223q-38 70 -102 107.5t-144 37.5q-148 0 -261.5 -103.5t-113.5 -260.5q0 -118 74.5 -191t188.5 -73z" />
    <glyph glyph-name="A" unicode="A" horiz-adv-x="1523" 
d="M1257 0l-124 444h-750l-281 -444h-116l886 1395h101l395 -1395h-111zM444 541h662l-203 725z" />
    <glyph glyph-name="B" unicode="B" horiz-adv-x="1441" 
d="M997 723q138 -26 209.5 -100.5t71.5 -186.5q0 -193 -164.5 -314.5t-423.5 -121.5h-561l246 1393h549q182 0 288.5 -80.5t106.5 -214.5q0 -136 -85 -236.5t-237 -138.5zM463 1300l-96 -542h397q206 0 328 85.5t122 231.5q0 104 -82 164.5t-227 60.5h-442zM705 92
q208 0 338.5 94.5t130.5 241.5q0 114 -95 175t-272 61h-457l-100 -572h455z" />
    <glyph glyph-name="C" unicode="C" horiz-adv-x="1644" 
d="M786 76q202 0 371 108t246 285h108q-90 -222 -291.5 -358t-449.5 -136q-148 0 -272 55.5t-204 151.5t-114 230t-8 284q35 200 161.5 366t310 260.5t382.5 94.5q249 0 401.5 -134.5t163.5 -356.5h-108q-14 179 -141 286t-334 107q-129 0 -253 -48.5t-221 -131.5
t-166 -198.5t-92 -244.5q-30 -173 27 -315.5t184.5 -223.5t298.5 -81z" />
    <glyph glyph-name="D" unicode="D" horiz-adv-x="1550" 
d="M844 1393q284 0 452 -158t168 -416q0 -139 -42.5 -265.5t-121.5 -226.5t-185.5 -174t-239 -113.5t-277.5 -39.5h-469l246 1393h469zM618 96q207 0 376.5 91.5t267.5 253.5t98 362q0 222 -143.5 358.5t-385.5 136.5h-368l-213 -1202h368z" />
    <glyph glyph-name="E" unicode="E" horiz-adv-x="1345" 
d="M1309 1298h-846l-98 -557h763l-16 -94h-764l-98 -551h848l-19 -96h-950l246 1393h950z" />
    <glyph glyph-name="F" unicode="F" horiz-adv-x="1286" 
d="M1290 1298h-827l-105 -589h744l-17 -95h-743l-109 -614h-104l246 1393h932z" />
    <glyph glyph-name="G" unicode="G" horiz-adv-x="1689" 
d="M868 621l15 96h673l-126 -717h-89l54 340q-106 -170 -269.5 -267.5t-363.5 -97.5q-199 0 -347 96t-213 260.5t-30 360.5q36 202 163.5 369t311 261.5t381.5 94.5q234 0 393 -129.5t174 -345.5h-102q-18 177 -152 278t-327 101q-172 0 -330.5 -82.5t-267.5 -227
t-140 -319.5q-29 -169 25 -310t179.5 -223.5t297.5 -82.5q238 0 414.5 153t239.5 392h-564z" />
    <glyph glyph-name="H" unicode="H" horiz-adv-x="1538" 
d="M1384 1393h105l-246 -1393h-104l114 647h-905l-115 -647h-104l246 1393h104l-114 -654h905z" />
    <glyph glyph-name="I" unicode="I" horiz-adv-x="528" 
d="M479 1393l-246 -1393h-104l246 1393h104z" />
    <glyph glyph-name="J" unicode="J" horiz-adv-x="1261" 
d="M1225 1393l-160 -899q-42 -245 -196 -382t-373 -137q-197 0 -311.5 110t-110.5 294h104q2 -144 87 -225.5t245 -81.5q172 0 295 114t158 310l157 897h105z" />
    <glyph glyph-name="K" unicode="K" horiz-adv-x="1468" 
d="M1462 1393l-733 -639l565 -754h-133l-520 676l-340 -297l-68 -379h-104l246 1393h104l-151 -858l993 858h141z" />
    <glyph glyph-name="L" unicode="L" horiz-adv-x="1222" 
d="M250 94h794l-16 -94h-899l246 1393h104z" />
    <glyph glyph-name="M" unicode="M" horiz-adv-x="1740" 
d="M1690 1393l-246 -1393h-103l207 1167l-669 -870h-78l-363 881l-205 -1178h-104l246 1393h86l397 -969l746 969h86z" />
    <glyph glyph-name="N" unicode="N" horiz-adv-x="1585" 
d="M1432 1393h104l-246 -1393h-94l-747 1217l-216 -1217h-104l246 1393h82l760 -1229z" />
    <glyph glyph-name="O" unicode="O" horiz-adv-x="1726" 
d="M1028 1417q133 0 247.5 -47.5t194 -129.5t125 -196t45.5 -243q0 -164 -73 -317.5t-192 -264.5t-276.5 -177.5t-320.5 -66.5q-177 0 -317.5 81.5t-217.5 222t-77 313.5q0 164 73 317.5t192 264t276.5 177t320.5 66.5zM788 74q141 0 278 57.5t240 153.5t166.5 229.5
t63.5 276.5q0 148 -64.5 268t-184 190t-271.5 70q-142 0 -278.5 -57.5t-239 -153.5t-165.5 -229.5t-63 -276.5q0 -225 145 -376.5t373 -151.5z" />
    <glyph glyph-name="P" unicode="P" horiz-adv-x="1355" 
d="M840 1393q211 0 335.5 -105t124.5 -280q0 -151 -81 -272t-224 -188t-321 -67h-357l-84 -481h-104l246 1393h465zM698 575q214 0 356 118.5t142 299.5q0 139 -100 222t-271 83h-362l-127 -723h362z" />
    <glyph glyph-name="Q" unicode="Q" horiz-adv-x="1730" 
d="M1640 801q0 -228 -132.5 -425t-342.5 -304l281 -351l-80 -71l-301 377q-145 -52 -287 -52q-177 0 -317.5 81.5t-217.5 222t-77 313.5q0 164 73 317.5t192 264t276.5 177t320.5 66.5q133 0 247.5 -47.5t194 -129.5t125 -196t45.5 -243zM270 602q0 -225 145 -376.5
t373 -151.5q141 0 278 57.5t240 153.5t166.5 229.5t63.5 276.5q0 148 -64.5 268t-184 190t-271.5 70q-142 0 -278.5 -57.5t-239 -153.5t-165.5 -229.5t-63 -276.5z" />
    <glyph glyph-name="R" unicode="R" horiz-adv-x="1419" 
d="M1327 1024q0 -198 -137 -330t-359 -162l373 -532h-127l-362 526h-389l-93 -526h-104l246 1393h487q215 0 340 -98.5t125 -270.5zM463 1298l-121 -677h391q140 0 251 46.5t176 136t65 206.5q0 134 -101.5 211t-271.5 77h-389z" />
    <glyph glyph-name="S" unicode="S" horiz-adv-x="1345" 
d="M821 1419q220 0 350 -103t123 -286h-102q-2 139 -100.5 219t-280.5 80q-193 0 -310.5 -88t-117.5 -223q0 -94 67 -151.5t203 -84.5l189 -39q184 -36 266 -116t82 -217q0 -194 -156 -315.5t-416 -121.5q-253 0 -386 121t-121 346h102q-6 -372 426 -372q207 0 324.5 87
t117.5 228q0 103 -61 168.5t-215 95.5l-209 41q-328 67 -322 322q2 121 73.5 214.5t195 144t278.5 50.5z" />
    <glyph glyph-name="T" unicode="T" horiz-adv-x="1290" 
d="M1393 1393l-19 -95h-532l-230 -1298h-102l229 1298h-534l18 95h1170z" />
    <glyph glyph-name="U" unicode="U" horiz-adv-x="1558" 
d="M1522 1393l-144 -811q-48 -273 -235.5 -441t-454.5 -168q-171 0 -290.5 80.5t-167 219t-17.5 309.5l141 811h105l-144 -811q-25 -146 12 -262t134.5 -183t240.5 -67q215 0 374 145t198 367l143 811h105z" />
    <glyph glyph-name="V" unicode="V" horiz-adv-x="1505" 
d="M1487 1393h121l-895 -1403h-99l-399 1403h111l358 -1260z" />
    <glyph glyph-name="W" unicode="W" horiz-adv-x="2101" 
d="M2089 1393h115l-731 -1403h-101l-192 1216l-631 -1216h-100l-234 1403h107l202 -1231l639 1231h92l195 -1237z" />
    <glyph glyph-name="X" unicode="X" horiz-adv-x="1345" 
d="M1430 1393l-648 -701l424 -692h-123l-383 614l-594 -614h-135l670 698l-399 695h129l350 -615l569 615h140z" />
    <glyph glyph-name="Y" unicode="Y" horiz-adv-x="1335" 
d="M1460 1393l-737 -881l-92 -512h-105l90 510l-426 883h115l375 -775l651 775h129z" />
    <glyph glyph-name="Z" unicode="Z" horiz-adv-x="1341" 
d="M1354 1393l-11 -60l-1110 -1239h893l-16 -94h-1059l10 59l1123 1239h-881l16 95h1035z" />
    <glyph glyph-name="bracketleft" unicode="[" horiz-adv-x="722" 
d="M475 1401l-272 -1546h276l-14 -97h-377l305 1737h377l-18 -94h-277z" />
    <glyph glyph-name="backslash" unicode="\" horiz-adv-x="823" 
d="M84 1495h98l555 -1823h-98z" />
    <glyph glyph-name="bracketright" unicode="]" horiz-adv-x="722" 
d="M303 -145l272 1546h-276l14 96h377l-305 -1737h-377l19 95h276z" />
    <glyph glyph-name="asciicircum" unicode="^" horiz-adv-x="788" 
d="M586 1393l192 -475h-94l-158 395l-297 -395h-96l363 475h90z" />
    <glyph glyph-name="underscore" unicode="_" horiz-adv-x="1366" 
d="M-49 -377l16 88h1163l-16 -88h-1163z" />
    <glyph glyph-name="grave" unicode="`" 
d="M549 1446l172 -287h-98l-187 287h113z" />
    <glyph glyph-name="a" unicode="a" horiz-adv-x="1271" 
d="M1069 936h100l-165 -936h-101l23 123q-167 -148 -387 -148q-182 0 -297 118.5t-115 301.5q0 150 83.5 280.5t218.5 206.5t284 76q221 0 334 -147zM948 250l76 434q-45 91 -127 138.5t-190 47.5q-122 0 -233 -62.5t-179 -170t-68 -229.5q0 -149 94 -245.5t242 -96.5
q226 0 385 184z" />
    <glyph glyph-name="b" unicode="b" horiz-adv-x="1263" 
d="M725 958q179 0 294.5 -118.5t115.5 -298.5q0 -112 -49.5 -217.5t-130 -181.5t-187.5 -121.5t-219 -45.5q-217 0 -334 152l-22 -127h-101l256 1454h101l-113 -643q166 147 389 147zM555 66q91 0 178.5 37.5t153 99.5t105.5 147.5t40 177.5q0 147 -93.5 244.5t-240.5 97.5
q-226 0 -385 -182l-75 -436q95 -186 317 -186z" />
    <glyph glyph-name="c" unicode="c" horiz-adv-x="1181" 
d="M549 68q124 0 223 62t143 167h103q-55 -146 -188.5 -234t-297.5 -88q-143 0 -243 64.5t-140 176.5t-16 251q37 209 199.5 350t374.5 141q165 0 266 -87t106 -232h-104q-8 105 -84.5 167t-200.5 62q-170 0 -298 -115t-159 -286q-30 -170 57.5 -284.5t258.5 -114.5z" />
    <glyph glyph-name="d" unicode="d" horiz-adv-x="1273" 
d="M1163 1454h101l-258 -1454h-101l23 125q-169 -150 -387 -150q-181 0 -297.5 121t-116.5 301q0 149 83.5 279.5t218.5 206t284 75.5q220 0 336 -147zM950 252l76 434q-96 184 -317 184q-122 0 -233 -62.5t-179 -169.5t-68 -228q0 -145 94.5 -244.5t241.5 -99.5
q108 0 207 47.5t178 138.5z" />
    <glyph glyph-name="e" unicode="e" horiz-adv-x="1202" 
d="M1063 436h-834q-19 -160 69 -265t255 -105q103 0 193 43.5t133 113.5h110q-59 -114 -183.5 -181t-268.5 -67q-143 0 -244 66.5t-142 178t-18 247.5q35 208 197.5 349.5t371.5 141.5q205 0 305 -143.5t56 -378.5zM692 872q-159 0 -282.5 -101t-165.5 -259h729
q19 165 -54.5 262.5t-226.5 97.5z" />
    <glyph glyph-name="f" unicode="f" horiz-adv-x="782" 
d="M776 1386q-103 0 -177 -67t-93 -176l-37 -207h383l-16 -88h-381l-150 -848h-98l147 848h-278l16 88h279l37 211q25 149 128 240.5t244 91.5q79 0 178 -27l-32 -88q-77 22 -150 22z" />
    <glyph glyph-name="g" unicode="g" horiz-adv-x="1273" 
d="M1071 936h98l-168 -954q-35 -208 -183.5 -333.5t-356.5 -125.5q-177 0 -285 91t-110 239h102q6 -107 89 -174.5t218 -67.5q163 0 281 101.5t147 269.5l29 159q-178 -151 -404 -151q-179 0 -289 118t-110 295q0 112 46.5 215.5t123.5 178.5t182 119.5t217 44.5
q111 0 202 -39.5t149 -110.5zM553 80q109 0 214.5 47.5t186.5 140.5l74 424q-50 90 -137.5 135t-196.5 45q-190 0 -326.5 -135t-136.5 -321q0 -144 87.5 -240t234.5 -96z" />
    <glyph glyph-name="h" unicode="h" horiz-adv-x="1187" 
d="M733 961q176 0 265.5 -110t54.5 -300l-97 -551h-100l96 547q29 153 -40.5 237t-209.5 84q-105 0 -208.5 -48t-180.5 -136l-120 -684h-101l256 1454h101l-113 -645q78 73 181 112.5t216 39.5z" />
    <glyph glyph-name="i" unicode="i" horiz-adv-x="526" 
d="M410 1223q-32 0 -54 21.5t-22 53.5t22 53t54 21t53.5 -21t21.5 -53t-21.5 -53.5t-53.5 -21.5zM297 936h100l-164 -936h-100z" />
    <glyph glyph-name="j" unicode="j" horiz-adv-x="538" 
d="M422 1223q-33 0 -55.5 21.5t-22.5 53.5t22.5 53t55.5 21q31 0 53.5 -21t22.5 -53t-22.5 -53.5t-53.5 -21.5zM414 936l-183 -1045q-34 -196 -121.5 -281.5t-265.5 -86.5l11 88q125 5 187.5 65.5t88.5 206.5l184 1053h99z" />
    <glyph glyph-name="k" unicode="k" horiz-adv-x="1157" 
d="M1077 936l-493 -393l415 -543h-131l-366 477l-250 -198l-49 -279h-99l256 1454h101l-185 -1040l666 522h135z" />
    <glyph glyph-name="l" unicode="l" horiz-adv-x="471" 
d="M360 1454h101l-258 -1454h-101z" />
    <glyph glyph-name="m" unicode="m" horiz-adv-x="1845" 
d="M1386 961q182 0 270.5 -108.5t53.5 -301.5l-96 -551h-101l97 547q28 156 -39.5 238.5t-206.5 82.5q-100 0 -192.5 -47.5t-161.5 -144.5q0 -63 -11 -125l-96 -551h-100l96 547q29 157 -32 239t-197 82q-99 0 -192 -43t-165 -133l-123 -692h-98l166 936h98l-22 -123
q157 148 364 148q116 0 190.5 -48t102.5 -137q164 185 395 185z" />
    <glyph glyph-name="n" unicode="n" horiz-adv-x="1185" 
d="M731 961q176 0 265.5 -110t54.5 -300l-97 -551h-98l96 547q27 153 -42 237t-208 84q-106 0 -210 -47.5t-181 -134.5l-121 -686h-98l166 936h98l-22 -125q166 150 397 150z" />
    <glyph glyph-name="o" unicode="o" horiz-adv-x="1267" 
d="M721 961q183 0 300.5 -119.5t117.5 -300.5q0 -91 -32 -178t-88.5 -156t-130.5 -122t-163 -81.5t-180 -28.5q-185 0 -301.5 118.5t-116.5 299.5q0 152 83 283.5t220 208t291 76.5zM561 68q91 0 178.5 37t152.5 98t104.5 146t39.5 177q0 145 -93 243.5t-238 98.5
q-123 0 -233.5 -62.5t-177.5 -169.5t-67 -230q0 -146 93 -242t241 -96z" />
    <glyph glyph-name="p" unicode="p" horiz-adv-x="1263" 
d="M723 961q180 0 296 -121t116 -301q0 -112 -49 -217t-129.5 -180.5t-187.5 -121t-220 -45.5q-220 0 -336 150l-102 -578h-99l246 1389h98l-22 -127q168 152 389 152zM553 63q122 0 233 63.5t178.5 171t67.5 228.5q0 145 -94.5 245.5t-241.5 100.5q-108 0 -207 -48
t-178 -140l-75 -432q46 -92 127.5 -140.5t189.5 -48.5z" />
    <glyph glyph-name="q" unicode="q" horiz-adv-x="1271" 
d="M1069 936h100l-245 -1387h-99l101 576q-169 -150 -387 -150q-181 0 -296.5 120t-115.5 300q0 150 83.5 281.5t218.5 208t284 76.5q219 0 334 -150zM563 63q108 0 207 48.5t178 140.5l76 432q-45 92 -127 140t-190 48q-122 0 -233 -63t-179 -171t-68 -230q0 -147 94 -246
t242 -99z" />
    <glyph glyph-name="r" unicode="r" horiz-adv-x="704" 
d="M324 754q83 96 191 150t224 54l-16 -94q-120 -2 -230 -64.5t-192 -176.5l-111 -623h-98l166 936h98z" />
    <glyph glyph-name="s" unicode="s" horiz-adv-x="1095" 
d="M195 279q6 -106 85 -162t224 -56t231 54.5t86 152.5q0 125 -166 154l-200 33q-117 22 -178.5 70.5t-61.5 142.5q0 133 116 213t296 80q108 0 190 -30t129.5 -96t38.5 -161h-92q6 100 -65.5 152.5t-209.5 52.5q-140 0 -221.5 -52.5t-81.5 -140.5q0 -59 42.5 -94.5
t136.5 -52.5l184 -33q52 -10 89 -23t75 -37t58 -65t20 -98q0 -141 -117 -224.5t-307 -83.5q-180 0 -289 78t-109 226h97z" />
    <glyph glyph-name="t" unicode="t" horiz-adv-x="866" 
d="M449 848l-91 -516q-22 -121 23.5 -192.5t146.5 -71.5q89 0 168 36l-2 -100q-115 -31 -188 -31q-138 0 -207 100t-41 259l90 516h-266l14 88h269l61 350h100l-61 -350h356l-14 -88h-358z" />
    <glyph glyph-name="u" unicode="u" horiz-adv-x="1208" 
d="M995 936h99l-164 -936h-101l23 125q-79 -72 -183 -111t-214 -39q-176 0 -265.5 110t-56.5 300l98 551h99l-97 -547q-27 -153 42.5 -237t209.5 -84q105 0 209 47.5t180 134.5z" />
    <glyph glyph-name="v" unicode="v" horiz-adv-x="1167" 
d="M1055 936h108l-608 -936h-104l-287 936h106l250 -811z" />
    <glyph glyph-name="w" unicode="w" horiz-adv-x="1585" 
d="M1473 936h108l-510 -936h-102l-123 780l-397 -780h-95l-190 936h106l150 -786l407 786h88l123 -793z" />
    <glyph glyph-name="x" unicode="x" horiz-adv-x="1081" 
d="M1087 936l-475 -469l312 -467h-121l-268 399l-412 -399h-129l483 469l-303 467h121l260 -393l403 393h129z" />
    <glyph glyph-name="y" unicode="y" horiz-adv-x="1222" 
d="M1102 936h115l-885 -1389h-117l262 410l-313 979h108l273 -873z" />
    <glyph glyph-name="z" unicode="z" horiz-adv-x="1005" 
d="M981 936l-10 -62l-785 -788h645l-16 -86h-788l10 57l784 793h-620l16 86h764z" />
    <glyph glyph-name="braceleft" unicode="{" horiz-adv-x="731" 
d="M477 932q-21 -128 -66.5 -198t-131.5 -99q76 -29 97.5 -99.5t-3.5 -195.5l-41 -244q-20 -116 27 -186t147 -70l-17 -96q-143 0 -214.5 97t-43.5 255l43 242q25 140 -15 196t-159 56l17 90q119 0 178 56.5t84 197.5l43 242q28 158 133 254t248 96l-17 -96q-97 0 -171 -74
t-93 -180z" />
    <glyph glyph-name="bar" unicode="|" horiz-adv-x="522" 
d="M393 1495h96l-321 -1823h-96z" />
    <glyph glyph-name="braceright" unicode="}" horiz-adv-x="729" 
d="M311 340q21 128 67 198t132 99q-76 29 -97.5 99.5t3.5 195.5l41 244q20 116 -27 186t-147 70l16 96q143 0 214.5 -97t43.5 -255l-43 -242q-25 -140 15 -196t159 -56l-16 -90q-119 0 -178 -56.5t-84 -197.5l-43 -242q-28 -158 -133 -254t-248 -96l16 96q97 0 171 74
t93 180z" />
    <glyph glyph-name="asciitilde" unicode="~" horiz-adv-x="950" 
d="M870 801q0 -73 -32.5 -122t-79.5 -65.5t-98 -12t-91 31.5l-139 94q-39 22 -79 23.5t-69.5 -28.5t-29.5 -83h-90q0 74 32.5 123t80 65.5t99 12t91.5 -30.5l137 -94q40 -23 79.5 -24.5t69 28.5t29.5 82h90z" />
    <glyph glyph-name="exclamdown" unicode="&#xa1;" horiz-adv-x="526" 
d="M338 965q32 0 54 -22t22 -54t-22 -53t-54 -21t-54 21t-22 53t22 54t54 22zM49 -444l189 1034h94l-178 -1034h-105z" />
    <glyph glyph-name="cent" unicode="&#xa2;" horiz-adv-x="1181" 
d="M549 68q124 0 223 62t143 167h103q-54 -141 -180.5 -228.5t-284.5 -93.5l-43 -247h-94l45 252q-182 25 -272 160t-56 327q34 190 174 326t328 161l47 273h92l-47 -269q157 -6 252 -92.5t100 -226.5h-104q-8 105 -84.5 167t-200.5 62q-170 0 -298 -115t-159 -286
q-30 -170 57.5 -284.5t258.5 -114.5z" />
    <glyph glyph-name="sterling" unicode="&#xa3;" horiz-adv-x="1302" 
d="M887 1423q194 0 300.5 -108t94.5 -289h-102q8 140 -76 223.5t-234 83.5q-167 0 -286 -101.5t-148 -268.5l-51 -287h518l-16 -90h-518l-86 -496h823l-16 -90h-1090l18 90h164l86 496h-164l17 90h164l49 287q37 207 189 333.5t364 126.5z" />
    <glyph glyph-name="yen" unicode="&#xa5;" horiz-adv-x="1335" 
d="M1460 1393l-735 -879h391l-16 -82h-391l-29 -151h393l-14 -80h-393l-35 -201h-105l35 201h-379l15 80h378l29 151h-379l15 82h374l-424 879h115l375 -775l651 775h129z" />
    <glyph glyph-name="brokenbar" unicode="&#xa6;" horiz-adv-x="522" 
d="M489 1495l-141 -807h-96l141 807h96zM311 479l-143 -807h-96l143 807h96z" />
    <glyph glyph-name="section" unicode="&#xa7;" horiz-adv-x="1107" 
d="M1057 1085h-105q5 111 -64 174.5t-196 63.5q-133 0 -222 -67t-89 -181q0 -65 52 -113t165 -106l184 -96q113 -59 167.5 -122t54.5 -144q0 -114 -74.5 -189t-184.5 -104q84 -77 84 -174q0 -160 -120.5 -256.5t-305.5 -96.5q-168 0 -263.5 88.5t-88.5 241.5h105
q-5 -111 64 -174t196 -63q133 0 222 65.5t89 181.5q0 66 -45.5 111t-171.5 108l-184 95q-115 58 -168.5 121t-53.5 145q0 116 75.5 191t185.5 104q-86 79 -86 174q0 158 120.5 254t305.5 96q169 0 263.5 -88t88.5 -240zM723 682l-180 94q-68 38 -84 47q-104 -5 -178 -63
t-74 -154q0 -56 41 -102.5t137 -97.5l180 -93q28 -13 86 -47q104 6 177 63t73 152q0 57 -41.5 104.5t-136.5 96.5z" />
    <glyph glyph-name="dieresis" unicode="&#xa8;" 
d="M479 1317q32 0 55 -22t23 -54t-23 -54t-55 -22q-34 0 -56 22t-22 54t22 54t56 22zM838 1317q34 0 55.5 -21.5t21.5 -54.5t-21.5 -54.5t-55.5 -21.5q-32 0 -55 22t-23 54t23 54t55 22z" />
    <glyph glyph-name="copyright" unicode="&#xa9;" horiz-adv-x="1779" 
d="M930 1423q150 0 287 -55.5t238 -151.5t160.5 -231.5t59.5 -288.5t-59.5 -288.5t-160.5 -231.5t-238 -151.5t-287 -55.5q-201 0 -372 94t-272.5 262t-101.5 371t101.5 371t272.5 262t372 94zM928 43q177 0 330.5 85.5t246 236.5t92.5 331q0 181 -92.5 332.5t-246 236.5
t-330.5 85q-133 0 -255 -50.5t-212.5 -137t-144.5 -208.5t-54 -258q0 -180 91.5 -331t244.5 -236.5t330 -85.5zM930 1008q-126 0 -215.5 -91.5t-89.5 -220.5q0 -130 89.5 -221.5t215.5 -91.5q98 0 173.5 54t100.5 141h84q-28 -119 -128 -195t-230 -76q-159 0 -272 113.5
t-113 275.5q0 161 113 274t272 113q131 0 230.5 -75t127.5 -195h-84q-25 87 -100.5 141t-173.5 54z" />
    <glyph glyph-name="ordfeminine" unicode="&#xaa;" horiz-adv-x="724" 
d="M520 1405q122 0 188.5 -79t43.5 -206l-62 -352h-76l13 72q-115 -90 -242 -90q-102 0 -161.5 45t-59.5 123q0 91 71 146.5t203 55.5h238q17 96 -29.5 157.5t-138.5 61.5q-69 0 -121 -34.5t-72 -98.5h-77q25 96 104 147.5t178 51.5zM403 817q121 0 236 88l27 154h-240
q-93 0 -139.5 -36t-46.5 -93q0 -52 43 -82.5t120 -30.5z" />
    <glyph glyph-name="guillemotleft" unicode="&#xab;" horiz-adv-x="856" 
d="M369 817h104l-289 -307l183 -293h-105l-182 299zM682 817h104l-288 -307l182 -293h-105l-182 299z" />
    <glyph glyph-name="registered" unicode="&#xae;" horiz-adv-x="1124" 
d="M655 1421q126 0 233.5 -58.5t171.5 -164t64 -233.5t-64 -233.5t-171.5 -164.5t-233.5 -59q-194 0 -332.5 131.5t-138.5 325.5q0 128 64 233.5t172 164t235 58.5zM653 569q165 0 285.5 115.5t120.5 280.5t-120.5 280t-285.5 115q-163 0 -283 -115t-120 -280t120 -280.5
t283 -115.5zM852 1055q0 -60 -40.5 -100t-104.5 -48l155 -174h-67l-154 172h-98v-172h-54v475h193q72 0 121 -42.5t49 -110.5zM543 1157v-203h139q47 0 81 29t34 72q0 45 -34 73.5t-81 28.5h-139z" />
    <glyph glyph-name="macron" unicode="&#xaf;" 
d="M373 1276h567l-14 -76h-568z" />
    <glyph glyph-name="degree" unicode="&#xb0;" horiz-adv-x="1009" 
d="M614 1423q144 0 241 -94.5t97 -234.5t-96.5 -234t-241.5 -94q-142 0 -238.5 94t-96.5 234t96.5 234.5t238.5 94.5zM614 848q104 0 178 71.5t74 174.5q0 104 -73.5 176.5t-178.5 72.5t-178.5 -72.5t-73.5 -176.5q0 -103 74 -174.5t178 -71.5z" />
    <glyph glyph-name="plusminus" unicode="&#xb1;" horiz-adv-x="1398" 
d="M1212 758l-16 -94h-412l-61 -342h-98l59 342h-414l17 94h415l60 346h100l-61 -346h411zM188 195h926l-18 -95h-926z" />
    <glyph glyph-name="uni00B2" unicode="&#xb2;" horiz-adv-x="731" 
d="M520 907l-233 -194h389l-12 -72h-531l8 45l316 262q65 53 93.5 77.5t61 60t43.5 64.5t11 64q0 59 -41 96.5t-111 37.5q-79 0 -133.5 -41.5t-73.5 -112.5h-82q25 103 103.5 164t193.5 61q107 0 167.5 -53.5t60.5 -136.5q0 -79 -49 -145t-181 -177z" />
    <glyph glyph-name="uni00B3" unicode="&#xb3;" horiz-adv-x="753" 
d="M598 1028q115 -42 115 -158q0 -105 -85 -173t-220 -68q-122 0 -192 55t-66 147h83q0 -59 47 -94t132 -35q96 0 158.5 46.5t62.5 119.5q0 57 -44.5 90t-121.5 33l10 51l2 19q82 0 137.5 47t55.5 117q0 56 -40.5 89.5t-113.5 33.5q-74 0 -125.5 -34.5t-70.5 -92.5h-82
q26 91 104 145.5t186 54.5q103 0 161.5 -50.5t58.5 -133.5q0 -75 -40 -129.5t-112 -79.5zM414 1061h65l-12 -70h-68z" />
    <glyph glyph-name="acute" unicode="&#xb4;" 
d="M807 1446h113l-238 -287h-96z" />
    <glyph glyph-name="paragraph" unicode="&#xb6;" horiz-adv-x="1630" 
d="M578 1393h725v-1721h-103v1631h-317v-1631h-103v817h-202q-209 0 -349.5 127t-140.5 328q0 199 140.5 324t349.5 125zM780 1303h-202q-165 0 -276.5 -100t-111.5 -259q0 -160 111 -260t277 -100h202v719z" />
    <glyph glyph-name="periodcentered" unicode="&#xb7;" horiz-adv-x="337" 
d="M182 469q-32 0 -54 21.5t-22 52.5q0 32 22 53.5t54 21.5t54 -21.5t22 -53.5q0 -31 -22 -52.5t-54 -21.5z" />
    <glyph glyph-name="cedilla" unicode="&#xb8;" 
d="M606 -158l-157 -272h-93l148 272h102z" />
    <glyph glyph-name="uni00B9" unicode="&#xb9;" horiz-adv-x="616" 
d="M406 715h212l-12 -72h-522l12 72h230l106 600l-227 -72l12 74l268 88h43z" />
    <glyph glyph-name="ordmasculine" unicode="&#xba;" horiz-adv-x="796" 
d="M573 1405q123 0 202 -80t79 -201q0 -102 -56 -191t-148 -140.5t-193 -51.5q-123 0 -201 81t-78 204q0 155 119 267t276 112zM469 813q121 0 212 90t91 211q0 93 -59 156t-152 63q-122 0 -212.5 -88.5t-90.5 -210.5q0 -94 58.5 -157.5t152.5 -63.5z" />
    <glyph glyph-name="guillemotright" unicode="&#xbb;" horiz-adv-x="856" 
d="M193 215h-105l289 307l-182 293h104l182 -299zM504 215h-105l289 307l-182 293h104l183 -299z" />
    <glyph glyph-name="onequarter" unicode="&#xbc;" horiz-adv-x="1751" 
d="M606 635h-522l12 72h230l106 600l-227 -72l12 74l268 88h43l-122 -690h212zM1294 1393h84l-919 -1393h-84zM1620 242l-14 -76h-129l-29 -166h-80l29 166h-434l10 53l340 543h86l-322 -520h332l43 243h80l-43 -243h131z" />
    <glyph glyph-name="onehalf" unicode="&#xbd;" horiz-adv-x="1748" 
d="M606 635h-522l12 72h230l106 600l-227 -72l12 74l268 88h43l-122 -690h212zM1288 1393h84l-919 -1393h-84zM1427 266l-233 -194h389l-12 -72h-531l9 45l315 262q65 53 93.5 77.5t61 60t43.5 64.5t11 64q0 59 -41 96.5t-111 37.5q-79 0 -133.5 -41.5t-73.5 -112.5h-81
q25 103 103.5 164t193.5 61q107 0 167 -53.5t60 -136.5q0 -79 -49 -145t-181 -177z" />
    <glyph glyph-name="threequarters" unicode="&#xbe;" horiz-adv-x="1751" 
d="M713 870q0 -105 -85 -173t-220 -68q-122 0 -192 55t-66 147h83q0 -59 47 -94t132 -35q96 0 158.5 46.5t62.5 119.5q0 57 -44.5 90t-121.5 33l10 51l2 19q82 0 137.5 47t55.5 117q0 56 -40.5 89.5t-113.5 33.5q-74 0 -125.5 -34.5t-70.5 -92.5h-82q26 91 104 145.5
t186 54.5q103 0 161.5 -50.5t58.5 -133.5q0 -75 -40 -129.5t-112 -79.5q115 -42 115 -158zM1292 1393h84l-919 -1393h-84zM414 1061h65l-12 -70h-68zM1620 242l-14 -76h-129l-29 -166h-80l29 166h-434l10 53l340 543h86l-322 -520h332l43 243h80l-43 -243h131z" />
    <glyph glyph-name="questiondown" unicode="&#xbf;" horiz-adv-x="1189" 
d="M733 975q-31 0 -53.5 21t-22.5 53t22.5 53.5t53.5 21.5q32 0 54 -21.5t22 -53.5t-22 -53t-54 -21zM465 -313q-176 0 -280.5 102t-104.5 262q0 127 67 234t185 171.5t262 67.5l41 211h82l-39 -286h-72q-176 0 -301 -114t-125 -272q0 -124 81.5 -205t215.5 -81
q117 0 221 68.5t148 179.5h100q-53 -153 -187 -245.5t-294 -92.5z" />
    <glyph glyph-name="Agrave" unicode="&#xc0;" horiz-adv-x="1523" 
d="M989 1554h-98l-186 287h112zM1257 0l-124 444h-750l-281 -444h-116l886 1395h101l395 -1395h-111zM444 541h662l-203 725z" />
    <glyph glyph-name="Aacute" unicode="&#xc1;" horiz-adv-x="1523" 
d="M1233 1841l-238 -287h-96l221 287h113zM1257 0l-124 444h-750l-281 -444h-116l886 1395h101l395 -1395h-111zM444 541h662l-203 725z" />
    <glyph glyph-name="Acircumflex" unicode="&#xc2;" horiz-adv-x="1523" 
d="M1006 1790l-250 -229h-113l309 288h119l203 -288h-100zM1257 0l-124 444h-750l-281 -444h-116l886 1395h101l395 -1395h-111zM444 541h662l-203 725z" />
    <glyph glyph-name="Atilde" unicode="&#xc3;" horiz-adv-x="1523" 
d="M727 1642h-74q-1 62 27.5 103t71 54.5t90 7.5t86.5 -31l73 -47q67 -45 121 -25t54 92h73q1 -63 -25 -105.5t-66.5 -57.5t-89 -8t-93.5 36l-74 47q-60 43 -117 23t-57 -89zM1257 0l-124 444h-750l-281 -444h-116l886 1395h101l395 -1395h-111zM444 541h662l-203 725z" />
    <glyph glyph-name="Adieresis" unicode="&#xc4;" horiz-adv-x="1523" 
d="M786 1591q-34 0 -55.5 21.5t-21.5 54.5t21.5 54.5t55.5 21.5q32 0 55 -22t23 -54t-23 -54t-55 -22zM1145 1591q-32 0 -55 22t-23 54t23 54t55 22q34 0 56 -22t22 -54t-22 -54t-56 -22zM1257 0l-124 444h-750l-281 -444h-116l886 1395h101l395 -1395h-111zM444 541h662
l-203 725z" />
    <glyph glyph-name="Aring" unicode="&#xc5;" horiz-adv-x="1523" 
d="M967 1585q-85 0 -140 52.5t-55 134.5t55 135t140 53q83 0 137.5 -53t54.5 -135t-54.5 -134.5t-137.5 -52.5zM967 1898q-54 0 -90.5 -36.5t-36.5 -89.5q0 -54 36.5 -89.5t90.5 -35.5t89.5 35.5t35.5 89.5q0 53 -35.5 89.5t-89.5 36.5zM1257 0l-124 444h-750l-281 -444
h-116l886 1395h101l395 -1395h-111zM444 541h662l-203 725z" />
    <glyph glyph-name="AE" unicode="&#xc6;" horiz-adv-x="2404" 
d="M2370 1298h-846l-99 -557h764l-16 -94h-764l-98 -551h848l-19 -96h-950l78 444h-693l-450 -444h-139l1417 1393h983zM672 541h614l129 733z" />
    <glyph glyph-name="Ccedilla" unicode="&#xc7;" horiz-adv-x="1644" 
d="M786 76q202 0 371 108t246 285h108q-90 -222 -291.5 -358t-449.5 -136q-148 0 -272 55.5t-204 151.5t-114 230t-8 284q35 200 161.5 366t310 260.5t382.5 94.5q249 0 401.5 -134.5t163.5 -356.5h-108q-14 179 -141 286t-334 107q-129 0 -253 -48.5t-221 -131.5
t-166 -198.5t-92 -244.5q-30 -173 27 -315.5t184.5 -223.5t298.5 -81zM498 -430l147 272h103l-158 -272h-92z" />
    <glyph glyph-name="Egrave" unicode="&#xc8;" horiz-adv-x="1345" 
d="M913 1554h-98l-186 287h112zM1309 1298h-846l-98 -557h763l-16 -94h-764l-98 -551h848l-19 -96h-950l246 1393h950z" />
    <glyph glyph-name="Eacute" unicode="&#xc9;" horiz-adv-x="1345" 
d="M1157 1841l-237 -287h-97l221 287h113zM1309 1298h-846l-98 -557h763l-16 -94h-764l-98 -551h848l-19 -96h-950l246 1393h950z" />
    <glyph glyph-name="Ecircumflex" unicode="&#xca;" horiz-adv-x="1345" 
d="M930 1790l-250 -229h-113l310 288h118l203 -288h-100zM1309 1298h-846l-98 -557h763l-16 -94h-764l-98 -551h848l-19 -96h-950l246 1393h950z" />
    <glyph glyph-name="Edieresis" unicode="&#xcb;" horiz-adv-x="1345" 
d="M711 1591q-34 0 -56 22t-22 54t22 54t56 22q32 0 54.5 -22t22.5 -54t-22.5 -54t-54.5 -22zM1069 1591q-32 0 -55 22t-23 54t23 54t55 22q34 0 56 -22t22 -54t-22 -54t-56 -22zM1309 1298h-846l-98 -557h763l-16 -94h-764l-98 -551h848l-19 -96h-950l246 1393h950z" />
    <glyph glyph-name="Igrave" unicode="&#xcc;" horiz-adv-x="528" 
d="M324 1841l172 -287h-99l-186 287h113zM479 1393l-246 -1393h-104l246 1393h104z" />
    <glyph glyph-name="Iacute" unicode="&#xcd;" horiz-adv-x="528" 
d="M627 1841h112l-237 -287h-96zM479 1393l-246 -1393h-104l246 1393h104z" />
    <glyph glyph-name="Icircumflex" unicode="&#xce;" horiz-adv-x="528" 
d="M680 1561l-168 229l-250 -229h-112l309 288h119l202 -288h-100zM479 1393l-246 -1393h-104l246 1393h104z" />
    <glyph glyph-name="Idieresis" unicode="&#xcf;" horiz-adv-x="528" 
d="M293 1743q32 0 55 -22t23 -54t-23 -54t-55 -22q-34 0 -56 22t-22 54t22 54t56 22zM651 1743q34 0 56 -22t22 -54t-22 -54t-56 -22q-32 0 -55 22t-23 54t23 54t55 22zM479 1393l-246 -1393h-104l246 1393h104z" />
    <glyph glyph-name="Eth" unicode="&#xd0;" horiz-adv-x="1552" 
d="M844 1393q284 0 452 -158t168 -416q0 -139 -42.5 -265.5t-121.5 -226.5t-185.5 -174t-239 -113.5t-277.5 -39.5h-469l115 653h-183l19 90h180l115 650h469zM618 96q207 0 376.5 91.5t267.5 253.5t98 362q0 222 -143.5 358.5t-385.5 136.5h-368l-98 -555h366l-18 -90h-365
l-98 -557h368z" />
    <glyph glyph-name="Ntilde" unicode="&#xd1;" horiz-adv-x="1585" 
d="M760 1642h-74q-1 62 27.5 103t71 54.5t90 7.5t86.5 -31l73 -47q68 -45 121 -25t53 92h74q1 -63 -25 -105.5t-66.5 -57.5t-89 -8t-93.5 36l-74 47q-60 43 -117 23t-57 -89zM1432 1393h104l-246 -1393h-94l-747 1217l-216 -1217h-104l246 1393h82l760 -1229z" />
    <glyph glyph-name="Ograve" unicode="&#xd2;" horiz-adv-x="1726" 
d="M940 1841l172 -287h-98l-187 287h113zM1028 1417q133 0 247.5 -47.5t194 -129.5t125 -196t45.5 -243q0 -164 -73 -317.5t-192 -264.5t-276.5 -177.5t-320.5 -66.5q-177 0 -317.5 81.5t-217.5 222t-77 313.5q0 164 73 317.5t192 264t276.5 177t320.5 66.5zM788 74
q141 0 278 57.5t240 153.5t166.5 229.5t63.5 276.5q0 148 -64.5 268t-184 190t-271.5 70q-142 0 -278.5 -57.5t-239 -153.5t-165.5 -229.5t-63 -276.5q0 -225 145 -376.5t373 -151.5z" />
    <glyph glyph-name="Oacute" unicode="&#xd3;" horiz-adv-x="1726" 
d="M1243 1841h113l-238 -287h-96zM1028 1417q133 0 247.5 -47.5t194 -129.5t125 -196t45.5 -243q0 -164 -73 -317.5t-192 -264.5t-276.5 -177.5t-320.5 -66.5q-177 0 -317.5 81.5t-217.5 222t-77 313.5q0 164 73 317.5t192 264t276.5 177t320.5 66.5zM788 74q141 0 278 57.5
t240 153.5t166.5 229.5t63.5 276.5q0 148 -64.5 268t-184 190t-271.5 70q-142 0 -278.5 -57.5t-239 -153.5t-165.5 -229.5t-63 -276.5q0 -225 145 -376.5t373 -151.5z" />
    <glyph glyph-name="Ocircumflex" unicode="&#xd4;" horiz-adv-x="1726" 
d="M1296 1561l-168 229l-249 -229h-113l309 288h119l203 -288h-101zM1028 1417q133 0 247.5 -47.5t194 -129.5t125 -196t45.5 -243q0 -164 -73 -317.5t-192 -264.5t-276.5 -177.5t-320.5 -66.5q-177 0 -317.5 81.5t-217.5 222t-77 313.5q0 164 73 317.5t192 264t276.5 177
t320.5 66.5zM788 74q141 0 278 57.5t240 153.5t166.5 229.5t63.5 276.5q0 148 -64.5 268t-184 190t-271.5 70q-142 0 -278.5 -57.5t-239 -153.5t-165.5 -229.5t-63 -276.5q0 -225 145 -376.5t373 -151.5z" />
    <glyph glyph-name="Otilde" unicode="&#xd5;" horiz-adv-x="1726" 
d="M1372 1796q1 -63 -25 -105.5t-66.5 -57.5t-89 -8t-93.5 36l-74 47q-60 43 -117 23t-57 -89h-74q-1 62 27.5 103t71 54.5t90 7.5t86.5 -31l73 -47q68 -45 121 -25t53 92h74zM1028 1417q133 0 247.5 -47.5t194 -129.5t125 -196t45.5 -243q0 -164 -73 -317.5t-192 -264.5
t-276.5 -177.5t-320.5 -66.5q-177 0 -317.5 81.5t-217.5 222t-77 313.5q0 164 73 317.5t192 264t276.5 177t320.5 66.5zM788 74q141 0 278 57.5t240 153.5t166.5 229.5t63.5 276.5q0 148 -64.5 268t-184 190t-271.5 70q-142 0 -278.5 -57.5t-239 -153.5t-165.5 -229.5
t-63 -276.5q0 -225 145 -376.5t373 -151.5z" />
    <glyph glyph-name="Odieresis" unicode="&#xd6;" horiz-adv-x="1726" 
d="M932 1743q32 0 55 -22t23 -54t-23 -54t-55 -22q-34 0 -56 22t-22 54t22 54t56 22zM1290 1743q34 0 56 -22t22 -54t-22 -54t-56 -22q-32 0 -55 22t-23 54t23 54t55 22zM1028 1417q133 0 247.5 -47.5t194 -129.5t125 -196t45.5 -243q0 -164 -73 -317.5t-192 -264.5
t-276.5 -177.5t-320.5 -66.5q-177 0 -317.5 81.5t-217.5 222t-77 313.5q0 164 73 317.5t192 264t276.5 177t320.5 66.5zM788 74q141 0 278 57.5t240 153.5t166.5 229.5t63.5 276.5q0 148 -64.5 268t-184 190t-271.5 70q-142 0 -278.5 -57.5t-239 -153.5t-165.5 -229.5
t-63 -276.5q0 -225 145 -376.5t373 -151.5z" />
    <glyph glyph-name="multiply" unicode="&#xd7;" horiz-adv-x="1347" 
d="M743 649l275 -334l-80 -67l-274 334l-392 -334l-61 71l393 334l-270 330l80 68l268 -330l393 334l62 -72z" />
    <glyph glyph-name="Oslash" unicode="&#xd8;" horiz-adv-x="1734" 
d="M1475 1233q165 -173 165 -432q0 -164 -73 -317.5t-192 -264.5t-276.5 -177.5t-320.5 -66.5q-251 0 -422 158l-149 -147l-53 53l151 149q-139 167 -139 404q0 164 73 317.5t192 264t276.5 177t320.5 66.5q230 0 391 -133l150 148l55 -52zM270 602q0 -197 113 -338l960 946
q-138 109 -327 109q-142 0 -278.5 -57.5t-239 -153.5t-165.5 -229.5t-63 -276.5zM788 74q141 0 278 57.5t240 153.5t166.5 229.5t63.5 276.5q0 222 -137 368l-967 -950q145 -135 356 -135z" />
    <glyph glyph-name="Ugrave" unicode="&#xd9;" horiz-adv-x="1558" 
d="M811 1841l172 -287h-98l-187 287h113zM1522 1393l-144 -811q-48 -273 -235.5 -441t-454.5 -168q-171 0 -290.5 80.5t-167 219t-17.5 309.5l141 811h105l-144 -811q-25 -146 12 -262t134.5 -183t240.5 -67q215 0 374 145t198 367l143 811h105z" />
    <glyph glyph-name="Uacute" unicode="&#xda;" horiz-adv-x="1558" 
d="M1114 1841h113l-238 -287h-96zM1522 1393l-144 -811q-48 -273 -235.5 -441t-454.5 -168q-171 0 -290.5 80.5t-167 219t-17.5 309.5l141 811h105l-144 -811q-25 -146 12 -262t134.5 -183t240.5 -67q215 0 374 145t198 367l143 811h105z" />
    <glyph glyph-name="Ucircumflex" unicode="&#xdb;" horiz-adv-x="1558" 
d="M1167 1561l-168 229l-249 -229h-113l309 288h119l203 -288h-101zM1522 1393l-144 -811q-48 -273 -235.5 -441t-454.5 -168q-171 0 -290.5 80.5t-167 219t-17.5 309.5l141 811h105l-144 -811q-25 -146 12 -262t134.5 -183t240.5 -67q215 0 374 145t198 367l143 811h105z
" />
    <glyph glyph-name="Udieresis" unicode="&#xdc;" horiz-adv-x="1558" 
d="M780 1743q32 0 55 -22t23 -54t-23 -54t-55 -22q-34 0 -56 22t-22 54t22 54t56 22zM1139 1743q34 0 56 -22t22 -54t-22 -54t-56 -22q-32 0 -55 22t-23 54t23 54t55 22zM1522 1393l-144 -811q-48 -273 -235.5 -441t-454.5 -168q-171 0 -290.5 80.5t-167 219t-17.5 309.5
l141 811h105l-144 -811q-25 -146 12 -262t134.5 -183t240.5 -67q215 0 374 145t198 367l143 811h105z" />
    <glyph glyph-name="Yacute" unicode="&#xdd;" horiz-adv-x="1335" 
d="M1092 1841l-238 -287h-96l221 287h113zM1460 1393l-737 -881l-92 -512h-105l90 510l-426 883h115l375 -775l651 775h129z" />
    <glyph glyph-name="Thorn" unicode="&#xde;" horiz-adv-x="1353" 
d="M805 1161q209 0 330.5 -105t121.5 -278q0 -232 -176.5 -380t-447.5 -148h-354l-46 -250h-104l246 1393h104l-41 -232h367zM655 344q216 0 358 118t142 300q0 137 -100.5 220t-270.5 83h-362l-127 -721h360z" />
    <glyph glyph-name="germandbls" unicode="&#xdf;" horiz-adv-x="1247" 
d="M874 719q132 -31 203.5 -112.5t71.5 -207.5q0 -182 -135 -296.5t-336 -114.5q-129 0 -234 30l15 88q121 -28 211 -28q172 0 276.5 89t104.5 228q0 127 -88 199t-228 72h-78l13 79q175 -1 283 100.5t108 231.5q0 107 -76 179.5t-219 72.5q-157 0 -266.5 -92.5
t-139.5 -267.5l-170 -969h-100l172 977q36 210 172.5 325t335.5 115q179 0 285 -92t106 -242q0 -126 -76.5 -224.5t-210.5 -139.5z" />
    <glyph glyph-name="agrave" unicode="&#xe0;" horiz-adv-x="1271" 
d="M803 1118h-98l-187 287h113zM1069 936h100l-165 -936h-101l23 123q-167 -148 -387 -148q-182 0 -297 118.5t-115 301.5q0 150 83.5 280.5t218.5 206.5t284 76q221 0 334 -147zM948 250l76 434q-45 91 -127 138.5t-190 47.5q-122 0 -233 -62.5t-179 -170t-68 -229.5
q0 -149 94 -245.5t242 -96.5q226 0 385 184z" />
    <glyph glyph-name="aacute" unicode="&#xe1;" horiz-adv-x="1271" 
d="M1042 1403l-237 -287h-96l221 287h112zM1069 936h100l-165 -936h-101l23 123q-167 -148 -387 -148q-182 0 -297 118.5t-115 301.5q0 150 83.5 280.5t218.5 206.5t284 76q221 0 334 -147zM948 250l76 434q-45 91 -127 138.5t-190 47.5q-122 0 -233 -62.5t-179 -170
t-68 -229.5q0 -149 94 -245.5t242 -96.5q226 0 385 184z" />
    <glyph glyph-name="acircumflex" unicode="&#xe2;" horiz-adv-x="1271" 
d="M840 1335l-250 -229h-113l309 289h119l203 -289h-100zM1069 936h100l-165 -936h-101l23 123q-167 -148 -387 -148q-182 0 -297 118.5t-115 301.5q0 150 83.5 280.5t218.5 206.5t284 76q221 0 334 -147zM948 250l76 434q-45 91 -127 138.5t-190 47.5q-122 0 -233 -62.5
t-179 -170t-68 -229.5q0 -149 94 -245.5t242 -96.5q226 0 385 184z" />
    <glyph glyph-name="atilde" unicode="&#xe3;" horiz-adv-x="1271" 
d="M567 1206h-73q-1 62 27.5 103t70.5 54t89.5 7t86.5 -31l74 -47q68 -45 121 -24.5t53 92.5h74q1 -63 -25.5 -105.5t-67 -57.5t-89 -8t-93.5 36l-74 47q-60 43 -117 23t-57 -89zM1069 936h100l-165 -936h-101l23 123q-167 -148 -387 -148q-182 0 -297 118.5t-115 301.5
q0 150 83.5 280.5t218.5 206.5t284 76q221 0 334 -147zM948 250l76 434q-45 91 -127 138.5t-190 47.5q-122 0 -233 -62.5t-179 -170t-68 -229.5q0 -149 94 -245.5t242 -96.5q226 0 385 184z" />
    <glyph glyph-name="adieresis" unicode="&#xe4;" horiz-adv-x="1271" 
d="M588 1186q-34 0 -56 22t-22 54t22 53.5t56 21.5q33 0 55.5 -21.5t22.5 -53.5t-23 -54t-55 -22zM946 1186q-32 0 -55 22t-23 54t22.5 53.5t55.5 21.5q34 0 56 -21.5t22 -53.5t-22 -54t-56 -22zM1069 936h100l-165 -936h-101l23 123q-167 -148 -387 -148q-182 0 -297 118.5
t-115 301.5q0 150 83.5 280.5t218.5 206.5t284 76q221 0 334 -147zM948 250l76 434q-45 91 -127 138.5t-190 47.5q-122 0 -233 -62.5t-179 -170t-68 -229.5q0 -149 94 -245.5t242 -96.5q226 0 385 184z" />
    <glyph glyph-name="aring" unicode="&#xe5;" horiz-adv-x="1271" 
d="M766 1108q-85 0 -140 52t-55 134t55 135.5t140 53.5q83 0 137.5 -53.5t54.5 -135.5q0 -81 -54 -133.5t-138 -52.5zM766 1421q-54 0 -90.5 -37t-36.5 -90q0 -54 36.5 -89.5t90.5 -35.5t89.5 35.5t35.5 89.5q0 53 -36 90t-89 37zM1069 936h100l-165 -936h-101l23 123
q-167 -148 -387 -148q-182 0 -297 118.5t-115 301.5q0 150 83.5 280.5t218.5 206.5t284 76q221 0 334 -147zM948 250l76 434q-45 91 -127 138.5t-190 47.5q-122 0 -233 -62.5t-179 -170t-68 -229.5q0 -149 94 -245.5t242 -96.5q226 0 385 184z" />
    <glyph glyph-name="ae" unicode="&#xe6;" horiz-adv-x="1943" 
d="M969 430h-2q-15 -158 72.5 -261t252.5 -103q103 0 193 43.5t133 113.5h111q-59 -114 -183.5 -181t-269.5 -67q-128 0 -221 52t-144 145q-215 -201 -491 -201q-154 0 -247 69t-93 185q0 132 101.5 208.5t285.5 76.5h414q1 2 2 6t2 6q26 159 -36 250.5t-220 91.5
q-112 0 -196 -48.5t-116 -131.5h-102q42 126 159.5 197t270.5 71q140 0 225.5 -60t112.5 -169q81 108 202.5 171.5t256.5 63.5q205 0 304.5 -143.5t55.5 -378.5h-831zM1432 872q-158 0 -281 -100t-166 -256q-2 -2 -2 -4h729q19 165 -54 262.5t-226 97.5zM436 61
q244 0 445 189q-24 82 -15 180h-420q-130 0 -198 -50.5t-68 -137.5q0 -81 68.5 -131t187.5 -50z" />
    <glyph glyph-name="ccedilla" unicode="&#xe7;" horiz-adv-x="1181" 
d="M549 68q124 0 223 62t143 167h103q-55 -146 -188.5 -234t-297.5 -88q-143 0 -243 64.5t-140 176.5t-16 251q37 209 199.5 350t374.5 141q165 0 266 -87t106 -232h-104q-8 105 -84.5 167t-200.5 62q-170 0 -298 -115t-159 -286q-30 -170 57.5 -284.5t258.5 -114.5z
M276 -430l148 272h102l-157 -272h-93z" />
    <glyph glyph-name="egrave" unicode="&#xe8;" horiz-adv-x="1202" 
d="M772 1118h-98l-187 287h113zM1063 436h-834q-19 -160 69 -265t255 -105q103 0 193 43.5t133 113.5h110q-59 -114 -183.5 -181t-268.5 -67q-143 0 -244 66.5t-142 178t-18 247.5q35 208 197.5 349.5t371.5 141.5q205 0 305 -143.5t56 -378.5zM692 872q-159 0 -282.5 -101
t-165.5 -259h729q19 165 -54.5 262.5t-226.5 97.5z" />
    <glyph glyph-name="eacute" unicode="&#xe9;" horiz-adv-x="1202" 
d="M1012 1403l-238 -287h-96l221 287h113zM1063 436h-834q-19 -160 69 -265t255 -105q103 0 193 43.5t133 113.5h110q-59 -114 -183.5 -181t-268.5 -67q-143 0 -244 66.5t-142 178t-18 247.5q35 208 197.5 349.5t371.5 141.5q205 0 305 -143.5t56 -378.5zM692 872
q-159 0 -282.5 -101t-165.5 -259h729q19 165 -54.5 262.5t-226.5 97.5z" />
    <glyph glyph-name="ecircumflex" unicode="&#xea;" horiz-adv-x="1202" 
d="M809 1335l-250 -229h-113l310 289h118l203 -289h-100zM702 958q205 0 305 -143.5t56 -378.5h-834q-19 -160 69 -265t255 -105q103 0 193 43.5t133 113.5h110q-59 -114 -183.5 -181t-268.5 -67q-143 0 -244 66.5t-142 178t-18 247.5q35 208 197.5 349.5t371.5 141.5z
M973 512q19 165 -54.5 262.5t-226.5 97.5q-159 0 -282.5 -101t-165.5 -259h729z" />
    <glyph glyph-name="edieresis" unicode="&#xeb;" horiz-adv-x="1202" 
d="M557 1186q-34 0 -56 22t-22 54t22 53.5t56 21.5q33 0 55.5 -21.5t22.5 -53.5t-23 -54t-55 -22zM915 1186q-32 0 -54.5 22t-22.5 54t22.5 53.5t54.5 21.5q34 0 56 -21.5t22 -53.5t-22 -54t-56 -22zM1063 436h-834q-19 -160 69 -265t255 -105q103 0 193 43.5t133 113.5h110
q-59 -114 -183.5 -181t-268.5 -67q-143 0 -244 66.5t-142 178t-18 247.5q35 208 197.5 349.5t371.5 141.5q205 0 305 -143.5t56 -378.5zM692 872q-159 0 -282.5 -101t-165.5 -259h729q19 165 -54.5 262.5t-226.5 97.5z" />
    <glyph glyph-name="igrave" unicode="&#xec;" horiz-adv-x="471" 
d="M215 1405l172 -287h-98l-187 287h113zM268 936h101l-166 -936h-101z" />
    <glyph glyph-name="iacute" unicode="&#xed;" horiz-adv-x="471" 
d="M514 1403h113l-238 -287h-96zM268 936h101l-166 -936h-101z" />
    <glyph glyph-name="icircumflex" unicode="&#xee;" horiz-adv-x="471" 
d="M592 1106l-168 229l-250 -229h-113l310 289h118l203 -289h-100zM268 936h101l-166 -936h-101z" />
    <glyph glyph-name="idieresis" unicode="&#xef;" horiz-adv-x="471" 
d="M172 1337q33 0 55.5 -21.5t22.5 -53.5t-23 -54t-55 -22q-34 0 -56 22t-22 54t22 53.5t56 21.5zM530 1337q34 0 56 -21.5t22 -53.5t-22 -54t-56 -22q-32 0 -54.5 22t-22.5 54t22.5 53.5t54.5 21.5zM268 936h101l-166 -936h-101z" />
    <glyph glyph-name="eth" unicode="&#xf0;" horiz-adv-x="1263" 
d="M905 1249q113 -108 177.5 -274.5t64.5 -341.5q0 -120 -33 -226t-90.5 -184t-133 -135t-163 -86t-178.5 -29q-188 0 -305 118.5t-117 299.5q0 152 83 284t218 207.5t285 75.5q114 0 199 -46t132 -128q-19 130 -81.5 242.5t-151.5 192.5l-375 -132l-12 72l319 111
q-103 76 -247 121l118 45q137 -52 232 -127l174 59l14 -74zM561 66q119 0 229.5 64.5t180 177t69.5 241.5q0 143 -92 231t-248 88q-91 0 -177.5 -37t-151.5 -99t-104.5 -148t-39.5 -178q0 -146 93 -243t241 -97z" />
    <glyph glyph-name="ntilde" unicode="&#xf1;" horiz-adv-x="1185" 
d="M489 1206h-73q-1 62 27.5 103t70.5 54t89.5 7t86.5 -31l74 -47q68 -45 121 -24.5t53 92.5h74q1 -63 -25.5 -105.5t-67 -57.5t-89 -8t-93.5 36l-73 47q-60 43 -117.5 23t-57.5 -89zM731 961q176 0 265.5 -110t54.5 -300l-97 -551h-98l96 547q27 153 -42 237t-208 84
q-106 0 -210 -47.5t-181 -134.5l-121 -686h-98l166 936h98l-22 -125q166 150 397 150z" />
    <glyph glyph-name="ograve" unicode="&#xf2;" horiz-adv-x="1267" 
d="M612 1405l172 -287h-98l-186 287h112zM721 961q183 0 300.5 -119.5t117.5 -300.5q0 -91 -32 -178t-88.5 -156t-130.5 -122t-163 -81.5t-180 -28.5q-185 0 -301.5 118.5t-116.5 299.5q0 152 83 283.5t220 208t291 76.5zM561 68q91 0 178.5 37t152.5 98t104.5 146t39.5 177
q0 145 -93 243.5t-238 98.5q-123 0 -233.5 -62.5t-177.5 -169.5t-67 -230q0 -146 93 -242t241 -96z" />
    <glyph glyph-name="oacute" unicode="&#xf3;" horiz-adv-x="1267" 
d="M911 1403h113l-238 -287h-96zM721 961q183 0 300.5 -119.5t117.5 -300.5q0 -91 -32 -178t-88.5 -156t-130.5 -122t-163 -81.5t-180 -28.5q-185 0 -301.5 118.5t-116.5 299.5q0 152 83 283.5t220 208t291 76.5zM561 68q91 0 178.5 37t152.5 98t104.5 146t39.5 177
q0 145 -93 243.5t-238 98.5q-123 0 -233.5 -62.5t-177.5 -169.5t-67 -230q0 -146 93 -242t241 -96z" />
    <glyph glyph-name="ocircumflex" unicode="&#xf4;" horiz-adv-x="1267" 
d="M989 1106l-168 229l-250 -229h-112l309 289h119l203 -289h-101zM721 961q183 0 300.5 -119.5t117.5 -300.5q0 -91 -32 -178t-88.5 -156t-130.5 -122t-163 -81.5t-180 -28.5q-185 0 -301.5 118.5t-116.5 299.5q0 152 83 283.5t220 208t291 76.5zM561 68q91 0 178.5 37
t152.5 98t104.5 146t39.5 177q0 145 -93 243.5t-238 98.5q-123 0 -233.5 -62.5t-177.5 -169.5t-67 -230q0 -146 93 -242t241 -96z" />
    <glyph glyph-name="otilde" unicode="&#xf5;" horiz-adv-x="1267" 
d="M1071 1360q1 -63 -25 -105.5t-66.5 -57.5t-89 -8t-93.5 36l-74 47q-60 43 -117 23t-57 -89h-74q-1 62 27.5 103t71 54t90 7t86.5 -31l73 -47q67 -45 120.5 -24.5t53.5 92.5h74zM721 961q183 0 300.5 -119.5t117.5 -300.5q0 -91 -32 -178t-88.5 -156t-130.5 -122
t-163 -81.5t-180 -28.5q-185 0 -301.5 118.5t-116.5 299.5q0 152 83 283.5t220 208t291 76.5zM561 68q91 0 178.5 37t152.5 98t104.5 146t39.5 177q0 145 -93 243.5t-238 98.5q-123 0 -233.5 -62.5t-177.5 -169.5t-67 -230q0 -146 93 -242t241 -96z" />
    <glyph glyph-name="odieresis" unicode="&#xf6;" horiz-adv-x="1267" 
d="M594 1337q33 0 55.5 -21.5t22.5 -53.5t-23 -54t-55 -22q-34 0 -56 22t-22 54t22 53.5t56 21.5zM952 1337q34 0 56 -21.5t22 -53.5t-22 -54t-56 -22q-32 0 -55 22t-23 54t22.5 53.5t55.5 21.5zM721 961q183 0 300.5 -119.5t117.5 -300.5q0 -91 -32 -178t-88.5 -156
t-130.5 -122t-163 -81.5t-180 -28.5q-185 0 -301.5 118.5t-116.5 299.5q0 152 83 283.5t220 208t291 76.5zM561 68q91 0 178.5 37t152.5 98t104.5 146t39.5 177q0 145 -93 243.5t-238 98.5q-123 0 -233.5 -62.5t-177.5 -169.5t-67 -230q0 -146 93 -242t241 -96z" />
    <glyph glyph-name="divide" unicode="&#xf7;" horiz-adv-x="1398" 
d="M797 958q-31 0 -52.5 21.5t-21.5 52.5t21.5 51.5t52.5 20.5t53 -21t22 -51q0 -31 -22 -52.5t-53 -21.5zM260 608l16 94h926l-16 -94h-926zM664 207q-31 0 -52.5 21.5t-21.5 52.5q0 30 21.5 50.5t52.5 20.5q32 0 53.5 -20t21.5 -51t-21.5 -52.5t-53.5 -21.5z" />
    <glyph glyph-name="oslash" unicode="&#xf8;" horiz-adv-x="1267" 
d="M1028 834q111 -117 111 -293q0 -91 -32 -178t-88.5 -156t-130.5 -122t-163 -81.5t-180 -28.5q-171 0 -283 103l-115 -113l-45 45l115 113q-90 114 -90 270q0 152 83 283.5t220 208t291 76.5q149 0 260 -84l100 98l45 -45zM227 406q0 -122 66 -209l614 606q-87 65 -202 65
q-123 0 -233.5 -62.5t-177.5 -169.5t-67 -230zM561 68q91 0 178.5 37t152.5 98t104.5 146t39.5 177q0 137 -84 234l-618 -610q95 -82 227 -82z" />
    <glyph glyph-name="ugrave" unicode="&#xf9;" horiz-adv-x="1208" 
d="M735 1118h-98l-186 287h112zM995 936h99l-164 -936h-101l23 125q-79 -72 -183 -111t-214 -39q-176 0 -265.5 110t-56.5 300l98 551h99l-97 -547q-27 -153 42.5 -237t209.5 -84q105 0 209 47.5t180 134.5z" />
    <glyph glyph-name="uacute" unicode="&#xfa;" horiz-adv-x="1208" 
d="M965 1403l-238 -287h-96l221 287h113zM995 936h99l-164 -936h-101l23 125q-79 -72 -183 -111t-214 -39q-176 0 -265.5 110t-56.5 300l98 551h99l-97 -547q-27 -153 42.5 -237t209.5 -84q105 0 209 47.5t180 134.5z" />
    <glyph glyph-name="ucircumflex" unicode="&#xfb;" horiz-adv-x="1208" 
d="M721 1333l-250 -229h-113l310 289h118l203 -289h-100zM995 936h99l-164 -936h-101l23 125q-79 -72 -183 -111t-214 -39q-176 0 -265.5 110t-56.5 300l98 551h99l-97 -547q-27 -153 42.5 -237t209.5 -84q105 0 209 47.5t180 134.5z" />
    <glyph glyph-name="udieresis" unicode="&#xfc;" horiz-adv-x="1210" 
d="M506 1186q-34 0 -56 22t-22 54t22 53.5t56 21.5q33 0 55.5 -21.5t22.5 -53.5t-23 -54t-55 -22zM864 1186q-32 0 -55 22t-23 54t22.5 53.5t55.5 21.5q34 0 56 -21.5t22 -53.5t-22 -54t-56 -22zM995 936h99l-164 -936h-101l23 125q-79 -72 -183 -111t-214 -39
q-176 0 -265.5 110t-56.5 300l98 551h99l-97 -547q-27 -153 42.5 -237t209.5 -84q105 0 209 47.5t180 134.5z" />
    <glyph glyph-name="yacute" unicode="&#xfd;" horiz-adv-x="1222" 
d="M967 1403l-238 -287h-96l221 287h113zM1102 936h115l-885 -1389h-117l262 410l-313 979h108l273 -873z" />
    <glyph glyph-name="thorn" unicode="&#xfe;" horiz-adv-x="1265" 
d="M725 963q180 0 296 -122t116 -302q0 -150 -83.5 -282t-218.5 -209t-284 -77q-221 0 -336 154l-102 -578h-101l338 1907h99l-115 -645q170 154 391 154zM553 59q122 0 233.5 64.5t179.5 173t68 229.5q0 145 -94.5 246.5t-239.5 101.5q-220 0 -389 -194l-73 -428
q46 -93 126.5 -143t188.5 -50z" />
    <glyph glyph-name="ydieresis" unicode="&#xff;" horiz-adv-x="1222" 
d="M512 1186q-34 0 -56 22t-22 54t22 53.5t56 21.5q33 0 55.5 -21.5t22.5 -53.5t-23 -54t-55 -22zM870 1186q-32 0 -54.5 22t-22.5 54t22.5 53.5t54.5 21.5q34 0 56 -21.5t22 -53.5t-22 -54t-56 -22zM1102 936h115l-885 -1389h-117l262 410l-313 979h108l273 -873z" />
    <glyph glyph-name="Amacron" unicode="&#x100;" horiz-adv-x="1523" 
d="M1247 1661l-14 -76h-567l14 76h567zM1257 0l-124 444h-750l-281 -444h-116l886 1395h101l395 -1395h-111zM444 541h662l-203 725z" />
    <glyph glyph-name="amacron" unicode="&#x101;" horiz-adv-x="1271" 
d="M1098 1235l-15 -76h-567l14 76h568zM1069 936h100l-165 -936h-101l23 123q-167 -148 -387 -148q-182 0 -297 118.5t-115 301.5q0 150 83.5 280.5t218.5 206.5t284 76q221 0 334 -147zM948 250l76 434q-45 91 -127 138.5t-190 47.5q-122 0 -233 -62.5t-179 -170
t-68 -229.5q0 -149 94 -245.5t242 -96.5q226 0 385 184z" />
    <glyph glyph-name="Abreve" unicode="&#x102;" horiz-adv-x="1523" 
d="M954 1573q-117 0 -188 71t-49 199h80q-16 -96 34.5 -146t129.5 -50q48 0 95.5 19.5t87.5 65.5t52 111h84q-22 -128 -116.5 -199t-209.5 -71zM1257 0l-124 444h-750l-281 -444h-116l886 1395h101l395 -1395h-111zM444 541h662l-203 725z" />
    <glyph glyph-name="abreve" unicode="&#x103;" horiz-adv-x="1271" 
d="M776 1098q-117 0 -188 71t-49 199h79q-16 -96 34.5 -146.5t129.5 -50.5q48 0 95.5 19.5t88 66t52.5 111.5h84q-22 -128 -116.5 -199t-209.5 -71zM1069 936h100l-165 -936h-101l23 123q-167 -148 -387 -148q-182 0 -297 118.5t-115 301.5q0 150 83.5 280.5t218.5 206.5
t284 76q221 0 334 -147zM948 250l76 434q-45 91 -127 138.5t-190 47.5q-122 0 -233 -62.5t-179 -170t-68 -229.5q0 -149 94 -245.5t242 -96.5q226 0 385 184z" />
    <glyph glyph-name="Aogonek" unicode="&#x104;" horiz-adv-x="1523" 
d="M1403 -307l8 -82q-33 -10 -88 -10q-113 0 -181.5 56.5t-68.5 149.5q0 136 176 224l-116 413h-750l-281 -444h-116l886 1395h101l395 -1395h-25q-83 -33 -131.5 -75.5t-48.5 -106.5q0 -62 46 -96.5t128 -34.5q31 0 66 6zM444 541h662l-203 725z" />
    <glyph glyph-name="aogonek" unicode="&#x105;" horiz-adv-x="1271" 
d="M991 -315q31 0 66 6l8 -82q-33 -10 -88 -10q-113 0 -181.5 56.5t-68.5 149.5q0 74 50.5 131.5t131.5 94.5l17 92q-167 -148 -387 -148q-182 0 -297 118.5t-115 301.5q0 150 83.5 280.5t218.5 206.5t284 76q221 0 334 -147l22 125h100l-165 -936q-86 -33 -136.5 -75.5
t-50.5 -108.5q0 -62 46 -96.5t128 -34.5zM563 66q226 0 385 184l76 434q-45 91 -127 138.5t-190 47.5q-122 0 -233 -62.5t-179 -170t-68 -229.5q0 -149 94 -245.5t242 -96.5z" />
    <glyph glyph-name="Cacute" unicode="&#x106;" horiz-adv-x="1644" 
d="M1333 1841l-237 -287h-97l222 287h112zM786 76q202 0 371 108t246 285h108q-90 -222 -291.5 -358t-449.5 -136q-148 0 -272 55.5t-204 151.5t-114 230t-8 284q35 200 161.5 366t310 260.5t382.5 94.5q249 0 401.5 -134.5t163.5 -356.5h-108q-14 179 -141 286t-334 107
q-129 0 -253 -48.5t-221 -131.5t-166 -198.5t-92 -244.5q-30 -173 27 -315.5t184.5 -223.5t298.5 -81z" />
    <glyph glyph-name="cacute" unicode="&#x107;" horiz-adv-x="1181" 
d="M1022 1403l-238 -287h-96l221 287h113zM549 68q124 0 223 62t143 167h103q-55 -146 -188.5 -234t-297.5 -88q-143 0 -243 64.5t-140 176.5t-16 251q37 209 199.5 350t374.5 141q165 0 266 -87t106 -232h-104q-8 105 -84.5 167t-200.5 62q-170 0 -298 -115t-159 -286
q-30 -170 57.5 -284.5t258.5 -114.5z" />
    <glyph glyph-name="Cdotaccent" unicode="&#x10a;" horiz-adv-x="1644" 
d="M1069 1589q-34 0 -57 23t-23 55q0 34 23 56t57 22q33 0 56.5 -22.5t23.5 -55.5q0 -32 -24 -55t-56 -23zM786 76q202 0 371 108t246 285h108q-90 -222 -291.5 -358t-449.5 -136q-148 0 -272 55.5t-204 151.5t-114 230t-8 284q35 200 161.5 366t310 260.5t382.5 94.5
q249 0 401.5 -134.5t163.5 -356.5h-108q-14 179 -141 286t-334 107q-129 0 -253 -48.5t-221 -131.5t-166 -198.5t-92 -244.5q-30 -173 27 -315.5t184.5 -223.5t298.5 -81z" />
    <glyph glyph-name="cdotaccent" unicode="&#x10b;" horiz-adv-x="1181" 
d="M745 1184q-33 0 -56 23t-23 55q0 34 22.5 55.5t56.5 21.5q33 0 56.5 -22t23.5 -55q0 -32 -24 -55t-56 -23zM549 68q124 0 223 62t143 167h103q-55 -146 -188.5 -234t-297.5 -88q-143 0 -243 64.5t-140 176.5t-16 251q37 209 199.5 350t374.5 141q165 0 266 -87t106 -232
h-104q-8 105 -84.5 167t-200.5 62q-170 0 -298 -115t-159 -286q-30 -170 57.5 -284.5t258.5 -114.5z" />
    <glyph glyph-name="Ccaron" unicode="&#x10c;" horiz-adv-x="1644" 
d="M1165 1556h-116l-205 289h98l172 -229l250 229h109zM786 76q202 0 371 108t246 285h108q-90 -222 -291.5 -358t-449.5 -136q-148 0 -272 55.5t-204 151.5t-114 230t-8 284q35 200 161.5 366t310 260.5t382.5 94.5q249 0 401.5 -134.5t163.5 -356.5h-108q-14 179 -141 286
t-334 107q-129 0 -253 -48.5t-221 -131.5t-166 -198.5t-92 -244.5q-30 -173 27 -315.5t184.5 -223.5t298.5 -81z" />
    <glyph glyph-name="ccaron" unicode="&#x10d;" horiz-adv-x="1181" 
d="M807 1106h-117l-205 289h99l172 -230l250 230h108zM690 868q-170 0 -298 -115t-159 -286q-30 -170 57.5 -284.5t258.5 -114.5q124 0 223 62t143 167h103q-55 -146 -188.5 -234t-297.5 -88q-143 0 -243 64.5t-140 176.5t-16 251q37 209 199.5 350t374.5 141q165 0 266 -87
t106 -232h-104q-8 105 -84.5 167t-200.5 62z" />
    <glyph glyph-name="Dcaron" unicode="&#x10e;" horiz-adv-x="1550" 
d="M963 1556h-117l-205 289h98l172 -229l250 229h109zM844 1393q284 0 452 -158t168 -416q0 -139 -42.5 -265.5t-121.5 -226.5t-185.5 -174t-239 -113.5t-277.5 -39.5h-469l246 1393h469zM618 96q207 0 376.5 91.5t267.5 253.5t98 362q0 222 -143.5 358.5t-385.5 136.5h-368
l-213 -1202h368z" />
    <glyph glyph-name="dcaron" unicode="&#x10f;" horiz-adv-x="1273" 
d="M1049 811l114 643h101l-258 -1454h-101l23 125q-169 -150 -387 -150q-181 0 -297.5 121t-116.5 301q0 149 83.5 279.5t218.5 206t284 75.5q220 0 336 -147zM1456 1454h103l-111 -364h-80zM950 252l76 434q-96 184 -317 184q-122 0 -233 -62.5t-179 -169.5t-68 -228
q0 -145 94.5 -244.5t241.5 -99.5q108 0 207 47.5t178 138.5z" />
    <glyph glyph-name="Dcroat" unicode="&#x110;" horiz-adv-x="1552" 
d="M844 1393q284 0 452 -158t168 -416q0 -139 -42.5 -265.5t-121.5 -226.5t-185.5 -174t-239 -113.5t-277.5 -39.5h-469l115 653h-183l19 90h180l115 650h469zM618 96q207 0 376.5 91.5t267.5 253.5t98 362q0 222 -143.5 358.5t-385.5 136.5h-368l-98 -555h366l-18 -90h-365
l-98 -557h368z" />
    <glyph glyph-name="dcroat" unicode="&#x111;" horiz-adv-x="1271" 
d="M1372 1280l-14 -84h-139l-213 -1196h-101l23 125q-169 -150 -387 -150q-181 0 -297.5 121t-116.5 301q0 149 83.5 279.5t218.5 206t284 75.5q220 0 336 -147l69 385h-366l14 84h367l30 174h101l-31 -174h139zM950 252l76 434q-96 184 -317 184q-122 0 -233 -62.5
t-179 -169.5t-68 -228q0 -145 94.5 -244.5t241.5 -99.5q108 0 207 47.5t178 138.5z" />
    <glyph glyph-name="Emacron" unicode="&#x112;" horiz-adv-x="1345" 
d="M1171 1661l-14 -76h-567l14 76h567zM1309 1298h-846l-98 -557h763l-16 -94h-764l-98 -551h848l-19 -96h-950l246 1393h950z" />
    <glyph glyph-name="emacron" unicode="&#x113;" horiz-adv-x="1202" 
d="M1067 1235l-14 -76h-568l15 76h567zM1063 436h-834q-19 -160 69 -265t255 -105q103 0 193 43.5t133 113.5h110q-59 -114 -183.5 -181t-268.5 -67q-143 0 -244 66.5t-142 178t-18 247.5q35 208 197.5 349.5t371.5 141.5q205 0 305 -143.5t56 -378.5zM692 872
q-159 0 -282.5 -101t-165.5 -259h729q19 165 -54.5 262.5t-226.5 97.5z" />
    <glyph glyph-name="Edotaccent" unicode="&#x116;" horiz-adv-x="1337" 
d="M856 1589q-34 0 -57 23t-23 55q0 34 23 56t57 22q33 0 56.5 -22.5t23.5 -55.5q0 -32 -24 -55t-56 -23zM1309 1298h-846l-98 -557h763l-16 -94h-764l-98 -551h848l-19 -96h-950l246 1393h950z" />
    <glyph glyph-name="edotaccent" unicode="&#x117;" horiz-adv-x="1204" 
d="M780 1184q-34 0 -57 23t-23 55q0 33 23 55t57 22q33 0 56.5 -22t23.5 -55q0 -32 -24 -55t-56 -23zM1063 436h-834q-19 -160 69 -265t255 -105q103 0 193 43.5t133 113.5h110q-59 -114 -183.5 -181t-268.5 -67q-143 0 -244 66.5t-142 178t-18 247.5q35 208 197.5 349.5
t371.5 141.5q205 0 305 -143.5t56 -378.5zM692 872q-159 0 -282.5 -101t-165.5 -259h729q19 165 -54.5 262.5t-226.5 97.5z" />
    <glyph glyph-name="Eogonek" unicode="&#x118;" horiz-adv-x="1345" 
d="M1309 1298h-846l-98 -557h763l-16 -94h-764l-98 -551h848l-19 -96h-2q-86 -33 -136 -75.5t-50 -108.5q0 -62 46 -96.5t128 -34.5q31 0 65 6l9 -82q-33 -10 -88 -10q-113 0 -181.5 56.5t-68.5 149.5q0 115 125 195h-797l246 1393h950z" />
    <glyph glyph-name="eogonek" unicode="&#x119;" horiz-adv-x="1208" 
d="M1063 436h-834q-19 -160 69 -265t255 -105q103 0 193 43.5t133 113.5h110q-34 -64 -88 -112q-6 -7 -32.5 -34t-31.5 -33t-21.5 -27t-20 -33.5t-8.5 -32.5t-5 -43q0 -64 47 -100.5t127 -36.5q36 0 66 6l10 -82q-33 -10 -88 -10q-113 0 -182.5 56.5t-69.5 149.5
q0 62 29 115q-91 -31 -184 -31q-143 0 -244 66.5t-142 178t-18 247.5q35 208 197.5 349.5t371.5 141.5q205 0 305 -143.5t56 -378.5zM692 872q-159 0 -282.5 -101t-165.5 -259h729q19 165 -54.5 262.5t-226.5 97.5z" />
    <glyph glyph-name="Ecaron" unicode="&#x11a;" horiz-adv-x="1345" 
d="M989 1556h-117l-204 289h98l172 -229l250 229h108zM1309 1298h-846l-98 -557h763l-16 -94h-764l-98 -551h848l-19 -96h-950l246 1393h950z" />
    <glyph glyph-name="ecaron" unicode="&#x11b;" horiz-adv-x="1202" 
d="M797 1106h-117l-205 289h98l172 -230l250 230h109zM702 958q205 0 305 -143.5t56 -378.5h-834q-19 -160 69 -265t255 -105q103 0 193 43.5t133 113.5h110q-59 -114 -183.5 -181t-268.5 -67q-143 0 -244 66.5t-142 178t-18 247.5q35 208 197.5 349.5t371.5 141.5zM973 512
q19 165 -54.5 262.5t-226.5 97.5q-159 0 -282.5 -101t-165.5 -259h729z" />
    <glyph glyph-name="Gbreve" unicode="&#x11e;" horiz-adv-x="1689" 
d="M1055 1573q-117 0 -188.5 71t-49.5 199h80q-16 -96 34.5 -146t129.5 -50q48 0 95.5 19.5t87.5 65.5t52 111h84q-22 -128 -116 -199t-209 -71zM868 621l15 96h673l-126 -717h-89l54 340q-106 -170 -269.5 -267.5t-363.5 -97.5q-199 0 -347 96t-213 260.5t-30 360.5
q36 202 163.5 369t311 261.5t381.5 94.5q234 0 393 -129.5t174 -345.5h-102q-18 177 -152 278t-327 101q-172 0 -330.5 -82.5t-267.5 -227t-140 -319.5q-29 -169 25 -310t179.5 -223.5t297.5 -82.5q238 0 414.5 153t239.5 392h-564z" />
    <glyph glyph-name="gbreve" unicode="&#x11f;" horiz-adv-x="1273" 
d="M733 1098q-117 0 -188 71t-49 199h79q-16 -96 34.5 -146.5t129.5 -50.5q48 0 95.5 19.5t88 66t52.5 111.5h84q-22 -128 -116.5 -199t-209.5 -71zM1071 936h98l-168 -954q-35 -208 -183.5 -333.5t-356.5 -125.5q-177 0 -285 91t-110 239h102q6 -107 89 -174.5t218 -67.5
q163 0 281 101.5t147 269.5l29 159q-178 -151 -404 -151q-179 0 -289 118t-110 295q0 112 46.5 215.5t123.5 178.5t182 119.5t217 44.5q111 0 202 -39.5t149 -110.5zM553 80q109 0 214.5 47.5t186.5 140.5l74 424q-50 90 -137.5 135t-196.5 45q-190 0 -326.5 -135
t-136.5 -321q0 -144 87.5 -240t234.5 -96z" />
    <glyph glyph-name="Gdotaccent" unicode="&#x120;" horiz-adv-x="1687" 
d="M1057 1589q-34 0 -57 23t-23 55q0 34 23 56t57 22q33 0 56.5 -22.5t23.5 -55.5q0 -32 -24 -55t-56 -23zM868 621l15 96h673l-126 -717h-89l54 340q-106 -170 -269.5 -267.5t-363.5 -97.5q-199 0 -347 96t-213 260.5t-30 360.5q36 202 163.5 369t311 261.5t381.5 94.5
q234 0 393 -129.5t174 -345.5h-102q-18 177 -152 278t-327 101q-172 0 -330.5 -82.5t-267.5 -227t-140 -319.5q-29 -169 25 -310t179.5 -223.5t297.5 -82.5q238 0 414.5 153t239.5 392h-564z" />
    <glyph glyph-name="gdotaccent" unicode="&#x121;" horiz-adv-x="1273" 
d="M776 1184q-34 0 -57 23t-23 55q0 33 23 55t57 22q33 0 56.5 -22t23.5 -55q0 -32 -24 -55t-56 -23zM1071 936h98l-168 -954q-35 -208 -183.5 -333.5t-356.5 -125.5q-177 0 -285 91t-110 239h102q6 -107 89 -174.5t218 -67.5q163 0 281 101.5t147 269.5l29 159
q-178 -151 -404 -151q-179 0 -289 118t-110 295q0 112 46.5 215.5t123.5 178.5t182 119.5t217 44.5q111 0 202 -39.5t149 -110.5zM553 80q109 0 214.5 47.5t186.5 140.5l74 424q-50 90 -137.5 135t-196.5 45q-190 0 -326.5 -135t-136.5 -321q0 -144 87.5 -240t234.5 -96z
" />
    <glyph glyph-name="Gcommaaccent" unicode="&#x122;" horiz-adv-x="1689" 
d="M868 621l15 96h673l-126 -717h-89l54 340q-106 -170 -269.5 -267.5t-363.5 -97.5q-199 0 -347 96t-213 260.5t-30 360.5q36 202 163.5 369t311 261.5t381.5 94.5q234 0 393 -129.5t174 -345.5h-102q-18 177 -152 278t-327 101q-172 0 -330.5 -82.5t-267.5 -227
t-140 -319.5q-29 -169 25 -310t179.5 -223.5t297.5 -82.5q238 0 414.5 153t239.5 392h-564zM719 -147q30 0 53 -21t23 -57q0 -24 -20 -59.5t-122 -192.5h-65l117 188q-31 4 -46.5 23t-15.5 45q0 31 22 52.5t54 21.5z" />
    <glyph glyph-name="gcommaaccent" unicode="&#x123;" horiz-adv-x="1271" 
d="M754 1169q-30 0 -53 21t-23 57q0 25 20.5 61.5t120.5 190.5h66l-117 -188q61 -9 61 -68q0 -31 -21.5 -52.5t-53.5 -21.5zM1071 936h98l-168 -954q-35 -208 -183.5 -333.5t-356.5 -125.5q-177 0 -285 91t-110 239h102q6 -107 89 -174.5t218 -67.5q163 0 281 101.5
t147 269.5l29 159q-178 -151 -404 -151q-179 0 -289 118t-110 295q0 112 46.5 215.5t123.5 178.5t182 119.5t217 44.5q111 0 202 -39.5t149 -110.5zM553 80q109 0 214.5 47.5t186.5 140.5l74 424q-50 90 -137.5 135t-196.5 45q-190 0 -326.5 -135t-136.5 -321
q0 -144 87.5 -240t234.5 -96z" />
    <glyph glyph-name="Hbar" unicode="&#x126;" horiz-adv-x="1538" 
d="M1538 1133l-16 -89h-95l-184 -1044h-104l114 647h-905l-115 -647h-104l184 1044h-104l16 89h105l45 260h104l-45 -260h905l45 260h105l-45 -260h94zM1270 739l53 305h-905l-53 -305h905z" />
    <glyph glyph-name="hbar" unicode="&#x127;" horiz-adv-x="1185" 
d="M733 961q176 0 265.5 -110t54.5 -300l-97 -551h-100l96 547q29 153 -40.5 237t-209.5 84q-105 0 -208.5 -48t-180.5 -136l-120 -684h-101l211 1200h-160l15 78h159l31 176h101l-31 -176h350l-14 -78h-351l-67 -391q78 73 181 112.5t216 39.5z" />
    <glyph glyph-name="Imacron" unicode="&#x12a;" horiz-adv-x="528" 
d="M186 1661h568l-15 -76h-567zM479 1393l-246 -1393h-104l246 1393h104z" />
    <glyph glyph-name="imacron" unicode="&#x12b;" horiz-adv-x="471" 
d="M84 1235h567l-14 -76h-567zM268 936h101l-166 -936h-101z" />
    <glyph glyph-name="Iogonek" unicode="&#x12e;" horiz-adv-x="528" 
d="M221 -315q31 0 66 6l8 -82q-33 -10 -88 -10q-113 0 -181.5 56.5t-68.5 149.5q0 73 49 130t127 94l242 1364h104l-246 -1393q-86 -33 -136 -75.5t-50 -108.5q0 -62 46 -96.5t128 -34.5z" />
    <glyph glyph-name="iogonek" unicode="&#x12f;" horiz-adv-x="526" 
d="M410 1372q32 0 53.5 -21t21.5 -53t-21.5 -53.5t-53.5 -21.5t-54 21.5t-22 53.5t22 53t54 21zM231 0q-86 -33 -136 -75.5t-50 -108.5q0 -62 46 -96.5t128 -34.5q31 0 66 6l8 -82q-33 -10 -88 -10q-113 0 -181.5 56.5t-68.5 149.5q0 74 51.5 131.5t132.5 94.5l158 905h100
l-164 -936h-2z" />
    <glyph glyph-name="Idotaccent" unicode="&#x130;" horiz-adv-x="528" 
d="M475 1593q-34 0 -57 23t-23 55q0 34 23 57t57 23q33 0 57.5 -23.5t24.5 -56.5q0 -32 -24.5 -55t-57.5 -23zM479 1393l-246 -1393h-104l246 1393h104z" />
    <glyph glyph-name="dotlessi" unicode="&#x131;" horiz-adv-x="471" 
d="M268 936h101l-166 -936h-101z" />
    <glyph glyph-name="IJ" unicode="&#x132;" horiz-adv-x="1789" 
d="M479 1393l-246 -1393h-104l246 1393h104zM1753 1393l-160 -899q-42 -245 -196 -382t-373 -137q-197 0 -311.5 110t-110.5 294h105q2 -144 86.5 -225.5t244.5 -81.5q172 0 295 114t158 310l158 897h104z" />
    <glyph glyph-name="ij" unicode="&#x133;" horiz-adv-x="1064" 
d="M410 1223q-32 0 -54 21.5t-22 53.5t22 53t54 21t53.5 -21t21.5 -53t-21.5 -53.5t-53.5 -21.5zM948 1223q-33 0 -55.5 21.5t-22.5 53.5t22.5 53t55.5 21q31 0 53.5 -21t22.5 -53t-22.5 -53.5t-53.5 -21.5zM297 936h100l-164 -936h-100zM940 936l-182 -1045
q-34 -196 -121.5 -281.5t-265.5 -86.5l10 88q125 5 187.5 65.5t88.5 206.5l185 1053h98z" />
    <glyph glyph-name="Kcommaaccent" unicode="&#x136;" horiz-adv-x="1468" 
d="M1462 1393l-733 -639l565 -754h-133l-520 676l-340 -297l-68 -379h-104l246 1393h104l-151 -858l993 858h141zM616 -147q30 0 53 -21t23 -57q0 -25 -20.5 -61.5t-120.5 -190.5h-66l117 188q-61 9 -61 68q0 31 21.5 52.5t53.5 21.5z" />
    <glyph glyph-name="kcommaaccent" unicode="&#x137;" horiz-adv-x="1157" 
d="M1077 936l-493 -393l415 -543h-131l-366 477l-250 -198l-49 -279h-99l256 1454h101l-185 -1040l666 522h135zM506 -147q30 0 53 -21t23 -57q0 -24 -20 -59.5t-122 -192.5h-65l117 188q-31 4 -46.5 23t-15.5 45q0 31 22 52.5t54 21.5z" />
    <glyph glyph-name="Lacute" unicode="&#x139;" horiz-adv-x="1222" 
d="M741 1841l-237 -287h-96l221 287h112zM250 94h794l-16 -94h-899l246 1393h104z" />
    <glyph glyph-name="lacute" unicode="&#x13a;" horiz-adv-x="471" 
d="M633 1921h112l-237 -287h-96zM360 1454h101l-258 -1454h-101z" />
    <glyph glyph-name="Lcommaaccent" unicode="&#x13b;" horiz-adv-x="1222" 
d="M250 94h794l-16 -94h-899l246 1393h104zM563 -147q30 0 53 -21t23 -57q0 -25 -20.5 -61.5t-120.5 -190.5h-66l117 188q-31 4 -46.5 23t-15.5 45q0 31 22 52.5t54 21.5z" />
    <glyph glyph-name="lcommaaccent" unicode="&#x13c;" horiz-adv-x="471" 
d="M360 1454h101l-258 -1454h-101zM-12 -477l116 188q-61 9 -61 68q0 31 22 52.5t54 21.5q30 0 53 -21t23 -57q0 -24 -20 -59.5t-122 -192.5h-65z" />
    <glyph glyph-name="Lcaron" unicode="&#x13d;" horiz-adv-x="1222" 
d="M250 94h794l-16 -94h-899l246 1393h104zM895 1393l-111 -365h-79l88 365h102z" />
    <glyph glyph-name="lcaron" unicode="&#x13e;" horiz-adv-x="471" 
d="M360 1454h101l-258 -1454h-101zM625 1454h102l-111 -364h-79z" />
    <glyph glyph-name="Ldot" unicode="&#x13f;" horiz-adv-x="1222" 
d="M250 94h794l-16 -94h-899l246 1393h104zM764 563q-34 0 -57 23t-23 55q0 34 23 56t57 22q33 0 56.5 -22.5t23.5 -55.5q0 -32 -24 -55t-56 -23z" />
    <glyph glyph-name="ldot" unicode="&#x140;" horiz-adv-x="768" 
d="M360 1454h101l-258 -1454h-101zM532 561q-34 0 -56.5 22.5t-22.5 55.5q0 34 22.5 56t56.5 22q33 0 56.5 -22.5t23.5 -55.5q0 -32 -24 -55t-56 -23z" />
    <glyph glyph-name="Lslash" unicode="&#x141;" horiz-adv-x="1222" 
d="M250 94h794l-16 -94h-899l90 512l-166 -82l17 96l166 82l139 785h104l-129 -729l369 180l-17 -96l-368 -181z" />
    <glyph glyph-name="lslash" unicode="&#x142;" horiz-adv-x="471" 
d="M520 895l-20 -107l-172 -86l-125 -702h-101l115 649l-164 -82l21 107l162 80l124 700h101l-115 -645z" />
    <glyph glyph-name="Nacute" unicode="&#x143;" horiz-adv-x="1585" 
d="M1221 1841l-238 -287h-96l221 287h113zM1432 1393h104l-246 -1393h-94l-747 1217l-216 -1217h-104l246 1393h82l760 -1229z" />
    <glyph glyph-name="nacute" unicode="&#x144;" horiz-adv-x="1185" 
d="M979 1403l-238 -287h-96l221 287h113zM731 961q176 0 265.5 -110t54.5 -300l-97 -551h-98l96 547q27 153 -42 237t-208 84q-106 0 -210 -47.5t-181 -134.5l-121 -686h-98l166 936h98l-22 -125q166 150 397 150z" />
    <glyph glyph-name="Ncommaaccent" unicode="&#x145;" horiz-adv-x="1585" 
d="M1432 1393h104l-246 -1393h-94l-747 1217l-216 -1217h-104l246 1393h82l760 -1229zM686 -147q30 0 53 -21t23 -57q0 -25 -20.5 -61.5t-120.5 -190.5h-66l117 188q-31 4 -46.5 23t-15.5 45q0 31 22 52.5t54 21.5z" />
    <glyph glyph-name="ncommaaccent" unicode="&#x146;" horiz-adv-x="1185" 
d="M731 961q176 0 265.5 -110t54.5 -300l-97 -551h-98l96 547q27 153 -42 237t-208 84q-106 0 -210 -47.5t-181 -134.5l-121 -686h-98l166 936h98l-22 -125q166 150 397 150zM487 -147q30 0 53 -21t23 -57q0 -25 -20.5 -61.5t-120.5 -190.5h-66l117 188q-61 9 -61 68
q0 31 21.5 52.5t53.5 21.5z" />
    <glyph glyph-name="Ncaron" unicode="&#x147;" horiz-adv-x="1585" 
d="M1053 1556h-117l-205 289h98l172 -229l250 229h109zM1432 1393h104l-246 -1393h-94l-747 1217l-216 -1217h-104l246 1393h82l760 -1229z" />
    <glyph glyph-name="ncaron" unicode="&#x148;" horiz-adv-x="1185" 
d="M764 1106h-117l-205 289h99l172 -230l250 230h108zM731 961q176 0 265.5 -110t54.5 -300l-97 -551h-98l96 547q27 153 -42 237t-208 84q-106 0 -210 -47.5t-181 -134.5l-121 -686h-98l166 936h98l-22 -125q166 150 397 150z" />
    <glyph glyph-name="Omacron" unicode="&#x14c;" horiz-adv-x="1726" 
d="M803 1661h567l-14 -76h-568zM1028 1417q133 0 247.5 -47.5t194 -129.5t125 -196t45.5 -243q0 -164 -73 -317.5t-192 -264.5t-276.5 -177.5t-320.5 -66.5q-177 0 -317.5 81.5t-217.5 222t-77 313.5q0 164 73 317.5t192 264t276.5 177t320.5 66.5zM788 74q141 0 278 57.5
t240 153.5t166.5 229.5t63.5 276.5q0 148 -64.5 268t-184 190t-271.5 70q-142 0 -278.5 -57.5t-239 -153.5t-165.5 -229.5t-63 -276.5q0 -225 145 -376.5t373 -151.5z" />
    <glyph glyph-name="omacron" unicode="&#x14d;" horiz-adv-x="1267" 
d="M512 1235h567l-14 -76h-567zM721 961q183 0 300.5 -119.5t117.5 -300.5q0 -91 -32 -178t-88.5 -156t-130.5 -122t-163 -81.5t-180 -28.5q-185 0 -301.5 118.5t-116.5 299.5q0 152 83 283.5t220 208t291 76.5zM561 68q91 0 178.5 37t152.5 98t104.5 146t39.5 177
q0 145 -93 243.5t-238 98.5q-123 0 -233.5 -62.5t-177.5 -169.5t-67 -230q0 -146 93 -242t241 -96z" />
    <glyph glyph-name="Ohungarumlaut" unicode="&#x150;" horiz-adv-x="1726" 
d="M1004 1841h104l-172 -287h-92zM1270 1841h106l-174 -287h-92zM1028 1417q133 0 247.5 -47.5t194 -129.5t125 -196t45.5 -243q0 -164 -73 -317.5t-192 -264.5t-276.5 -177.5t-320.5 -66.5q-177 0 -317.5 81.5t-217.5 222t-77 313.5q0 164 73 317.5t192 264t276.5 177
t320.5 66.5zM788 74q141 0 278 57.5t240 153.5t166.5 229.5t63.5 276.5q0 148 -64.5 268t-184 190t-271.5 70q-142 0 -278.5 -57.5t-239 -153.5t-165.5 -229.5t-63 -276.5q0 -225 145 -376.5t373 -151.5z" />
    <glyph glyph-name="ohungarumlaut" unicode="&#x151;" horiz-adv-x="1267" 
d="M721 1405h104l-172 -287h-92zM987 1405h107l-174 -287h-93zM721 961q183 0 300.5 -119.5t117.5 -300.5q0 -91 -32 -178t-88.5 -156t-130.5 -122t-163 -81.5t-180 -28.5q-185 0 -301.5 118.5t-116.5 299.5q0 152 83 283.5t220 208t291 76.5zM561 68q91 0 178.5 37
t152.5 98t104.5 146t39.5 177q0 145 -93 243.5t-238 98.5q-123 0 -233.5 -62.5t-177.5 -169.5t-67 -230q0 -146 93 -242t241 -96z" />
    <glyph glyph-name="OE" unicode="&#x152;" horiz-adv-x="2181" 
d="M2146 1298h-846l-98 -557h764l-16 -94h-764l-99 -551h848l-18 -96h-1081q-302 0 -486 166.5t-184 427.5q0 166 71.5 314.5t194 254.5t292 168t357.5 62h1082zM983 98l213 1196l-131 2q-221 0 -403 -90.5t-286 -248t-104 -349.5q0 -226 157.5 -368t422.5 -142h131z" />
    <glyph glyph-name="oe" unicode="&#x153;" horiz-adv-x="2101" 
d="M1128 436l-4 -16q-12 -154 76 -254t250 -100q103 0 193 43.5t133 113.5h110q-59 -114 -183.5 -181t-268.5 -67q-150 0 -252 71.5t-140 191.5q-84 -120 -217 -191.5t-280 -71.5q-185 0 -301.5 118.5t-116.5 299.5q0 152 83 283.5t220 208t291 76.5q143 0 248 -75t147 -200
q79 125 207 198.5t276 73.5q205 0 305 -143.5t56 -378.5h-832zM1589 872q-159 0 -282.5 -101t-165.5 -259h729q19 165 -54.5 262.5t-226.5 97.5zM561 68q161 0 294.5 104t170.5 258q0 13 4 37q1 4 2 12.5t2 12.5q2 10 2 34q0 145 -93 243.5t-238 98.5q-123 0 -233.5 -62.5
t-177.5 -169.5t-67 -230q0 -146 93 -242t241 -96z" />
    <glyph glyph-name="Racute" unicode="&#x154;" horiz-adv-x="1419" 
d="M1069 1841l-238 -287h-96l221 287h113zM1327 1024q0 -198 -137 -330t-359 -162l373 -532h-127l-362 526h-389l-93 -526h-104l246 1393h487q215 0 340 -98.5t125 -270.5zM463 1298l-121 -677h391q140 0 251 46.5t176 136t65 206.5q0 134 -101.5 211t-271.5 77h-389z" />
    <glyph glyph-name="racute" unicode="&#x155;" horiz-adv-x="704" 
d="M776 1403l-237 -287h-97l222 287h112zM324 754q83 96 191 150t224 54l-16 -94q-120 -2 -230 -64.5t-192 -176.5l-111 -623h-98l166 936h98z" />
    <glyph glyph-name="Rcommaaccent" unicode="&#x156;" horiz-adv-x="1419" 
d="M1327 1024q0 -198 -137 -330t-359 -162l373 -532h-127l-362 526h-389l-93 -526h-104l246 1393h487q215 0 340 -98.5t125 -270.5zM463 1298l-121 -677h391q140 0 251 46.5t176 136t65 206.5q0 134 -101.5 211t-271.5 77h-389zM565 -147q30 0 53 -21t23 -57
q0 -25 -20.5 -61.5t-120.5 -190.5h-66l117 188q-31 4 -46.5 23t-15.5 45q0 31 22 52.5t54 21.5z" />
    <glyph glyph-name="rcommaaccent" unicode="&#x157;" horiz-adv-x="704" 
d="M324 754q83 96 191 150t224 54l-16 -94q-120 -2 -230 -64.5t-192 -176.5l-111 -623h-98l166 936h98zM104 -147q30 0 53 -21t23 -57q0 -25 -20.5 -61.5t-120.5 -190.5h-66l117 188q-61 9 -61 68q0 31 21.5 52.5t53.5 21.5z" />
    <glyph glyph-name="Rcaron" unicode="&#x158;" horiz-adv-x="1419" 
d="M901 1556h-117l-204 289h98l172 -229l250 229h108zM1327 1024q0 -198 -137 -330t-359 -162l373 -532h-127l-362 526h-389l-93 -526h-104l246 1393h487q215 0 340 -98.5t125 -270.5zM463 1298l-121 -677h391q140 0 251 46.5t176 136t65 206.5q0 134 -101.5 211t-271.5 77
h-389z" />
    <glyph glyph-name="rcaron" unicode="&#x159;" horiz-adv-x="704" 
d="M561 1106h-117l-204 289h98l172 -230l250 230h108zM324 754q83 96 191 150t224 54l-16 -94q-120 -2 -230 -64.5t-192 -176.5l-111 -623h-98l166 936h98z" />
    <glyph glyph-name="Sacute" unicode="&#x15a;" horiz-adv-x="1345" 
d="M995 1841h113l-238 -287h-96zM821 1419q220 0 350 -103t123 -286h-102q-2 139 -100.5 219t-280.5 80q-193 0 -310.5 -88t-117.5 -223q0 -94 67 -151.5t203 -84.5l189 -39q184 -36 266 -116t82 -217q0 -194 -156 -315.5t-416 -121.5q-253 0 -386 121t-121 346h102
q-6 -372 426 -372q207 0 324.5 87t117.5 228q0 103 -61 168.5t-215 95.5l-209 41q-328 67 -322 322q2 121 73.5 214.5t195 144t278.5 50.5z" />
    <glyph glyph-name="sacute" unicode="&#x15b;" horiz-adv-x="1095" 
d="M821 1403h113l-238 -287h-96zM195 279q6 -106 85 -162t224 -56t231 54.5t86 152.5q0 125 -166 154l-200 33q-117 22 -178.5 70.5t-61.5 142.5q0 133 116 213t296 80q108 0 190 -30t129.5 -96t38.5 -161h-92q6 100 -65.5 152.5t-209.5 52.5q-140 0 -221.5 -52.5
t-81.5 -140.5q0 -59 42.5 -94.5t136.5 -52.5l184 -33q52 -10 89 -23t75 -37t58 -65t20 -98q0 -141 -117 -224.5t-307 -83.5q-180 0 -289 78t-109 226h97z" />
    <glyph glyph-name="Scedilla" unicode="&#x15e;" horiz-adv-x="1345" 
d="M821 1419q220 0 350 -103t123 -286h-102q-2 139 -100.5 219t-280.5 80q-193 0 -310.5 -88t-117.5 -223q0 -94 67 -151.5t203 -84.5l189 -39q184 -36 266 -116t82 -217q0 -194 -156 -315.5t-416 -121.5q-253 0 -386 121t-121 346h102q-6 -372 426 -372q207 0 324.5 87
t117.5 228q0 103 -61 168.5t-215 95.5l-209 41q-328 67 -322 322q2 121 73.5 214.5t195 144t278.5 50.5zM573 -158l-157 -272h-92l147 272h102z" />
    <glyph glyph-name="scedilla" unicode="&#x15f;" horiz-adv-x="1095" 
d="M195 279q6 -106 85 -162t224 -56t231 54.5t86 152.5q0 125 -166 154l-200 33q-117 22 -178.5 70.5t-61.5 142.5q0 133 116 213t296 80q108 0 190 -30t129.5 -96t38.5 -161h-92q6 100 -65.5 152.5t-209.5 52.5q-140 0 -221.5 -52.5t-81.5 -140.5q0 -59 42.5 -94.5
t136.5 -52.5l184 -33q52 -10 89 -23t75 -37t58 -65t20 -98q0 -141 -117 -224.5t-307 -83.5q-180 0 -289 78t-109 226h97zM492 -158l-158 -272h-92l147 272h103z" />
    <glyph glyph-name="Scaron" unicode="&#x160;" horiz-adv-x="1345" 
d="M1139 1845h108l-307 -289h-117l-205 289h99l172 -229zM821 1419q220 0 350 -103t123 -286h-102q-2 139 -100.5 219t-280.5 80q-193 0 -310.5 -88t-117.5 -223q0 -94 67 -151.5t203 -84.5l189 -39q184 -36 266 -116t82 -217q0 -194 -156 -315.5t-416 -121.5
q-253 0 -386 121t-121 346h102q-6 -372 426 -372q207 0 324.5 87t117.5 228q0 103 -61 168.5t-215 95.5l-209 41q-328 67 -322 322q2 121 73.5 214.5t195 144t278.5 50.5z" />
    <glyph glyph-name="scaron" unicode="&#x161;" horiz-adv-x="1095" 
d="M918 1395h108l-307 -289h-117l-205 289h99l172 -230zM195 279q6 -106 85 -162t224 -56t231 54.5t86 152.5q0 125 -166 154l-200 33q-117 22 -178.5 70.5t-61.5 142.5q0 133 116 213t296 80q108 0 190 -30t129.5 -96t38.5 -161h-92q6 100 -65.5 152.5t-209.5 52.5
q-140 0 -221.5 -52.5t-81.5 -140.5q0 -59 42.5 -94.5t136.5 -52.5l184 -33q52 -10 89 -23t75 -37t58 -65t20 -98q0 -141 -117 -224.5t-307 -83.5q-180 0 -289 78t-109 226h97z" />
    <glyph glyph-name="uni0162" unicode="&#x162;" horiz-adv-x="1290" 
d="M1393 1393l-19 -95h-532l-230 -1298h-102l229 1298h-534l18 95h1170zM342 -430l147 272h103l-158 -272h-92z" />
    <glyph glyph-name="uni0163" unicode="&#x163;" horiz-adv-x="866" 
d="M449 848l-91 -516q-22 -121 23.5 -192.5t146.5 -71.5q89 0 168 36l-2 -100q-115 -31 -188 -31q-138 0 -207 100t-41 259l90 516h-266l14 88h269l61 350h100l-61 -350h356l-14 -88h-358zM197 -430l147 272h102l-157 -272h-92z" />
    <glyph glyph-name="Tcaron" unicode="&#x164;" horiz-adv-x="1290" 
d="M895 1556h-117l-205 289h99l172 -229l250 229h108zM1393 1393l-19 -95h-532l-230 -1298h-102l229 1298h-534l18 95h1170z" />
    <glyph glyph-name="tcaron" unicode="&#x165;" horiz-adv-x="866" 
d="M829 1458l-110 -364h-80l88 364h102zM526 1286l-61 -350h356l-14 -88h-358l-91 -516q-22 -121 23.5 -192.5t146.5 -71.5q89 0 168 36l-2 -100q-115 -31 -188 -31q-138 0 -207 100t-41 259l90 516h-266l14 88h269l61 350h100z" />
    <glyph glyph-name="Umacron" unicode="&#x16a;" horiz-adv-x="1558" 
d="M674 1661h567l-14 -76h-568zM1522 1393l-144 -811q-48 -273 -235.5 -441t-454.5 -168q-171 0 -290.5 80.5t-167 219t-17.5 309.5l141 811h105l-144 -811q-25 -146 12 -262t134.5 -183t240.5 -67q215 0 374 145t198 367l143 811h105z" />
    <glyph glyph-name="umacron" unicode="&#x16b;" horiz-adv-x="1208" 
d="M1020 1235l-14 -76h-568l15 76h567zM995 936h99l-164 -936h-101l23 125q-79 -72 -183 -111t-214 -39q-176 0 -265.5 110t-56.5 300l98 551h99l-97 -547q-27 -153 42.5 -237t209.5 -84q105 0 209 47.5t180 134.5z" />
    <glyph glyph-name="Uring" unicode="&#x16e;" horiz-adv-x="1558" 
d="M961 1960q83 0 137.5 -53t54.5 -135t-54.5 -134.5t-137.5 -52.5q-85 0 -140 52.5t-55 134.5t55 135t140 53zM961 1647q54 0 89 35.5t35 89.5q0 53 -35.5 89.5t-88.5 36.5q-54 0 -90.5 -36.5t-36.5 -89.5q0 -54 36.5 -89.5t90.5 -35.5zM1522 1393l-144 -811
q-48 -273 -235.5 -441t-454.5 -168q-171 0 -290.5 80.5t-167 219t-17.5 309.5l141 811h105l-144 -811q-25 -146 12 -262t134.5 -183t240.5 -67q215 0 374 145t198 367l143 811h105z" />
    <glyph glyph-name="uring" unicode="&#x16f;" horiz-adv-x="1208" 
d="M688 1108q-85 0 -139.5 52t-54.5 134t54.5 135.5t139.5 53.5q83 0 138 -53.5t55 -135.5q0 -81 -54.5 -133.5t-138.5 -52.5zM688 1421q-54 0 -90.5 -37t-36.5 -90q0 -54 36.5 -89.5t90.5 -35.5t89.5 35.5t35.5 89.5q0 53 -36 90t-89 37zM995 936h99l-164 -936h-101l23 125
q-79 -72 -183 -111t-214 -39q-176 0 -265.5 110t-56.5 300l98 551h99l-97 -547q-27 -153 42.5 -237t209.5 -84q105 0 209 47.5t180 134.5z" />
    <glyph glyph-name="Uhungarumlaut" unicode="&#x170;" horiz-adv-x="1558" 
d="M905 1841h105l-172 -287h-93zM1171 1841h107l-174 -287h-92zM1522 1393l-144 -811q-48 -273 -235.5 -441t-454.5 -168q-171 0 -290.5 80.5t-167 219t-17.5 309.5l141 811h105l-144 -811q-25 -146 12 -262t134.5 -183t240.5 -67q215 0 374 145t198 367l143 811h105z" />
    <glyph glyph-name="uhungarumlaut" unicode="&#x171;" horiz-adv-x="1208" 
d="M733 1405l-172 -287h-92l160 287h104zM1001 1405l-174 -287h-92l160 287h106zM995 936h99l-164 -936h-101l23 125q-79 -72 -183 -111t-214 -39q-176 0 -265.5 110t-56.5 300l98 551h99l-97 -547q-27 -153 42.5 -237t209.5 -84q105 0 209 47.5t180 134.5z" />
    <glyph glyph-name="Uogonek" unicode="&#x172;" horiz-adv-x="1558" 
d="M1417 1393h105l-144 -811q-32 -186 -132 -326.5t-251 -214.5q-89 -52 -135.5 -101t-46.5 -110q0 -62 46.5 -98.5t125.5 -36.5q36 0 66 6l10 -88q-33 -10 -88 -10q-112 0 -180 56.5t-68 150.5q0 92 82 174q-71 -11 -119 -11q-171 0 -290.5 80.5t-167 219t-17.5 309.5
l141 811h105l-144 -811q-25 -146 12 -262t134.5 -183t240.5 -67q215 0 374 145t198 367z" />
    <glyph glyph-name="uogonek" unicode="&#x173;" horiz-adv-x="1208" 
d="M915 -315q31 0 66 6l8 -82q-33 -10 -88 -10q-113 0 -181.5 56.5t-68.5 149.5q0 74 51.5 131t133.5 95l16 94q-79 -72 -183 -111t-214 -39q-176 0 -265.5 110t-56.5 300l98 551h99l-97 -547q-27 -153 42.5 -237t209.5 -84q105 0 209 47.5t180 134.5l121 686h99l-164 -936
h-2q-86 -33 -136.5 -75.5t-50.5 -108.5q0 -62 46 -96.5t128 -34.5z" />
    <glyph glyph-name="Wcircumflex" unicode="&#x174;" horiz-adv-x="2101" 
d="M1292 1790l-250 -229h-112l309 288h119l203 -288h-101zM2089 1393h115l-731 -1403h-101l-192 1216l-631 -1216h-100l-234 1403h107l202 -1231l639 1231h92l195 -1237z" />
    <glyph glyph-name="wcircumflex" unicode="&#x175;" horiz-adv-x="1585" 
d="M979 1335l-250 -229h-113l310 289h118l203 -289h-100zM1473 936h108l-510 -936h-102l-123 780l-397 -780h-95l-190 936h106l150 -786l407 786h88l123 -793z" />
    <glyph glyph-name="Ycircumflex" unicode="&#x176;" horiz-adv-x="1335" 
d="M864 1790l-250 -229h-112l309 288h119l203 -288h-101zM1460 1393l-737 -881l-92 -512h-105l90 510l-426 883h115l375 -775l651 775h129z" />
    <glyph glyph-name="ycircumflex" unicode="&#x177;" horiz-adv-x="1175" 
d="M735 1333l-250 -229h-112l309 289h119l203 -289h-101zM1102 936h115l-885 -1389h-117l262 410l-313 979h108l273 -873z" />
    <glyph glyph-name="Ydieresis" unicode="&#x178;" horiz-adv-x="1335" 
d="M645 1591q-34 0 -56 22t-22 54t22 54t56 22q32 0 55 -22t23 -54t-23 -54t-55 -22zM1004 1591q-32 0 -55 22t-23 54t23 54t55 22q34 0 55.5 -21.5t21.5 -54.5t-21.5 -54.5t-55.5 -21.5zM1460 1393l-737 -881l-92 -512h-105l90 510l-426 883h115l375 -775l651 775h129z" />
    <glyph glyph-name="Zacute" unicode="&#x179;" horiz-adv-x="1341" 
d="M1112 1841l-238 -287h-96l221 287h113zM1354 1393l-11 -60l-1110 -1239h893l-16 -94h-1059l10 59l1123 1239h-881l16 95h1035z" />
    <glyph glyph-name="zacute" unicode="&#x17a;" horiz-adv-x="1005" 
d="M895 1403l-238 -287h-96l221 287h113zM981 936l-10 -62l-785 -788h645l-16 -86h-788l10 57l784 793h-620l16 86h764z" />
    <glyph glyph-name="Zdotaccent" unicode="&#x17b;" horiz-adv-x="1341" 
d="M848 1589q-34 0 -57 23t-23 55q0 34 23 56t57 22q33 0 56.5 -22.5t23.5 -55.5q0 -32 -24 -55t-56 -23zM1354 1393l-11 -60l-1110 -1239h893l-16 -94h-1059l10 59l1123 1239h-881l16 95h1035z" />
    <glyph glyph-name="zdotaccent" unicode="&#x17c;" horiz-adv-x="1005" 
d="M618 1184q-34 0 -56.5 23t-22.5 55q0 34 22.5 55.5t56.5 21.5q33 0 56.5 -22t23.5 -55q0 -32 -24 -55t-56 -23zM981 936l-10 -62l-785 -788h645l-16 -86h-788l10 57l784 793h-620l16 86h764z" />
    <glyph glyph-name="Zcaron" unicode="&#x17d;" horiz-adv-x="1341" 
d="M944 1556h-117l-204 289h98l172 -229l250 229h108zM1354 1393l-11 -60l-1110 -1239h893l-16 -94h-1059l10 59l1123 1239h-881l16 95h1035z" />
    <glyph glyph-name="zcaron" unicode="&#x17e;" horiz-adv-x="1005" 
d="M680 1106h-117l-205 289h99l172 -230l250 230h108zM201 850l16 86h764l-10 -62l-785 -788h645l-16 -86h-788l10 57l784 793h-620z" />
    <glyph glyph-name="florin" unicode="&#x192;" horiz-adv-x="952" 
d="M938 1403q84 0 178 -27l-31 -86q-89 21 -149 21q-99 0 -167 -64t-103 -176l-101 -326h348l-14 -86h-360l-148 -485q-47 -155 -142.5 -243.5t-232.5 -88.5q-81 0 -180 27l33 86q89 -21 149 -21q99 0 167.5 64t103.5 176l147 485h-266l16 86h277l100 326q49 155 144 243.5
t231 88.5z" />
    <glyph glyph-name="uni01CD" unicode="&#x1cd;" horiz-adv-x="1523" 
d="M1014 1556h-117l-205 289h99l172 -229l249 229h109zM1257 0l-124 444h-750l-281 -444h-116l886 1395h101l395 -1395h-111zM444 541h662l-203 725z" />
    <glyph glyph-name="uni01CE" unicode="&#x1ce;" horiz-adv-x="1271" 
d="M827 1106h-116l-205 289h98l172 -230l250 230h109zM1069 936h100l-165 -936h-101l23 123q-167 -148 -387 -148q-182 0 -297 118.5t-115 301.5q0 150 83.5 280.5t218.5 206.5t284 76q221 0 334 -147zM948 250l76 434q-45 91 -127 138.5t-190 47.5q-122 0 -233 -62.5
t-179 -170t-68 -229.5q0 -149 94 -245.5t242 -96.5q226 0 385 184z" />
    <glyph glyph-name="Scommaaccent" unicode="&#x218;" horiz-adv-x="1345" 
d="M821 1419q220 0 350 -103t123 -286h-102q-2 139 -100.5 219t-280.5 80q-193 0 -310.5 -88t-117.5 -223q0 -94 67 -151.5t203 -84.5l189 -39q184 -36 266 -116t82 -217q0 -194 -156 -315.5t-416 -121.5q-253 0 -386 121t-121 346h102q-6 -372 426 -372q207 0 324.5 87
t117.5 228q0 103 -61 168.5t-215 95.5l-209 41q-328 67 -322 322q2 121 73.5 214.5t195 144t278.5 50.5zM449 -477l116 188q-61 9 -61 68q0 31 22 52.5t54 21.5q30 0 52.5 -21t22.5 -57q0 -25 -20.5 -61.5t-120.5 -190.5h-65z" />
    <glyph glyph-name="scommaaccent" unicode="&#x219;" horiz-adv-x="1095" 
d="M195 279q6 -106 85 -162t224 -56t231 54.5t86 152.5q0 125 -166 154l-200 33q-117 22 -178.5 70.5t-61.5 142.5q0 133 116 213t296 80q108 0 190 -30t129.5 -96t38.5 -161h-92q6 100 -65.5 152.5t-209.5 52.5q-140 0 -221.5 -52.5t-81.5 -140.5q0 -59 42.5 -94.5
t136.5 -52.5l184 -33q52 -10 89 -23t75 -37t58 -65t20 -98q0 -141 -117 -224.5t-307 -83.5q-180 0 -289 78t-109 226h97zM330 -477l116 188q-61 9 -61 68q0 31 22 52.5t54 21.5q30 0 53 -21t23 -57q0 -24 -20 -59.5t-122 -192.5h-65z" />
    <glyph glyph-name="uni021A" unicode="&#x21a;" horiz-adv-x="1290" 
d="M1393 1393l-19 -95h-532l-230 -1298h-102l229 1298h-534l18 95h1170zM522 -147q30 0 53 -21t23 -57q0 -25 -20.5 -61.5t-120.5 -190.5h-66l117 188q-31 4 -46.5 23t-15.5 45q0 31 22 52.5t54 21.5z" />
    <glyph glyph-name="uni021B" unicode="&#x21b;" horiz-adv-x="866" 
d="M449 848l-91 -516q-22 -121 23.5 -192.5t146.5 -71.5q89 0 168 36l-2 -100q-115 -31 -188 -31q-138 0 -207 100t-41 259l90 516h-266l14 88h269l61 350h100l-61 -350h356l-14 -88h-358zM416 -147q30 0 53 -21t23 -57q0 -24 -20 -59.5t-122 -192.5h-65l116 188
q-61 9 -61 68q0 31 22 52.5t54 21.5z" />
    <glyph glyph-name="circumflex" unicode="&#x2c6;" 
d="M866 1161l-168 230l-249 -230h-113l309 289h119l203 -289h-101z" />
    <glyph glyph-name="caron" unicode="&#x2c7;" 
d="M956 1450h109l-307 -289h-117l-205 289h99l172 -229z" />
    <glyph glyph-name="breve" unicode="&#x2d8;" 
d="M973 1407q-22 -128 -116.5 -199t-209.5 -71q-117 0 -188 71t-49 199h79q-16 -96 34.5 -146.5t129.5 -50.5q48 0 95.5 19.5t88 66t52.5 111.5h84z" />
    <glyph glyph-name="dotaccent" unicode="&#x2d9;" 
d="M662 1163q-34 0 -57 23t-23 55q0 34 23 56t57 22q33 0 56 -22.5t23 -55.5q0 -32 -23.5 -55t-55.5 -23z" />
    <glyph glyph-name="ring" unicode="&#x2da;" 
d="M657 1524q83 0 138 -53.5t55 -135.5q0 -81 -54.5 -133.5t-138.5 -52.5q-85 0 -139.5 52t-54.5 134t54.5 135.5t139.5 53.5zM657 1210q54 0 89.5 35.5t35.5 89.5q0 53 -36 90t-89 37q-54 0 -90.5 -37t-36.5 -90q0 -54 36.5 -89.5t90.5 -35.5z" />
    <glyph glyph-name="ogonek" unicode="&#x2db;" 
d="M743 -8q-85 -33 -135.5 -76t-50.5 -109q0 -62 46 -96.5t128 -34.5q26 0 66 7l8 -82q-37 -11 -88 -11q-113 0 -181.5 56.5t-68.5 150.5q0 48 22 90t60.5 73t81.5 53t92 38z" />
    <glyph glyph-name="tilde" unicode="&#x2dc;" 
d="M942 1401q1 -63 -25 -105.5t-66.5 -57.5t-89 -8t-93.5 36l-74 47q-60 43 -117 23t-57 -89h-74q-1 62 27.5 103t71 54t90 7t86.5 -31l73 -47q68 -45 121 -24.5t53 92.5h74z" />
    <glyph glyph-name="hungarumlaut" unicode="&#x2dd;" 
d="M588 1446h104l-172 -287h-92zM854 1446h107l-175 -287h-92z" />
    <glyph glyph-name="uni0326" unicode="&#x326;" horiz-adv-x="0" 
d="M-772 -477l117 188q-31 4 -46.5 23t-15.5 45q0 31 22 52.5t54 21.5q30 0 53 -21t23 -57q0 -24 -20 -59.5t-122 -192.5h-65z" />
    <glyph glyph-name="Wgrave" unicode="&#x1e80;" horiz-adv-x="2101" 
d="M1276 1554h-98l-187 287h113zM2089 1393h115l-731 -1403h-101l-192 1216l-631 -1216h-100l-234 1403h107l202 -1231l639 1231h92l195 -1237z" />
    <glyph glyph-name="wgrave" unicode="&#x1e81;" horiz-adv-x="1585" 
d="M942 1118h-98l-187 287h113zM1473 936h108l-510 -936h-102l-123 780l-397 -780h-95l-190 936h106l150 -786l407 786h88l123 -793z" />
    <glyph glyph-name="Wacute" unicode="&#x1e82;" horiz-adv-x="2101" 
d="M1520 1841l-238 -287h-96l221 287h113zM2089 1393h115l-731 -1403h-101l-192 1216l-631 -1216h-100l-234 1403h107l202 -1231l639 1231h92l195 -1237z" />
    <glyph glyph-name="wacute" unicode="&#x1e83;" horiz-adv-x="1585" 
d="M1182 1403l-238 -287h-96l221 287h113zM1473 936h108l-510 -936h-102l-123 780l-397 -780h-95l-190 936h106l150 -786l407 786h88l123 -793z" />
    <glyph glyph-name="Wdieresis" unicode="&#x1e84;" horiz-adv-x="2101" 
d="M1073 1591q-34 0 -56 22t-22 54t22 54t56 22q32 0 55 -22t23 -54t-23 -54t-55 -22zM1432 1591q-32 0 -55 22t-23 54t23 54t55 22q34 0 55.5 -21.5t21.5 -54.5t-21.5 -54.5t-55.5 -21.5zM2089 1393h115l-731 -1403h-101l-192 1216l-631 -1216h-100l-234 1403h107
l202 -1231l639 1231h92l195 -1237z" />
    <glyph glyph-name="wdieresis" unicode="&#x1e85;" horiz-adv-x="1585" 
d="M727 1186q-34 0 -56 22t-22 54t22 53.5t56 21.5q33 0 55.5 -21.5t22.5 -53.5t-23 -54t-55 -22zM1085 1186q-32 0 -54.5 22t-22.5 54t22.5 53.5t54.5 21.5q34 0 56 -21.5t22 -53.5t-22 -54t-56 -22zM1473 936h108l-510 -936h-102l-123 780l-397 -780h-95l-190 936h106
l150 -786l407 786h88l123 -793z" />
    <glyph glyph-name="uni1E9E" unicode="&#x1e9e;" horiz-adv-x="1476" 
d="M1466 1393l-12 -66l-557 -547h49q182 0 288.5 -90.5t106.5 -240.5q0 -135 -76 -244t-211 -170.5t-304 -61.5q-127 0 -252 35l16 94q121 -39 246 -39q206 0 340.5 104t134.5 265q0 118 -88.5 188t-241.5 70h-168l8 51l566 557h-504q-164 0 -281.5 -99.5t-146.5 -262.5
l-166 -936h-100l163 934q37 207 187.5 333t361.5 126h641z" />
    <glyph glyph-name="Ygrave" unicode="&#x1ef2;" horiz-adv-x="1335" 
d="M848 1554h-98l-187 287h113zM1460 1393l-737 -881l-92 -512h-105l90 510l-426 883h115l375 -775l651 775h129z" />
    <glyph glyph-name="ygrave" unicode="&#x1ef3;" horiz-adv-x="1175" 
d="M750 1118h-99l-186 287h113zM1102 936h115l-885 -1389h-117l262 410l-313 979h108l273 -873z" />
    <glyph glyph-name="endash" unicode="&#x2013;" horiz-adv-x="1490" 
d="M244 520h1018l18 88h-1018z" />
    <glyph glyph-name="emdash" unicode="&#x2014;" horiz-adv-x="2000" 
d="M244 520h1528l18 88h-1528z" />
    <glyph glyph-name="quoteleft" unicode="&#x2018;" horiz-adv-x="385" 
d="M455 1415l-158 -291q51 -15 51 -63q0 -31 -22 -52.5t-54 -21.5t-53.5 21.5t-21.5 52.5q0 34 49 113l141 241h68z" />
    <glyph glyph-name="quoteright" unicode="&#x2019;" horiz-adv-x="385" 
d="M188 991l158 291q-51 15 -51 64q0 31 22 52t54 21t53.5 -21t21.5 -52q0 -34 -49 -113l-141 -242h-68z" />
    <glyph glyph-name="quotesinglbase" unicode="&#x201a;" horiz-adv-x="382" 
d="M-39 -295l158 291q-51 15 -51 63q0 31 21.5 52.5t53.5 21.5t54 -21.5t22 -52.5q0 -33 -49 -112l-141 -242h-68z" />
    <glyph glyph-name="quotedblleft" unicode="&#x201c;" horiz-adv-x="696" 
d="M455 1415l-158 -291q51 -15 51 -63q0 -31 -22 -52.5t-54 -21.5t-53.5 21.5t-21.5 52.5q0 34 49 113l141 241h68zM768 1415l-158 -291q52 -16 52 -63q0 -31 -22 -52.5t-54 -21.5t-54 21.5t-22 52.5q0 34 49 113l141 241h68z" />
    <glyph glyph-name="quotedblright" unicode="&#x201d;" horiz-adv-x="698" 
d="M188 991l158 291q-51 15 -51 64q0 31 22 52t54 21t53.5 -21t21.5 -52q0 -34 -49 -113l-141 -242h-68zM502 991l157 291q-51 15 -51 64q0 31 22 52t54 21t54 -21t22 -52q0 -34 -49 -113l-142 -242h-67z" />
    <glyph glyph-name="quotedblbase" unicode="&#x201e;" horiz-adv-x="698" 
d="M-39 -295l158 291q-51 15 -51 63q0 31 21.5 52.5t53.5 21.5t54 -21.5t22 -52.5q0 -33 -49 -112l-141 -242h-68zM276 -295l158 291q-51 15 -51 63q0 31 22 52.5t54 21.5t54 -21.5t22 -52.5t-50 -112l-141 -242h-68z" />
    <glyph glyph-name="dagger" unicode="&#x2020;" horiz-adv-x="829" 
d="M825 1149h-262l-80 -451h-75l79 451h-262l15 78h262l45 260h76l-45 -260h262z" />
    <glyph glyph-name="daggerdbl" unicode="&#x2021;" horiz-adv-x="831" 
d="M571 1192l-32 -180h262l-13 -76h-262l-43 -238h-75l43 238h-263l13 76h262l33 180h-263l13 76h262l39 219h76l-39 -219h262l-12 -76h-263z" />
    <glyph glyph-name="bullet" unicode="&#x2022;" horiz-adv-x="641" 
d="M348 389q-89 0 -154 65.5t-65 153.5t65 153.5t154 65.5t155 -65.5t66 -153.5t-66 -153.5t-155 -65.5z" />
    <glyph glyph-name="ellipsis" unicode="&#x2026;" horiz-adv-x="1101" 
d="M96 -14q-32 0 -54 21t-22 52q0 32 22 54t54 22t54 -22t22 -54q0 -31 -22 -52t-54 -21zM485 -14q-32 0 -53.5 21t-21.5 52q0 32 21.5 54t53.5 22t54 -22t22 -54q0 -31 -22 -52t-54 -21zM862 -14q-32 0 -54 21t-22 52q0 32 22 54t54 22t54 -22t22 -54q0 -31 -22 -52
t-54 -21z" />
    <glyph glyph-name="perthousand" unicode="&#x2030;" horiz-adv-x="3219" 
d="M711 1423q140 0 227.5 -90.5t87.5 -230.5q0 -123 -62.5 -226t-166 -161t-222.5 -58q-140 0 -227.5 91t-87.5 233q0 122 63 224.5t166.5 160t221.5 57.5zM1657 1393l-920 -1393h-84l920 1393h84zM696 1343q-140 0 -247 -102t-107 -248q0 -109 71 -181.5t179 -72.5
q140 0 246 101.5t106 246.5q0 111 -70 183.5t-178 72.5zM1780 735q140 0 228.5 -90.5t88.5 -230.5q0 -123 -63 -226t-166.5 -161t-222.5 -58q-140 0 -228 91t-88 233q0 122 63 224.5t166.5 160t221.5 57.5zM2716 735q140 0 227.5 -90.5t87.5 -230.5q0 -123 -62.5 -226
t-166 -161t-222.5 -58q-140 0 -227.5 91t-87.5 233q0 122 63 224.5t166.5 160t221.5 57.5zM1767 655q-141 0 -247.5 -102t-106.5 -248q0 -110 69 -182t177 -72q141 0 247.5 101.5t106.5 246.5q0 111 -69 183.5t-177 72.5zM2701 655q-140 0 -246 -102t-106 -248
q0 -110 69 -182t177 -72q141 0 247.5 101.5t106.5 246.5q0 111 -70 183.5t-178 72.5z" />
    <glyph glyph-name="guilsinglleft" unicode="&#x2039;" horiz-adv-x="542" 
d="M369 817h104l-289 -307l183 -293h-105l-182 299z" />
    <glyph glyph-name="guilsinglright" unicode="&#x203a;" horiz-adv-x="542" 
d="M193 215h-105l289 307l-182 293h104l182 -299z" />
    <glyph glyph-name="fraction" unicode="&#x2044;" horiz-adv-x="880" 
d="M942 1393l-919 -1393h-84l919 1393h84z" />
    <glyph glyph-name="uni2070" unicode="&#x2070;" horiz-adv-x="880" 
d="M608 1419q137 0 212 -88t75 -229q0 -130 -52.5 -238.5t-150.5 -173.5t-223 -65q-136 0 -211.5 89t-75.5 230q0 198 120.5 336.5t305.5 138.5zM481 700q96 0 172 55t116 143.5t40 191.5q0 112 -55.5 184t-157.5 72q-144 0 -236 -116t-92 -274q0 -113 55.5 -184.5
t157.5 -71.5z" />
    <glyph glyph-name="uni2074" unicode="&#x2074;" horiz-adv-x="811" 
d="M793 885l-15 -76h-129l-28 -166h-80l28 166h-434l10 53l340 543h86l-321 -520h332l43 243h80l-43 -243h131z" />
    <glyph glyph-name="uni2075" unicode="&#x2075;" horiz-adv-x="763" 
d="M774 1331h-418l-53 -291h-76l64 365h495zM657 903q0 63 -46 101t-128 38l-180 -2l14 74h183q113 0 175 -54t62 -145q0 -120 -92.5 -204t-232.5 -84q-115 0 -182.5 59.5t-69.5 161.5h84q3 -69 52.5 -109.5t127.5 -40.5q100 0 166.5 60t66.5 145z" />
    <glyph glyph-name="uni2076" unicode="&#x2076;" horiz-adv-x="749" 
d="M492 1153q113 0 181 -61t68 -160q0 -128 -100.5 -216.5t-243.5 -88.5q-114 0 -183 63.5t-69 161.5q0 59 24 107.5t75 107.5l311 338h100l-235 -260q31 8 72 8zM410 696q100 0 173.5 63t73.5 156q0 73 -50 118.5t-130 45.5q-107 0 -168 -55l-8 -8q-74 -68 -74 -156
q0 -73 50 -118.5t133 -45.5z" />
    <glyph glyph-name="uni2077" unicode="&#x2077;" horiz-adv-x="622" 
d="M209 1405h547l-11 -51l-495 -711h-96l479 684h-438z" />
    <glyph glyph-name="uni2078" unicode="&#x2078;" horiz-adv-x="790" 
d="M639 1042q58 -24 89.5 -65t31.5 -96q0 -111 -95.5 -183.5t-246.5 -72.5q-121 0 -191.5 53.5t-70.5 140.5q0 79 51.5 139.5t140.5 88.5q-94 43 -94 139q0 99 88.5 166t214.5 67q105 0 169.5 -50.5t64.5 -129.5q0 -67 -41 -118.5t-111 -78.5zM547 1354q-85 0 -147 -48
t-62 -116q0 -58 43.5 -90.5t116.5 -32.5q89 0 149 44.5t60 115.5q0 55 -44.5 91t-115.5 36zM430 696q103 0 170.5 51.5t67.5 129.5q0 60 -49 96.5t-134 36.5q-102 0 -168.5 -49.5t-66.5 -126.5q0 -62 48 -100t132 -38z" />
    <glyph glyph-name="uni2079" unicode="&#x2079;" horiz-adv-x="749" 
d="M580 1432q114 0 182.5 -64t68.5 -162q0 -60 -23.5 -108.5t-74.5 -106.5l-311 -338h-100l235 260q-31 -8 -72 -8q-113 0 -181 61t-68 160q0 128 100.5 217t243.5 89zM676 1042q74 68 74 156q0 73 -50 118.5t-133 45.5q-101 0 -174.5 -63t-73.5 -156q0 -73 50.5 -118.5
t130.5 -45.5q107 0 168 55z" />
    <glyph glyph-name="uni2080" unicode="&#x2080;" horiz-adv-x="880" 
d="M430 410q137 0 212 -88.5t75 -229.5q0 -130 -52.5 -238.5t-150.5 -173.5t-223 -65q-136 0 -211.5 89t-75.5 230q0 96 31.5 183t86.5 152t135.5 103t172.5 38zM303 -309q145 0 236.5 115t91.5 274q0 112 -55.5 184t-157.5 72q-96 0 -172.5 -55t-116 -143.5t-39.5 -190.5
q0 -113 55.5 -184.5t157.5 -71.5z" />
    <glyph glyph-name="uni2081" unicode="&#x2081;" horiz-adv-x="616" 
d="M227 -297h213l-12 -72h-522l12 72h229l107 600l-227 -72l12 74l268 88h43z" />
    <glyph glyph-name="uni2082" unicode="&#x2082;" horiz-adv-x="731" 
d="M342 -102l-233 -195h389l-13 -72h-530l8 45l316 263q121 98 164.5 149t43.5 117q0 59 -40.5 96t-110.5 37q-79 0 -133.5 -41.5t-73.5 -112.5h-82q25 103 103.5 164.5t193.5 61.5q107 0 167 -54t60 -137q0 -79 -48.5 -145t-180.5 -176z" />
    <glyph glyph-name="uni2083" unicode="&#x2083;" horiz-adv-x="753" 
d="M420 16q115 -42 115 -157q0 -105 -85.5 -173.5t-220.5 -68.5q-122 0 -192 55.5t-66 147.5h84q0 -59 46.5 -94t131.5 -35q96 0 159 46.5t63 119.5q0 57 -44.5 90t-121.5 33l10 51l2 18q82 0 137.5 47t55.5 117q0 56 -40.5 89.5t-113.5 33.5q-74 0 -126 -34.5t-71 -92.5
h-82q26 92 104.5 146.5t186.5 54.5q102 0 160.5 -51t58.5 -134q0 -76 -40 -130t-111 -79zM236 49h65l-12 -69h-68z" />
    <glyph glyph-name="uni2084" unicode="&#x2084;" horiz-adv-x="811" 
d="M614 -127l-14 -76h-129l-29 -166h-80l29 166h-434l10 53l340 543h86l-321 -520h331l43 244h80l-43 -244h131z" />
    <glyph glyph-name="uni2085" unicode="&#x2085;" horiz-adv-x="763" 
d="M596 319h-418l-53 -290h-76l64 364h495zM479 -109q0 63 -46 101.5t-128 38.5l-180 -2l14 73h183q113 0 175 -53.5t62 -144.5q0 -120 -93 -204.5t-233 -84.5q-115 0 -182 59.5t-69 161.5h84q3 -69 52 -109t128 -40q100 0 166.5 59.5t66.5 144.5z" />
    <glyph glyph-name="uni2086" unicode="&#x2086;" horiz-adv-x="749" 
d="M313 141q113 0 181.5 -61t68.5 -160q0 -128 -100.5 -216.5t-243.5 -88.5q-114 0 -183 63.5t-69 161.5q0 59 24 107.5t75 107.5l311 338h100l-235 -260q31 8 71 8zM231 -315q101 0 174.5 63t73.5 156q0 73 -50 118.5t-130 45.5q-106 0 -168 -56l-8 -8q-74 -68 -74 -156
q0 -73 49.5 -118t132.5 -45z" />
    <glyph glyph-name="uni2087" unicode="&#x2087;" horiz-adv-x="622" 
d="M31 393h547l-11 -51l-495 -711h-97l480 684h-439z" />
    <glyph glyph-name="uni2088" unicode="&#x2088;" horiz-adv-x="790" 
d="M461 33q58 -24 89.5 -65.5t31.5 -96.5q0 -111 -95.5 -183.5t-246.5 -72.5q-121 0 -192 54t-71 141q0 79 52 139t141 88q-94 43 -94 139q0 99 88.5 166.5t214.5 67.5q105 0 169 -51t64 -130q0 -67 -40.5 -118t-110.5 -78zM369 344q-85 0 -147 -48t-62 -116q0 -58 43 -90.5
t116 -32.5q89 0 149 44.5t60 115.5q0 55 -44 91t-115 36zM252 -313q103 0 170 51t67 129q0 60 -48.5 96.5t-133.5 36.5q-102 0 -168.5 -49.5t-66.5 -126.5q0 -62 48 -99.5t132 -37.5z" />
    <glyph glyph-name="uni2089" unicode="&#x2089;" horiz-adv-x="749" 
d="M399 412q114 0 183 -64t69 -162q0 -60 -23.5 -108.5t-74.5 -106.5l-311 -338h-101l236 261q-35 -9 -72 -9q-113 0 -181.5 61t-68.5 160q0 128 100.5 217t243.5 89zM496 23q73 67 73 155q0 73 -50 118.5t-132 45.5q-101 0 -174.5 -63t-73.5 -156q0 -73 50 -118.5
t130 -45.5q107 0 168 55z" />
    <glyph glyph-name="Euro" unicode="&#x20ac;" horiz-adv-x="1792" 
d="M932 76q202 0 370.5 108t245.5 285h109q-90 -222 -292 -358t-450 -136q-244 0 -410 142t-194 368h-250l15 78h231q-3 61 10 133q5 27 23 97h-225l14 77h240q100 241 323 394t479 153q249 0 402 -135t164 -356h-109q-14 179 -141 286t-334 107q-214 0 -400 -125t-276 -324
h721l-35 -77h-717q-15 -45 -24 -97q-10 -56 -10 -133h653l-33 -78h-612q31 -184 170 -296.5t342 -112.5z" />
    <glyph glyph-name="uni20B9" unicode="&#x20b9;" horiz-adv-x="1265" 
d="M1278 1393l-14 -84h-443q142 -99 142 -283v-27h245l-16 -84h-242q-42 -182 -210 -285.5t-406 -103.5h-25l537 -526h-148l-536 526l16 95h199q181 0 307.5 78.5t161.5 215.5h-598l16 84h594v15q0 133 -97 208.5t-265 75.5h-197l14 95h965z" />
    <glyph glyph-name="uni2116" unicode="&#x2116;" horiz-adv-x="2844" 
d="M1217 164l215 1229h104l-246 -1393h-94l-747 1217l-216 -1217h-104l246 1393h82zM2081 291q-185 0 -301.5 118.5t-116.5 299.5q0 114 49.5 219.5t130.5 181t190 121t224 45.5q183 0 300.5 -119.5t117.5 -300.5q0 -114 -49.5 -219t-131 -180.5t-190.5 -120.5t-223 -45z
M2241 1184q-123 0 -233.5 -62.5t-177.5 -170t-67 -230.5q0 -146 93 -242t241 -96q122 0 232 62t176.5 168.5t66.5 228.5q0 145 -93 243.5t-238 98.5zM1579 0l16 90h945l-17 -90h-944z" />
    <glyph glyph-name="uni2117" unicode="&#x2117;" horiz-adv-x="1775" 
d="M930 1423q150 0 287 -55.5t238 -151.5t160.5 -231.5t59.5 -288.5t-59.5 -288.5t-160.5 -231.5t-238 -151.5t-287 -55.5q-201 0 -372 94t-272.5 262t-101.5 371t101.5 371t272.5 262t372 94zM928 1350q-132 0 -254 -50.5t-212.5 -137t-145 -208.5t-54.5 -258
q0 -180 92 -331t245 -236.5t329 -85.5q177 0 330.5 85.5t246 236.5t92.5 331q0 181 -92.5 332.5t-246 236.5t-330.5 85zM971 1085q134 0 216.5 -67.5t82.5 -177.5t-82.5 -176t-218.5 -66h-201v-279h-70v766h273zM969 1020h-201v-358h201q103 0 165 48.5t62 129.5
q0 80 -62.5 130t-164.5 50z" />
    <glyph glyph-name="trademark" unicode="&#x2122;" horiz-adv-x="1388" 
d="M715 1391l-10 -62h-228l-94 -536h-66l95 536h-228l11 62h520zM1430 1391l-105 -598h-65l81 467l-292 -383h-33l-162 387l-82 -471h-65l104 598h53l180 -422l328 422h58z" />
    <glyph glyph-name="oneeighth" unicode="&#x215b;" horiz-adv-x="1613" 
d="M84 635l12 72h230l106 600l-227 -72l12 74l268 88h43l-122 -690h212l-12 -72h-522zM1212 1393h84l-919 -1393h-84zM1348 401q120 -49 120 -161q0 -111 -95.5 -183.5t-246.5 -72.5q-121 0 -191.5 53.5t-70.5 140.5q0 79 52 139.5t141 88.5q-94 43 -94 139q0 99 88.5 166
t214.5 67q105 0 169 -50.5t64 -129.5q0 -67 -41 -118.5t-110 -78.5zM1255 713q-85 0 -146.5 -47.5t-61.5 -116.5q0 -58 43 -90.5t116 -32.5q89 0 149 44.5t60 115.5q0 55 -44.5 91t-115.5 36zM1139 55q103 0 170 51.5t67 129.5q0 60 -48.5 96.5t-133.5 36.5
q-102 0 -169 -49.5t-67 -126.5q0 -62 48.5 -100t132.5 -38z" />
    <glyph glyph-name="threeeighths" unicode="&#x215c;" horiz-adv-x="1687" 
d="M713 870q0 -105 -85 -173t-220 -68q-122 0 -192 55t-66 147h83q0 -59 47 -94t132 -35q96 0 158.5 46.5t62.5 119.5q0 57 -44.5 90t-121.5 33l10 51l2 19q82 0 137.5 47t55.5 117q0 56 -40.5 89.5t-113.5 33.5q-74 0 -125.5 -34.5t-70.5 -92.5h-82q26 91 104 145.5
t186 54.5q103 0 161.5 -50.5t58.5 -133.5q0 -75 -40 -129.5t-112 -79.5q115 -42 115 -158zM1282 1393h84l-920 -1393h-84zM414 1061h65l-12 -70h-68zM1421 401q58 -24 89.5 -65t31.5 -96q0 -111 -95.5 -183.5t-246.5 -72.5q-121 0 -191.5 53.5t-70.5 140.5q0 79 51.5 139.5
t140.5 88.5q-94 43 -94 139q0 99 88.5 166t214.5 67q105 0 169.5 -50.5t64.5 -129.5q0 -67 -41 -118.5t-111 -78.5zM1329 713q-85 0 -147 -48t-62 -116q0 -58 43.5 -90.5t116.5 -32.5q89 0 149 44.5t60 115.5q0 55 -44.5 91t-115.5 36zM1212 55q103 0 170.5 51.5t67.5 129.5
q0 60 -48.5 96.5t-133.5 36.5q-102 0 -169 -49.5t-67 -126.5q0 -62 48 -100t132 -38z" />
    <glyph glyph-name="fiveeighths" unicode="&#x215d;" horiz-adv-x="1697" 
d="M774 1323h-418l-53 -291h-76l64 365h495zM1300 1393h84l-919 -1393h-84zM737 907q0 -120 -92.5 -204.5t-232.5 -84.5q-115 0 -182.5 60t-69.5 162h84q3 -69 52.5 -109.5t127.5 -40.5q100 0 166.5 60t66.5 145q0 63 -46 101t-128 38l-180 -2l14 74h183q113 0 175 -54
t62 -145zM1432 401q120 -49 120 -161q0 -111 -95.5 -183.5t-246.5 -72.5q-121 0 -191.5 53.5t-70.5 140.5q0 79 52 139.5t141 88.5q-94 43 -94 139q0 99 88.5 166t214.5 67q105 0 169 -50.5t64 -129.5q0 -67 -41 -118.5t-110 -78.5zM1339 713q-85 0 -147 -48t-62 -116
q0 -58 43.5 -90.5t116.5 -32.5q89 0 149 44.5t60 115.5q0 55 -44.5 91t-115.5 36zM1223 55q103 0 170 51.5t67 129.5q0 60 -48.5 96.5t-133.5 36.5q-102 0 -169 -49.5t-67 -126.5q0 -62 48.5 -100t132.5 -38z" />
    <glyph glyph-name="seveneighths" unicode="&#x215e;" horiz-adv-x="1499" 
d="M250 635h-96l479 684h-438l14 78h547l-11 -51zM1069 1393h84l-920 -1393h-83zM1233 401q58 -24 89.5 -65t31.5 -96q0 -111 -95.5 -183.5t-246.5 -72.5q-121 0 -191.5 53.5t-70.5 140.5q0 79 51.5 139.5t140.5 88.5q-94 43 -94 139q0 99 88.5 166t214.5 67
q105 0 169 -50.5t64 -129.5q0 -67 -41 -118.5t-110 -78.5zM1141 713q-85 0 -147 -48t-62 -116q0 -58 43.5 -90.5t116.5 -32.5q89 0 148.5 44.5t59.5 115.5q0 55 -44 91t-115 36zM1024 55q103 0 170.5 51.5t67.5 129.5q0 60 -49 96.5t-134 36.5q-102 0 -168.5 -49.5
t-66.5 -126.5q0 -62 48 -100t132 -38z" />
    <glyph glyph-name="arrowleft" unicode="&#x2190;" horiz-adv-x="1568" 
d="M1487 653h-1239l600 -598l-68 -65l-710 710l710 711l68 -65l-600 -598h1239v-95z" />
    <glyph glyph-name="arrowup" unicode="&#x2191;" horiz-adv-x="1605" 
d="M756 0v1239l-598 -600l-66 68l711 710l710 -710l-65 -68l-598 600v-1239h-94z" />
    <glyph glyph-name="arrowright" unicode="&#x2192;" horiz-adv-x="1568" 
d="M82 653v95h1239l-600 598l67 65l711 -711l-711 -710l-67 65l600 598h-1239z" />
    <glyph glyph-name="arrowdown" unicode="&#x2193;" horiz-adv-x="1605" 
d="M756 1393h94v-1239l598 600l65 -68l-710 -711l-711 711l66 68l598 -600v1239z" />
    <glyph glyph-name="uni2196" unicode="&#x2196;" horiz-adv-x="1671" 
d="M1581 61l-65 -65l-1237 1235l2 -846l-97 2v1006h1006l2 -97l-846 2z" />
    <glyph glyph-name="uni2197" unicode="&#x2197;" horiz-adv-x="1732" 
d="M152 61l1234 1237l-845 -2l2 97h1005v-1006l-96 -2l2 846l-1237 -1235z" />
    <glyph glyph-name="uni2198" unicode="&#x2198;" horiz-adv-x="1671" 
d="M90 1331l66 66l1237 -1235l-2 846l96 -2v-1006h-1006l-2 96l846 -2z" />
    <glyph glyph-name="uni2199" unicode="&#x2199;" horiz-adv-x="1632" 
d="M1581 1331l-1235 -1237l846 2l-2 -96h-1006v1006l97 2l-2 -846l1237 1235z" />
    <glyph glyph-name="minus" unicode="&#x2212;" horiz-adv-x="1398" 
d="M260 608l16 94h926l-16 -94h-926z" />
    <glyph glyph-name="R.ss02" horiz-adv-x="1429" 
d="M717 526h-146l641 -526h-145l-641 526h-100l-93 -526h-102l244 1393h495q214 0 335.5 -98t121.5 -275q0 -220 -171 -357t-439 -137zM463 1298l-119 -675h385q217 0 356.5 105t139.5 276q0 141 -97 217.5t-270 76.5h-395z" />
    <glyph glyph-name="Racute.ss02" horiz-adv-x="1429" 
d="M1096 1841l-238 -287h-96l221 287h113zM717 526h-146l641 -526h-145l-641 526h-100l-93 -526h-102l244 1393h495q214 0 335.5 -98t121.5 -275q0 -220 -171 -357t-439 -137zM463 1298l-119 -675h385q217 0 356.5 105t139.5 276q0 141 -97 217.5t-270 76.5h-395z" />
    <glyph glyph-name="Rcaron.ss02" horiz-adv-x="1429" 
d="M928 1556h-117l-205 289h99l172 -229l249 229h109zM717 526h-146l641 -526h-145l-641 526h-100l-93 -526h-102l244 1393h495q214 0 335.5 -98t121.5 -275q0 -220 -171 -357t-439 -137zM463 1298l-119 -675h385q217 0 356.5 105t139.5 276q0 141 -97 217.5t-270 76.5h-395
z" />
    <glyph glyph-name="Rcommaaccent.ss02" horiz-adv-x="1429" 
d="M717 526h-146l641 -526h-145l-641 526h-100l-93 -526h-102l244 1393h495q214 0 335.5 -98t121.5 -275q0 -220 -171 -357t-439 -137zM463 1298l-119 -675h385q217 0 356.5 105t139.5 276q0 141 -97 217.5t-270 76.5h-395zM586 -147q30 0 53 -21t23 -57q0 -24 -20 -59.5
t-122 -192.5h-65l116 188q-61 9 -61 68q0 31 22 52.5t54 21.5z" />
    <glyph glyph-name="Q.ss03" horiz-adv-x="1726" 
d="M1028 1417q133 0 247.5 -47.5t194 -129.5t125 -196t45.5 -243q0 -164 -73 -317.5t-192 -264.5t-276.5 -177.5t-320.5 -66.5q-177 0 -317.5 81.5t-217.5 222t-77 313.5q0 164 73 317.5t192 264t276.5 177t320.5 66.5zM788 74q141 0 278 57.5t240 153.5t166.5 229.5
t63.5 276.5q0 148 -64.5 268t-184 190t-271.5 70q-142 0 -278.5 -57.5t-239 -153.5t-165.5 -229.5t-63 -276.5q0 -225 145 -376.5t373 -151.5zM788 -180l668 -154l-33 -104q-291 73 -661 182z" />
    <glyph glyph-name="i.loclTRK" horiz-adv-x="526" 
d="M410 1223q-32 0 -54 21.5t-22 53.5t22 53t54 21t53.5 -21t21.5 -53t-21.5 -53.5t-53.5 -21.5zM297 936h100l-164 -936h-100z" />
    <glyph glyph-name="germandbls.case" horiz-adv-x="1476" 
d="M1466 1393l-12 -66l-557 -547h49q182 0 288.5 -90.5t106.5 -240.5q0 -135 -76 -244t-211 -170.5t-304 -61.5q-127 0 -252 35l16 94q121 -39 246 -39q206 0 340.5 104t134.5 265q0 118 -88.5 188t-241.5 70h-168l8 51l566 557h-504q-164 0 -281.5 -99.5t-146.5 -262.5
l-166 -936h-100l163 934q37 207 187.5 333t361.5 126h641z" />
    <glyph glyph-name="l.ss01" horiz-adv-x="706" 
d="M461 1454l-213 -1198q-34 -195 129 -195q59 0 162 29v-92q-122 -29 -189 -29q-123 0 -175 71t-28 212l213 1202h101z" />
    <glyph glyph-name="lacute.ss01" horiz-adv-x="706" 
d="M618 1921h113l-237 -287h-97zM461 1454l-213 -1198q-34 -195 129 -195q59 0 162 29v-92q-122 -29 -189 -29q-123 0 -175 71t-28 212l213 1202h101z" />
    <glyph glyph-name="lcaron.ss01" horiz-adv-x="706" 
d="M461 1454l-213 -1198q-34 -195 129 -195q59 0 162 29v-92q-122 -29 -189 -29q-123 0 -175 71t-28 212l213 1202h101zM649 1454h103l-111 -364h-80z" />
    <glyph glyph-name="lcommaaccent.ss01" horiz-adv-x="706" 
d="M461 1454l-213 -1198q-34 -195 129 -195q59 0 162 29v-92q-122 -29 -189 -29q-123 0 -175 71t-28 212l213 1202h101zM170 -477l117 188q-31 4 -46.5 23t-15.5 45q0 31 22 52.5t54 21.5q30 0 53 -21t23 -57q0 -25 -20.5 -61.5t-120.5 -190.5h-66z" />
    <glyph glyph-name="ldot.ss01" horiz-adv-x="704" 
d="M461 1454l-213 -1198q-34 -195 129 -195q59 0 162 29v-92q-122 -29 -189 -29q-123 0 -175 71t-28 212l213 1202h101zM535 561q-34 0 -57 23t-23 55q0 34 23 56t57 22q33 0 56 -22.5t23 -55.5q0 -32 -23.5 -55t-55.5 -23z" />
    <glyph glyph-name="lslash.ss01" horiz-adv-x="704" 
d="M248 256q-34 -195 129 -195q59 0 162 29v-92q-122 -29 -189 -29q-123 0 -175 71t-28 212l68 383l-135 -68l20 107l133 65l127 715h101l-117 -659l203 100l-21 -107l-200 -100z" />
    <glyph glyph-name="y.ss04" 
d="M1014 936h98l-172 -985q-35 -197 -174 -312.5t-338 -115.5q-177 0 -282 91.5t-107 238.5h102q6 -107 86.5 -175.5t214.5 -68.5q154 0 262.5 92.5t137.5 249.5l32 192q-78 -74 -180 -113.5t-207 -39.5q-188 0 -277 109t-54 302l94 535h98l-92 -530q-29 -155 41 -239.5
t221 -84.5q100 0 202 49t177 137z" />
    <glyph glyph-name="yacute.ss04" 
d="M973 1403l-238 -287h-96l221 287h113zM1014 936h98l-172 -985q-35 -197 -174 -312.5t-338 -115.5q-177 0 -282 91.5t-107 238.5h102q6 -107 86.5 -175.5t214.5 -68.5q154 0 262.5 92.5t137.5 249.5l32 192q-78 -74 -180 -113.5t-207 -39.5q-188 0 -277 109t-54 302
l94 535h98l-92 -530q-29 -155 41 -239.5t221 -84.5q100 0 202 49t177 137z" />
    <glyph glyph-name="ycircumflex.ss04" 
d="M770 1335l-250 -229h-112l309 289h119l202 -289h-100zM1014 936h98l-172 -985q-35 -197 -174 -312.5t-338 -115.5q-177 0 -282 91.5t-107 238.5h102q6 -107 86.5 -175.5t214.5 -68.5q154 0 262.5 92.5t137.5 249.5l32 192q-78 -74 -180 -113.5t-207 -39.5
q-188 0 -277 109t-54 302l94 535h98l-92 -530q-29 -155 41 -239.5t221 -84.5q100 0 202 49t177 137z" />
    <glyph glyph-name="ydieresis.ss04" 
d="M518 1186q-34 0 -56 22t-22 54t22 53.5t56 21.5q33 0 55.5 -21.5t22.5 -53.5t-23 -54t-55 -22zM877 1186q-32 0 -55 22t-23 54t22.5 53.5t55.5 21.5q34 0 55.5 -21.5t21.5 -53.5t-22 -54t-55 -22zM1014 936h98l-172 -985q-35 -197 -174 -312.5t-338 -115.5
q-177 0 -282 91.5t-107 238.5h102q6 -107 86.5 -175.5t214.5 -68.5q154 0 262.5 92.5t137.5 249.5l32 192q-78 -74 -180 -113.5t-207 -39.5q-188 0 -277 109t-54 302l94 535h98l-92 -530q-29 -155 41 -239.5t221 -84.5q100 0 202 49t177 137z" />
    <glyph glyph-name="ygrave.ss04" 
d="M733 1118h-98l-186 287h112zM1014 936h98l-172 -985q-35 -197 -174 -312.5t-338 -115.5q-177 0 -282 91.5t-107 238.5h102q6 -107 86.5 -175.5t214.5 -68.5q154 0 262.5 92.5t137.5 249.5l32 192q-78 -74 -180 -113.5t-207 -39.5q-188 0 -277 109t-54 302l94 535h98
l-92 -530q-29 -155 41 -239.5t221 -84.5q100 0 202 49t177 137z" />
    <glyph glyph-name="a.ss06" horiz-adv-x="1124" 
d="M645 961q193 0 285 -117.5t55 -319.5l-90 -524h-100l20 119q-191 -142 -399 -142q-156 0 -246 66t-90 182q0 132 104 215.5t285 83.5h418q30 161 -36.5 254.5t-219.5 93.5q-127 0 -210.5 -58.5t-115.5 -174.5h-104q42 158 160 240t284 82zM438 66q209 0 393 139l41 237
h-411q-135 0 -208 -56t-73 -142q0 -81 69 -129.5t189 -48.5z" />
    <glyph glyph-name="aacute.ss06" horiz-adv-x="1124" 
d="M967 1403l-238 -287h-96l221 287h113zM645 961q193 0 285 -117.5t55 -319.5l-90 -524h-100l20 119q-191 -142 -399 -142q-156 0 -246 66t-90 182q0 132 104 215.5t285 83.5h418q30 161 -36.5 254.5t-219.5 93.5q-127 0 -210.5 -58.5t-115.5 -174.5h-104q42 158 160 240
t284 82zM438 66q209 0 393 139l41 237h-411q-135 0 -208 -56t-73 -142q0 -81 69 -129.5t189 -48.5z" />
    <glyph glyph-name="abreve.ss06" horiz-adv-x="1124" 
d="M647 1098q-117 0 -188 71t-49 199h79q-16 -96 34.5 -146.5t129.5 -50.5q48 0 95.5 19.5t88 66t52.5 111.5h84q-22 -128 -116.5 -199t-209.5 -71zM645 961q193 0 285 -117.5t55 -319.5l-90 -524h-100l20 119q-191 -142 -399 -142q-156 0 -246 66t-90 182q0 132 104 215.5
t285 83.5h418q30 161 -36.5 254.5t-219.5 93.5q-127 0 -210.5 -58.5t-115.5 -174.5h-104q42 158 160 240t284 82zM438 66q209 0 393 139l41 237h-411q-135 0 -208 -56t-73 -142q0 -81 69 -129.5t189 -48.5z" />
    <glyph glyph-name="uni01CE.ss06" horiz-adv-x="1124" 
d="M752 1106h-117l-205 289h98l172 -230l250 230h109zM645 961q193 0 285 -117.5t55 -319.5l-90 -524h-100l20 119q-191 -142 -399 -142q-156 0 -246 66t-90 182q0 132 104 215.5t285 83.5h418q30 161 -36.5 254.5t-219.5 93.5q-127 0 -210.5 -58.5t-115.5 -174.5h-104
q42 158 160 240t284 82zM438 66q209 0 393 139l41 237h-411q-135 0 -208 -56t-73 -142q0 -81 69 -129.5t189 -48.5z" />
    <glyph glyph-name="acircumflex.ss06" horiz-adv-x="1118" 
d="M735 1333l-250 -229h-112l309 289h119l203 -289h-101zM645 961q193 0 285 -117.5t55 -319.5l-90 -524h-100l20 119q-191 -142 -399 -142q-156 0 -246 66t-90 182q0 132 104 215.5t285 83.5h418q30 161 -36.5 254.5t-219.5 93.5q-127 0 -210.5 -58.5t-115.5 -174.5h-104
q42 158 160 240t284 82zM438 66q209 0 393 139l41 237h-411q-135 0 -208 -56t-73 -142q0 -81 69 -129.5t189 -48.5z" />
    <glyph glyph-name="adieresis.ss06" horiz-adv-x="1124" 
d="M512 1186q-34 0 -56 22t-22 54t22 53.5t56 21.5q33 0 55.5 -21.5t22.5 -53.5t-23 -54t-55 -22zM870 1186q-32 0 -54.5 22t-22.5 54t22.5 53.5t54.5 21.5q34 0 56 -21.5t22 -53.5t-22 -54t-56 -22zM645 961q193 0 285 -117.5t55 -319.5l-90 -524h-100l20 119
q-191 -142 -399 -142q-156 0 -246 66t-90 182q0 132 104 215.5t285 83.5h418q30 161 -36.5 254.5t-219.5 93.5q-127 0 -210.5 -58.5t-115.5 -174.5h-104q42 158 160 240t284 82zM438 66q209 0 393 139l41 237h-411q-135 0 -208 -56t-73 -142q0 -81 69 -129.5t189 -48.5z" />
    <glyph glyph-name="agrave.ss06" horiz-adv-x="1124" 
d="M727 1118h-98l-187 287h113zM645 961q193 0 285 -117.5t55 -319.5l-90 -524h-100l20 119q-191 -142 -399 -142q-156 0 -246 66t-90 182q0 132 104 215.5t285 83.5h418q30 161 -36.5 254.5t-219.5 93.5q-127 0 -210.5 -58.5t-115.5 -174.5h-104q42 158 160 240t284 82z
M438 66q209 0 393 139l41 237h-411q-135 0 -208 -56t-73 -142q0 -81 69 -129.5t189 -48.5z" />
    <glyph glyph-name="amacron.ss06" horiz-adv-x="1118" 
d="M991 1235l-14 -76h-567l14 76h567zM645 961q193 0 285 -117.5t55 -319.5l-90 -524h-100l20 119q-191 -142 -399 -142q-156 0 -246 66t-90 182q0 132 104 215.5t285 83.5h418q30 161 -36.5 254.5t-219.5 93.5q-127 0 -210.5 -58.5t-115.5 -174.5h-104q42 158 160 240
t284 82zM438 66q209 0 393 139l41 237h-411q-135 0 -208 -56t-73 -142q0 -81 69 -129.5t189 -48.5z" />
    <glyph glyph-name="aogonek.ss06" horiz-adv-x="1124" 
d="M893 0q-86 -33 -136 -75.5t-50 -108.5q0 -62 46 -96.5t128 -34.5q31 0 65 6l8 -82q-33 -10 -88 -10q-113 0 -181.5 56.5t-68.5 149.5q0 74 51.5 131t133.5 95l14 88q-191 -142 -399 -142q-156 0 -246 66t-90 182q0 132 104 215.5t285 83.5h418q30 161 -36.5 254.5
t-219.5 93.5q-127 0 -210.5 -58.5t-115.5 -174.5h-104q42 158 160 240t284 82q193 0 285 -117.5t55 -319.5l-90 -524h-2zM438 66q209 0 393 139l41 237h-411q-135 0 -208 -56t-73 -142q0 -81 69 -129.5t189 -48.5z" />
    <glyph glyph-name="aring.ss06" horiz-adv-x="1114" 
d="M692 1108q-85 0 -139.5 52t-54.5 134t54.5 135.5t139.5 53.5q83 0 138 -53.5t55 -135.5q0 -81 -54.5 -133.5t-138.5 -52.5zM692 1421q-54 0 -90.5 -37t-36.5 -90q0 -54 36.5 -89.5t90.5 -35.5t89.5 35.5t35.5 89.5q0 53 -36 90t-89 37zM645 961q193 0 285 -117.5
t55 -319.5l-90 -524h-100l20 119q-191 -142 -399 -142q-156 0 -246 66t-90 182q0 132 104 215.5t285 83.5h418q30 161 -36.5 254.5t-219.5 93.5q-127 0 -210.5 -58.5t-115.5 -174.5h-104q42 158 160 240t284 82zM438 66q209 0 393 139l41 237h-411q-135 0 -208 -56t-73 -142
q0 -81 69 -129.5t189 -48.5z" />
    <glyph glyph-name="atilde.ss06" horiz-adv-x="1114" 
d="M471 1206h-74q-1 62 27.5 103t71 54t90 7t86.5 -31l73 -47q67 -45 121 -24.5t54 92.5h73q1 -63 -25 -105.5t-66.5 -57.5t-89 -8t-93.5 36l-74 47q-60 43 -117 23t-57 -89zM645 961q193 0 285 -117.5t55 -319.5l-90 -524h-100l20 119q-191 -142 -399 -142q-156 0 -246 66
t-90 182q0 132 104 215.5t285 83.5h418q30 161 -36.5 254.5t-219.5 93.5q-127 0 -210.5 -58.5t-115.5 -174.5h-104q42 158 160 240t284 82zM438 66q209 0 393 139l41 237h-411q-135 0 -208 -56t-73 -142q0 -81 69 -129.5t189 -48.5z" />
    <glyph glyph-name="zero.osf" horiz-adv-x="1390" 
d="M807 1124q213 0 342 -129t129 -344q0 -196 -90.5 -351.5t-242.5 -240t-335 -84.5q-213 0 -342 129.5t-129 344.5q0 195 90.5 350.5t242.5 240t335 84.5zM625 68q148 0 272.5 70.5t200.5 202t76 296.5q0 179 -104 287t-275 108q-148 0 -273.5 -70.5t-201.5 -202
t-76 -296.5q0 -181 104 -288t277 -107z" />
    <glyph glyph-name="one.osf" horiz-adv-x="1028" 
d="M522 88h375l-16 -88h-889l16 88h412l162 922l-410 -142l16 95l461 163h56z" />
    <glyph glyph-name="two.osf" horiz-adv-x="1112" 
d="M469 233l-238 -145h693l-15 -88h-891l9 55l372 234q20 12 58 36q56 35 83.5 52t75.5 48.5t73 50.5t62.5 48.5t57 51t43.5 51.5t35.5 56t19.5 57t8 63q0 113 -74.5 177t-207.5 64q-151 0 -262 -82.5t-150 -220.5h-100q41 178 183 286t339 108q177 0 277 -86.5t100 -235.5
q0 -159 -138 -293q-90 -88 -312 -225q-29 -18 -101 -62z" />
    <glyph glyph-name="three.osf" horiz-adv-x="1196" 
d="M780 418q94 -37 145.5 -110.5t51.5 -174.5q0 -197 -148 -320.5t-385 -123.5q-204 0 -325 96.5t-109 253.5h101q-3 -118 88.5 -189t251.5 -71q185 0 306.5 96t121.5 246q0 115 -83 183.5t-223 68.5h-118l14 86h119q158 0 262 95.5t104 242.5q0 113 -77.5 178t-214.5 65
q-142 0 -242.5 -68t-136.5 -184h-103q41 157 174 249.5t320 92.5q178 0 279.5 -86.5t101.5 -234.5q0 -137 -74 -240t-201 -151z" />
    <glyph glyph-name="four.osf" horiz-adv-x="1318" 
d="M1137 139l-17 -90h-237l-56 -317h-98l55 317h-761l12 64l612 1011h107l-592 -985h639l82 467h98l-82 -467h238z" />
    <glyph glyph-name="five.osf" horiz-adv-x="1193" 
d="M1116 1020h-739l-109 -457h371q188 0 296.5 -96.5t108.5 -255.5q0 -141 -72 -259t-201.5 -187.5t-289.5 -69.5q-217 0 -339 104.5t-124 288.5h105q6 -143 103.5 -223t269.5 -80q191 0 319.5 120t128.5 290q0 126 -88.5 202t-243.5 76l-462 -2l153 641h827z" />
    <glyph glyph-name="six.osf" horiz-adv-x="1282" 
d="M721 922q194 0 312 -109.5t118 -288.5q0 -155 -80 -281.5t-217 -197t-301 -70.5q-195 0 -312.5 110t-117.5 288q0 109 42.5 198.5t127.5 188.5l575 633h129l-454 -498q89 27 178 27zM567 61q129 0 239 56.5t175.5 159.5t65.5 229q0 145 -93.5 235t-248.5 90
q-188 0 -322 -112l-16 -19q-140 -143 -140 -317q0 -145 93 -233.5t247 -88.5z" />
    <glyph glyph-name="seven.osf" horiz-adv-x="1028" 
d="M164 1106h944l-10 -64l-905 -1329h-125l884 1297h-805z" />
    <glyph glyph-name="eight.osf" horiz-adv-x="1296" 
d="M907 735q117 -38 180.5 -116t63.5 -185q0 -201 -167 -330t-425 -129q-207 0 -326.5 94.5t-119.5 252.5q0 152 99.5 261t270.5 154q-91 36 -140.5 103t-49.5 161q0 117 70.5 212.5t190 149.5t261.5 54q176 0 283.5 -88.5t107.5 -228.5q0 -132 -81 -227.5t-218 -137.5z
M393 1006q0 -111 84 -175.5t221 -64.5q173 0 289.5 87.5t116.5 229.5q0 110 -83 180t-220 70q-168 0 -288 -95t-120 -232zM573 63q200 0 332.5 103.5t132.5 261.5q0 120 -95.5 193t-256.5 73q-201 0 -331 -99.5t-130 -256.5q0 -125 94 -200t254 -75z" />
    <glyph glyph-name="nine.osf" horiz-adv-x="1282" 
d="M754 1108q195 0 312.5 -109.5t117.5 -287.5q0 -109 -42.5 -198.5t-127.5 -188.5l-576 -633h-129l455 497q-86 -26 -178 -26q-195 0 -312.5 109t-117.5 288q0 155 80 281.5t217 197t301 70.5zM940 383q139 142 139 317q0 145 -93 233.5t-247 88.5q-129 0 -238.5 -56.5
t-175 -159t-65.5 -228.5q0 -146 94 -236t248 -90q186 0 322 113z" />
    <glyph glyph-name="zero.osf.zero" horiz-adv-x="1390" 
d="M807 1124q213 0 342 -129t129 -344q0 -196 -90.5 -351.5t-242.5 -240t-335 -84.5q-213 0 -342 129.5t-129 344.5q0 195 90.5 350.5t242.5 240t335 84.5zM795 1032q-148 0 -273.5 -70.5t-201.5 -202t-76 -296.5q0 -111 41 -195l807 631q-104 133 -297 133zM625 68
q148 0 272.5 70.5t200.5 202t76 296.5q0 113 -41 197l-809 -631q107 -135 301 -135z" />
    <glyph glyph-name="zero.tf" horiz-adv-x="1372" 
d="M856 1417q211 0 327.5 -150.5t116.5 -406.5q0 -248 -90 -450.5t-251 -318.5t-361 -116q-212 0 -329 150.5t-117 406.5q0 186 53 349.5t145.5 281.5t224 186t281.5 68zM610 70q125 0 234 61t185 166t120 248.5t45 304.5q2 219 -90 346t-262 127q-125 0 -234 -61t-185 -166
t-120 -248.5t-45 -304.5q-2 -218 90 -345.5t262 -127.5z" />
    <glyph glyph-name="one.tf" horiz-adv-x="1372" 
d="M1128 88l-16 -88h-977l17 88h432l207 1188l-408 -141l16 94l461 164h55l-229 -1305h442z" />
    <glyph glyph-name="two.tf" horiz-adv-x="1372" 
d="M809 485l-463 -397h737l-16 -88h-907l10 55l561 480q192 164 254 230q107 113 127 223q6 34 6 71q0 121 -78.5 194.5t-220.5 73.5q-153 0 -267.5 -80.5t-152.5 -216.5h-100q43 177 187.5 282t342.5 105q184 0 290 -95.5t106 -250.5q0 -64 -15 -118.5t-41 -103t-81 -108
t-115.5 -114.5t-163.5 -142z" />
    <glyph glyph-name="three.tf" horiz-adv-x="1372" 
d="M942 705q94 -37 145.5 -110.5t51.5 -174.5q0 -197 -148 -321t-385 -124q-204 0 -325 97t-109 254h100q-3 -118 88.5 -189t251.5 -71q185 0 306.5 96t121.5 246q0 114 -82.5 182.5t-222.5 68.5h-119l15 86h119q158 0 262 95.5t104 242.5q0 113 -78 178.5t-215 65.5
q-142 0 -242.5 -68t-136.5 -184h-102q41 157 174 249.5t320 92.5q178 0 279.5 -86.5t101.5 -234.5q0 -137 -74 -240t-201 -151z" />
    <glyph glyph-name="four.tf" horiz-adv-x="1372" 
d="M1225 408l-17 -91h-237l-56 -317h-98l55 317h-761l12 64l612 1012h107l-592 -985h639l82 466h98l-82 -466h238z" />
    <glyph glyph-name="five.tf" horiz-adv-x="1372" 
d="M1255 1300h-739l-108 -456h370q188 0 297 -96.5t109 -255.5q0 -141 -72 -259.5t-201.5 -188t-289.5 -69.5q-217 0 -339 105t-124 289h104q6 -143 103.5 -223t269.5 -80q191 0 319.5 120t128.5 289q0 126 -88 202.5t-243 76.5l-463 -2l153 641h828z" />
    <glyph glyph-name="six.tf" horiz-adv-x="1372" 
d="M748 922q194 0 312 -109.5t118 -288.5q0 -155 -80 -281.5t-217 -197t-301 -70.5q-195 0 -312.5 110t-117.5 288q0 109 42 198.5t127 188.5l576 633h129l-455 -498q89 27 179 27zM594 61q129 0 238.5 56.5t175 159.5t65.5 229q0 145 -93.5 235t-248.5 90q-187 0 -321 -112
l-17 -19q-139 -142 -139 -317q0 -145 93 -233.5t247 -88.5z" />
    <glyph glyph-name="seven.tf" horiz-adv-x="1372" 
d="M383 1393h944l-10 -64l-905 -1329h-125l884 1296h-804z" />
    <glyph glyph-name="eight.tf" horiz-adv-x="1372" 
d="M946 735q117 -38 180.5 -116t63.5 -185q0 -201 -167 -330t-425 -129q-207 0 -326.5 94.5t-119.5 252.5q0 152 99.5 261t270.5 154q-91 36 -140.5 103t-49.5 161q0 117 70.5 212.5t190 149.5t261.5 54q176 0 283.5 -88.5t107.5 -228.5q0 -132 -81 -227.5t-218 -137.5z
M432 1006q0 -111 84 -175.5t221 -64.5q173 0 289.5 87.5t116.5 229.5q0 110 -83 180t-220 70q-168 0 -288 -95t-120 -232zM612 63q200 0 332.5 103.5t132.5 261.5q0 120 -95.5 193t-256.5 73q-201 0 -331 -99.5t-130 -256.5q0 -125 94 -200t254 -75z" />
    <glyph glyph-name="nine.tf" horiz-adv-x="1372" 
d="M844 1417q195 0 312.5 -109.5t117.5 -287.5q0 -109 -42.5 -198.5t-127.5 -188.5l-576 -633h-129l455 498q-89 -27 -178 -27q-195 0 -312.5 109t-117.5 288q0 155 80 281.5t217 197t301 70.5zM1030 692q139 142 139 318q0 145 -93 233t-247 88q-129 0 -238.5 -56.5
t-175 -159t-65.5 -228.5q0 -146 94 -236t248 -90q186 0 322 113z" />
    <glyph glyph-name="zero.zero" horiz-adv-x="1466" 
d="M903 1417q231 0 355 -151.5t124 -413.5q0 -184 -53.5 -345.5t-148.5 -278.5t-233.5 -185t-301.5 -68q-230 0 -355.5 153t-125.5 413q0 185 53.5 346t149 278t234.5 184.5t302 67.5zM885 1323q-138 0 -254 -60t-194.5 -164.5t-122.5 -246.5t-44 -305q0 -125 35 -225
l889 847q-104 154 -309 154zM662 70q183 0 324 103.5t215.5 279.5t74.5 395q0 142 -45 254l-893 -856q105 -176 324 -176z" />
    <glyph glyph-name="zero.dnom" horiz-adv-x="880" 
d="M496 778q137 0 211.5 -88t74.5 -229q0 -130 -52.5 -238.5t-150.5 -173.5t-223 -65q-136 0 -211 89t-75 230q0 198 120.5 336.5t305.5 138.5zM369 59q96 0 172 55t115.5 143.5t39.5 191.5q0 112 -55.5 184t-157.5 72q-144 0 -235.5 -116t-91.5 -274q0 -113 55.5 -184.5
t157.5 -71.5z" />
    <glyph glyph-name="one.dnom" horiz-adv-x="616" 
d="M293 72h213l-12 -72h-523l13 72h229l106 600l-227 -72l12 74l269 88h43z" />
    <glyph glyph-name="two.dnom" horiz-adv-x="731" 
d="M408 266l-234 -194h389l-12 -72h-531l9 45l315 262q65 53 93.5 77.5t61 60t43.5 64.5t11 64q0 59 -41 96.5t-111 37.5q-79 0 -133 -41.5t-73 -112.5h-82q25 103 103.5 164t193.5 61q107 0 167 -53.5t60 -136.5q0 -79 -49 -145.5t-180 -176.5z" />
    <glyph glyph-name="three.dnom" horiz-adv-x="753" 
d="M485 385q115 -42 115 -158q0 -105 -85 -173t-220 -68q-122 0 -192 55t-66 147h84q0 -59 46.5 -94t131.5 -35q96 0 158.5 46.5t62.5 119.5q0 57 -44.5 90t-121.5 33l11 51l2 19q82 0 137 47t55 117q0 56 -40.5 89.5t-112.5 33.5q-74 0 -126 -34.5t-71 -92.5h-82
q26 91 104.5 145.5t186.5 54.5q103 0 161 -50.5t58 -133.5q0 -75 -40 -129.5t-112 -79.5zM301 418h66l-13 -70h-67z" />
    <glyph glyph-name="four.dnom" horiz-adv-x="811" 
d="M680 242l-14 -76h-129l-29 -166h-80l29 166h-434l10 53l340 543h86l-322 -520h332l43 243h80l-43 -243h131z" />
    <glyph glyph-name="five.dnom" horiz-adv-x="763" 
d="M662 688h-418l-54 -291h-75l63 365h496zM545 260q0 63 -46 101t-128 38l-181 -2l15 74h182q113 0 175.5 -54t62.5 -145q0 -120 -92.5 -204t-233.5 -84q-115 0 -182.5 59.5t-69.5 161.5h84q3 -69 52.5 -109.5t127.5 -40.5q100 0 167 60t67 145z" />
    <glyph glyph-name="six.dnom" horiz-adv-x="749" 
d="M379 510q113 0 181.5 -61t68.5 -160q0 -128 -100.5 -216.5t-243.5 -88.5q-114 0 -183 63.5t-69 161.5q0 60 23.5 108.5t74.5 106.5l311 338h101l-236 -260q31 8 72 8zM297 53q101 0 174.5 63t73.5 156q0 73 -50 118.5t-130 45.5q-107 0 -168 -55l-9 -8q-73 -67 -73 -156
q0 -73 50 -118.5t132 -45.5z" />
    <glyph glyph-name="seven.dnom" horiz-adv-x="622" 
d="M96 762h547l-10 -51l-496 -711h-96l479 684h-438z" />
    <glyph glyph-name="eight.dnom" horiz-adv-x="790" 
d="M526 401q58 -24 89.5 -65t31.5 -96q0 -111 -95.5 -183.5t-246.5 -72.5q-121 0 -191.5 53.5t-70.5 140.5q0 79 52 139.5t141 88.5q-45 21 -70 56.5t-25 82.5q0 99 88.5 166t214.5 67q105 0 169.5 -50.5t64.5 -129.5q0 -67 -41 -118.5t-111 -78.5zM434 713q-85 0 -147 -48
t-62 -116q0 -58 43.5 -90.5t116.5 -32.5q89 0 149 44.5t60 115.5q0 55 -44.5 91t-115.5 36zM317 55q103 0 170.5 51.5t67.5 129.5q0 60 -48.5 96.5t-133.5 36.5q-102 0 -169 -49.5t-67 -126.5q0 -62 48 -100t132 -38z" />
    <glyph glyph-name="nine.dnom" horiz-adv-x="749" 
d="M465 780q114 0 183 -63.5t69 -161.5q0 -59 -24 -107.5t-75 -107.5l-311 -338h-100l235 260q-31 -8 -71 -8q-113 0 -181.5 61t-68.5 160q0 128 100.5 216.5t243.5 88.5zM561 391q74 68 74 156q0 73 -50 118.5t-132 45.5q-101 0 -174.5 -63t-73.5 -156q0 -73 50 -118.5
t130 -45.5q107 0 168 55z" />
    <glyph glyph-name="zero.numr" horiz-adv-x="880" 
d="M608 1413q137 0 212 -88t75 -229q0 -130 -52.5 -238.5t-150.5 -174t-223 -65.5q-136 0 -211.5 89.5t-75.5 230.5q0 198 120.5 336.5t305.5 138.5zM481 694q145 0 236.5 115t91.5 274q0 112 -55.5 184t-157.5 72q-96 0 -172.5 -55t-116 -143.5t-39.5 -190.5
q0 -113 55.5 -184.5t157.5 -71.5z" />
    <glyph glyph-name="one.numr" horiz-adv-x="616" 
d="M406 707h212l-12 -72h-522l12 72h230l106 600l-227 -72l12 74l268 88h43z" />
    <glyph glyph-name="two.numr" horiz-adv-x="731" 
d="M520 901l-233 -194h389l-12 -72h-531l8 45l316 262q65 53 93.5 77.5t61 60t43.5 64.5t11 64q0 58 -41 95.5t-111 37.5q-79 0 -133.5 -41t-73.5 -112h-82q25 103 103.5 164t193.5 61q107 0 167.5 -53.5t60.5 -136.5q0 -79 -49 -145t-181 -177z" />
    <glyph glyph-name="three.numr" horiz-adv-x="753" 
d="M598 1028q115 -42 115 -158q0 -105 -85 -173t-220 -68q-122 0 -192 55t-66 147h83q0 -59 47 -94t132 -35q96 0 158.5 46.5t62.5 119.5q0 57 -44.5 90t-121.5 33l10 51l2 19q82 0 137.5 47t55.5 117q0 56 -40.5 89.5t-113.5 33.5q-74 0 -125.5 -34.5t-70.5 -92.5h-82
q26 91 104 145.5t186 54.5q103 0 161.5 -50.5t58.5 -133.5q0 -75 -40 -129.5t-112 -79.5zM414 1061h65l-12 -70h-68z" />
    <glyph glyph-name="four.numr" horiz-adv-x="811" 
d="M793 877l-15 -76h-129l-28 -166h-80l28 166h-434l10 53l340 543h86l-321 -520h332l43 243h80l-43 -243h131z" />
    <glyph glyph-name="five.numr" horiz-adv-x="763" 
d="M774 1323h-418l-53 -291h-76l64 365h495zM657 895q0 63 -46 101t-128 38l-180 -2l14 74h183q113 0 175 -54t62 -145q0 -120 -92.5 -204.5t-232.5 -84.5q-115 0 -182.5 60t-69.5 162h84q3 -69 52.5 -109.5t127.5 -40.5q100 0 166.5 60t66.5 145z" />
    <glyph glyph-name="six.numr" horiz-adv-x="749" 
d="M492 1145q113 0 181 -61t68 -160q0 -128 -100.5 -217t-243.5 -89q-114 0 -183 64t-69 162q0 59 24 107.5t75 107.5l311 338h100l-235 -260q31 8 72 8zM410 688q100 0 173.5 63t73.5 156q0 73 -50 118.5t-130 45.5q-107 0 -168 -55l-8 -8q-74 -68 -74 -156
q0 -73 50 -118.5t133 -45.5z" />
    <glyph glyph-name="seven.numr" horiz-adv-x="622" 
d="M209 1397h547l-11 -51l-495 -711h-96l479 684h-438z" />
    <glyph glyph-name="eight.numr" horiz-adv-x="790" 
d="M639 1044q58 -24 89.5 -65t31.5 -96q0 -111 -95.5 -183.5t-246.5 -72.5q-121 0 -191.5 53.5t-70.5 140.5q0 79 51.5 139.5t140.5 88.5q-94 43 -94 139q0 99 88.5 166t214.5 67q105 0 169.5 -50.5t64.5 -129.5q0 -67 -41 -118.5t-111 -78.5zM547 1356q-85 0 -147 -48
t-62 -116q0 -58 43.5 -90.5t116.5 -32.5q89 0 149 44.5t60 115.5q0 55 -44.5 91t-115.5 36zM430 698q103 0 170.5 51.5t67.5 129.5q0 60 -49 96.5t-134 36.5q-102 0 -168.5 -49.5t-66.5 -126.5q0 -62 48 -100t132 -38z" />
    <glyph glyph-name="nine.numr" horiz-adv-x="749" 
d="M578 1423q114 0 182.5 -63.5t68.5 -161.5q0 -60 -23.5 -108.5t-74.5 -106.5l-311 -338h-101l236 260q-31 -8 -72 -8q-113 0 -181.5 61t-68.5 160q0 128 101 216.5t244 88.5zM674 1034q74 68 74 156q0 73 -50 118.5t-133 45.5q-101 0 -174.5 -63t-73.5 -156
q0 -73 50.5 -118.5t130.5 -45.5q107 0 168 55z" />
    <glyph glyph-name="backslash.case" horiz-adv-x="718" 
d="M573 -96l-489 1591h104l488 -1591h-103z" />
    <glyph glyph-name="periodcentered.case" horiz-adv-x="335" 
d="M207 614q-32 0 -54 21.5t-22 52.5q0 32 22 54t54 22t54 -22t22 -54q0 -31 -22 -52.5t-54 -21.5z" />
    <glyph glyph-name="bullet.case" horiz-adv-x="638" 
d="M360 461q-89 0 -154 65.5t-65 153.5t65 153.5t154 65.5t155.5 -65.5t66.5 -153.5t-66.5 -153.5t-155.5 -65.5z" />
    <glyph glyph-name="exclamdown.case" horiz-adv-x="526" 
d="M416 1409q32 0 54 -22t22 -54t-21.5 -52.5t-54.5 -20.5t-54.5 20.5t-21.5 52.5t22 54t54 22zM127 0l188 1034h95l-179 -1034h-104z" />
    <glyph glyph-name="questiondown.case" horiz-adv-x="1189" 
d="M782 1260q-31 0 -53 20.5t-22 52.5t22 54t53 22q32 0 54 -22t22 -54t-21.5 -52.5t-54.5 -20.5zM514 -29q-175 0 -280 102.5t-105 262.5q0 127 67 234t185 171.5t262 67.5l41 211h82l-39 -287h-72q-176 0 -301 -114t-125 -271q0 -124 81.5 -205.5t215.5 -81.5
q117 0 221 68.5t148 179.5h100q-53 -153 -187 -245.5t-294 -92.5z" />
    <glyph glyph-name="slash.case" horiz-adv-x="759" 
d="M74 -96h-103l766 1591h105z" />
    <glyph glyph-name="braceleft.case" horiz-adv-x="731" 
d="M492 1001q-24 -129 -69 -198t-130 -98q74 -29 96 -100t-2 -195l-31 -177q-20 -114 27.5 -183.5t146.5 -69.5l-16 -97q-143 0 -214.5 96t-43.5 254l31 175q26 140 -13.5 195.5t-160.5 55.5l14 91q121 0 181 56.5t85 197.5l29 172q29 158 133.5 254t247.5 96l-17 -96
q-96 0 -170.5 -74t-93.5 -180z" />
    <glyph glyph-name="braceright.case" horiz-adv-x="729" 
d="M324 408q24 129 69 198.5t129 98.5q-74 29 -96 99.5t2 194.5l31 177q20 114 -27.5 184t-146.5 70l16 96q143 0 214.5 -96t43.5 -254l-31 -175q-26 -140 13.5 -195.5t160.5 -55.5l-14 -91q-121 0 -181.5 -56t-84.5 -197l-29 -173q-29 -158 -133.5 -254t-247.5 -96l17 97
q96 0 170.5 74t93.5 179z" />
    <glyph glyph-name="bracketleft.case" horiz-adv-x="724" 
d="M477 1401l-246 -1405h277l-19 -96h-376l282 1595h377l-18 -94h-277z" />
    <glyph glyph-name="bracketright.case" horiz-adv-x="722" 
d="M328 -6l245 1405h-276l18 96h377l-282 -1595h-377l18 94h277z" />
    <glyph glyph-name="parenleft.case" horiz-adv-x="739" 
d="M760 1417q-210 -161 -325 -330.5t-159 -406.5q-45 -215 13 -392.5t213 -332.5l-76 -68q-171 157 -236 363t-18 440q47 255 177.5 447.5t359.5 351.5z" />
    <glyph glyph-name="parenright.case" horiz-adv-x="737" 
d="M389 1489q171 -157 236 -363t18 -440q-47 -255 -177.5 -447.5t-359.5 -351.5l-51 72q210 161 325 330.5t159 406.5q45 215 -13 392.5t-213 332.5z" />
    <glyph glyph-name="emdash.case" horiz-adv-x="2000" 
d="M266 649h1528l18 88h-1527z" />
    <glyph glyph-name="endash.case" horiz-adv-x="1492" 
d="M266 649h1018l19 88h-1018z" />
    <glyph glyph-name="hyphen.case" horiz-adv-x="1134" 
d="M266 647h662l18 92h-661z" />
    <glyph glyph-name="guillemotleft.case" horiz-adv-x="856" 
d="M401 997h105l-289 -307l182 -293h-104l-182 299zM713 997h104l-289 -307l183 -293h-105l-182 299z" />
    <glyph glyph-name="guillemotright.case" horiz-adv-x="856" 
d="M223 395h-104l289 307l-183 293h105l182 -299zM537 395h-105l289 307l-182 293h104l182 -299z" />
    <glyph glyph-name="guilsinglleft.case" horiz-adv-x="542" 
d="M401 997h105l-289 -307l182 -293h-104l-182 299z" />
    <glyph glyph-name="guilsinglright.case" horiz-adv-x="542" 
d="M219 395h-104l288 307l-182 293h105l182 -299z" />
    <glyph glyph-name="cent.tf" horiz-adv-x="1372" 
d="M629 68q124 0 223 62t143 167h103q-54 -141 -180.5 -228.5t-284.5 -93.5l-43 -247h-94l45 252q-182 25 -272 160t-56 327q34 190 174 326t328 161l47 273h92l-47 -269q157 -6 252 -92.5t100 -226.5h-104q-8 105 -84.5 167t-200.5 62q-170 0 -298 -115t-159 -286
q-30 -170 57.5 -284.5t258.5 -114.5z" />
    <glyph glyph-name="dollar.tf" horiz-adv-x="1372" 
d="M862 1419q208 -8 330 -110.5t115 -278.5h-103q-2 139 -100.5 219t-280.5 80q-193 0 -310.5 -88t-117.5 -223q0 -94 67.5 -151.5t203.5 -84.5l188 -39q184 -36 266 -116t82 -217q0 -194 -155.5 -315.5t-415.5 -121.5h-23l-45 -249h-92l45 256q-199 26 -301 144.5
t-92 315.5h102q-6 -372 426 -372q207 0 325 87t118 228q0 103 -61.5 168t-215.5 96l-209 41q-327 67 -321 322q3 168 136 279t345 128l47 266h94z" />
    <glyph glyph-name="Euro.tf" horiz-adv-x="1372" 
d="M954 1423q161 0 267 -70.5t143 -199.5h-119q-32 84 -112.5 130t-196.5 46q-202 0 -349.5 -124.5t-215.5 -334.5h684l-35 -77h-672q-23 -103 -26 -230h600l-33 -78h-565q14 -196 113.5 -309t275.5 -113q102 0 189.5 37t146.5 105h127q-80 -112 -204.5 -174t-273.5 -62
q-219 0 -344 140t-137 376h-119l13 78h104q3 122 27 230h-90l14 77h96q78 252 261 402.5t431 150.5z" />
    <glyph glyph-name="florin.tf" horiz-adv-x="1372" 
d="M1167 1403q85 0 179 -27l-31 -86q-89 21 -150 21q-99 0 -167 -64t-103 -176l-100 -326h348l-15 -86h-360l-147 -485q-47 -155 -142.5 -243.5t-232.5 -88.5q-81 0 -180 27l32 86q89 -21 150 -21q99 0 167 64t103 176l148 485h-267l17 86h276l101 326q49 155 143.5 243.5
t230.5 88.5z" />
    <glyph glyph-name="uni20B9.tf" horiz-adv-x="1372" 
d="M1333 1393l-14 -84h-442q141 -99 141 -283v-27h246l-17 -84h-241q-42 -182 -210.5 -285.5t-406.5 -103.5h-24l536 -526h-147l-537 526l16 95h199q181 0 307.5 78.5t161.5 215.5h-598l16 84h594v15q0 133 -97 208.5t-265 75.5h-197l15 95h964z" />
    <glyph glyph-name="sterling.tf" horiz-adv-x="1372" 
d="M934 1423q194 0 300.5 -108t94.5 -289h-102q8 140 -75.5 223.5t-233.5 83.5q-167 0 -286.5 -101.5t-148.5 -268.5l-51 -287h518l-16 -90h-518l-86 -496h823l-16 -90h-1090l19 90h163l86 496h-163l16 90h164l49 287q37 207 189 333.5t364 126.5z" />
    <glyph glyph-name="yen.tf" horiz-adv-x="1372" 
d="M1386 1393l-636 -879h383l-15 -82h-383l-28 -151h385l-13 -80h-387l-35 -201h-104l35 201h-385l12 80h387l29 151h-387l14 82h383l-330 879h117l287 -777l557 777h114z" />
    <glyph glyph-name="arrowup.ss05" horiz-adv-x="1138" 
d="M375 1206l497 -495l-497 -498l-64 63l434 435l-434 434z" />
    <glyph glyph-name="arrowright.ss05" horiz-adv-x="1169" 
d="M827 1145l-434 -434l434 -435l-63 -63l-498 498l498 495z" />
    <glyph glyph-name="arrowdown.ss05" horiz-adv-x="1392" 
d="M1130 901l64 -63l-498 -498l-495 498l61 63l434 -434z" />
    <glyph glyph-name="arrowleft.ss05" horiz-adv-x="1392" 
d="M1194 418l-64 -64l-434 434l-434 -434l-61 64l495 497z" />
    <glyph glyph-name="at.case" horiz-adv-x="1959" 
d="M1153 1446q153 0 286 -53t226 -145t146 -219t53 -271q0 -82 -16 -160t-50 -146t-81 -119t-114 -80.5t-145 -29.5q-171 0 -201 142q-146 -152 -339 -152q-146 0 -238 94t-92 242q0 128 66.5 234.5t173.5 165.5t229 59q171 0 264 -121l16 88h93l-78 -432q-21 -118 6.5 -179
t114.5 -61q92 0 163 60t107.5 159t36.5 219q0 173 -81.5 316.5t-228.5 227t-329 83.5q-168 0 -332 -67.5t-289.5 -180t-202.5 -270.5t-77 -328q0 -179 82 -324.5t228 -229t327 -83.5q134 0 268 45t250 129l37 -69q-266 -185 -568 -185q-152 0 -284.5 53t-226.5 146
t-147.5 223t-53.5 279q0 129 39 252.5t107 226t163 189t205.5 146.5t235.5 93t251 33zM944 297q175 0 307 156q2 38 13 104l39 223q-38 70 -102 108t-144 38q-148 0 -261.5 -104t-113.5 -261q0 -118 74 -191t188 -73z" />
    <glyph glyph-name="bar.case" horiz-adv-x="522" 
d="M393 1495h96l-280 -1591h-96z" />
    <glyph glyph-name="brokenbar.case" horiz-adv-x="522" 
d="M489 1495l-120 -692h-97l121 692h96zM332 594l-123 -690h-96l123 690h96z" />
    <glyph glyph-name="registered.ss07" horiz-adv-x="1775" 
d="M922 1423q150 0 287 -55.5t238 -151.5t160.5 -231.5t59.5 -288.5t-59.5 -288.5t-160.5 -231.5t-238 -151.5t-287 -55.5q-201 0 -372 94t-272.5 262t-101.5 371t101.5 371t272.5 262t372 94zM922 43q177 0 330.5 85.5t246 236.5t92.5 331q0 181 -92.5 332.5t-246 236.5
t-330.5 85q-133 0 -255 -50.5t-212.5 -137t-144.5 -208.5t-54 -258q0 -180 91.5 -331t244.5 -236.5t330 -85.5zM1239 840q0 -96 -63.5 -159.5t-171.5 -78.5l256 -283h-91l-251 279h-181v-279h-69v766h272q134 0 216.5 -67.5t82.5 -177.5zM737 1020v-358h203q103 0 165 48.5
t62 129.5q0 80 -62.5 130t-164.5 50h-203z" />
    <glyph glyph-name="caron.alt" 
d="M588 1393h102l-110 -365h-80z" />
    <glyph glyph-name="acute.case" 
d="M807 1821h113l-238 -287h-96z" />
    <glyph glyph-name="breve.case" 
d="M973 1823q-22 -128 -116.5 -199.5t-209.5 -71.5q-117 0 -188 71.5t-49 199.5h79q-16 -96 34.5 -146.5t129.5 -50.5q48 0 95.5 19.5t88 66t52.5 111.5h84z" />
    <glyph glyph-name="caron.case" 
d="M956 1825h109l-307 -289h-117l-205 289h99l172 -230z" />
    <glyph glyph-name="circumflex.case" 
d="M866 1536l-168 229l-249 -229h-113l309 289h119l203 -289h-101z" />
    <glyph glyph-name="dieresis.case" 
d="M479 1733q32 0 55 -22t23 -54t-23 -54t-55 -22q-34 0 -56 22t-22 54t22 54t56 22zM838 1733q34 0 55.5 -21.5t21.5 -54.5t-21.5 -54.5t-55.5 -21.5q-32 0 -55 22t-23 54t23 54t55 22z" />
    <glyph glyph-name="dotaccent.case" 
d="M662 1579q-34 0 -57 23t-23 55q0 34 23 56t57 22q33 0 56 -22.5t23 -55.5q0 -32 -23.5 -55t-55.5 -23z" />
    <glyph glyph-name="grave.case" 
d="M549 1821l172 -287h-98l-187 287h113z" />
    <glyph glyph-name="hungarumlaut.case" 
d="M588 1821h104l-172 -287h-92zM854 1821h107l-175 -287h-92z" />
    <glyph glyph-name="macron.case" 
d="M373 1651h567l-14 -76h-568z" />
    <glyph glyph-name="ring.case" 
d="M657 1939q83 0 138 -53t55 -135q0 -81 -54.5 -133.5t-138.5 -52.5q-85 0 -139.5 52t-54.5 134t54.5 135t139.5 53zM657 1626q54 0 89.5 35.5t35.5 89.5q0 53 -36 90t-89 37q-54 0 -90.5 -37t-36.5 -90q0 -54 36.5 -89.5t90.5 -35.5z" />
    <glyph glyph-name="tilde.case" 
d="M942 1776q1 -63 -25 -106t-66.5 -58t-89 -8t-93.5 36l-74 48q-60 43 -117 23t-57 -89h-74q-1 62 27.5 103t71 54t90 7t86.5 -31l73 -47q68 -45 121 -24.5t53 92.5h74z" />
    </font>
</defs>
</svg>
